<svg xmlns="http://www.w3.org/2000/svg" viewBox="0 0 32 32"><path fill="#E9C465" d="M9.6 22.3c1.5 1.5 1.9 3.9.5 5.4-1.5 1.5-6 3.1-7.5 1.7-1.5-1.5.2-6 1.7-7.5 1.5-1.4 3.8-1.1 5.3.4z"/><path fill="#D65E53" d="M23.4 19c2.3 4.7-3.2 15.5-5.8 12.5-1-1.2-1-3.2-3.7-5.8 0 0 1 .2 2.1-.9 2.8-2 7.4-5.8 7.4-5.8zM14 8.6C9 6.3-2.7 11.8.6 14.3c1.4 1 3.5 1 6.3 3.7 0 0-.2-1 .9-2.1C10 13.2 14 8.6 14 8.6z"/><path fill="#C6574E" d="M11.8 8h-.2c-1.1 1.4-3.8 4.7-5.5 6.8-.7.7-.9 1.4-.9 1.8.3.2.7.5 1 .8.1-.4.3-1 .9-1.6 2.1-2.7 5.9-7.4 6-7.4-.5-.1-.9-.3-1.3-.4zm11.7 11.1c-.7.6-4.8 4-7.3 5.9-.8.8-1.5.9-1.9.9.4.4.7.7.9 1 .3 0 1.1-.1 2-.9 2.1-1.6 5.3-4.3 6.7-5.4-.1-.5-.2-1.1-.4-1.5z"/><path fill="#D2B159" d="M6.1 21c.2.9.8 2 1.8 3s2.1 1.6 3 1.8c.2-1.3-.4-2.6-1.3-3.6-.9-.8-2.3-1.3-3.5-1.2z"/><path fill="#FFF" d="M31.8.2c.8.7-.4 11.3-7.6 18.4-4.5 4.4-7.4 6.2-8.1 6.8-2 .9-3.3 1.4-7.1-2.5C5.1 19 5.8 18 6.7 16.1c.6-.7 2.4-3.7 6.9-8.1C20.8.8 31-.5 31.8.2z"/><path fill="#354C5A" d="M22.8 9.2c1.6 1.6 1.6 4.1 0 5.6-1.6 1.6-4.1 1.6-5.6 0-1.6-1.6-1.6-4.1 0-5.6 1.5-1.6 4.1-1.6 5.6 0z"/><path fill="#CCD0D2" d="M21.4 10.6c.8.8.8 2 0 2.8-.8.8-2.1.8-2.8 0-.8-.8-.8-2 0-2.8.8-.8 2-.8 2.8 0z"/></svg>