<svg xmlns="http://www.w3.org/2000/svg" viewBox="0 0 32 32"><path fill="#489FC2" d="M.8 18.1l13.1 13.1c1.1 1.1 2.8 1.1 3.8 0l12.9-12.7c1.4-1.4 1.4-4.3 1.4-5V2.7C32 1.2 30.9 0 29.4 0H18c-1.8 0-3.2.4-4.5 1.8L.8 14.3c-1.1 1.1-1.1 2.8 0 3.8z"/><path fill="#486F87" d="M25.5 9C24.1 9 23 7.9 23 6.5S24.1 4 25.5 4 28 5.1 28 6.5 26.9 9 25.5 9z"/><path fill="#94CDDF" d="M18.1 8.3c-.4-.4-1-.4-1.4 0l-8.4 8.4c-.4.4-.4 1 0 1.4.4.4 1 .4 1.4 0l8.4-8.4c.4-.4.4-1 0-1.4zm2.8 2.8c-.4-.4-1-.4-1.4 0l-8.4 8.4c-.4.4-.4 1 0 1.4.4.4 1 .4 1.4 0l8.4-8.4c.4-.4.4-1 0-1.4zm2.8 2.8c-.4-.4-1-.4-1.4 0l-8.4 8.4c-.4.4-.4 1 0 1.4.4.4 1 .4 1.4 0l8.4-8.4c.4-.4.4-1 0-1.4z"/><path fill="#FFF" d="M25.5 5c.8 0 1.5.7 1.5 1.5S26.3 8 25.5 8 24 7.3 24 6.5 24.7 5 25.5 5z"/></svg>