<svg xmlns="http://www.w3.org/2000/svg" viewBox="0 0 357.6 297.9"><ellipse fill="#ACACAC" cx="126.1" cy="273.7" rx="126.1" ry="24.2"/><path fill="#371800" d="M357.5 109.2c-.8-21.2-9.2-36.3-23.7-42.4-6.5-2.7-12.6-4.1-18.2-4.1-7.9 0-15 2.8-21.1 8.2l-.2.2c-.4.4-.9.8-1.3 1.3l-.2.2-1.4 1.4-.1.1c-.4.4-.8.9-1.2 1.4l-.3.4c-.4.5-.8 1-1.2 1.6l-.1.1c-.8 1.1-1.6 2.2-2.4 3.5l-.2.4c-.7 1.2-1.4 2.4-2.1 3.7l-.1.2c-2.2 4.1-4.2 8.7-6.3 14.2-.5 1.3-.9 2.6-1.4 3.9v.1c-3.9 11.4-7.1 24.2-10.4 37.8-1.3 5-2.5 10.3-3.9 15.4 0 .1-.1.2-.1.3-.6 2.4-1.4 4.8-2.3 7.4l-.1.3c-.8 2.1-1.7 4.2-2.8 6.4l-.3.6c-1 2-2.1 3.9-3.2 5.7l-.3.5c-1.2 1.9-2.4 3.7-3.7 5.3-6.6 8.6-15.3 15.7-25.7 21.2-1.6.8-3.2 1.6-4.8 2.3-.4-16.4-1.5-36.6-4.6-54.9h1.6c14.9 0 18-5.8 18-10.7 0-11.1-20.2-22.4-30.2-26.3-.8-5.3-.3-18.3.1-28.2.7-18.8 1.5-39.8-1.9-52.2 3.8-5.3 9-14.5 7.7-22.5-.6-4-2.7-7.3-6.1-9.5-2.3-1.6-4.8-2.3-7.4-2.3-9.1 0-16.1 9.6-20.7 19.1-8.2-.7-18.9-1-31.9-1-22.2 0-48.9 1-66.7 2.6-1.9-14.7-8.5-18-14-18-1.3 0-2.6.2-4 .6-3.9 1.2-6.7 3.7-8.3 7.2-2.5 5.5-1.7 13.1 2.3 22.6-.6 3.5-1.3 8.2-2.1 14C47.4 66.7 43.3 95.8 36 116c-.7 1.3-2.6 4.7-4.9 9.9-23 11.3-25.7 19-25.7 23.9 0 1.9.7 11.2 14.3 11.2h.2c-2.7 14.2-3.3 28-1.7 41.2 2.5 20.5 7.1 34.6 10.5 45 4.2 13 4.2 14.6 2.1 15.9-5.1 3.2-7.2 6.7-6.1 10.6 1.1 4 5 6 11.5 6 5.3 0 13.1-1.3 18-4.1 3-1.8 5-3.8 6.6-5.5 2.9-3 5.2-5.4 15.7-6.2 6.3-.5 21.1-.8 37.8-.8 38.9 0 63.7 1.6 69.2 3.2.6.8 1.2 1.7 1.8 2.6 2.7 4.1 6.4 9.7 15.7 10.5 1.3.1 2.7.2 4.2.2 7.9 0 14.8-1.7 15.1-1.8 2.6-.7 4.6-3 4.7-5.7 0-2.7-1.6-5-4.2-5.8-1.1-.4-4.1-2.2-3.6-7.7.2-1.6.4-4.9.6-9.5 2.3.1 4.7.2 7.1.2 1.7 0 3.4 0 5.2-.1h.1c1.2-.1 2.5-.1 4.1-.3h.7c14.9-1.3 30.1-5.2 45.2-11.9 1.8-.8 3.6-1.6 5.3-2.5l.2-.1c1.9-.9 3.8-1.9 5.6-2.8 1.5-.8 3.1-1.7 4.9-2.8.4-.3.9-.5 1.3-.8l.4-.2c1.1-.7 2.1-1.4 3.1-2.1.6-.5 1.3-.9 1.9-1.4.9-.7 1.7-1.3 2.6-2l.5-.4c.5-.4 1-.8 1.5-1.3.4-.4.9-.8 1.3-1.2l.5-.5c1.6-1.5 3.3-3 4.9-4.6l.4-.4.7-.7c.9-.9 1.8-1.9 2.9-3.1.3-.3.6-.6.8-1 1.2-1.3 2.1-2.4 3-3.5.1-.1.2-.2.3-.4 11-13.4 20.1-29.8 26.5-47.4 2.3-6.2 4.1-12.5 5.5-18.7v-.1c.5-2 .9-4.1 1.2-6.1v-.1c.4-2 .7-4 .9-6v-.2c.3-2 .5-3.9.6-5.8v-.3c.2-2 .3-3.9.3-5.7v-.1c.3-1.8.3-3.7.2-5.5z"/><path fill="#85B083" d="M351.5 109.4c-.6-17.5-6.8-31.5-20-37.1-17.8-7.5-29.5-2.9-38.1 8.7 1.6-2.1 3.2-4 5-5.6 17.1 6.5 36.8 17 53.1 34zm-97.9 77.5c-8.3 10.8-18.5 18-27.7 22.8 3 8.5 6.7 20.8 8.2 33.1-1.5.1-2.9.2-4.3.3 13.1-.6 29.3-3.6 47.8-11.7-2.2-12-8.2-32.9-24-44.5zm63.8 14.7c-.9 1.1-1.9 2.2-2.8 3.3 16.4-18.6 28.5-43.7 33.9-67.2-1.4 5.9-3.1 12-5.3 18-14.4-17-37.9-41.1-61.5-50.2-5.3 15.5-9.4 34.2-14.2 52.9 0 .1-.1.2-.1.3 16.5 7.7 40.2 22 50 42.9z"/><path fill="#B6B484" d="M311.1 208.8c.9-1 1.8-1.9 2.7-2.9-.9.9-1.8 1.9-2.7 2.9zm-1.1 1c-1.5 1.5-3 3-4.6 4.4 1.6-1.4 3.1-2.9 4.6-4.4zm-97.9 32.6c4.9.6 10.9 1 17.7.7-6.9.3-12.8-.1-17.7-.7zm91.6-26.7c-.6.6-1.3 1.1-2 1.6.7-.5 1.3-1 2-1.6zM289.1 87.8c.6-1.1 1.3-2.2 1.9-3.3-.6 1.1-1.3 2.2-1.9 3.3zm2.1-3.6c.7-1.1 1.4-2.2 2.2-3.2-.7 1-1.5 2.1-2.2 3.2zm-29.8 90.3c.1-.2.2-.5.3-.7-.1.3-.2.5-.3.7zm3.3-7.6c0-.1.1-.3.1-.4 0 .2 0 .3-.1.4zm-7.1 14.3c.1-.2.2-.3.3-.5-.1.2-.2.3-.3.5zm24.1-75.7c2.2-6.4 4.6-12.3 7.3-17.3-2.8 5-5.1 10.8-7.3 17.3zm12.9 117.1c-.5.3-1 .7-1.5 1 .5-.4 1-.7 1.5-1zm4.7-3.3c-.6.5-1.2.9-1.8 1.3.6-.4 1.2-.9 1.8-1.3zm-10.8 6.9c-1.8 1-3.6 1.9-5.4 2.7 1.8-.8 3.6-1.8 5.4-2.7zm-5.7 2.8c-1.7.8-3.5 1.6-5.2 2.4 1.8-.8 3.5-1.5 5.2-2.4z"/><path fill="#58361A" d="M343.2 155.7c2.2-6 4-12 5.3-18 .4-2 .8-3.9 1.2-5.8v-.1l.9-5.7v-.2c.2-1.9.4-3.7.6-5.5v-.2c.1-1.8.2-3.6.3-5.3v-5.3c-16.3-17-36-27.6-53.1-34-1.8 1.6-3.5 3.5-5 5.6-.7 1-1.5 2.1-2.2 3.2-.1.1-.1.2-.2.4-.7 1.1-1.3 2.2-1.9 3.3-.1.1-.1.2-.2.3-2.7 5.1-5.1 10.9-7.3 17.3 23.7 8.9 47.2 33 61.6 50zm-117.3 54c-5 2.6-9.6 4.5-13.5 5.8.1 10.3-.1 19.5-.4 26.8 4.9.6 10.9 1 17.7.7h.1c1.4-.1 2.8-.2 4.3-.3-1.5-12.1-5.2-24.4-8.2-33zm88.7-4.8c1-1.1 1.9-2.2 2.8-3.3-9.8-20.9-33.6-35.2-50-43-.7 2.8-1.6 5.4-2.5 7.9 0 .1-.1.3-.1.4-.9 2.4-1.9 4.7-3 6.9-.1.2-.2.5-.3.7-1.1 2.2-2.2 4.2-3.5 6.2-.1.2-.2.3-.3.5-1.3 2-2.6 3.9-4 5.7 15.8 11.6 21.8 32.5 24.1 44.5 1.7-.7 3.4-1.5 5.2-2.4.1 0 .2-.1.2-.1l5.4-2.7c1.5-.8 3.1-1.7 4.6-2.6.5-.3 1-.7 1.5-1 1-.6 1.9-1.3 2.9-2 .6-.4 1.2-.9 1.8-1.3.8-.6 1.6-1.3 2.4-1.9.7-.5 1.3-1 2-1.6.6-.5 1.2-1 1.8-1.6 1.6-1.4 3.1-2.9 4.6-4.4l1-1c.9-1 1.8-1.9 2.7-2.9.2-.4.4-.7.7-1z"/><path fill="#85B083" d="M212.4 215.6c-.2-21.9-1.5-48.3-6-70.2-5.4-.6-9.7-1.4-9.7-1.4l-1.9-24.8c.6-.3 1.8-.1 3.4.3 0-.1-.1-.1-.1-.2-4.6-9.5 4-67.2-3.5-86-2.5 3.1-4.7 5.3-5.5 5.6l-11.5-11.5s.3-.8.8-2c-26.3-2.8-83.5-.8-107.8 1.8.1 3.4-.1 5.9-.1 5.9L60.1 36s-.7-1.3-1.6-3.3c-2.6 12.9-6.8 57.8-17.1 85.8 0 0-2.6 4.3-5.8 11.8 5.7-2.7 10.1-4.4 10.1-4.4l-8.6 25.8s-4.4 1.5-9.6 2.4c-3.4 13.5-5.6 29.9-3.5 47.3 5.4 44.7 21.6 59.4 9.7 66.7-11.9 7.3 9.7 6.6 17.3 2.2 7.6-4.4 6.5-11 24.9-12.5s107-1.5 111.4 3.7c4.3 5.1 5.4 11 14.1 11.7 8.6.7 17.3-1.5 17.3-1.5s-8.6-2.9-7.6-13.9c.2-2.2.6-7.8.9-15.5.3-7.2.5-16.5.4-26.7zM127.9 86.8c9 5.7 14.6 18.1 8.7 24.7-7.6 8.6-23.9 10.5-32.5 1-8.6-9.6 6.5-29.3 15.3-28.7 4.1-.3 6.9 1.1 8.5 3zM62 69.5c7.6-7.6 20.5-40.5 38.2-25.8 44.9 37.3-20.1 65-32.5 61.2C55.3 101 54.4 77.1 62 69.5zm110.3 170.8c-6.5 14.7-111.4 8.8-111.4-5.9 0-14.7 10.8-88.9 57.3-89.5 58.4-.7 60.5 80.7 54.1 95.4zm2.7-132.6c-12.4 3.8-77.4-23.9-32.5-61.2 17.7-14.7 30.6 18.2 38.2 25.8 7.7 7.7 6.7 31.6-5.7 35.4z"/><path fill="#FDF8BF" d="M118.2 144.9c-46.5.6-57.3 74.8-57.3 89.5 0 14.7 104.9 20.5 111.4 5.9 6.4-14.7 4.3-96.1-54.1-95.4z"/><path fill="#85B083" d="M70.6 33.1s.2-2.5.1-5.9c-.2-7.9-1.9-20.6-10.6-17.9-9.5 2.9-4.5 16.9-1.6 23.4.9 2 1.6 3.3 1.6 3.3l10.5-2.9zm118.5 5.8c.8-.3 3.1-2.5 5.5-5.6 5.9-7.5 13.1-20.5 5-25.9-9.6-6.4-18.5 12-21.2 18.1-.5 1.2-.8 2-.8 2l11.5 11.4z"/><path fill="#58361A" d="M67.8 104.8c12.4 3.8 77.4-23.9 32.5-61.2C82.5 29 69.7 61.8 62 69.5c-7.6 7.6-6.7 31.5 5.8 35.3zm25.8-43.9c4.2 0 7.6 3.4 7.6 7.6 0 4.2-3.4 7.6-7.6 7.6-4.2 0-7.6-3.4-7.6-7.6-.1-4.2 3.3-7.6 7.6-7.6z"/><circle fill="#371800" cx="93.6" cy="68.5" r="7.6"/><path fill="#58361A" d="M142.5 46.5c-44.9 37.3 20.1 65 32.5 61.2 12.4-3.8 13.4-27.7 5.7-35.4-7.6-7.6-20.5-40.5-38.2-25.8zm5.8 29.6c-4.2 0-7.6-3.4-7.6-7.6 0-4.2 3.4-7.6 7.6-7.6 4.2 0 7.6 3.4 7.6 7.6 0 4.2-3.4 7.6-7.6 7.6z"/><circle fill="#371800" cx="148.3" cy="68.5" r="7.6"/><path fill="#FDF8BF" d="M104.1 112.5c8.6 9.6 24.8 7.6 32.5-1 5.9-6.7.4-19-8.7-24.7 3.1 3.8 1 9.8-6.6 8.5-11.5-1.9-8.6-11-1.9-11.5-8.8-.6-23.9 19.1-15.3 28.7z"/><path fill="#371800" d="M121.3 95.3c7.6 1.3 9.7-4.7 6.6-8.5-1.6-1.9-4.4-3.3-8.5-3-6.7.5-9.6 9.5 1.9 11.5z"/><path fill="#85B083" d="M45.8 125.8s-4.4 1.7-10.1 4.4c-10.2 4.8-24.3 12.7-24.3 19.5 0 6.2 8.9 5.7 16.2 4.4 5.2-1 9.6-2.4 9.6-2.4l8.6-25.9zm149.1-6.6l1.9 24.8s4.3.8 9.7 1.4c9 .9 20.9 1.1 20.9-4.2 0-7.3-20.4-19.2-29-21.7-1.7-.5-2.9-.6-3.5-.3z"/></svg>