<svg xmlns="http://www.w3.org/2000/svg" viewBox="0 0 290.1 284.1"><ellipse fill="#ACACAC" cx="114.3" cy="259.9" rx="106.5" ry="24.2"/><path fill="#4F1000" d="M.6 113.9c3.2 18.6 23.6 32.1 59.1 39.2-.2.8-.4 1.7-.7 2.5-1.1.8-2.1 1.8-2.9 3.1-3.6 5.7-2.2 14.4-1.1 19-.9 8.6-1 17-.3 24.9 1.3 15 3.8 25.4 5.6 33 1 4.2 2.1 8.9 1.8 10.3-4.9 4.2-4.4 8.1-3.6 10.1.6 1.6 2.7 5.3 9.1 5.3 3.6 0 8.7-1.2 12-3.9 2-1.6 3.1-3.2 4.1-4.6 1.4-2 1.9-2.7 5.8-3.1 2.6-.3 9.7-.6 19.6-.6 17.4 0 29.8.9 34.1 1.8.1.2.2.5.3.7 1.5 3.2 4.1 8.5 11.1 9.3.9.1 1.8.2 2.7.2 4.8 0 8.9-1.4 9.4-1.5 2.5-.9 4.2-3.2 4.3-5.8.1-2.5-1.2-4.8-3.3-6-.4-.4-.9-1.6-.8-4.1 0-.6.1-1.7.3-3 2 .1 4.2.2 6.4.2h1.6c6.8-.1 14.3-.8 22.3-2.1.1 0 .3 0 .4-.1 2.6-.4 5.4-.9 8.6-1.6 1.3-.3 2.6-.5 4-.8 1-.2 2-.4 3-.7 3-.7 5.5-1.3 8-2 1.4-.4 2.8-.8 4.3-1.4 11-3.9 21.5-11.2 31.1-21.9 3.5-3.8 6.8-8 9.8-12.4l.3-.5c1.2-1.8 2.5-3.7 3.8-5.8 0 0 .5-.8.6-1 1.4-2.3 2.6-4.4 3.7-6.6 6.5-12.1 11.2-25.4 13.4-37.3v-.2c.2-1.1.4-2.1.5-3.2l.1-.8.3-2.7.1-.8c.1-1.2.2-2.3.2-3.3v-.4c0-1 .1-2 0-3v-.9c0-1.1-.1-2-.1-2.8 0-.2 0-.3-.1-.6-.1-1.6-.4-3.2-.7-4.7l-.1-.3-.3-1.2c-.1-.6-.3-1.1-.5-1.7v-.1c-.2-.6-.4-1.2-.6-1.7-.2-.5-.4-1.1-.6-1.6-.3-.8-.7-1.5-1-2l-.1-.2c-.2-.3-.4-.7-.6-1-.6-1-1.3-1.9-2.1-2.8-.2-.3-.5-.5-.8-.8-.7-.7-1.3-1.2-2-1.7-.3-.3-.7-.5-1.1-.7-.7-.5-1.5-.9-2.3-1.3l-.1-.1c-.3-.2-.6-.3-1-.4-1.3-.5-2.5-.8-3.7-1.1-1.1-.2-2.3-.4-3.3-.5-.4 0-.8-.1-1.1-.1h-.6c-.5 0-1-.1-1.5-.1h-1.9c-.4 0-.8 0-1.2.1-.5 0-.9.1-1.4.2l-.5.1c-.4 0-.7.1-1.1.2-.5.1-1 .2-1.5.4l-.4.1c-.3.1-.6.2-1 .3-.6.2-1.1.4-1.6.6l-.2.1c-.3.1-.6.2-.8.4-.6.3-1.2.6-1.6.9l-.1.1c-.2.1-.5.3-.7.4-.6.4-1.2.8-1.7 1.2-.2.1-.4.3-.6.4-.6.5-1.1.9-1.6 1.4-.2.2-.4.3-.5.5l-1.5 1.5-.4.4c-.5.5-.9 1.1-1.4 1.7-.1.1-.2.3-.3.4-.5.6-.9 1.2-1.3 1.9-.1.1-.2.2-.3.4-.4.7-.9 1.4-1.3 2.1-.1.1-.1.2-.2.3-.4.7-.8 1.5-1.2 2.2l-.1.3-1.2 2.4s-.1.1-.1.2c-.4.9-.8 1.7-1.2 2.7 0 .1-.1.2-.1.3-2.1 4.7-4 10-6 15.5-1.1 3.1-2.3 6.2-3.5 9.5-3.8 9.9-7.2 17.4-11.2 24.3l-.3.6c-.3.5-.5 1-.8 1.4-3.2 5.4-7 10.1-11.5 14.4-1.4 1.3-2.8 2.6-4.3 3.7l-.1.1c-1.3 1.1-2.8 2.1-4.3 3.1l-.2.1c-1.4.9-2.8 1.8-4.3 2.6l-.2.1c-1.5.8-2.9 1.5-4.3 2.2-4.1 1.9-8.4 3.3-12.6 4.2-1.3.3-2.6.5-3.7.7.4-9.6.4-18.5.1-26.6 3.2-7.7 4.8-18.4 1.6-24.6-1.2-2.3-3-4.1-5.2-5 40.9-7.6 63.6-24 64.4-46.8.5-14.2-4.7-35.7-20.4-55 8.3-27.8 7.4-44-2.7-49.4-4.2-2.3-8.6-3.4-13-3.4-14 0-24.7 11.7-31.1 21.1-12.5-4.1-26.3-6.2-41.1-6.2-2.8 0-5.6.1-8.4.2-15.3.8-29.8 3.7-43.2 8.8C64.2 14.1 52.7 0 37.3 0c-4.4 0-8.8 1.2-13 3.4C13.7 9.2 16 25.6 16.7 31c1.2 8.5 3.7 17.7 5.9 24.9-16.4 18.4-25 40.8-22 58z"/><path fill="#DC786D" d="M252.3 115.7c.4-.4.8-.7 1.2-1-.4.3-.8.7-1.2 1zm-1.6 1.6l1.2-1.2-1.2 1.2zm-1.5 1.8c.4-.5.8-1 1.1-1.4-.3.4-.7.9-1.1 1.4zm-1.4 1.9c.4-.5.7-1.1 1.1-1.6-.3.5-.7 1.1-1.1 1.6zm8-7.8c.4-.2.8-.5 1.3-.7-.5.2-.9.5-1.3.7zm1.9-1c.4-.2.9-.4 1.3-.5-.4.2-.8.4-1.3.5zm2.2-.7c.4-.1.8-.3 1.3-.3-.5.1-.9.2-1.3.3zm-5.9 2.9l1.2-.9-1.2.9zm-7.5 8.7c.4-.6.7-1.2 1.1-1.8-.4.6-.8 1.2-1.1 1.8zm-43.4 79.7c0-.1 0 0 0 0zm62.4-14.5c-1.2 1.9-2.3 3.7-3.6 5.5 1.2-1.8 2.4-3.6 3.6-5.5zm-53.3 41c-1 .2-2 .5-2.9.7.9-.2 1.9-.5 2.9-.7zm49.4-35c-2.9 4.1-6 8.1-9.3 11.7 3.3-3.6 6.4-7.6 9.3-11.7zm8-13.2c-1.1 2.1-2.3 4.2-3.6 6.3 1.3-2.1 2.5-4.2 3.6-6.3zm-7.4-70.1c.4-.1.8-.1 1.3-.2-.5.1-.9.1-1.3.2zm-64.1 95.4c.1 0 .1-.1.2-.1-.1 0-.1 0-.2.1zm45.9-78.5c.4-.8.7-1.5 1.1-2.2-.4.7-.7 1.4-1.1 2.2zm1.2-2.5c.4-.7.7-1.4 1.1-2-.4.7-.7 1.3-1.1 2zm-52.1 84c.1 0 .2-.1.3-.1-.1 0-.2 0-.3.1zm49.7-78.9c.4-.8.7-1.7 1.1-2.5-3.6 7.6-6.7 17.1-10.6 27.4 12.3 4.3 28.8 12.4 36.3 25.6 8.3-15.6 13.3-32.3 13.9-45.5-.2 4.2-.8 8.8-1.9 13.6-8.8-8.7-22.1-18-38.8-18.6zm-21.1 50.2l-1.2 2.1c-3.8 6.3-8.1 11.5-12.6 15.8 6.2 4.9 15.9 14.1 19.2 26.2-1.1.5-2.2.9-3.3 1.3 10.5-3.7 20.2-11 28.5-20.1-6.2-9-16.9-21.4-30.6-25.3z"/><path fill="#DC786D" d="M188.3 211.8c-4.9 2.2-9.6 3.7-13.8 4.7.9 4.5 1.7 11.1.4 18-5.7.1-10.1-.4-13.5-.9.4-4.2.8-9.5 1.1-15.5.6-10.5.9-23 .4-35-2 4.3-4.7 7.2-7.5 6.5-7.9-2-9.2-29.2 5-29.2-.8-4-1.8-7.7-3-10.9 34.5-5.2 65.5-18.2 66.2-41.8.5-15.1-5.9-35.9-21.2-53.3-9-10.3-21.1-19.3-36.8-25.3-14.3-5.5-31.5-8.4-51.9-7.4-17.6.8-33 4.6-46.3 10.3C52 38.6 39.5 47.6 30 57.5 12.2 76.1 4.4 97.8 7 112.8c3.3 19.3 30.2 30.1 61 35.3-1.1 3.2-2.3 7.4-3.5 12.4 15.9-2.3 14.9 27 6.7 29.1-4 1-7.7-5.3-9.6-12.3-.9 7.6-1.2 16-.4 24.8 2.9 32.7 11.5 43.4 5.2 48.8-6.3 5.4 5.2 4.8 9.2 1.6 4-3.2 3.4-8 13.2-9.1 9.8-1.1 56.8-1.1 59.1 2.7 2.3 3.8 2.9 8 7.5 8.6 4.6.5 9.2-1.1 9.2-1.1s-4.6-2.1-4-10.2c.1-1.4.4-4.9.9-9.8 7.9 1.3 21.8 1.8 43.9-2.7-2.9.6-5.7 1.1-8.4 1.6-1.1-6-3.4-13.8-8.7-20.7zm-28-156c31.5-16 58 41.5 25.9 64.3-32.1 22.8-80.8-36.3-25.9-64.3zm-46 51.3c8 0 14.5 4.2 14.5 9.3 0 5.2-6.5 9.3-14.5 9.3s-14.5-4.2-14.5-9.3c0-5.1 6.5-9.3 14.5-9.3zm-66.9 13c-32.1-22.8-5.5-80.3 25.9-64.3 55 28 6.3 87.1-25.9 64.3zm92.5 110.3c-3.4 10.7-59.1 6.4-59.1-4.3s5.7-64.9 30.4-65.4c31-.5 32.1 59 28.7 69.7zm124.7-119.6c.4 0 .8-.1 1.3-.1-.4 0-.9.1-1.3.1zm11.4 21c.2.2.5.3.7.5-.2-.2-.4-.3-.7-.5zm-2.2-1.2c.2.1.5.2.7.3-.2 0-.4-.2-.7-.3zm-6.4-1.1c.4 0 .7 0 1.1.1-.4-.1-.7-.1-1.1-.1zm10.7 3.9c.2.2.4.3.5.5-.2-.1-.4-.3-.5-.5z"/><path fill="#D55854" d="M207.9 198.6c-1.6 1.5-3.2 2.9-4.8 4.1h-.1c-1.6 1.2-3.2 2.4-4.8 3.5-.1 0-.1.1-.2.1-1.6 1-3.1 2-4.7 2.8-.1 0-.2.1-.3.1-1.6.9-3.2 1.7-4.8 2.4 5.3 7 7.6 14.7 8.6 20.6 2.6-.4 5.5-1 8.4-1.6 1.3-.3 2.6-.5 3.9-.8 1-.2 2-.4 2.9-.7 2.5-.6 5.1-1.2 7.8-1.9 1.3-.3 2.5-.8 3.8-1.2 1.1-.4 2.2-.9 3.3-1.3-3.1-12-12.8-21.2-19-26.1zm-46.5 34.9c3.4.6 7.8 1 13.5.9 1.3-7 .5-13.5-.4-18-4.7 1.1-8.9 1.5-12 1.6-.3 6-.7 11.2-1.1 15.5zm122.2-101v-.8c0-.8 0-1.7-.1-2.5 0-.2 0-.3-.1-.5-.1-1.4-.3-2.7-.6-4l-.3-1.2c-.1-.5-.3-1-.4-1.4-.1-.5-.3-.9-.5-1.4-.2-.4-.3-.8-.5-1.2-.2-.5-.5-1-.7-1.5-.2-.3-.3-.6-.5-.8-.4-.7-.9-1.3-1.5-1.9-.2-.2-.4-.3-.5-.5-.4-.4-.8-.8-1.3-1.1-.2-.2-.5-.3-.7-.5-.5-.3-1-.6-1.5-.8-.2-.1-.5-.2-.7-.3-.8-.3-1.6-.6-2.5-.7-1-.2-1.9-.3-2.8-.4-.4 0-.8 0-1.1-.1-.5 0-1-.1-1.5-.1-.4 0-.9 0-1.3.1-.4 0-.8 0-1.2.1-.4 0-.9.1-1.3.2-.3.1-.7.1-1 .2-.4.1-.9.2-1.3.3-.3.1-.6.1-.8.2-.5.1-.9.3-1.3.5-.2.1-.5.2-.7.3-.4.2-.9.4-1.3.7l-.6.3-1.2.9c-.2.1-.3.2-.5.3-.4.3-.8.7-1.2 1-.1.1-.3.2-.4.4l-1.2 1.2c-.1.1-.2.2-.3.4-.4.4-.8.9-1.1 1.4-.1.1-.2.2-.3.4-.4.5-.8 1-1.1 1.6-.1.1-.2.2-.2.3-.4.6-.7 1.2-1.1 1.8-.1.1-.1.2-.2.3-.4.6-.7 1.3-1.1 2 0 .1-.1.1-.1.2-.4.7-.7 1.5-1.1 2.2 0 0 0 .1-.1.1-.4.8-.8 1.6-1.1 2.5 16.7.6 30 9.9 38.8 18.7 1.1-4.8 1.7-9.4 1.9-13.6v-.4c.2-1.2.2-2.1.2-2.9zm-50.3 22.9c-3.1 8.1-6.7 16.7-11.6 25.3 13.6 3.9 24.3 16.3 30.6 25.3 3.3-3.6 6.4-7.6 9.3-11.7.1-.1.2-.3.3-.4 1.2-1.8 2.4-3.7 3.6-5.5.2-.3.4-.6.6-1 1.2-2.1 2.4-4.1 3.6-6.3-7.6-13.3-24.1-21.3-36.4-25.7z"/><path fill="#4F1000" d="M202.4 54.3c4.6-14.8 10.9-40.1 1.5-45.2-18-9.7-32.2 9.4-38.2 19.8 15.6 6.1 27.7 15.2 36.7 25.4zM67.4 32c-4.7-8.9-20-33.6-39.9-22.9-10.1 5.5-2.1 34.4 2.5 48.4 9.5-9.9 22-18.9 37.4-25.5z"/><path fill="#F8D99A" d="M111.2 160.8c-24.7.4-30.4 54.7-30.4 65.4s55.7 15 59.1 4.3c3.4-10.8 2.3-70.3-28.7-69.7z"/><path fill="#D55854" d="M73.3 55.8c-31.5-16-58 41.5-25.9 64.3 32.2 22.8 80.9-36.3 25.9-64.3zM65 109.7c-5.2 0-9.3-4.2-9.3-9.3 0-5.2 4.2-9.3 9.3-9.3 5.2 0 9.3 4.2 9.3 9.3.1 5.1-4.1 9.3-9.3 9.3z"/><circle fill="#4F1000" cx="65" cy="100.4" r="9.3"/><path fill="#D55854" d="M186.2 120.1c32.1-22.8 5.5-80.3-25.9-64.3-54.9 28-6.2 87.1 25.9 64.3zM168.6 91c5.2 0 9.3 4.2 9.3 9.3 0 5.2-4.2 9.3-9.3 9.3-5.2 0-9.3-4.2-9.3-9.3 0-5.1 4.1-9.3 9.3-9.3z"/><circle fill="#4F1000" cx="168.6" cy="100.4" r="9.3"/><ellipse fill="#4F1000" cx="114.3" cy="116.4" rx="14.5" ry="9.3"/><path fill="#4F1000" d="M71.3 189.5c8.2-2 9.3-31.3-6.7-29.1H64c-4.3.8-4.4 9.2-2.3 16.7 1.9 7.1 5.6 13.4 9.6 12.4zm84.1 0c2.8.7 5.5-2.3 7.5-6.5 3.9-8.3 5.2-21.5-.2-22.5-.8-.2-1.5-.2-2.3-.2-14.2 0-12.9 27.2-5 29.2z"/></svg>