<svg xmlns="http://www.w3.org/2000/svg" viewBox="0 0 275.6 302"><ellipse fill="#ACACAC" cx="137.8" cy="277.8" rx="106.5" ry="24.2"/><path fill="#210F00" d="M11.7 130.2c1.1 2.3 3.4 3.7 5.9 3.7h.7c2.9 0 10.6 3.9 18 7.7 12.5 6.4 28.9 14.8 49.7 20.6-1.9 1.7-3.5 3-4.9 3.9-5 3.1-5.9 7.7-4.9 10.9 1.1 3.9 4.8 6.7 9.5 7.5-3.2 28.8-.2 64.9.9 77.6.1 1.6.2 2.8.3 3.5.2 3.5-.7 4.8-1 5.1-2 1.2-3.2 3.5-3.1 5.9.1 2.6 1.8 4.8 4.2 5.7.5.2 4.6 1.7 9.5 1.7.9 0 1.9-.1 2.8-.2 7.1-.9 9.6-6.6 11.1-10 .1-.3.3-.6.4-.9 4.3-1 16.6-1.9 33.9-1.9 9.9 0 16.9.3 19.5.6 3.7.4 4.2 1.2 5.7 3.4.9 1.4 2.1 3.2 4 4.9 3.4 2.9 8.6 4.2 12.2 4.2 6.3 0 8.5-3.7 9.1-5.3.8-2 1.4-6-3.5-10.4 0-.1-.1-.4-.1-1.1 2.5-.3 5-.6 7.5-1h.3c1.5-.3 3.1-.6 4.8-.9l.4-.1c1.7-.4 3.3-.8 5-1.2l-1.6-6.3 1.8 6.2c3.7-1 7.3-2.2 10.7-3.6 7.9-3.2 15.1-7.4 21.3-12.5.2-.1.3-.2.5-.4s.5-.4.7-.6c0 0 .8-.7 1.1-.9 1-.9 1.9-1.8 2.7-2.6l.5-.5c1.4-1.5 2.7-2.9 4-4.3.1-.1.2-.2.2-.3 0-.1.1-.1.2-.2.8-.9 1.5-1.9 2.2-2.9.5-.6.9-1.3 1.3-1.9l.3-.4c.2-.2.3-.4.4-.7.5-.9 1.1-1.8 1.6-2.8l.1-.2c.5-.8.9-1.7 1.4-2.8.1-.1.2-.4.2-.4 5.3-11.7 6-24.6 1.9-38.4v-.1c-.3-.9-.6-1.9-.9-2.8v-.1c-.3-.9-.6-1.8-.9-2.6v-.1c-.3-.9-.7-1.7-1-2.5-4-9.4-8.8-15.6-9-15.8-1.3-1.6-3.2-2.5-5.1-2.5-.9 0-1.7.2-2.5.5-2.7 1.1-4.3 4-3.9 6.9.4 2.8-.1 6.3-1.4 10l-.1.3c-.2.5-.3 1-.5 1.5-.1.2-.2.5-.3.7l-.4 1c-.2.4-.4.9-.6 1.3-.1.3-.3.5-.5.8l-.3.6c-.5.9-1.1 1.8-1.7 2.7-3.8 5.7-8.9 10.5-14.3 13.5-.7.4-1.4.7-2.1 1.1-.4.2-.8.4-1.2.5-.7.3-1.4.5-2.2.8-2.3.7-4.5 1.1-6.6 1.1h-1.2c-.9-.1-1.9-.1-2.8-.1h-1.9c-.2-5.8-.7-11.7-1.5-17.6.7.1 1.3.1 1.8.1 5.7 0 10-2.6 11.3-6.8 1.1-3.6-.4-7.4-3.8-9.6-1.5-1-4.9-4-9.6-8.3 22.8-5.8 38.7-14.2 46.5-20.9 6.9-5.8 12.9-6.1 13.1-6.1 2.6 0 5-1.6 6-4s.5-5.2-1.4-7c8.4-3.9 12.5-11.2 12.8-11.6 1-1.8 1.1-4 .3-5.9-.9-1.9-2.5-3.2-4.5-3.7-.4-.1-10.7-2.7-19.3-17.6-3.2-5.6-12.1-19.3-28.1-32.4C231.9 25 212 2.9 211.1 2c-1.2-1.4-3-2.1-4.8-2.1-.3 0-.7 0-1 .1-18.5 3-28.6 17-33.8 27.8-9-2-18.4-3-27.9-3-1.5 0-3.1 0-4.6.1-13.7.5-25.5 1.6-35.8 3.5C98.1 17.4 87.9 3 69.2.1c-.4-.1-.7-.1-1-.1-1.8 0-3.5.8-4.8 2.1-.9 1-21.7 24.1-11.5 52.9-5.3 6.2-9.3 12.8-12.3 18.1C26.3 96.4 4 106.9 3.8 107c-1.9.9-3.2 2.5-3.7 4.5-.4 2 .1 4.1 1.4 5.6 3.3 3.8 6.8 6.1 10.1 7.5-.7 1.8-.7 3.8.1 5.6z"/><path fill="#907C6E" d="M241.6 183c-.2.5-.5 1-.7 1.5.3-.5.5-1 .7-1.5zm7.1 48.6c.5-.6.9-1.3 1.3-1.9-.4.6-.8 1.3-1.3 1.9zm-27.3-25.2c-.3.2-.5.3-.8.4 6.5-3.6 12.3-9.2 16.5-15.5-.4.7-.9 1.3-1.4 2 7.1 1.8 15 6.2 21.6 10.6-.2-8.1-2.5-15.6-5-21.6 4.9 11.3 8.5 27.9-.3 44.1.5-.9.9-1.8 1.3-2.6-9.1-7.6-22.9-13.8-31.9-17.4zm29.1 22.5c.5-.8 1-1.7 1.4-2.5-.4.9-.9 1.7-1.4 2.5zm-57.4-16.7c.8-.2 1.6-.4 2.4-.5-.9.1-1.6.3-2.4.5zm49.3-31.3c1.6-4.5 2.3-9 1.7-13.1 0 0 4.4 5.7 8.2 14.4-3.4-1.1-6.7-1.9-9.5-2.5-.1.5-.3.9-.4 1.2zm-24.3 27.2c-.5.2-1 .4-1.4.6.4-.1.9-.3 1.4-.6zm21.8-21.5c-.3.5-.6 1.1-.9 1.6.3-.5.7-1.1.9-1.6zm6.8 47.6s-.1.1 0 0c-1.3 1.5-2.6 2.9-3.9 4.2 1.3-1.3 2.6-2.6 3.9-4.2-.1.1 0 0 0 0zm-38.5 23.6c3.3-.9 6.6-2 10-3.3-3.4 1.3-6.8 2.4-10 3.3zm-15.4-38.9c3.8 10.9 5.2 28.6 5.7 41 1.4-.2 2.9-.5 4.5-.9-6.4 1.4-12.3 2-17 2.3 1.5-8 5-20.5 6.7-40.8 0-.5.1-1 .1-1.6zm2.9-7.3c2.4-.5 5.1-.7 8-.5 3.4.2 6.8-.3 10.2-1.4l-.9.3c9.5 7.3 19.2 22.2 25.2 32.6 1.4-1.2 2.8-2.4 4.1-3.8-7.3 7.2-15.8 12.2-24.2 15.6-1.2-14.9-11.9-35.7-16.1-43.4-2.2.1-4.4.2-6.3.6zm7.7 47.4c1.5-.3 3.1-.7 4.6-1.1-1.6.4-3.1.8-4.6 1.1z"/><path fill="#382318" d="M213 210.1l.9-.3c.9-.3 1.8-.6 2.7-1 .5-.2 1-.4 1.4-.6.8-.4 1.7-.8 2.5-1.3.3-.1.5-.3.8-.4 9.1 3.6 22.8 9.7 32 17.2-.4.9-.8 1.8-1.3 2.6 0 0 0 .1-.1.1-.4.8-.9 1.7-1.4 2.5-.2.3-.3.5-.5.8-.4.6-.8 1.3-1.3 1.9-.6.9-1.3 1.8-2 2.6 0 0 0 .1-.1.1-1.2 1.5-2.5 2.8-3.8 4.2l-.5.5c-1.3 1.3-2.7 2.6-4.1 3.8-6-10.5-15.6-25.4-25.2-32.7zm22.7-16.8c.5-.6.9-1.3 1.4-2 .7-1 1.3-2.1 1.9-3.1.3-.5.6-1.1.9-1.6.4-.7.7-1.4 1-2.1.2-.5.5-1 .7-1.5.3-.7.5-1.4.8-2.1.1-.4.3-.8.4-1.1 2.8.6 6.1 1.4 9.5 2.5 2.6 6 4.8 13.5 5 21.6-6.6-4.4-14.4-8.8-21.6-10.6zm-42.9 25.6c.2-2.3.3-4.5.3-6.7.8-.2 1.5-.4 2.4-.6.1 0 .2 0 .2-.1 2-.4 4.1-.5 6.3-.5 4.2 7.7 14.9 28.5 16.1 43.4-3.4 1.3-6.7 2.4-10 3.3-.1 0-.1 0-.2.1-1.6.4-3.1.8-4.6 1.1-.1 0-.2.1-.4.1l-4.5.9c-.4-12.4-1.8-30.1-5.6-41z"/><path fill="#907C6E" d="M93.4 177c-5.5 32.4-.4 81.4.1 88.2.6 8.7-4 11-4 11s4.6 1.7 9.2 1.2c4.6-.6 5.2-5.2 7.5-9.3 2.3-4.1 49.3-4.1 59.1-2.9 9.8 1.2 9.2 6.4 13.2 9.9s15.5 4.1 9.2-1.7c-2.7-2.5-2.7-6-1.5-12 1.5-8 5-20.5 6.7-40.8 0-.6.1-1.1.1-1.7.2-2.3.3-4.5.3-6.7.2-13.3-1.4-25.5-3.4-35.2-1.8-1.2-3.6-2.6-5.5-4.5l-2.7-13.4c-13.5 2.4-29.4 3.9-47.9 3.7-11.6-.1-22.4-1.4-32.4-3.4L98.5 173c-1.7 1.8-3.4 3.2-5.1 4zm49.4-1c24.7.5 30.4 59.2 30.4 70.8s-55.7 16.2-59.1 4.6c-3.5-11.6-2.3-76 28.7-75.4zm41.9-17.5c.1.2.1.4.2.7l-.6-.6c.2-.1.3-.1.4-.1z"/><path fill="#DDC694" d="M142.8 176c24.7.5 30.4 59.2 30.4 70.8s-55.7 16.2-59.1 4.6c-3.5-11.6-2.3-76 28.7-75.4z"/><path fill="#907C6E" d="M181.5 159c.9-.2 1.9-.3 2.8-.5l.6.6c5.6 5.4 15.2 14.4 18.8 16.8 4.4 3-3.4 8.1-14 1.1-1.8-1.2-3.6-2.6-5.5-4.5l-2.7-13.5zm-80.2.2l-2.9 13.6c-1.5 2-3.3 3.4-5 4.2-7.3 3.6-14.8-1.6-8.8-5.4 4.6-2.9 10.3-8.8 14-13 .9.3 1.8.5 2.7.6z"/><path fill="#907C6E" d="M269.1 109.5s-13.1-2.8-23.5-20.7c-4.8-8.3-14.7-21.7-30.1-33.5-1 2.4-2.2 4.8-3.7 7.2l-38.7-20s.6-2.9 2.2-7c-10.8-2.9-22.8-4.5-36.1-4-16.1.5-29.1 2.1-39.9 4.5 1.5 3.9 2.1 6.6 2.1 6.6l-38.7 20c-1.3-2.1-2.4-4.1-3.3-6.1-5.6 5.8-10 12.5-14.2 19.9C30.7 102 6.5 113 6.5 113c8.3 9.7 18.7 6.9 18.7 6.9l-7.6 7.6c10.5-1.1 37.6 21.8 81 31.2l2.7.6c10 2 20.7 3.3 32.4 3.4 18.5.2 34.4-1.3 47.9-3.7.9-.2 1.9-.3 2.8-.5.1 0 .3 0 .4-.1 31.4-6 49.1-16.8 55.3-22.1 9-7.6 17.3-7.6 17.3-7.6l-9-9c13.8 2.2 20.7-10.2 20.7-10.2zM83.3 130.9c-30.4-6.9-36.5-68.9 9-64.3 61.4 6.2 21.4 71.2-9 64.3zm75.2 13.8c-11.1 13.8-31.1 6.9-35.9-11.1-4.8-18 8.3-29.7 24.2-27.6 17.9 2.4 22.8 24.9 11.7 38.7zm42.9-13.8c-30.4 6.9-70.5-58-9-64.3 45.4-4.6 39.4 57.4 9 64.3z"/><path fill="#907C6E" d="M211.7 62.5c1.5-2.4 2.8-4.9 3.7-7.2 11.1-26.6-9.3-48.7-9.3-48.7-18.4 2.9-27.2 19.3-30.9 28.9-1.6 4.1-2.2 7-2.2 7l38.7 20zm-6.1-13.1c-5.5-7.6-21.4-11.7-21.4-11.7 5.5-16.6 18-20.7 18-20.7 14.5 14.4 3.4 32.4 3.4 32.4zm-104.3-7s-.6-2.7-2.1-6.6c-3.5-9.5-12.4-26.3-31-29.3 0 0-20.9 22.8-8.8 49.9.9 2 2 4 3.3 6.1l38.6-20.1zm-10.5-4.8s-15.9 4.1-21.4 11.7c0 0-11.1-18 3.5-32.5-.1.1 12.4 4.2 17.9 20.8z"/><path fill="#382318" d="M192.4 66.6c-61.5 6.2-21.4 71.2 9 64.3s36.4-68.9-9-64.3zm9 38.7c0 5.3-4.3 9.7-9.7 9.7-5.3 0-9.7-4.3-9.7-9.7 0-5.3 4.3-9.7 9.7-9.7 5.3.1 9.7 4.4 9.7 9.7z"/><circle fill="#210F00" cx="191.7" cy="105.3" r="9.7"/><path fill="#382318" d="M92.2 66.6c-45.4-4.6-39.4 57.4-9 64.3 30.5 6.9 70.5-58.1 9-64.3zm10.4 38.7c0 5.3-4.3 9.7-9.7 9.7-5.3 0-9.7-4.3-9.7-9.7 0-5.3 4.3-9.7 9.7-9.7 5.4.1 9.7 4.4 9.7 9.7z"/><circle fill="#210F00" cx="92.9" cy="105.3" r="9.7"/><path fill="#382318" d="M69.4 49.4s-11.1-18 3.5-32.5c0 0 12.4 4.1 18 20.7-.1 0-16 4.2-21.5 11.8zm114.8-11.8c5.5-16.6 18-20.7 18-20.7 14.5 14.5 3.5 32.5 3.5 32.5-5.6-7.6-21.5-11.8-21.5-11.8z"/><path fill="#DDC694" d="M146.8 106c-15.9-2.1-29 9.7-24.2 27.6 4.8 18 24.9 24.9 35.9 11.1 11.1-13.8 6.2-36.3-11.7-38.7zm6.2 9.7c0 5.6-9.7 15.2-17.3 3.5-7.6-11.8 17.3-11.1 17.3-3.5z"/><path fill="#382318" d="M135.7 119.1c-7.6-11.7 17.3-11.1 17.3-3.5 0 5.7-9.7 15.3-17.3 3.5z"/></svg>