<svg xmlns="http://www.w3.org/2000/svg" viewBox="0 0 278.6 292.4"><ellipse fill="#ACACAC" cx="131.6" cy="268.2" rx="106.5" ry="24.2"/><path fill="#272624" d="M271.7 141.3c0-.1-.1-.2-.1-.3-5-12.8-10.9-21.2-11.1-21.5-1.2-1.6-3-2.5-4.9-2.5-.7 0-1.5.1-2.2.4-2.6 1-4.1 3.6-3.8 6.3.5 4.3 0 9.3-1.5 14.6-.4 1.5-.9 2.9-1.5 4.4-1.7 4.5-4 8.9-6.8 13.1-4.8 7.1-10.6 13-16.8 17.1-3.1 2-6.2 3.5-9.3 4.5-2.7.9-5.4 1.3-8 1.3-.6 0-1.2 0-1.7-.1-.5 0-1.1-.1-1.6-.1h-2.1c-1.6 0-3.1.1-4.6.2.2-2.9-1.1-6.5-5.3-9-2.8-1.7-6.6-5.1-11.1-9.7-.7-3.5-1.5-6.8-2.4-9.8 54.9-19 68.3-55.3 68.8-56.9 1.1-3-.4-6.3-3.3-7.5-.2-.1-16.9-7.3-35.8-32.5-1.7-2.3-3.3-4.5-4.9-6.7-2.3-3.2-4.6-6.4-6.9-9.4 5-6.1 11.3-15.8 9.7-24.5-.6-3.4-2.7-8-9-10.9-2.6-1.2-5.3-1.8-8-1.8-8 0-15.4 5.3-21.7 15.3-10-3.6-22.2-5.4-37.1-5.4-12.8 0-27.6 1.3-45.2 3.9-2.6.4-5 1-7.4 1.8C70.9 7.2 63.9 2.7 55.9 2.7c-2.7 0-5.4.5-8.2 1.5-7.3 2.6-9.6 7.2-10.3 10.5-1.3 6.5 2.6 14.4 11.5 23.4-2.8 3.8-5.5 7.8-8.1 11.7-10.1 15-19.6 29.3-36.4 33.9-1.6.4-3 1.6-3.8 3.1-.8 1.5-.9 3.3-.3 4.8.7 1.8 16.4 42.3 63.2 60.7-.6 2.1-1.1 4.3-1.6 6.5C50 170 46.2 172.9 45 173.7c-4 2.7-4.6 6.6-3.7 9.3 1.3 4.2 5.6 6.7 11.4 6.7 1.3 0 3-.1 4.9-.6-.5 7.9-.4 15.7.2 23.1 1.5 17.7 4.2 29.9 6.1 38.9 1.6 7.2 2.9 13 1.5 14.2-4.6 4.2-4.4 7.8-3.5 10.2.6 1.5 2.6 5.1 8.9 5.1 3.8 0 9.3-1.3 12.7-4.3 2-1.7 3.2-3.6 4.2-5.1 1.7-2.6 2.5-3.7 7.2-4.3 3.5-.4 12.3-.7 21.8-.7 20.2 0 34.3 1.1 38.6 2.3.2.5.5 1 .7 1.5 1.7 3.7 4.2 9.4 11.3 10.3.9.1 1.9.2 2.9.2 5.2 0 9.6-1.6 10.1-1.8 2.4-.9 4.4-3 4.3-5.6-.1-2.5-1.2-4.5-3.5-5.3-.4-.4-1.5-1.9-1.4-5.4 4.8-.3 10.9-.9 17.6-2.1.1 0 .3 0 .4-.1.3-.1 1.8-.4 1.8-.4.6-.1 1.2-.2 1.7-.4.8-.2 1.6-.4 2.5-.6l.5-.1c2.1-.5 4.2-1.1 6.3-1.7l.3-.1c1.1-.3 2.1-.7 3.2-1l.8-.3c.8-.3 1.6-.5 2.4-.8l1.2-.4c.7-.3 1.3-.5 2-.8.5-.2.9-.4 1.4-.6.6-.2 1.2-.5 1.8-.8 0 0 .7-.3.9-.4.1-.1.3-.1.4-.2 10.1-4.5 19.1-10.4 26.9-17.5l.3-.3.2-.2c.3-.3.7-.6 1-1l.7-.7c.3-.3.7-.6 1-.9 1-1 1.9-1.9 2.7-2.9.1-.1.6-.7.6-.7 2-2.2 3.7-4.3 5.2-6.3 1-1.3 2-2.8 2.9-4.2.6-1 1.2-1.9 1.8-2.9l.2-.4c.2-.3.4-.6.5-.9.7-1.1 1.3-2.4 2-3.8l.1-.2c.6-1.3 1.3-2.7 1.9-4.1 3.9-9.4 5.8-19.6 5.6-30.2v-1.5c-.3-10.2-2.6-20.9-6.8-31.6z"/><path fill="gray" d="M255.5 122.9c.7 5.3 0 11.2-1.7 17 3.6.8 7.8 2 12.2 3.5 3.3 8.6 6.2 19.3 6.5 30.9-8.5-6.2-18.7-12.6-27.8-15.1-5 7.5-11.5 14.1-18.5 18.7 11.7 5.1 29.5 13.9 41.3 24.5 16.5-39.6-12-79.5-12-79.5zm3.3 94.7c-1.6 2.1-3.2 4-4.9 5.9 1.7-1.9 3.3-3.8 4.9-5.9zm-49.9 33.6c-2 .6-4 1.1-6 1.6 2-.5 4-1 6-1.6zm54.2-40.1c-.5.9-1 1.8-1.6 2.6.6-.9 1.1-1.8 1.6-2.6zm-10.9-66.3zM186 187.5c.4-.2.9-.3 1.3-.5-4.2 1.7-7.8 4.1-10.7 6.7.7 25.6-1.4 51.8-2.4 62.7 6.4-.1 16.6-.7 28.2-3.5-2 .5-3.9.9-5.7 1.2-.8-21.3-3.3-53.5-10.7-66.6zm29.5-4.4c-4 1.3-8 1.8-12 1.5-.8-.1-1.5 0-2.2 0 5.4 10.9 19.3 40.6 20.8 61.8-4.3 1.9-8.7 3.5-12.9 4.8 14.7-4.4 30.9-12.5 44.1-26.9-1.7 1.9-3.5 3.7-5.3 5.3-7.8-14.9-20.2-36.1-32.5-46.5zm-26.1 3.1l3.3-.9c-1.1.3-2.2.5-3.3.9zm3.7-1c2.5-.5 5.3-.8 8.2-.7-3 0-5.7.2-8.2.7z"/><path fill="#666" d="M176.6 193.7c-.1-4.7-.4-9.4-.7-13.9 8.6 5.7 18.5-.5 11.4-4.9-4.3-2.7-9.5-7.8-13.5-12-1.1-6.2-2.6-11.7-4.5-16.4-12 3.7-25.8 6.5-41.9 8-22.5 2.1-41.1-.6-56.5-5.9-1.1 3.5-2.3 8-3.4 13.3-6.3 5.9-15.5 14.4-19.1 16.8-5 3.3 4 9 16.1.8-1.2 9.8-1.7 20.8-.8 32.3 3.2 38.9 12.7 51.6 5.7 58-7 6.4 5.7 5.7 10.2 1.9 4.5-3.8 3.8-9.6 14.7-10.8 10.8-1.3 63.1-1.3 65.6 3.2 2.5 4.5 3.2 9.6 8.3 10.2 5.1.6 10.2-1.3 10.2-1.3s-5.1-2.5-4.5-12.1c.1-.9.2-2.4.4-4.4.9-11 3-37.2 2.3-62.8zm-25.7 51.9c-3.8 12.7-65.6 7.6-65.6-5.1s6.4-77.2 33.8-77.7c34.4-.7 35.7 70 31.8 82.8z"/><path fill="gray" d="M127.4 154.4c16.1-1.5 29.9-4.3 41.9-8 57.7-17.7 70.8-55.1 70.8-55.1S222 83.7 201.9 57c-5.3-7-9.7-13.8-14.9-19.8 8.3-8.7 18.5-24.1 6-29.9-11.6-5.4-20.4 7.5-24.6 15.6-15.7-7.3-39.9-9.7-84-3.2-4.1.6-7.7 1.9-11 3.6-3.5-7.6-10.6-18.1-23.8-13.5-15 5.3-.6 20.6 7.2 27.6C42 55.8 31.7 82.4 6 89.5c0 0 16.1 42.5 64.9 59.1 15.4 5.2 34 7.9 56.5 5.8zM174.5 25s7.3-15.4 14.6-10.5-8.1 17-8.1 17l-6.5-6.5zm-33.9 25.6C161.3 34 187.8 71 196 85.6c8.3 14.7-5.1 21.7-29.3 21-24.2-.6-55.4-32.4-26.1-56zm.1 66.3c-4.5 16.6-22.9 22.9-33.1 10.2-10.2-12.7-5.7-33.5 10.8-35.7 14.7-1.9 26.8 8.9 22.3 25.5zM55.4 16.2c7-1.9 11.5 11.5 11.5 11.5l-7.6 3.2c-7.7-3.9-10.9-12.8-3.9-14.7zm-7 69.4c8.3-14.7 34.8-51.7 55.4-35 29.3 23.6-1.9 55.4-26.1 56.1-24.2.6-37.6-6.4-29.3-21.1z"/><path fill="#999" d="M107.6 127.1c10.2 12.7 28.7 6.4 33.1-10.2 4.5-16.6-7.6-27.4-22.3-25.5-16.5 2.1-21 22.9-10.8 35.7zm21-23.6c-7 10.8-15.9 2-15.9-3.2 0-7 23-7.7 15.9 3.2z"/><path fill="#333" d="M77.7 106.7c24.2-.6 55.4-32.5 26.1-56.1C83.1 34 56.7 71 48.4 85.6c-8.3 14.7 5.1 21.7 29.3 21.1zm14-42.7c4.6 0 8.3 3.7 8.3 8.3 0 4.6-3.7 8.3-8.3 8.3-4.6 0-8.3-3.7-8.3-8.3 0-4.6 3.7-8.3 8.3-8.3z"/><circle fill="#272624" cx="91.7" cy="72.3" r="8.3"/><path fill="#333" d="M166.7 106.7c24.2.6 37.6-6.4 29.3-21-8.3-14.7-34.8-51.7-55.4-35-29.3 23.5 1.9 55.3 26.1 56zm-14-42.7c4.6 0 8.3 3.7 8.3 8.3 0 4.6-3.7 8.3-8.3 8.3-4.6 0-8.3-3.7-8.3-8.3 0-4.6 3.7-8.3 8.3-8.3z"/><circle fill="#272624" cx="152.7" cy="72.3" r="8.3"/><path fill="#272624" d="M128.6 103.5c7-10.8-15.9-10.2-15.9-3.2 0 5.1 8.9 14 15.9 3.2z"/><path fill="#999" d="M119.1 162.7c-27.4.5-33.8 65-33.8 77.7 0 12.7 61.8 17.8 65.6 5.1 3.9-12.7 2.6-83.4-31.8-82.8z"/><path fill="#333" d="M226.2 177.9c-3.5 2.3-7.1 4-10.8 5.2 12.3 10.4 24.7 31.6 32.5 46.5 1.8-1.7 3.6-3.5 5.3-5.3.2-.2.4-.5.6-.7 1.7-1.9 3.3-3.8 4.9-5.9 1-1.3 1.9-2.6 2.7-3.9.6-.9 1.1-1.8 1.6-2.6.2-.4.5-.8.7-1.1.7-1.2 1.3-2.3 1.8-3.5 0-.1.1-.1.1-.2.6-1.3 1.2-2.5 1.7-3.8-11.6-10.8-29.4-19.6-41.1-24.7zm46.4-3.6c-.3-11.6-3.2-22.3-6.5-30.9-4.4-1.5-8.7-2.7-12.2-3.5-.5 1.6-1 3.3-1.6 4.9-1.9 4.9-4.4 9.8-7.5 14.3 9.1 2.6 19.3 8.9 27.8 15.2zm-71.4 10.2c-2.9-.1-5.6.2-8.2.7-.1 0-.2.1-.3.1-1.1.2-2.3.5-3.3.9-.8.2-1.5.5-2.2.8-.4.2-.9.3-1.3.5 7.4 13.1 9.9 45.3 10.7 66.7l5.7-1.2c.2 0 .3-.1.5-.1 2-.5 3.9-1 6-1.6.1 0 .2-.1.3-.1 4.2-1.3 8.5-2.8 12.9-4.8-1.5-21.3-15.3-50.9-20.8-61.9zm-12.1-170C181.8 9.6 174.5 25 174.5 25l6.5 6.5s15.4-12.2 8.1-17zM66.8 27.7s-4.5-13.4-11.5-11.5c-7 1.9-3.8 10.8 3.8 14.7l7.7-3.2z"/></svg>