<svg xmlns="http://www.w3.org/2000/svg" viewBox="0 0 318.2 295.4"><ellipse fill="#ACACAC" cx="114" cy="271.2" rx="106.5" ry="24.2"/><path fill="#332000" d="M58.4 158.2c-2.6 2.5-4.4 6-5.4 8.9-1.9 5 .4 12.1 2 16.1-.7 9.5-.7 18.9-.1 27.8 1.4 18.4 3.9 31.1 5.8 40.4 1.5 7.8 2.8 13.9 1.4 15.3-4.3 4.3-4.1 8-3.1 10.3.6 1.5 2.7 4.9 8.7 4.9 3.8 0 9.1-1.4 12.4-4.7 1.9-1.8 3-3.7 4-5.3 1.7-2.8 2.3-3.8 6.5-4.4 2.7-.4 10.1-.7 20.4-.7 18.6 0 31.7 1.1 35.9 2.3.2.5.4 1.1.7 1.6 1.6 3.9 3.9 9.8 11 10.7.9.1 1.9.2 2.9.2 5.1 0 9.4-1.7 9.9-1.9 2.1-.9 3.6-2.9 3.7-5.2.1-2.1-.9-4.2-2.7-5.4-.2-.2-1.2-1.3-1.5-4.1 10.7 6.3 22.5 10.3 35.4 11.9.1 0 .3 0 .4.1.3 0 1.9.2 1.9.2 1 .1 1.9.2 2.9.2h.3c2.1.1 4.2.2 6.3.2 2.6 0 5.3-.1 8-.3h.2c1.4-.1 2.9-.3 4.5-.5l.4-.1c1.4-.2 2.8-.4 4.3-.6l.6-.1c1.4-.2 2.8-.5 4.3-.8l.5-.1c1.4-.3 2.8-.7 4.3-1 .1 0 .3-.1.3-.1 18.4-4.9 35.6-14.7 48.4-27.6l.3-.3.6-.6 1.2-1.2s.6-.7.8-.9c.7-.7 1.3-1.4 1.9-2.2.1-.1.2-.3.4-.5 1.4-1.7 2.6-3.2 3.7-4.7.1-.1.2-.3.3-.5 1.3-1.8 2.4-3.4 3.4-5.1.1-.1.1-.2.2-.3 1.1-1.9 2.2-3.7 3.1-5.5v-.1c.5-.9.9-1.8 1.4-2.8l.1-.3c5-10.9 7.4-22.4 7.1-34.1-.2-8.6-.9-16.8-2-24.5v-.1c-.8-5.7-1.8-11.1-3.1-16.2v-.2c-.3-1.1-.6-2.2-.9-3.2l-.1-.5c-.3-1.1-.6-2.1-.9-3.1l-.1-.3c-.7-2.1-1.4-4.1-2.1-6.1-1.7-4.6-3.7-8.8-5.9-12.6-1.2-2.1-2.5-4.1-3.9-6-1.4-2-2.9-3.7-4.4-5.3l-.1-.1c-.3-.4-.7-.7-1-1l-.1-.1c-.3-.3-.7-.6-1-1-.8-.7-1.5-1.3-2.3-1.9l-1.2-.9-.1-.1c-.2-.1-.4-.3-.6-.4l-.2-.1c-.2-.1-.7-.4-.7-.4l-.5-.3c-.1-.1-.4-.2-.4-.2s-.3-.2-.4-.2c-.8-.4-1.6-.5-2.5-.5-.5 0-.9.1-1.4.2-2 .5-4 1-6.1 1.6-.4.1-.9.3-1.3.4l-.6.2c-1.2.4-2.5.8-3.9 1.3-.5.2-1 .4-1.6.6l-.5.2c-1 .4-2.1.9-3.3 1.4-.7.3-1.3.6-1.9.9l-.1.1c-1.1.6-2.1 1.1-3 1.6-.6.4-1.3.7-1.9 1.1-.9.5-1.8 1.1-2.8 1.8-.6.4-1.1.7-1.7 1.1-.8.6-1.7 1.2-2.7 2l-.3.3c-.4.3-.7.6-1.1.8-.8.7-1.7 1.4-2.7 2.4l-.3.3c-.2.2-.5.4-.7.7-1.2 1.1-2.3 2.3-3.3 3.4l-.1.1c-7.7 8.6-13.4 19.7-17.4 33.7-.9 3.3-1.8 6.7-2.6 10.6l-.1.2c-.7 3.2-1.3 6.6-2 10.4v.1c-.4 2.3-.8 4.5-1.2 6.7l-.3 1.6c-.6 3.7-1.3 7.7-2 11.4-.9 4.7-1.8 8.5-2.8 11.7-1 3.4-2.6 6.4-4.7 9-1.8 2.3-4.1 4.2-6.7 5.9-1.2.8-2.6 1.5-4 2.1h-.1c-1.4.6-2.9 1.2-4.4 1.6-5.2 1.6-11.2 2.4-17.8 2.5h-3.7c.9-18.2 1-34.5.3-48.5 1.5-3.7 4.1-11.2 2.2-16.4-.9-2.4-2.3-5.4-4.5-7.9-.8-4.9-1.7-9.4-2.8-13.4 49.3-9.8 60-36.6 60-57.8 0-19-6.4-34.2-19.2-45.2 4.7-28.4-.3-35.4-2-37.7-2-2.7-4.7-4.4-7.9-4.9-.7-.1-1.5-.2-2.2-.2-11.3 0-27.3 12.1-39.5 23-10.9-1.5-23.3-2.3-36.8-2.3-3 0-6.2 0-9.4.1-15.5.4-29.4 1.6-41.3 3.7C57.3 9.4 47.1 1.7 39.5 1.7c-1.4 0-2.8.2-4 .7-5.3 2-11.8 8.1-8.6 37.9C9.4 52.2.6 70 0 94.5c-.8 36.2 30.9 46.7 61.2 51-.9 3.6-1.9 7.9-2.8 12.7z"/><path fill="#95C7B2" d="M262.8 115.8c.9-.5 1.8-1 2.7-1.4-.9.4-1.8.9-2.7 1.4zm20.9-7.6s.1.1.2.1c-.1-.1-.1-.1-.2-.1zm5.6 4.3l.9.9c-.3-.4-.6-.6-.9-.9zm-5.3-4.2c.1 0 .2.1.2.1s-.1 0-.2-.1zm.9.6c.1.1.3.2.4.3-.1-.1-.2-.2-.4-.3zm3.5 2.7c.3.2.5.5.8.8l-.8-.8zm-33.8 9.6l2.4-1.8-2.4 1.8zm29.8-12.6c.1.1.2.1.3.2 0-.1-.2-.2-.3-.2zm-.9-.5c.1 0 .1 0 0 0 .1 0 .1 0 0 0zm-24.9 10.3c.8-.5 1.7-1.1 2.5-1.6-.8.5-1.7 1-2.5 1.6zm8.8-4.9c1-.5 2-.9 3-1.3-1 .4-2 .8-3 1.3zm10.3-3.9c1.9-.6 3.8-1.1 5.8-1.5-2 .4-3.9.9-5.8 1.5zm-5.3 1.8l3.6-1.2c-1.3.4-2.5.8-3.6 1.2zm13-2.2c.8.5 1.8 1.3 2.9 2.3-1.1-1-2.1-1.7-2.9-2.3zM211.9 282c4.5.3 8.9.2 13.4-.1-4.4.4-8.9.4-13.4.1zm89.2-54.7c-1 1.6-2.1 3.2-3.2 4.7 1.2-1.5 2.2-3 3.2-4.7z"/><path fill="#949FC2" d="M311.6 198.4c-1.1 8.3-3.6 16.2-7.4 23.5 5.4-10.4 8.3-21.9 8-34.3-.3-8.9-.9-16.8-1.9-23.8-20.8-2.2-48.9-10-63.3-35.4-8.1 9.1-12.9 20-16.1 31.4 14.8 16.2 45.3 43.1 80.7 38.6z"/><path fill="#95C7B2" d="M297.6 232.5c-1.1 1.5-2.3 3-3.5 4.4 1.3-1.4 2.4-2.9 3.5-4.4z"/><path fill="#949FC2" d="M243.5 268.3c-5.9 1.6-11.9 2.6-17.9 3.1 26.3-2.1 51.8-14.8 68.2-34-1.3 1.6-2.7 3.1-4.2 4.6-20.9-5.2-52.9-16.9-66.9-41.7-.8 4.3-1.8 8.4-2.9 12.2-1.3 4.4-3.3 8-5.8 11.1 2.3 15.4 9.2 39.5 29.5 44.7zm-77.1-13.2c13.7 10.2 29.3 15.4 45.2 16.4-1.5-.1-3-.2-4.5-.4-5.2-9.7-10.6-22.8-11.4-35.9-6.6 2-13.5 2.7-19.5 2.8-2.8 6-5.1 13.2-5.2 20.3-1.5-1-3-2.1-4.6-3.2z"/><path fill="#95C7B2" d="M297.8 123.7c2.6 4.5 5.2 10.3 7.5 17.5-2.3-7.2-4.9-13-7.5-17.5zm6.4 98.2c-.9 1.8-1.9 3.5-2.9 5.2 1-1.7 2-3.4 2.9-5.2zm-14-108.5c2.3 2.4 4.9 5.7 7.5 10.2-2.6-4.5-5.2-7.8-7.5-10.2zm15.1 28.1c.3 1 .6 1.9.9 2.9-.3-1-.6-2-.9-2.9zm1 3.4c.3 1 .6 2.1.8 3.1-.2-1.1-.5-2.1-.8-3.1zm.9 3.4c1.2 4.7 2.2 9.8 3 15.6-.8-5.8-1.8-11-3-15.6zm-101.5 82.5zm19.1-42.1c.5-2.7.9-5.5 1.4-8.3-.5 2.9-1 5.6-1.4 8.3zm1.4-8.3c.6-3.4 1.3-6.8 2-10.2-.7 3.5-1.4 6.9-2 10.2zm-25.4 52.9c.1 0 .1 0 0 0 .1 0 .1 0 0 0zm27.4-63.3c.7-3.4 1.6-6.8 2.5-10.2-.9 3.4-1.7 6.8-2.5 10.2zm-61.4 67.6h.3-.3zm5.9.3h.5-.5zm74.2-109.5c1-1.1 2-2.1 3.1-3.2-1.1 1.1-2.1 2.1-3.1 3.2zm4-4c.8-.7 1.6-1.5 2.4-2.2-.8.7-1.6 1.5-2.4 2.2z"/><path fill="#735846" d="M310.2 163.9c-.8-5.8-1.8-10.9-3-15.6 0-.1 0-.2-.1-.3-.3-1.1-.5-2.1-.8-3.1 0-.1-.1-.3-.1-.4-.3-1-.6-2-.9-2.9 0-.1-.1-.2-.1-.3-2.3-7.2-4.9-13-7.5-17.5v-.1c-2.6-4.5-5.2-7.8-7.5-10.2l-.1-.1-.9-.9-.1-.1c-.3-.3-.6-.5-.8-.8-1.1-1-2.1-1.8-2.9-2.3h-.1c-.2-.1-.3-.2-.4-.3-.1 0-.1-.1-.2-.1-.1-.1-.2-.1-.3-.2-.1 0-.1-.1-.2-.1-.1-.1-.2-.1-.2-.1-.1 0-.1-.1-.1-.1-.1 0-.1-.1-.2-.1 0 0-.1 0-.1-.1h-.2c-2 .5-3.9 1-5.8 1.5l-1.8.6-3.6 1.2c-.7.2-1.3.5-1.9.8-1 .4-2.1.8-3 1.3-.6.3-1.2.6-1.9.9-.9.5-1.8.9-2.7 1.4-.6.3-1.2.7-1.7 1-.9.5-1.7 1-2.5 1.6-.5.3-1 .7-1.5 1l-2.4 1.8c-.4.3-.9.7-1.3 1-.8.7-1.7 1.4-2.4 2.2-.3.3-.6.6-.9.8-1.1 1-2.1 2.1-3.1 3.2 14.4 25.3 42.5 33.2 63.3 35.4zm-145 90.2c.4.3.8.7 1.3 1 1.5 1.1 3.1 2.2 4.6 3.2.1-7.1 2.5-14.3 5.2-20.3h-3.7c-2-.1-3.9-.2-5.5-.3h-.3c-.2 0-.4 0-.6-.1-.3 6.5-.7 12.2-1 16.5zm124.4-12.2c1.5-1.5 2.9-3 4.2-4.6.1-.2.2-.3.4-.5 1.2-1.4 2.4-2.9 3.5-4.4.1-.1.2-.3.3-.4 1.1-1.5 2.2-3.1 3.2-4.7 0-.1.1-.2.1-.2 1-1.7 2-3.4 2.9-5.2 3.8-7.3 6.3-15.2 7.4-23.5-35.3 4.4-65.9-22.4-80.8-38.6-1 3.4-1.8 6.8-2.5 10.2v.2c-.7 3.4-1.4 6.8-2 10.2-.5 2.8-1 5.5-1.4 8.3-.7 3.9-1.3 7.8-2.1 11.5 13.9 24.8 45.9 36.6 66.8 41.7zm-78 29.6h.3c4.5.3 8.9.2 13.4-.1h.2c6.1-.5 12.1-1.5 17.9-3.1-20.3-5.2-27.2-29.3-29.5-44.7-2.4 2.9-5.2 5.3-8.3 7.2-1.5.9-3.1 1.8-4.8 2.5-1.6.7-3.3 1.3-5.1 1.9.8 13.1 6.1 26.2 11.4 35.9 1.5.2 3 .3 4.5.4z"/><path fill="#FDF8BF" d="M81.3 240.4c0 13.3 58.2 18.6 61.8 5.3 3.6-13.3 2.4-87-30-86.3-25.8.5-31.8 67.7-31.8 81z"/><path fill="#735846" d="M82.5 111.9c4.9-3.7 9.6-6.7 14-8.8.5-.7 1-1.3 1.5-1.9-.1-.6-.2-1.1-.2-1.7 0-5.8 6-10.5 13.4-10.5s13.4 4.7 13.4 10.5c0 .9-.2 1.7-.4 2.5 1.2 1.7 2.3 3.6 3.4 5.7 5.7 5 12.9 9.1 37.1 6.2 32.5-3.8 44.9-70.7-53.5-67.9-66.9 1.9-75.5 30.6-72.6 46.8 2.8 16.2 27.6 31.5 43.9 19.1zm72.2-32.2c4.9 0 8.9 4 8.9 8.9s-4 8.9-8.9 8.9-8.9-4-8.9-8.9 4-8.9 8.9-8.9zm-92 8.9c0-4.9 4-8.9 8.9-8.9s8.9 4 8.9 8.9-4 8.9-8.9 8.9-8.9-4-8.9-8.9z"/><circle fill="#332000" cx="71.6" cy="88.6" r="8.9"/><path fill="#FDF8BF" d="M111.1 109.9c-6.7 0-12.1-3.8-13.2-8.8-.5.6-1 1.3-1.5 1.9-3.4 4.5-7 10.5-7.3 15.8-.6 10.2 29.9 12.1 39.5 7 5.3-2.8 2.8-11.1-1.1-18.3-1.1-2-2.3-4-3.4-5.7-1.4 4.7-6.7 8.1-13 8.1z"/><circle fill="#332000" cx="154.7" cy="88.6" r="8.9"/><path fill="#332000" d="M111.1 109.9c6.3 0 11.6-3.4 13-8 .2-.8.4-1.6.4-2.5 0-5.8-6-10.5-13.4-10.5s-13.4 4.7-13.4 10.5c0 .6.1 1.1.2 1.7 1.1 5 6.6 8.8 13.2 8.8z"/><path fill="#949FC2" d="M222 88c0-18.1-6.1-32.4-19.7-42.7 2.4-13.1 5.6-37.7-4.2-39.1-10.7-1.5-31.2 16.2-39 23.2-13.5-2.1-29.4-3-48-2.5-17 .4-31.6 1.9-43.9 4.3C61 23.1 45.5 5 37.6 8c-7.4 2.8-5.8 23.8-4.3 35.3C14.2 54.8 6.5 72.1 6 94.7c-.7 30.6 24.9 41.4 62.8 45.8-1.4 4.5-3.3 11.8-5 21.1 1.1-.6 2.4-.7 3.6 0 5.7 3.2 5.1 28 .6 28.7-2.2.3-5-3.5-7-8.1-.7 8.8-.9 18.4-.2 28.3 3 40.5 12 53.8 5.4 60.4-6.6 6.6 5.4 6 9.6 2 4.2-4 3.6-10 13.8-11.3 10.2-1.3 59.4-1.3 61.8 3.3 2.4 4.6 3 10 7.8 10.6 4.8.7 9.6-1.3 9.6-1.3s-4.8-2.7-4.2-12.6c.1-1.3.3-3.9.6-7.5.3-4.3.7-9.9 1.1-16.5.9-15.5 1.6-36.1.5-55.2-2.1 4.5-4.8 8.2-6.9 7.9-4.5-.6-5.1-25.5.6-28.7 1.6-.9 3.1-.5 4.4.5-1.2-8-2.8-15.2-5.1-21 37.9-5.8 62.2-22.6 62.2-53.1zm-27.7-71.1c5.1 1.9 0 22.3 0 22.3s-15.3-8.3-21.7-8.9c0 0 16.6-15.3 21.7-13.4zM42 16.9c4.5-1.3 15.9 15.3 15.9 15.3-5.7.6-17.2 6.4-17.2 6.4S37.6 18.2 42 16.9zm101 228.8c-3.6 13.3-61.8 8-61.8-5.3s6-80.5 31.8-81c32.4-.7 33.6 73 30 86.3zm21.7-131.9c-24.2 2.8-31.4-1.2-37.1-6.2 3.9 7.2 6.4 15.5 1.1 18.3-9.6 5.1-40.1 3.2-39.5-7 .3-5.3 3.9-11.3 7.3-15.8-4.4 2.1-9.1 5.1-14 8.8-16.2 12.4-41.1-2.9-44-19.1-2.9-16.2 5.7-44.9 72.6-46.8 98.5-3 86 63.9 53.6 67.8z"/><path fill="#735846" d="M194.3 16.9c-5.1-1.9-21.7 13.4-21.7 13.4 6.4.6 21.7 8.9 21.7 8.9s5.1-20.4 0-22.3zM57.9 32.2S46.4 15.6 42 16.9c-4.5 1.3-1.3 21.7-1.3 21.7s11.5-5.7 17.2-6.4zm10.2 158c4.5-.6 5.1-25.5-.6-28.7-1.3-.7-2.5-.6-3.6 0-2.2 1.2-4 4.3-5.3 7.6-1 2.6.4 8.2 2.5 12.9 2.1 4.7 4.8 8.5 7 8.2zm92.4-28.7c-5.7 3.2-5.1 28-.6 28.7 2.2.3 4.9-3.4 6.9-7.9 2.2-4.8 3.6-10.5 2.6-13.1-1.1-2.9-2.7-5.7-4.5-7.1-1.3-1.1-2.8-1.4-4.4-.6z"/></svg>