<svg xmlns="http://www.w3.org/2000/svg" viewBox="0 0 322.6 292.9"><ellipse fill="#ACACAC" cx="140.9" cy="268.6" rx="106.5" ry="24.2"/><path fill="#371800" d="M310.5 121.5c-8.1-4.9-14.6-7.1-20.6-7.1-13.4 0-20.5 11.2-26.3 23.2-.9 1.9-1.8 4-2.9 6.3l-.1.2c-.9 2.1-1.8 4.3-2.9 6.8l-.2.5c-.9 2.3-1.9 4.6-2.8 7.1l-3.4 8.7c-1.3 3.4-2.8 6.9-4.3 10.6-2.1 5.1-4.7 10-7.7 14.5-2.5 3.7-5.3 7.1-8.4 10.3l-.1.1c-1 1-2 2-3 2.9-6.2 5.7-13.3 10.4-21.3 14.1-1.3.6-2.6 1.1-3.9 1.7.3-2.5.6-5.1.8-7.6.4-3.8.5-7.7.5-11.7.7.1 1.3.1 2 .1 3.8 0 6.9-1.7 8.2-4.6 1.3-2.8.8-6.1-1.5-8.8-1.9-2.3-6.4-9.5-12.5-19.9-1.1-5-2.4-9.4-3.5-13.1 52-11.5 73.9-33.7 74.9-34.6 1.7-1.7 2.2-4.3 1.2-6.5-.3-.8-.8-1.4-1.4-2 2.7-1.2 4.6-2.2 5.1-2.5 2.3-1.3 3.5-3.9 3-6.4-.5-2.6-2.6-4.5-5.2-4.8-8.6-1-36.6-16.8-50.3-39.2-1.6-2.7-3.2-5.2-4.9-7.6 17.9-16 11-46 10.7-47.4-.6-2.4-2.6-4.2-5-4.6-1.2-.1-2.5-.2-3.7-.2-14.4 0-30.2 10.4-40 18-10.4-4.7-21.8-7.1-34.2-7.1-1.3 0-2.7 0-4.1.1-14.1.6-27.4 3-39.7 7.2-8.2-5.9-22.5-14.1-40.5-15.4H62c-2.8 0-5.3 2-5.9 4.8-.2.8-3.5 17.4 4.1 35.7-11 9.7-19.1 20-25.1 27.7-4 5.1-8.1 10.3-10.2 11.4-13.7 7.2-22.2 13.7-22.6 14-1.5 1.2-2.4 3-2.3 4.9 0 1.9 1 3.7 2.6 4.8 1.4 1 3 1.9 4.6 2.6-.4 1.6-.1 3.3.8 4.7.8 1.1 16.7 24.7 57.6 38.9-.6.6-1 1.3-1.4 2-2.4 5.6 2.9 18.7 9.2 26.7-2.8 28.5.3 61.9 1.6 74.7.2 1.6.3 2.8.3 3.6.3 3.7-.9 5-1.3 5.4-2.4.8-3.7 2.9-3.8 5.5-.1 2.6 2 4.9 4.5 5.7.5.2 5 1.6 10.3 1.6 1 0 2-.1 2.9-.2 7.2-.8 9.9-6.1 11.7-9.5.2-.5.5-.9.7-1.4 4.5-1.1 19.5-2.2 41.1-2.2 10.1 0 19.4.3 23.1.6 5.3.5 6.2 1.7 7.9 4.1 1.1 1.4 2.4 3.2 4.5 4.8 3.6 2.7 9.1 3.9 12.9 3.9 6.4 0 8.5-3.3 9.2-5.2.8-2.4.8-6-4-9.9-.9-.8 0-5 1.2-10 .5.1 1 .2 1.5.2l.8.1c1.3.2 2.6.3 3.9.5.2 0 1 .1 1 .1l2.7.3c.5 0 .9.1 1.3.1h.1c.7 0 1.4.1 2.1.1.6 0 1.2.1 1.7.1h3.8c11.8 0 23.1-1.9 33.8-5.6 5.5-1.9 10.8-4.3 15.8-7.1 0 0 .1-.1.2-.1 2.4-1.3 4.8-2.8 7.1-4.3l.2-.1c1.2-.8 2.4-1.6 3.6-2.5l.1-.1c1-.7 2-1.5 3-2.3l.3-.3c9.8-7.8 18.4-17.4 25.5-28.5.1-.1.1-.2.2-.2.1-.2.2-.3.3-.5l.1-.2 1.8-3c.2-.3.7-1.2.7-1.2l1.5-2.7c.2-.4.4-.8.7-1.3.5-1 1-1.9 1.5-2.9 0 0 .4-.8.5-1.1.7-1.4 1.3-2.7 1.8-4v-.1c1.2-2.7 2.3-5.5 3.2-8.2l.1-.3c1-2.8 1.8-5.5 2.5-8.1 6.1-22.4 2.5-40.8-9.1-47.8z"/><path fill="#E59C51" d="M269 140.1c-.9 1.9-1.8 4-2.8 6.2.9-2.2 1.9-4.3 2.8-6.2zm-2.9 6.4c-.9 2.1-1.9 4.4-2.8 6.7 1-2.4 1.9-4.6 2.8-6.7zm-67.3 100.2c-2.3-.3-4.5-.7-6.8-1.2 2.3.5 4.6.9 6.8 1.2zm64.3-93c-.9 2.2-1.8 4.6-2.8 7 1-2.4 1.9-4.8 2.8-7zm-28 53.2zm27.1 29.1c2.3-1.3 4.5-2.6 6.7-4.1-2.2 1.5-4.4 2.8-6.7 4.1zM209 225.2c7.4-3.4 15.4-8.2 22.8-15.1 9.4 7.4 13.6 21.2 15.4 32.6-13.9 4.8-29.8 6.7-47.7 4.1 5.2.7 10.3 1.1 15.1 1.2.7-7.6-2.3-16-5.6-22.8z"/><path fill="#E59C51" d="M269 140.1c9.3-19.6 18.1-25.7 38.4-13.5 9.5 5.8 11.6 22.2 6.7 41.3-10.4-11.7-30.9-21.8-45.1-27.8zm-21.8 102.6c5.2-1.8 10.2-4.1 14.9-6.7-4.7 2.7-9.6 4.9-14.9 6.7zm-3-47c3.1-4.6 5.9-9.8 8.3-15.6 1.5-3.7 2.9-7.3 4.3-10.7v.1c17.3 6 34.2 21.2 43.2 30.2 3.3-5.2 6.2-10.6 8.5-15.9-7.8 17.7-21 35.6-39.5 48 2.2-1.5 4.3-3 6.3-4.6-6.1-13.8-19.5-24.4-31.1-31.5z"/><path fill="#58361A" d="M195.2 230.3c4-1.2 8.8-2.8 13.8-5.1 3.3 6.7 6.3 15.2 5.7 22.8-4.9 0-9.9-.4-15.1-1.2-.3 0-.5-.1-.8-.1-2.2-.3-4.5-.8-6.8-1.2 1-4.2 2.1-9.2 3.2-15.2zm36.7-20.2c1.1-1 2.2-2.1 3.2-3.2 3.2-3.3 6.3-7 9.1-11.2 11.5 7 25 17.6 31.1 31.5-2 1.6-4.1 3.1-6.3 4.6-.1 0-.1.1-.2.1-2.1 1.4-4.4 2.8-6.7 4.1 0 0-.1 0-.1.1-4.7 2.6-9.6 4.8-14.9 6.7-1.6-11.5-5.9-25.2-15.2-32.7zm24.9-40.6c1.2-3.1 2.4-6 3.5-8.8 1-2.4 1.9-4.8 2.8-7 .1-.2.1-.3.2-.5 1-2.4 1.9-4.6 2.8-6.7 0-.1 0-.1.1-.2.9-2.2 1.9-4.2 2.8-6.2 14.2 6 34.7 16 45.1 27.8-.6 2.5-1.4 5.1-2.3 7.7 0 .1-.1.2-.1.3-.9 2.6-1.9 5.2-3.1 7.8 0 0 0 .1-.1.1-2.3 5.3-5.2 10.7-8.5 15.9-9-9-25.9-24.1-43.2-30.2z"/><path fill="#E59C51" d="M86.5 151.9c-1.9 4-3.5 8.7-4.6 13.9 6.2 4.4 12.3 7.9 12.3 7.9l-9.2 9.6c-1.9-1-3.6-2.5-5.3-4.2-3.7 32.3 1.2 73.5 1.6 79.8.7 8.9-4.7 11.2-4.7 11.2s5.4 1.8 10.7 1.2c5.4-.6 6-5.3 8.7-9.5 2.7-4.1 57.7-4.1 69.1-3 11.4 1.2 10.7 6.5 15.4 10.1 4.7 3.6 18.1 4.1 10.7-1.8-4.5-3.6-2.5-9.4.5-21.6 1-4.2 2.2-9.2 3.3-15.2.9-5 1.7-10.7 2.3-17.1.6-7 .6-13.7.2-20.1-3.3-2.3-6.8-6-9.8-11.6l2.3-18.1s1.9 3.3 4.4 7.6c-1.9-8.6-4.2-15.5-5.8-19.8-14.6 2.8-31.5 4.8-50.9 5.2-19.6.6-36.6-1.3-51.2-4.5zm52.6 15.8c28.9.5 35.6 60.4 35.6 72.2 0 11.8-65.1 16.6-69.1 4.7-4.1-11.8-2.7-77.5 33.5-76.9z"/><path fill="#F9DF99" d="M174.7 239.9c0 11.8-65.1 16.6-69.1 4.7-4-11.8-2.7-77.5 33.6-77 28.8.5 35.5 60.4 35.5 72.3z"/><path fill="#E59C51" d="M187.9 181.5l2.3-18.1s1.9 3.3 4.4 7.6c4.4 7.4 10.8 18.1 13.6 21.5 3.1 3.7-3.1 5.6-10.4.5-3.4-2.2-6.9-5.9-9.9-11.5zM85 183.3c-1.9-1-3.6-2.5-5.3-4.2-9-9.7-13.2-27.8-7.6-21.5 2.5 2.7 6.1 5.7 9.8 8.3 6.2 4.4 12.3 7.9 12.3 7.9l-9.2 9.5zM6 101.1c8.3 5.7 22.9 7 22.9 7C23.2 109.4 13 110 13 110s19.8 30 73.5 41.8c14.5 3.2 31.5 5.1 51.3 4.7 19.4-.4 36.3-2.4 50.9-5.2 55.6-10.8 78.4-34.3 78.4-34.3-8.9 0-14.7-5.7-14.7-5.7 8.3.6 21-6.4 21-6.4-11.5-1.3-40.8-19.1-54.8-42-2.4-4-5.1-8.1-8.1-12-1.6.9-3.4 1.8-5.3 2.5l-26.8-25.5s1.2-1.1 3.2-2.7c-10.5-5.5-23.2-8.7-38.8-8.1-15.8.6-29.3 3.6-41 7.9 2.2 1.7 3.4 2.9 3.4 2.9l-35 21.7c-1-1.6-1.9-3.1-2.7-4.7-21.9 18.1-32.5 39-40 43C14.3 94.7 6 101.1 6 101.1zm160.6 27.4c-2.5 7-28.7 7.6-35.7 1.3-7-6.4 7-35 15.9-33.8 12.7 1.8 22.3 25.5 19.8 32.5zm-25.5-77.7c45.8 3.1 60.5 8.9 75.2 30.6 14.7 21.7-3.2 35-22.9 39.5-19.8 4.5-35-19.1-42-25.5-7-6.4-14 7-21.7 15.3-7.6 8.3-42 21-61.8-4.5C48 80.7 85 47 141.1 50.8z"/><path fill="#E59C51" d="M205.4 53.3c2-.7 3.7-1.5 5.3-2.5 20.8-12.3 13.2-44.7 13.2-44.7-15.1-2-34.6 12.7-42.1 18.9-2 1.6-3.2 2.7-3.2 2.7l26.8 25.6zm.7-8.9c-5.7-7-15.9-14-15.9-14 7-11.5 25.5-8.9 25.5-8.9 3.1 13.4-9.6 22.9-9.6 22.9zM105.4 27.9s-1.2-1.2-3.4-2.9c-6.3-5-21-14.8-39.9-16.2 0 0-3.7 17.8 5.6 36.1.8 1.6 1.7 3.2 2.7 4.7l35-21.7zM92 27.2c-6.4 1.9-15.9 10.2-15.9 10.2-7-8.9-5.7-19.8-5.7-19.8C81.8 17 92 27.2 92 27.2z"/><path fill="#58361A" d="M67.8 106.2c19.8 25.5 54.2 12.7 61.8 4.5 7.6-8.3 14.7-21.7 21.7-15.3 7 6.4 22.3 29.9 42 25.5 19.8-4.5 37.6-17.8 22.9-39.5-14.7-21.7-29.4-27.5-75.2-30.6-56-3.8-93 29.9-73.2 55.4zM178 89.7c0-4.2 3.4-7.6 7.6-7.6 4.2 0 7.6 3.4 7.6 7.6 0 4.2-3.4 7.6-7.6 7.6-4.2 0-7.6-3.4-7.6-7.6zm-84.7 0c0-4.2 3.4-7.6 7.6-7.6 4.2 0 7.6 3.4 7.6 7.6 0 4.2-3.4 7.6-7.6 7.6-4.2 0-7.6-3.4-7.6-7.6zm-23-72C81.8 17 92 27.2 92 27.2c-6.4 1.9-15.9 10.2-15.9 10.2-7-8.9-5.8-19.7-5.8-19.7zm135.8 26.7c-5.7-7-15.9-14-15.9-14 7-11.5 25.5-8.9 25.5-8.9 3.1 13.4-9.6 22.9-9.6 22.9z"/><circle fill="#371800" cx="185.7" cy="89.7" r="7.6"/><circle fill="#371800" cx="100.9" cy="89.7" r="7.6"/><path fill="#F9DF99" d="M166.6 128.5c2.5-7-7.1-30.7-19.8-32.5-8.9-1.3-22.9 27.4-15.9 33.8 7 6.4 33.1 5.7 35.7-1.3zm-10.2-22.3c0 5.1-8.9 14-15.9 3.2-7.1-10.8 15.9-10.2 15.9-3.2z"/><path fill="#371800" d="M140.4 109.4c-7-10.8 15.9-10.2 15.9-3.2.1 5.2-8.9 14-15.9 3.2z"/></svg>