<svg xmlns="http://www.w3.org/2000/svg" viewBox="0 0 139.7 226.2" enable-background="new 0 0 139.7 226.2"><path fill="#FAA51A" d="M69.8 139.7v-139.7c-38.5 0-69.8 31.3-69.8 69.8 0 10.2 2.2 19.9 6.1 28.6v.1l1.4 3 39.5 76.8h22.9v-38.6z"/><path fill="#D12F33" d="M69.8 139.7v-139.7c38.6 0 69.8 31.3 69.8 69.8 0 10.2-2.2 19.8-6.1 28.6v.1l-1.4 3-39.4 76.8h-22.9v-38.6z"/><path fill="#FFD22F" d="M0 69.8v1.4h69.8v-71.2c-38.5 0-69.8 31.3-69.8 69.8z"/><path fill="#F04938" d="M69.8 0v71.2h69.8v-1.4c.1-38.5-31.2-69.8-69.8-69.8z"/><path fill="#2E8ACA" d="M59.1 178.3l-17.6-107.1h56.7l-16.9 107.1z"/><path fill="#A3573B" d="M51.7 189.8h36.3v36.3h-36.3z"/><path fill="#2FAFD6" d="M41.5 71.3c0-39.4 12.7-71.3 28.3-71.3 15.7 0 28.3 31.9 28.3 71.3h-56.6z"/><g fill="#DBB567"><circle cx="51.7" cy="203.9" r="5.6"/><circle cx="69.8" cy="203.9" r="5.6"/><path d="M93.6 203.9c0 3.1-2.5 5.6-5.6 5.6-3.1 0-5.6-2.5-5.6-5.6s2.5-5.6 5.6-5.6c3.1 0 5.6 2.5 5.6 5.6z"/></g></svg>