<svg xmlns="http://www.w3.org/2000/svg" viewBox="0 0 339.3 339.3" enable-background="new 0 0 339.3 339.3"><path fill="#B0832D" d="M321.6 0h-304c-9.7 0-17.6 7.9-17.6 17.6v304c0 9.7 7.9 17.6 17.6 17.6h118.8c9.7 0 202.8-154.2 202.8-163.9v-157.7c.1-9.7-7.8-17.6-17.6-17.6z"/><path fill="#936627" d="M297.6 26.8h-256c-8.2 0-14.9 6.7-14.9 14.8v256c0 8.2 6.6 14.9 14.9 14.9h256c8.2 0 14.9-6.7 14.9-14.9v-256c0-8.1-6.7-14.8-14.9-14.8z"/><path fill="#815522" d="M297.6 26.8h-123.6v285.7h123.6c8.2 0 14.9-6.7 14.9-14.9v-256c0-8.1-6.7-14.8-14.9-14.8z"/><path fill="#6C491C" d="M33.8 304.6v-256c0-8.2 6.6-14.8 14.9-14.8h256c2.3 0 4.4.6 6.4 1.5-2.4-5-7.5-8.5-13.4-8.5h-256c-8.2 0-14.9 6.7-14.9 14.8v256c0 5.9 3.5 11 8.5 13.4-.9-2-1.5-4.1-1.5-6.4zm-16.1 8.2c-4.8 0-8.7 3.9-8.7 8.7 0 4.8 3.9 8.7 8.7 8.7 4.8 0 8.7-3.9 8.7-8.7 0-4.8-3.9-8.7-8.7-8.7z"/><circle fill="#6C491C" cx="17.7" cy="17.7" r="8.7"/><path fill="#543713" d="M319.7 312.8c-4.8 0-8.7 3.9-8.7 8.7 0 4.8 3.9 8.7 8.7 8.7 4.8 0 8.7-3.9 8.7-8.7.1-4.8-3.9-8.7-8.7-8.7z"/><circle fill="#815522" cx="319.7" cy="17.7" r="8.7"/><path fill="#6C491C" d="M264.2 100.2l-12 25.2-66.5-66.5-23.9 87.4-45.5-45.5-5.8 169.2-22.1 22.4 46.8 46.8h186.4c9.7 0 17.6-7.9 17.6-17.6v-146.3l-75-75.1z"/><path fill="#543713" d="M264 100.2l-12 25.2-66.5-66.5-23.9 87.4-45.6-45.6-5.7 169.3-22.1 22.4 20 20h189.4c8.2 0 14.9-6.6 14.9-14.8v-148.9l-48.5-48.5z"/><path fill="#953C20" d="M98.8 119.8h75.4v150.2h-75.4z"/><path fill="#491B10" d="M174.2 119.8h76.3v150.2h-76.3z"/><path fill="#BD5D3E" d="M88.2 270h86v11.9h-86z"/><path fill="#953C20" d="M174.2 270h85.4v11.9h-85.4z"/><path fill="#491B10" d="M118.4 292.4h-30.2v-10.5h38.5zm141.2 0h-31.1l-9.6-10.5h40.7z"/><path fill="#FEC23F" d="M173.9 261.4c-36.7 0-66.5-29.8-66.5-66.5s29.8-66.5 66.5-66.5v133z"/><path fill="#B0832D" d="M174.2 128.3c36.7 0 66.5 29.8 66.5 66.5s-29.8 66.5-66.5 66.5v-133z"/><circle fill="#5A371B" cx="173.9" cy="194.9" r="52"/><path fill="#3EBCA4" d="M173.9 242.1c26.1 0 47.2-21.1 47.2-47.2s-21.1-47.2-47.2-47.2v94.4z"/><path fill="#8DD5E3" d="M173.9 147.7c-26.1 0-47.2 21.1-47.2 47.2s21.1 47.2 47.2 47.2v-94.4z"/><circle fill="#08AE8F" cx="138.9" cy="194.9" r="4.3"/><path fill="#08AE8F" d="M146.1 216.6c-1.7 1.7-1.7 4.4 0 6.1 1.7 1.7 4.4 1.7 6.1 0 1.7-1.7 1.7-4.4 0-6.1-1.7-1.7-4.4-1.7-6.1 0z"/><path fill="#007351" d="M169.6 229.9c0 2.4 1.9 4.3 4.3 4.3s4.3-1.9 4.3-4.3-1.9-4.3-4.3-4.3-4.3 1.9-4.3 4.3zm26-7.3c1.7 1.7 4.4 1.7 6.1 0 1.7-1.7 1.7-4.4 0-6.1-1.7-1.7-4.4-1.7-6.1 0-1.7 1.7-1.7 4.5 0 6.1z"/><path fill="#3EBCA4" d="M208.8 199.2c2.4 0 4.3-1.9 4.3-4.3s-1.9-4.3-4.3-4.3-4.3 1.9-4.3 4.3 2 4.3 4.3 4.3z"/><path fill="#007351" d="M201.6 173.2c1.7-1.7 1.7-4.4 0-6.1-1.7-1.7-4.4-1.7-6.1 0-1.7 1.7-1.7 4.4 0 6.1 1.7 1.7 4.5 1.7 6.1 0z"/><path fill="#08AE8F" d="M152.2 167.1c-1.7-1.7-4.4-1.7-6.1 0-1.7 1.7-1.7 4.4 0 6.1 1.7 1.7 4.4 1.7 6.1 0 1.7-1.7 1.7-4.4 0-6.1z"/><path fill="#B0832D" d="M249 194.9c0 6.4-5.2 11.6-11.5 11.6-6.4 0-11.6-5.2-11.6-11.6 0-6.4 5.2-11.5 11.6-11.5 6.3-.1 11.5 5.1 11.5 11.5zm-63.6 63.6c0 6.4-5.2 11.6-11.6 11.6-6.4 0-11.5-5.2-11.5-11.6 0-6.4 5.2-11.5 11.5-11.5 6.5-.1 11.6 5.1 11.6 11.5z"/><path fill="#FEC23F" d="M185.4 131.3c0 6.4-5.2 11.5-11.6 11.5-6.4 0-11.5-5.2-11.5-11.5 0-6.4 5.2-11.6 11.5-11.6 6.5.1 11.6 5.2 11.6 11.6zm-63.5 63.6c0 6.4-5.2 11.6-11.5 11.6-6.4 0-11.6-5.2-11.6-11.6 0-6.4 5.2-11.5 11.6-11.5 6.3-.1 11.5 5.1 11.5 11.5z"/><path fill="#5A371B" d="M242.7 194.9c0 2.9-2.4 5.3-5.3 5.3s-5.3-2.4-5.3-5.3 2.4-5.3 5.3-5.3 5.3 2.4 5.3 5.3z"/><path d="M110.3 189.6c-2.9 0-5.3 2.4-5.3 5.3s2.4 5.3 5.3 5.3 5.3-2.4 5.3-5.3-2.4-5.3-5.3-5.3zm63.6-63.5c-2.9 0-5.3 2.4-5.3 5.3s2.4 5.3 5.3 5.3 5.3-2.4 5.3-5.3c-.1-3-2.4-5.3-5.3-5.3z" fill="#B0832D"/><path fill="#5A371B" d="M179.1 258.5c0 2.9-2.4 5.3-5.3 5.3s-5.3-2.4-5.3-5.3 2.4-5.3 5.3-5.3c3 0 5.3 2.4 5.3 5.3z"/><path fill="#007351" d="M166.6 161.9c1.9 3.8 2.9 8.1 2.9 12.7v1.3c-.2 4.8-1.6 9.2-3.8 13.1-.3.6-.7 1.2-1.1 1.7-.7 1.4-1.1 2.9-1.1 4.5 0 5.7 4.6 10.3 10.4 10.3 5.7 0 10.3-4.6 10.3-10.3 0-2.1-.6-4-1.7-5.7l.2-.2c-2.5-4.1-3.9-8.8-4.1-13.9v-.9c0-4.4 1-8.7 2.8-12.4l-7.5-7.5-7.3 7.3z"/><path fill="#F4E0AC" d="M98.8 145.5c-14.2 0-25.7-11.5-25.7-25.7s11.5-25.7 25.7-25.7v51.4z"/><path fill="#E7BE51" d="M98.8 145.5c14.2 0 25.7-11.5 25.7-25.7s-11.5-25.7-25.7-25.7v51.4z"/><circle fill="#5A371B" cx="98.8" cy="119.8" r="6.2"/><path fill="#F4E0AC" d="M250.5 145.5c-14.2 0-25.7-11.5-25.7-25.7s11.5-25.7 25.7-25.7v51.4z"/><path fill="#E7BE51" d="M250.5 145.5c14.2 0 25.7-11.5 25.7-25.7s-11.5-25.7-25.7-25.7v51.4z"/><circle fill="#5A371B" cx="250.5" cy="119.8" r="6.2"/><circle fill="#543717" cx="321.2" cy="321.5" r="8.7"/><path fill="#007351" d="M206.6 197.9c1.7 1.7 4.4 1.7 6.1 0 1.7-1.7 1.7-4.4 0-6.1-1.7-1.7-4.4-1.7-6.1 0-1.7 1.7-1.7 4.4 0 6.1z"/></svg>