<svg xmlns="http://www.w3.org/2000/svg" viewBox="0 0 20.7 50.9" enable-background="new 0 0 20.7 50.9"><path fill="#007351" d="M3.1 7.3c1.9 3.8 2.9 8.1 2.9 12.6v1.3c-.2 4.8-1.6 9.3-3.8 13.1-.3.6-.7 1.2-1.1 1.7-.7 1.4-1.1 3-1.1 4.6 0 5.7 4.6 10.3 10.3 10.3 5.7 0 10.3-4.6 10.3-10.3 0-2.1-.6-4-1.7-5.7l.2-.2c-2.5-4.1-3.9-8.8-4.1-13.9v-.9c0-4.4 1-8.7 2.8-12.4l-7.5-7.5-7.2 7.3z"/><path fill="#03332A" d="M10.3 36.7c2.2 0 3.9 1.8 3.9 3.9 0 2.2-1.8 3.9-3.9 3.9-2.2 0-3.9-1.8-3.9-3.9 0-2.2 1.8-3.9 3.9-3.9z"/></svg>