<svg xmlns="http://www.w3.org/2000/svg" viewBox="0 0 775.1 775.1" enable-background="new 0 0 775.1 775.1"><path fill="#AA7C40" d="M0 0h775.1v775.1h-775.1z"/><path d="M27.6 724.5c-7.7 0-14.7 2.5-20.6 6.6 9.1 6.4 15 17 15 28.9 0 2.6 2.3 5.5 5.6 5.5 3.1 0 5.5-2.8 5.5-5.5 0-11.9 5.9-22.5 15-28.9-5.7-4.2-12.8-6.6-20.5-6.6zm22.5 20.3c-3.4 4.7-5.4 10.4-5.6 16.6 0 3.2 2.5 6 5.6 6 3.2 0 5.6-2.9 5.6-6.1-.2-6.1-2.2-11.8-5.6-16.5zm44.9 0c-3.4 4.7-5.4 10.4-5.6 16.6 0 3.2 2.5 6 5.6 6 3.2 0 5.6-2.9 5.6-6.1-.2-6.1-2.2-11.8-5.6-16.5zm45 0c-3.4 4.7-5.4 10.4-5.6 16.6 0 3.2 2.5 6 5.6 6 3.2 0 5.6-2.9 5.6-6.1-.2-6.1-2.3-11.8-5.6-16.5zm44.9 0c-3.4 4.7-5.4 10.4-5.6 16.6 0 3.2 2.5 6 5.6 6 3.2 0 5.6-2.9 5.6-6.1-.2-6.1-2.2-11.8-5.6-16.5zm45 0c-3.4 4.7-5.4 10.4-5.6 16.6 0 3.2 2.5 6 5.6 6 3.2 0 5.6-2.9 5.6-6.1-.2-6.1-2.3-11.8-5.6-16.5zm44.9 0c-3.4 4.7-5.4 10.4-5.6 16.6 0 3.2 2.5 6 5.6 6 3.2 0 5.6-2.9 5.6-6.1-.2-6.1-2.2-11.8-5.6-16.5zm44.9 0c-3.4 4.7-5.4 10.4-5.6 16.6 0 3.2 2.5 6 5.6 6 3.2 0 5.6-2.9 5.6-6.1-.2-6.1-2.2-11.8-5.6-16.5zm45 0c-3.4 4.7-5.4 10.4-5.6 16.6 0 3.2 2.5 6 5.6 6 3.2 0 5.6-2.9 5.6-6.1-.2-6.1-2.3-11.8-5.6-16.5zm44.9 0c-3.4 4.7-5.4 10.4-5.6 16.6 0 3.2 2.5 6 5.6 6 3.2 0 5.6-2.9 5.6-6.1-.2-6.1-2.2-11.8-5.6-16.5zm45 0c-3.4 4.7-5.4 10.4-5.6 16.6 0 3.2 2.5 6 5.6 6 3.2 0 5.6-2.9 5.6-6.1-.2-6.1-2.3-11.8-5.6-16.5zm44.9 0c-3.4 4.7-5.4 10.4-5.6 16.6 0 3.2 2.5 6 5.6 6 3.2 0 5.6-2.9 5.6-6.1-.2-6.1-2.2-11.8-5.6-16.5zm44.9 0c-3.4 4.7-5.4 10.4-5.6 16.6 0 3.2 2.5 6 5.6 6 3.2 0 5.6-2.9 5.6-6.1-.2-6.1-2.2-11.8-5.6-16.5zm45 0c-3.4 4.7-5.4 10.4-5.6 16.6 0 3.2 2.5 6 5.6 6 3.2 0 5.6-2.9 5.6-6.1-.2-6.1-2.3-11.8-5.6-16.5zm44.9 0c-3.4 4.7-5.4 10.4-5.6 16.6 0 3.2 2.5 6 5.6 6 3.2 0 5.6-2.9 5.6-6.1-.2-6.1-2.2-11.8-5.6-16.5zm45 0c-3.4 4.7-5.4 10.4-5.6 16.6 0 3.2 2.5 6 5.6 6 3.2 0 5.6-2.9 5.6-6.1-.2-6.1-2.3-11.8-5.6-16.5zm44.9 0c-3.4 4.7-5.4 10.4-5.6 16.6 0 3.2 2.5 6 5.6 6 3.2 0 5.6-2.9 5.6-6.1-.2-6.1-2.2-11.8-5.6-16.5zm-651.6-20.3c-7.7 0-14.7 2.5-20.5 6.6 9.1 6.4 15 17 15 28.9 0 2.6 2.3 5.5 5.6 5.5 3.1 0 5.6-2.8 5.6-5.5 0-11.9 5.9-22.5 15-28.9-6-4.2-13.1-6.6-20.7-6.6zm44.9 0c-7.7 0-14.7 2.5-20.6 6.6 9.1 6.4 15 17 15 28.9 0 2.6 2.3 5.5 5.6 5.5 3.1 0 5.5-2.8 5.5-5.5 0-11.9 5.9-22.5 15-28.9-5.7-4.2-12.8-6.6-20.5-6.6zm44.9 0c-7.7 0-14.7 2.5-20.6 6.6 9.1 6.4 15 17 15 28.9 0 2.6 2.3 5.5 5.6 5.5 3.1 0 5.5-2.8 5.5-5.5 0-11.9 5.9-22.5 15-28.9-5.7-4.2-12.8-6.6-20.5-6.6zm45 0c-7.7 0-14.7 2.5-20.5 6.6 9.1 6.4 15 17 15 28.9 0 2.6 2.3 5.5 5.6 5.5 3.1 0 5.6-2.8 5.6-5.5 0-11.9 5.9-22.5 15-28.9-6-4.2-13-6.6-20.7-6.6zm44.9 0c-7.7 0-14.7 2.5-20.6 6.6 9.1 6.4 15 17 15 28.9 0 2.6 2.3 5.5 5.6 5.5 3.1 0 5.6-2.8 5.6-5.5 0-11.9 5.9-22.5 15-28.9-5.8-4.2-12.9-6.6-20.6-6.6zm45 0c-7.7 0-14.7 2.5-20.6 6.6 9.1 6.4 15 17 15 28.9 0 2.6 2.3 5.5 5.6 5.5 3.1 0 5.5-2.8 5.5-5.5 0-11.9 5.9-22.5 15-28.9-5.8-4.2-12.9-6.6-20.5-6.6zm44.9 0c-7.7 0-14.7 2.5-20.5 6.6 9 6.4 15 17 15 28.9 0 2.6 2.3 5.5 5.6 5.5 3.1 0 5.5-2.8 5.5-5.5 0-11.9 5.9-22.5 15-28.9-5.8-4.2-12.9-6.6-20.6-6.6zm44.9 0c-7.7 0-14.7 2.5-20.6 6.6 9.1 6.4 15 17 15 28.9 0 2.6 2.3 5.5 5.6 5.5 3.1 0 5.5-2.8 5.5-5.5 0-11.9 5.9-22.5 15-28.9-5.7-4.2-12.8-6.6-20.5-6.6zm45 0c-7.7 0-14.7 2.5-20.6 6.6 9.1 6.4 15 17 15 28.9 0 2.6 2.3 5.5 5.6 5.5 3.1 0 5.6-2.8 5.6-5.5 0-11.9 5.9-22.5 15-28.9-5.9-4.2-12.9-6.6-20.6-6.6zm44.9 0c-7.7 0-14.7 2.5-20.6 6.6 9.1 6.4 15 17 15 28.9 0 2.6 2.3 5.5 5.6 5.5 3.1 0 5.6-2.8 5.6-5.5 0-11.9 5.9-22.5 15-28.9-5.8-4.2-12.9-6.6-20.6-6.6zm45 0c-7.7 0-14.7 2.5-20.6 6.6 9.1 6.4 15 17 15 28.9 0 2.6 2.3 5.5 5.6 5.5 3.1 0 5.5-2.8 5.5-5.5 0-11.9 5.9-22.5 15-28.9-5.8-4.2-12.9-6.6-20.5-6.6zm44.9 0c-7.7 0-14.7 2.5-20.6 6.6 9 6.4 15 17 15 28.9 0 2.6 2.3 5.5 5.6 5.5 3.1 0 5.5-2.8 5.5-5.5 0-11.9 5.9-22.5 15-28.9-5.7-4.2-12.8-6.6-20.5-6.6zm45 0c-7.7 0-14.7 2.5-20.6 6.6 9.1 6.4 15 17 15 28.9 0 2.6 2.3 5.5 5.6 5.5 3.1 0 5.6-2.8 5.6-5.5 0-11.9 5.9-22.5 15-28.9-5.9-4.2-13-6.6-20.6-6.6zm44.9 0c-7.7 0-14.7 2.5-20.6 6.6 9.1 6.4 15 17 15 28.9 0 2.6 2.3 5.5 5.6 5.5 3.1 0 5.5-2.8 5.5-5.5 0-11.9 5.9-22.5 15-28.9-5.8-4.2-12.8-6.6-20.5-6.6zm44.9 0c-7.7 0-14.7 2.5-20.6 6.6 9.1 6.4 15 17 15 28.9 0 2.6 2.3 5.5 5.6 5.5 3.1 0 5.5-2.8 5.5-5.5 0-11.9 5.9-22.5 15-28.9-5.7-4.2-12.8-6.6-20.5-6.6zm45 0c-7.7 0-14.7 2.5-20.5 6.6 9.1 6.4 15 17 15 28.9 0 2.6 2.3 5.5 5.6 5.5 3.1 0 5.6-2.8 5.6-5.5 0-11.9 5.9-22.5 15-28.9-6-4.2-13.1-6.6-20.7-6.6zM746.7 48.9c7.7 0 14.7-2.5 20.6-6.6-9.1-6.4-15-17-15-28.9 0-2.6-2.3-5.5-5.6-5.5-3.1 0-5.5 2.8-5.5 5.5 0 11.9-5.9 22.5-15 28.9 5.7 4.1 12.8 6.6 20.5 6.6zm-22.5-20.3c3.4-4.7 5.4-10.4 5.6-16.6 0-3.2-2.5-6-5.6-6-3.2 0-5.6 2.9-5.6 6.1.2 6.1 2.2 11.8 5.6 16.5zm-44.9 0c3.4-4.7 5.4-10.4 5.6-16.6 0-3.2-2.5-6-5.6-6-3.2 0-5.6 2.9-5.6 6.1.2 6.1 2.2 11.8 5.6 16.5zm-45 0c3.4-4.7 5.4-10.4 5.6-16.6 0-3.2-2.5-6-5.6-6-3.2 0-5.6 2.9-5.6 6.1.2 6.1 2.3 11.8 5.6 16.5zm-44.9 0c3.4-4.7 5.4-10.4 5.6-16.6 0-3.2-2.5-6-5.6-6-3.2 0-5.6 2.9-5.6 6.1.2 6.1 2.2 11.8 5.6 16.5zm-45 0c3.4-4.7 5.4-10.4 5.6-16.6 0-3.2-2.5-6-5.6-6-3.2 0-5.6 2.9-5.6 6.1.2 6.1 2.3 11.8 5.6 16.5zm-44.9 0c3.4-4.7 5.4-10.4 5.6-16.6 0-3.2-2.5-6-5.6-6-3.2 0-5.6 2.9-5.6 6.1.2 6.1 2.2 11.8 5.6 16.5zm-44.9 0c3.4-4.7 5.4-10.4 5.6-16.6 0-3.2-2.5-6-5.6-6-3.2 0-5.6 2.9-5.6 6.1.2 6.1 2.2 11.8 5.6 16.5zm-45 0c3.4-4.7 5.4-10.4 5.6-16.6 0-3.2-2.5-6-5.6-6-3.2 0-5.6 2.9-5.6 6.1.2 6.1 2.3 11.8 5.6 16.5zm-44.9 0c3.4-4.7 5.4-10.4 5.6-16.6 0-3.2-2.5-6-5.6-6-3.2 0-5.6 2.9-5.6 6.1.2 6.1 2.2 11.8 5.6 16.5zm-45 0c3.4-4.7 5.4-10.4 5.6-16.6 0-3.2-2.5-6-5.6-6-3.2 0-5.6 2.9-5.6 6.1.2 6.1 2.3 11.8 5.6 16.5zm-44.9 0c3.4-4.7 5.4-10.4 5.6-16.6 0-3.2-2.5-6-5.6-6-3.2 0-5.6 2.9-5.6 6.1.2 6.1 2.2 11.8 5.6 16.5zm-44.9 0c3.4-4.7 5.4-10.4 5.6-16.6 0-3.2-2.5-6-5.6-6-3.2 0-5.6 2.9-5.6 6.1.2 6.1 2.2 11.8 5.6 16.5zm-45 0c3.4-4.7 5.4-10.4 5.6-16.6 0-3.2-2.5-6-5.6-6-3.2 0-5.6 2.9-5.6 6.1.2 6.1 2.3 11.8 5.6 16.5zm-44.9 0c3.4-4.7 5.4-10.4 5.6-16.6 0-3.2-2.5-6-5.6-6-3.2 0-5.6 2.9-5.6 6.1.2 6.1 2.2 11.8 5.6 16.5zm-45 0c3.4-4.7 5.4-10.4 5.6-16.6 0-3.2-2.5-6-5.6-6-3.2 0-5.6 2.9-5.6 6.1.2 6.1 2.3 11.8 5.6 16.5zm-44.9 0c3.4-4.7 5.4-10.4 5.6-16.6 0-3.2-2.5-6-5.6-6-3.2 0-5.6 2.9-5.6 6.1.2 6.1 2.2 11.8 5.6 16.5zm651.6 20.3c7.7 0 14.7-2.5 20.5-6.6-9.1-6.4-15-17-15-28.9 0-2.6-2.3-5.5-5.6-5.5-3.1 0-5.6 2.8-5.6 5.5 0 11.9-5.9 22.5-15 28.9 6 4.1 13.1 6.6 20.7 6.6zm-44.9 0c7.7 0 14.7-2.5 20.6-6.6-9.1-6.4-15-17-15-28.9 0-2.6-2.3-5.5-5.6-5.5-3.1 0-5.5 2.8-5.5 5.5 0 11.9-5.9 22.5-15 28.9 5.7 4.1 12.8 6.6 20.5 6.6zm-44.9 0c7.7 0 14.7-2.5 20.6-6.6-9.1-6.4-15-17-15-28.9 0-2.6-2.3-5.5-5.6-5.5-3.1 0-5.6 2.8-5.6 5.5 0 11.9-5.9 22.5-15 28.9 5.8 4.1 12.9 6.6 20.6 6.6zm-45 0c7.7 0 14.7-2.5 20.5-6.6-9.1-6.4-15-17-15-28.9 0-2.6-2.3-5.5-5.6-5.5-3.1 0-5.6 2.8-5.6 5.5 0 11.9-5.9 22.5-15 28.9 6 4.1 13 6.6 20.7 6.6zm-44.9 0c7.7 0 14.7-2.5 20.6-6.6-9.1-6.4-15-17-15-28.9 0-2.6-2.3-5.5-5.6-5.5-3.1 0-5.6 2.8-5.6 5.5 0 11.9-5.9 22.5-15 28.9 5.8 4.1 12.9 6.6 20.6 6.6zm-45 0c7.7 0 14.7-2.5 20.6-6.6-9.1-6.4-15-17-15-28.9 0-2.6-2.3-5.5-5.6-5.5-3.1 0-5.5 2.8-5.5 5.5 0 11.9-5.9 22.5-15 28.9 5.8 4.1 12.9 6.6 20.5 6.6zm-44.9 0c7.7 0 14.7-2.5 20.5-6.6-9-6.4-15-17-15-28.9 0-2.6-2.3-5.5-5.6-5.5-3.1 0-5.5 2.8-5.5 5.5 0 11.9-5.9 22.5-15 28.9 5.8 4.1 12.9 6.6 20.6 6.6zm-45 0c7.7 0 14.7-2.5 20.6-6.6-9.1-6.4-15-17-15-28.9 0-2.6-2.3-5.5-5.6-5.5-3.1 0-5.5 2.8-5.5 5.5 0 11.9-5.9 22.5-15 28.9 5.8 4.1 12.9 6.6 20.5 6.6zm-44.9 0c7.7 0 14.7-2.5 20.6-6.6-9.1-6.4-15-17-15-28.9 0-2.6-2.3-5.5-5.6-5.5-3.1 0-5.6 2.8-5.6 5.5 0 11.9-5.9 22.5-15 28.9 5.9 4.1 12.9 6.6 20.6 6.6zm-44.9 0c7.7 0 14.7-2.5 20.6-6.6-9.1-6.4-15-17-15-28.9 0-2.6-2.3-5.5-5.6-5.5-3.1 0-5.6 2.8-5.6 5.5 0 11.9-5.9 22.5-15 28.9 5.8 4.1 12.9 6.6 20.6 6.6zm-45 0c7.7 0 14.7-2.5 20.6-6.6-9.1-6.4-15-17-15-28.9 0-2.6-2.3-5.5-5.6-5.5-3.1 0-5.5 2.8-5.5 5.5 0 11.9-5.9 22.5-15 28.9 5.8 4.1 12.9 6.6 20.5 6.6zm-44.9 0c7.7 0 14.7-2.5 20.6-6.6-9-6.4-15-17-15-28.9 0-2.6-2.3-5.5-5.6-5.5-3.1 0-5.5 2.8-5.5 5.5 0 11.9-5.9 22.5-15 28.9 5.7 4.1 12.8 6.6 20.5 6.6zm-45 0c7.7 0 14.7-2.5 20.6-6.6-9.1-6.4-15-17-15-28.9 0-2.6-2.3-5.5-5.6-5.5-3.1 0-5.6 2.8-5.6 5.5 0 11.9-5.9 22.5-15 28.9 5.9 4.1 13 6.6 20.6 6.6zm-44.9 0c7.7 0 14.7-2.5 20.6-6.6-9.1-6.4-15-17-15-28.9 0-2.6-2.3-5.5-5.6-5.5-3.1 0-5.6 2.8-5.6 5.5 0 11.9-5.9 22.5-15 28.9 5.9 4.1 12.9 6.6 20.6 6.6zm-44.9 0c7.7 0 14.7-2.5 20.6-6.6-9.1-6.4-15-17-15-28.9 0-2.6-2.3-5.5-5.6-5.5-3.1 0-5.5 2.8-5.5 5.5 0 11.9-5.9 22.5-15 28.9 5.7 4.1 12.8 6.6 20.5 6.6zm-45 0c7.7 0 14.7-2.5 20.5-6.6-9.1-6.4-15-17-15-28.9 0-2.6-2.3-5.5-5.6-5.5-3.1 0-5.5 2.8-5.5 5.5 0 11.9-5.9 22.5-15 28.9 5.9 4.1 13 6.6 20.6 6.6z" fill="#C69349"/><path d="M155 748.6l-17.3-17.3zm436.3-17.5c9.1 6.4 15 17 15 28.9 0 2.6 2.3 5.5 5.6 5.5 3.1 0 5.6-2.8 5.6-5.5 0-11.9 5.9-22.5 15-28.9-5.8-4.1-12.9-6.6-20.6-6.6-7.7 0-14.8 2.4-20.6 6.6zm-89.9 0c9.1 6.4 15 17 15 28.9 0 2.6 2.3 5.5 5.6 5.5 3.1 0 5.5-2.8 5.5-5.5 0-11.9 5.9-22.5 15-28.9-5.8-4.1-12.9-6.6-20.6-6.6-7.6 0-14.7 2.4-20.5 6.6zm134.8 0c9.1 6.4 15 17 15 28.9 0 2.6 2.3 5.5 5.6 5.5 3.1 0 5.5-2.8 5.5-5.5 0-11.9 5.9-22.5 15-28.9-5.8-4.1-12.9-6.6-20.6-6.6-7.6 0-14.7 2.4-20.5 6.6zm-97.4 30.3c0 3.2 2.5 6 5.6 6 3.2 0 5.6-2.9 5.6-6.1-.2-6.2-2.3-11.9-5.6-16.6-3.3 4.8-5.4 10.5-5.6 16.7zm7.6-30.3c9 6.4 15 17 15 28.9 0 2.6 2.3 5.5 5.6 5.5 3.1 0 5.5-2.8 5.5-5.5 0-11.9 5.9-22.5 15-28.9-5.8-4.1-12.9-6.6-20.5-6.6-7.8 0-14.8 2.4-20.6 6.6zm127.2 30.3c0 3.2 2.5 6 5.6 6 3.2 0 5.6-2.9 5.6-6.1-.2-6.2-2.3-11.9-5.6-16.6-3.3 4.8-5.3 10.5-5.6 16.7zm-44.9 0c0 3.2 2.5 6 5.6 6 3.2 0 5.6-2.9 5.6-6.1-.2-6.2-2.3-11.9-5.6-16.6-3.3 4.8-5.4 10.5-5.6 16.7zm-460.7-1.4c0-11.9 5.9-22.5 15-28.9-5.8-4.1-12.9-6.6-20.6-6.6-7.7 0-14.7 2.5-20.6 6.6 6 4.3 10.7 10.4 13.1 17.5l12.8 12.8c.2-.5.3-.9.3-1.4zm-29.9-28.9c-.6-.4-1.1-.8-1.7-1.1l1.4 1.4c0-.2.1-.3.3-.3zm543.1 0c9.1 6.4 15 17 15 28.9 0 2.6 2.3 5.5 5.6 5.5 3.1 0 5.5-2.8 5.5-5.5 0-11.9 5.9-22.5 15-28.9-5.8-4.1-12.9-6.6-20.5-6.6-7.7 0-14.8 2.4-20.6 6.6zm59.9 28.9c0 2.6 2.3 5.5 5.6 5.5 3.1 0 5.6-2.8 5.6-5.5 0-11.9 5.9-22.5 15-28.9-5.8-4.1-12.9-6.6-20.6-6.6-7.7 0-14.7 2.5-20.5 6.6 9 6.4 14.9 16.9 14.9 28.9zm-22.5 1.4c0 3.2 2.5 6 5.6 6 3.2 0 5.6-2.9 5.6-6.1-.2-6.2-2.3-11.9-5.6-16.6-3.4 4.8-5.4 10.5-5.6 16.7zm-134.8 0c0 3.2 2.5 6 5.6 6 3.2 0 5.6-2.9 5.6-6.1-.2-6.2-2.3-11.9-5.6-16.6-3.4 4.8-5.4 10.5-5.6 16.7zm-314.6 0c0 3.2 2.5 6 5.6 6 3.2 0 5.6-2.9 5.6-6.1-.2-6.2-2.3-11.9-5.6-16.6-3.4 4.8-5.4 10.5-5.6 16.7zm7.5-30.3c9.1 6.4 15 17 15 28.9 0 2.6 2.3 5.5 5.6 5.5 3.1 0 5.5-2.8 5.5-5.5 0-11.9 5.9-22.5 15-28.9-5.8-4.1-12.9-6.6-20.6-6.6-7.6 0-14.7 2.4-20.5 6.6zm37.4 30.3c0 3.2 2.5 6 5.6 6 3.2 0 5.6-2.9 5.6-6.1-.2-6.2-2.3-11.9-5.6-16.6-3.3 4.8-5.4 10.5-5.6 16.7zm-82.3-30.3c9.1 6.4 15 17 15 28.9 0 2.6 2.3 5.5 5.6 5.5 3.1 0 5.6-2.8 5.6-5.5 0-11.9 5.9-22.5 15-28.9-5.8-4.1-12.9-6.6-20.6-6.6-7.7 0-14.8 2.4-20.6 6.6zm-52.5 30.3c0 3.2 2.5 6 5.6 6 3.2 0 5.6-2.9 5.6-6.1-.2-6.2-2.3-11.9-5.6-16.6-3.3 4.8-5.4 10.5-5.6 16.7zm44.9 0c0 3.2 2.5 6 5.6 6 3.2 0 5.6-2.9 5.6-6.1-.2-6.2-2.3-11.9-5.6-16.6-3.3 4.8-5.4 10.5-5.6 16.7zm-37.4-30.3c9.1 6.4 15 17 15 28.9 0 2.6 2.3 5.5 5.6 5.5 3.1 0 5.6-2.8 5.6-5.5 0-11.9 5.9-22.5 15-28.9-5.8-4.1-12.9-6.6-20.6-6.6-7.7 0-14.8 2.4-20.6 6.6zm262.1 30.3c0 3.2 2.5 6 5.6 6 3.2 0 5.6-2.9 5.6-6.1-.2-6.2-2.3-11.9-5.6-16.6-3.3 4.8-5.4 10.5-5.6 16.7zm45 0c0 3.2 2.5 6 5.6 6 3.2 0 5.6-2.9 5.6-6.1-.2-6.2-2.3-11.9-5.6-16.6-3.4 4.8-5.4 10.5-5.6 16.7zm-82.4-30.3c9.1 6.4 15 17 15 28.9 0 2.6 2.3 5.5 5.6 5.5 3.1 0 5.6-2.8 5.6-5.5 0-11.9 5.9-22.5 15-28.9-5.8-4.1-12.9-6.6-20.6-6.6-7.7 0-14.8 2.4-20.6 6.6zm-89.8 0c9 6.4 15 17 15 28.9 0 2.6 2.3 5.5 5.6 5.5 3.1 0 5.5-2.8 5.5-5.5 0-11.9 5.9-22.5 15-28.9-5.8-4.1-12.9-6.6-20.6-6.6-7.7 0-14.7 2.4-20.5 6.6zm134.8 0c9.1 6.4 15 17 15 28.9 0 2.6 2.3 5.5 5.6 5.5 3.1 0 5.6-2.8 5.6-5.5 0-11.9 5.9-22.5 15-28.9-5.8-4.1-12.9-6.6-20.6-6.6-7.7 0-14.8 2.4-20.6 6.6zm-97.4 30.3c0 3.2 2.5 6 5.6 6 3.2 0 5.6-2.9 5.6-6.1-.2-6.2-2.3-11.9-5.6-16.6-3.4 4.8-5.4 10.5-5.6 16.7zm44.9 0c0 3.2 2.5 6 5.6 6 3.2 0 5.6-2.9 5.6-6.1-.2-6.2-2.3-11.9-5.6-16.6-3.3 4.8-5.4 10.5-5.6 16.7zm-37.4-30.3c9.1 6.4 15 17 15 28.9 0 2.6 2.3 5.5 5.6 5.5 3.1 0 5.5-2.8 5.5-5.5 0-11.9 5.9-22.5 15-28.9-5.8-4.1-12.9-6.6-20.6-6.6-7.6 0-14.7 2.4-20.5 6.6z" fill="#C59348"/><circle fill="#C59348" cx="755.9" cy="504.8" r="4.5"/><circle fill="#C59348" cx="736.6" cy="326.3" r="4.5"/><circle fill="#C59348" cx="724.2" cy="409.2" r="4.5"/><circle fill="#C59348" cx="760.4" cy="275.5" r="4.5"/><circle fill="#C59348" cx="711.8" cy="535.1" r="3"/><circle fill="#C59348" cx="724.2" cy="183.5" r="3"/><circle fill="#C59348" cx="724.2" cy="256.6" r="3"/><circle fill="#C59348" cx="741.2" cy="692.1" r="3"/><circle fill="#C59348" cx="741.2" cy="613.9" r="3"/><circle fill="#C59348" cx="701.7" cy="443.1" r="3"/><circle fill="#C59348" cx="738.2" cy="541.9" r="3"/><circle fill="#C59348" cx="729.8" cy="600.3" r="6.8"/><circle fill="#C59348" cx="753.7" cy="377.2" r="6.8"/><circle fill="#C59348" cx="708.5" cy="672.8" r="6.8"/><circle fill="#C59348" cx="760.4" cy="655.3" r="6.8"/><path fill="#C59348" d="M759.3 438.8s-19.1-3.4-26.2 9.3c-7 12.7 3.3 24.1-6.4 35.1-9 10.2-14.4 1.7-23.9 9.9-2.9 2.5-2.2 6.3 2.8 2.3 8-6.5 17-1 24.2-9.4 12.4-14.3 2.6-26.3 8.8-33.8 6.2-7.5 14.2-7.4 20.5-7 6.5.4 6.2-6 .2-6.4z"/><circle fill="#C59348" cx="477" cy="290.4" r="3"/><circle fill="#C59348" cx="544.4" cy="275.5" r="3"/><circle fill="#C59348" cx="257.9" cy="268" r="3"/><circle fill="#C59348" cx="283.4" cy="404.7" r="3"/><circle fill="#C59348" cx="224.2" cy="483.5" r="3"/><circle fill="#C69349" cx="41.5" cy="520.7" r="3"/><circle fill="#C69349" cx="55.7" cy="342.3" r="3"/><circle fill="#C69349" cx="33.5" cy="213.2" r="3"/><circle fill="#C69349" cx="72.6" cy="116.6" r="3"/><circle fill="#C69349" cx="276.7" cy="76.4" r="3"/><circle fill="#C69349" cx="20.4" cy="154.4" r="3"/><circle fill="#C69349" cx="69.6" cy="230.9" r="3"/><circle fill="#C69349" cx="20.4" cy="253.6" r="3"/><circle fill="#C69349" cx="17.5" cy="446" r="3"/><circle fill="#C69349" cx="95" cy="497.4" r="3"/><circle fill="#C69349" cx="30.6" cy="611" r="3"/><circle fill="#C59348" cx="501.4" cy="687.5" r="3"/><circle fill="#C59348" cx="427.4" cy="702.7" r="3"/><circle fill="#C59348" cx="297.3" cy="705.7" r="3"/><circle fill="#C59348" cx="204.4" cy="693.4" r="3"/><circle fill="#C59348" cx="260.8" cy="548.7" r="3"/><circle fill="#C59348" cx="362.8" cy="479" r="3"/><circle fill="#C59348" cx="501.4" cy="514.8" r="3"/><circle fill="#C59348" cx="493.9" cy="455.3" r="3"/><circle fill="#C59348" cx="460.2" cy="497.4" r="3"/><circle fill="#C59348" cx="576.5" cy="494.4" r="3"/><circle fill="#C59348" cx="639.9" cy="481.9" r="3"/><circle fill="#C59348" cx="659.7" cy="497.4" r="3"/><circle fill="#C59348" cx="698.8" cy="655.3" r="3"/><circle fill="#C59348" cx="639.9" cy="696.4" r="3"/><circle fill="#C59348" cx="373.3" cy="705.7" r="3"/><circle fill="#C59348" cx="269.2" cy="669.9" r="3"/><circle fill="#C59348" cx="314.1" cy="487.8" r="3"/><circle fill="#C59348" cx="317.1" cy="278.5" r="3"/><circle fill="#C59348" cx="477" cy="236.8" r="3"/><circle fill="#C59348" cx="535.9" cy="483.5" r="3"/><circle fill="#C59348" cx="496.8" cy="548.7" r="6.8"/><circle fill="#C59348" cx="579.4" cy="705.7" r="6.8"/><circle fill="#C59348" cx="473.5" cy="698.9" r="6.8"/></svg>