<svg xmlns="http://www.w3.org/2000/svg" viewBox="0 0 223 223" enable-background="new 0 0 223 223"><path fill="#A47747" d="M203.2 90.9v-.4.4c.6 3.4 1.3 6.5 1.3 9.9.2 1.7.4 3.4.4 5.3 0-1.9-.2-3.6-.2-5.3-.1-3.5-.7-6.7-1.5-9.9m-88-73.2c6.1.4 12.2 1.1 17.9 2.5 15.6 3.4 29.3 10.8 41.6 21.7 1.1 1.1 2.1 2.1 3.2 3l-3.2-3.2c-12.2-11.2-26-18.4-41.4-21.9-5.9-1.2-12-2.1-18.1-2.1m-7.6 0c-5.3 0-10.3.6-15.2 1.7-1.9.2-3.8.6-5.5 1.3.8-.2 1.7-.4 2.5-.4l2.7-.6c4.9-1.1 10.2-1.8 15.5-2m-88 73.4c0-.2.2-.4.2-.4s-.2 0-.2.4c0 .2 0 .4-.2.6.2-.1.2-.3.2-.6m111.8-64.3c-5.3-1.3-10.8-1.9-16.2-2.1v11.2l53 30.6v88.4l-53 30.4v13.3c2.1-.2 4.2-.4 6.3-.4 2.7-.4 5.5-.8 8-1.1.6-.2 1.1-.2 1.9-.4 6.3-1.5 12.4-3.6 17.9-6.3 3.2-1.7 6.1-3.4 9.3-5.3l3.4-2.5c2.7-1.9 5.3-4 7.6-6.3 1.1-.8 2.1-1.9 3-3 2.5-2.5 5.1-5.3 7.4-8l6.3-65.8v56.8c4.6-7.8 8-16.2 9.9-25.3 1.3-5.9 1.9-12.2 1.9-19v-4.8c0-1.7-.2-3.4-.2-4.9-.2-3.2-.8-6.1-1.5-9.1-3.4-16-11.2-30.2-23.6-42.6-1.1-1.1-1.9-2.1-3-3-11.1-10.9-24-17.6-38.4-20.8m-71.1 44.1v79.5l51.1 29.5 51.3-29.5v-79.5l-51.3-29.5-51.1 29.5m90.1 40.5c0 3-.2 5.7-.8 8.4-1.5 7.4-5.1 13.7-10.3 19.4-7.6 7.6-16.9 11.4-27.6 11.4-11 0-20-3.8-27.4-11.4-5.7-5.5-9.1-12-10.5-19.4-.6-2.7-.8-5.5-.8-8.4 0-2.7.2-5.5.8-8 0-.2 0-.4.2-.6 1.5-7 5.1-13.3 10.5-18.8 7.4-7.6 16.7-11.4 27.4-11.4 10.8 0 20 3.8 27.6 11.4 5.5 5.5 8.9 11.8 10.3 18.8v.6c.4 2.5.6 5.3.6 8m-125.7-9.7c-.2 1.5-.2 3.2-.2 4.9v4.8c0 6.8.6 13.1 1.7 19 3.6 16 11.4 30.2 23.6 42.6 8 8 16.9 14.3 26.6 18.8 5.5 2.3 11.2 4 17.1 5.3 4.4.8 9.1 1.5 13.9 1.7v-13.3l-52.7-30.4v-88.4l52.7-30.6v-11.2c-4.9.2-9.5.6-13.9 1.5-4 .8-8 1.9-11.8 3.4-4.2 1.5-8.2 3.2-12.2 5.3-7 3.8-13.5 8.9-19.4 15-12.2 12.4-20.3 26.6-23.6 42.6-1 2.9-1.4 5.8-1.8 9z"/><path fill="#C39460" d="M111.6 17.7c1.1 0 2.1 0 3.2.2h.6v-.2c6.1.2 12.2.8 17.9 2.3 15.4 3.6 29.3 10.8 41.4 21.9l3.2 3.2s.2.2.2.4l.4.2s.2.2.2.4c11.2 12.2 19.4 26.8 24.3 43.5l.2.6v1c.8 3.2 1.3 6.3 1.7 9.9.2 1.7.2 3.6.2 5.3 0 1.5.2 3.2.2 4.9v.4l-1.5 18.6c0 .6-.2 1.3-.4 1.7-2.7 13.1-8.4 25.1-16.9 36.1v26c1.3-1.1 2.5-2.3 3.8-3.6 15.8-15.8 26-34 30.4-54.6 1.5-7.6 2.3-15.8 2.3-24.3v-.4c0-1.9 0-4-.2-5.9 0-2.1-.2-4.2-.4-6.1-.2-4-.8-8-1.7-11.8-4.4-20.5-14.6-38.8-30.4-54.6l-3.8-3.8c-14.6-13.3-30.8-21.9-49.2-26.2-3-.6-6.1-1.3-9.1-1.7l-16.6 16.6m-54 16.7c.6-.4 1.3-.8 1.9-1.3l3.2-2.1 3.4-2.1c.6-.4 1.3-.8 2.1-1.1l.8-.4c1.3-.6 2.5-1.3 4-1.9l4.6-1.9 1.9-.6c.4-.2 1.1-.4 1.7-.4l.4-.2 5.1-1.5c1.7-.6 3.6-1.1 5.5-1.3 5.1-1.1 10.1-1.7 15.2-1.7v.2h.4c.4 0 1.1-.2 1.3-.2h1.9l-16.7-16.7c-2.1.2-4.2.6-6.3 1.1-5.3 1.1-10.3 2.5-15.2 4.2l-15.2 27.9m85.7 69v-.6c-1.5-5.3-4.2-10.1-8.4-14.3-6.3-6.3-13.9-9.5-23.2-9.5-9.1 0-16.9 3.2-23.2 9.5-4.2 4.2-7 9.1-8.4 14.3l-.2.6c-.6 2.5-.8 5.3-.8 8 0 3 .2 5.7 1.1 8.4 1.3 5.5 4.2 10.3 8.4 14.8 6.3 6.3 13.9 9.5 23.2 9.5 9.3 0 16.9-3.2 23.2-9.5 4.2-4.4 7.2-9.3 8.4-14.8.6-2.7 1.1-5.5 1.1-8.4-.4-2.7-.6-5.5-1.2-8m-13.1 0c1.1 2.5 1.5 5.1 1.5 8s-.6 5.9-1.7 8.4c-1.1 2.3-2.3 4.2-4.2 6.1-4 3.8-8.7 5.9-14.3 5.9-5.5 0-10.3-1.9-14.3-5.9-1.7-1.7-3.2-3.8-4-6.1-1.3-2.5-1.9-5.5-1.9-8.4s.6-5.5 1.7-8l.2-.6c.8-1.9 2.3-3.8 4-5.5 4-4 8.9-5.9 14.3-5.9 5.7 0 10.3 1.9 14.3 5.9 1.7 1.7 3.2 3.6 4 5.5 0 .2.2.4.4.6m-72.6-90.1c-8.9 5.1-17.3 11.4-25.1 19.2-15.8 16-25.7 34.2-30.2 54.6-.8 3.8-1.3 7.8-1.9 11.8-.2 2.1-.4 4-.4 6.1v6.3c0 8.4.8 16.7 2.3 24.3 4.4 20.7 14.3 38.8 30.2 54.6 10.3 10.3 21.7 18.4 34.2 23.6 7 3.2 14.3 5.5 21.9 7 6.1 1.1 12.4 1.9 19 2.1h7.6l9.5-.6c3.4-.4 6.8-.8 10.3-1.5.8-.2 1.5-.4 2.3-.4 8-1.9 15.8-4.6 23-8.2 4-2.1 8-4.4 11.8-6.8 1.5-.8 3-1.9 4.2-3l2.6-25.4v-.6l-1.3 1.3-3.2 3c-2.7 2.5-5.5 4.9-8.2 7l-3.8 2.5c-3.2 2.1-6.5 4-9.9 5.7-6.1 3-12.7 5.3-19.4 7l-1.9.2c-2.7.6-5.7 1.1-8.7 1.3-2.5.2-5.1.4-7.4.4h-7.6c-5.3-.2-10.3-.6-15.2-1.7-6.3-1.3-12.7-3.2-18.6-5.9-10.3-4.6-20-11.2-28.7-19.8-13.3-13.3-21.7-28.7-25.3-46 0-.6-.2-1.3-.4-1.7v-.6l-1.4-18.1v-5.3c0-1.9.2-3.6.4-5.3.4-3 .8-5.9 1.3-8.9v-.2c0-.2 0-.4.2-.6l.2-.4v-.2l1.5-5.9c4.2-14.6 12.2-27.6 23.6-39.5 4-4 8.2-7.6 12.7-10.5v-20.9h-.2z"/><path fill="#9FC9EB" d="M111.6 0h-3.8c-4.4 0-8.7.4-12.7 1.1l16.7 16.7 16.7-16.7c-4.2-.6-8.7-1.1-12.9-1.1h-4z"/><path fill="#946B3E" d="M57.6 13.3v21.1l15.8-28.1c-5.5 1.7-10.7 4-15.8 7m0 21.1c-4.2 3-8.4 6.5-12.7 10.5-11.6 11.8-19.4 24.9-23.6 39.5l-1.5 5.9v.2c0 .2-.2.4-.2.4 0 .4 0 .6-.2.6v.2c-.4 3-.8 5.9-1.3 8.9-.2 1.7-.4 3.6-.4 5.3v5.3l1.5 17.9v.6c.2.6.4 1.3.4 1.7 3.8 17.3 12.2 32.7 25.3 46 8.9 8.7 18.4 15.2 28.7 19.8 5.9 2.7 12 4.6 18.6 5.9 5.1.8 10.1 1.5 15.2 1.7h7.6c2.5 0 5.1-.2 7.4-.4 3-.2 5.7-.6 8.7-1.3.6-.2 1.3-.2 1.9-.2 7-1.7 13.5-4 19.4-7 3.4-1.7 6.8-3.6 9.9-5.7 1.3-.8 2.3-1.7 3.8-2.5 2.7-2.1 5.5-4.4 8.2-7 1.1-1.1 2.1-2.1 3.2-3l1.3-1.3v.2l-2.5 25.5c3.4-2.5 6.8-5.3 10.1-8.4v-26c8.4-11 13.9-23 16.9-36.1.2-.6.4-1.3.4-1.7l1.5-18.6v-.6c0-1.7 0-3.4-.2-4.9 0-1.9-.2-3.6-.4-5.3-.2-3.4-.6-6.5-1.3-9.7v-1l-.2-.6c-4.9-16.7-13.1-31-24.3-43.5-.2-.2-.2-.4-.2-.4s-.2-.2-.4-.2c-.2-.2-.2-.4-.2-.4l-3.2-3c-12.2-11.2-26-18.4-41.6-21.7-5.7-1.3-11.6-2.1-17.9-2.3h-.6l-3.2-.2h-1.9c-.4 0-.8 0-1.3.2h-.4c-5.3.2-10.5.6-15.4 1.7l-2.7.6c-.8.2-1.9.4-2.5.4l-5.1 1.5-.4.2c-.6.2-1.1.4-1.7.4l-1.9.6-4.6 1.9c-1.5.6-2.7 1.3-4 1.9l-.8.4c-.6.4-1.3.6-2.1 1.1-1.3.6-2.3 1.3-3.4 2.1l-3.2 2.1c-1.2.7-1.9 1.2-2.5 1.8m-33.1 72.1c0-1.7.2-3.4.2-4.9.4-3.2.8-6.1 1.3-9.1 3.6-16 11.4-30.2 23.6-42.6 5.9-6.1 12.4-11.2 19.4-15 4-2.1 8-4 12.2-5.3 3.8-1.5 7.8-2.5 11.8-3.4 4.4-.8 9.1-1.3 13.9-1.5v11.2l-52.7 30.6v88.4l52.7 30.4v13.3c-4.9-.2-9.5-.8-13.9-1.7-5.9-1.3-11.6-3-17.1-5.3-9.7-4.4-18.6-10.5-26.6-18.8-12.2-12.2-20.3-26.6-23.6-42.6-1.1-5.9-1.7-12.2-1.7-19v-.2c.5-1.5.5-3 .5-4.5m35.8 43.9v-79.5l51.1-29.5 51.3 29.5v79.5l-51.3 29.6-51.1-29.6m54.9-125.7c5.5.2 11 .8 16.2 2.1 14.3 3.2 27.2 9.9 38.2 20.3 1.1.8 2.1 1.9 3 3 12.4 12.4 20.3 26.6 23.6 42.6.6 3 1.3 5.9 1.5 9.1.2 1.5.2 3.2.2 4.9v4.8c0 6.8-.6 13.1-1.9 19-1.9 9.1-5.3 17.5-9.9 25.3v-56.8l-6.3 65.8c-2.3 2.7-4.9 5.5-7.4 8-1.1 1.1-1.9 2.1-3 3-2.5 2.3-5.1 4.4-7.6 6.3l-3.4 2.5c-3 1.9-6.1 3.6-9.3 5.3-5.7 2.7-11.6 4.9-17.9 6.3l-1.9.4c-2.5.4-5.3.8-8 1.1l-6.3.4v-13.3l53-30.4v-88.4l-53-30.6v-10.8m34.6 95.2c.6-2.7.8-5.5.8-8.4 0-2.7-.2-5.5-.8-8v-.6c-1.5-7-4.9-13.3-10.3-18.8-7.6-7.6-16.9-11.4-27.6-11.4-11 0-20 3.8-27.4 11.4-5.5 5.5-9.1 11.8-10.5 18.8l-.2.6c-.4 2.5-.8 5.3-.8 8 0 3 .2 5.7.8 8.4 1.5 7.4 4.9 13.7 10.5 19.4 7.4 7.6 16.7 11.4 27.4 11.4 10.8 0 20-3.8 27.6-11.4 5.4-5.7 9-12 10.5-19.4m-6.6-17.1v.6c.6 2.5 1.1 5.3 1.1 8 0 3-.4 5.7-1.1 8.4-1.3 5.5-4.2 10.3-8.4 14.8-6.3 6.3-13.9 9.5-23.2 9.5s-16.9-3.2-23.2-9.5c-4.4-4.4-7.2-9.3-8.4-14.8-.6-2.7-1.1-5.5-1.1-8.4 0-2.7.2-5.5.8-8l.2-.6c1.5-5.3 4.2-10.1 8.4-14.3 6.3-6.3 13.9-9.5 23.2-9.5 9.1 0 16.9 3.2 23.2 9.5 4.3 4.2 7.1 9.1 8.5 14.3z"/><path fill="#4B3720" d="M131.7 111.4c0-3-.4-5.5-1.5-8-.2-.2-.4-.4-.4-.6-.8-1.9-2.3-3.8-4-5.5-4-4-8.7-5.9-14.3-5.9-5.5 0-10.3 1.9-14.3 5.9-1.7 1.7-3.2 3.6-4 5.5l-.2.6c-1.1 2.5-1.7 5.1-1.7 8s.6 5.9 1.9 8.4c1.1 2.3 2.3 4.2 4 6.1 4 3.8 8.9 5.9 14.3 5.9 5.7 0 10.3-1.9 14.3-5.9 1.7-1.7 3.2-3.8 4.2-6.1 1-2.5 1.7-5.4 1.7-8.4z"/></svg>