<svg xmlns="http://www.w3.org/2000/svg" viewBox="0 0 62.2 55.4" enable-background="new 0 0 62.2 55.4"><path fill="#FDC010" d="M9.2 50.1l-.2-27.7c0-12.4 10-22.4 22.4-22.4v47.7l-22.2 2.4z"/><path fill="#D86C27" d="M53.6 50.1l.2-27.7c0-12.4-10-22.4-22.4-22.4v47.7l22.2 2.4zm-22.7-5.3h31.3v10.5h-31.3z"/><path fill="#FDC010" d="M0 44.8h31.4v10.5h-31.4z"/><path fill="#fff" d="M27.6 13.3c0 3.2-2.6 5.8-5.8 5.8-3.2 0-5.8-2.6-5.8-5.8 0-3.2 2.6-5.8 5.8-5.8 3.2 0 5.8 2.6 5.8 5.8z"/><path fill="#D86C27" d="M9 38.2h43.8v6.6h-43.8z"/></svg>