<svg xmlns="http://www.w3.org/2000/svg" viewBox="0 0 400 400" enable-background="new 0 0 400 400"><path fill="#1A1A0D" d="M.2.1h400v400h-400z"/><g fill="#28281F"><path d="M184.1 198.4c0 .4.1.8.2 1.1h7.4c.1-.4.2-.7.2-1.1 0-2.1-1.7-3.9-3.9-3.9s-3.9 1.7-3.9 3.9zm-102.4-6.7c-1.8 1.3-4 2.2-6.3 2.3v.1h-24.8v.2c-3 0-5.4 2.2-5.7 5.1h44.5l-7.7-7.7zm82.2-48.8c0-1.9-1.5-3.4-3.5-3.4-1.9 0-3.5 1.5-3.5 3.4s1.5 3.4 3.5 3.4c2 .1 3.5-1.5 3.5-3.4zm4.1-16.4c-.7-3.6-3.8-6.3-7.5-6.3-4.2 0-7.7 3.4-7.7 7.7 0 4.2 3.4 7.7 7.7 7.7 3.9 0 7.1-2.9 7.6-6.7h-7.6v-2.3h7.5zm-65.4-92.7l-11.9 12c3.1 2.8 5 6.8 5 11.2h.1v6.9h6.9v-30.1zm2.3-13.8v6.9l6.9-6.9z"/><ellipse cx="133.6" cy="122.2" rx="3.9" ry="3.9"/><path d="M143.1 72.5h-.1v6.6h16v-14.1h-8.6v.2c-4 0-7.3 3.3-7.3 7.3zm-33.5-28.7c.1-6.3 5-11.4 11.2-11.8v-.2c3.4 0 6.2-2.6 6.2-5.7h.7v-3.7h-2.7v-2.4h-8.5l-11.6 11.6v32.3h4.8v-20.1zm-76.3 8.1c7.3 0 13.4 5.2 14.8 12h30v-14.5h-22.1v-.1c-8.4 0-15.1-6.8-15.1-15.1v-6h-1.9v-2.7h-38.8v38.5h18.3c1.4-7 7.5-12.1 14.8-12.1zm-16.4-7.8h-1.8l-.6 1.2c-.8-.2-1.5-.5-2.2-.9l.4-1.2-1.3-1.3-1.2.4c-.4-.7-.7-1.4-.9-2.2l1.2-.6v-1.8l-1.2-.6c.2-.8.5-1.5.9-2.2l1.3.4 1.3-1.3-.5-1c.7-.4 1.4-.7 2.2-.9l.6 1.2h1.8l.6-1.2c.8.2 1.5.5 2.2.9l-.4 1.3 1.3 1.3 1.3-.4c.4.7.7 1.4.9 2.2l-1.2.6v1.8l1.2.6c-.2.8-.5 1.5-.9 2.2l-1.2-.4-1.3 1.3.4 1.2c-.7.4-1.4.7-2.2.9l-.7-1.5zm39.1-2.6v.2h24.5v.1c2.7 0 5.2.7 7.4 1.9l14.7-14.6v-9.1h-14.5v-6h14.5v-14.3h-20.3v8.4h.1c0 3.2 2.6 5.7 5.7 5.7v6.2c-6.3 0-11.4-4.9-11.8-11v-9.2h-27.8v17h1.9v11.4h-1.9v6h.1c.1 4 3.3 7.3 7.4 7.3zm11.4-20.5c4 0 7.2 3.2 7.2 7.2s-3.2 7.2-7.2 7.2-7.2-3.2-7.2-7.2 3.2-7.2 7.2-7.2zm98.3 163.5h4.7v15h-4.7zm-85.3-45.4h11.2v-10h8.3v10h3.8v-.1c3.2 0 5.7-2.6 5.7-5.7h.2v-14.1h-29.2v19.9zm73.9-111c0-1.7-1.1-3.1-2.6-3.6v7.3c1.5-.5 2.6-2 2.6-3.7zm-47 69.4h2.3v-31.3h-4.7v32.8h2.4zm5.3 43.6c-2 2.3-5 3.8-8.3 4h-4.5v10h-8.3v-10h-5.1v33.1h17.2v-7.8c0-6.1 4.6-11.1 10.6-11.7v-.1h23.2v-2.3h2.3v-5.3h-.1c0-3.2-2.6-5.7-5.7-5.7v-.2h-12.5v-6h12.6v.1c2.4 0 4.6.7 6.5 2l10.1-10v-14.3h8.4v-35.5h-16v10h-.1c0 8.3-6.8 15.1-15.1 15.1v.1h-9.8v1.5h-2.3v25.2h.2c0 3.2 2.6 5.7 5.7 5.7v6.1c-3.6 0-6.8-1.5-9-4zm11.9-24.6l2 .7 2-2-.7-2c1-.7 2.2-1.1 3.4-1.4l1 1.9h2.8l1-1.9c1.2.3 2.4.8 3.4 1.4l-.7 2 2 2 2-.7c.7 1 1.1 2.2 1.4 3.4l-1.9.9v2.8l1.9.9c-.3 1.2-.8 2.4-1.4 3.4l-2-.7-2 2 .7 2c-1 .7-2.2 1.1-3.4 1.4l-.9-1.8h-2.8l-.9 1.9c-1.2-.3-2.4-.8-3.4-1.4l.7-2-2-2-2 .7c-.7-1-1.2-2.2-1.4-3.4l1.9-.9v-2.8l-1.9-.9c0-1.3.5-2.5 1.2-3.5zm22-88.4c0 1.8 1.2 3.3 2.9 3.7v-7.5c-1.6.6-2.9 2.1-2.9 3.8z"/><ellipse cx="125" cy="183.9" rx="3.2" ry="3.2"/><path d="M33.4 199.5h5.4c.3-6.1 5.2-11 11.4-11.2v-.1h24.4v-.2c3.2 0 5.7-2.6 5.7-5.7h.2v-37.2h-4.3v.2c-3.2 0-5.7 2.6-5.7 5.7h-.1v19.4h-.1c-.5 5.9-5.4 10.6-11.5 10.7v.1h-25.4v18.3zm70.3-19h-17.2v3.4h-.2c-.3 2-1.1 3.9-2.3 5.5l10.1 10.1h9.7v-19z"/><ellipse cx="7.2" cy="96.1" rx="3.5" ry="3.5"/><path d="M26.6 63.9h13.4c-1.2-2.5-3.7-4.3-6.7-4.3s-5.5 1.8-6.7 4.3z"/><ellipse cx="17.3" cy="96.1" rx="3.5" ry="3.5"/><path d="M88.1 91.4v-7.2h-2.4v-2.4h-5.3v35.1h29.2v-8.9h-2.3v-1.5h-4.1v-.1c-8.3.1-15.1-6.7-15.1-15zm-7.7-17.2h5.3v-2.4h2.4v-5.6h-7.7zm0-24.8v14.5h7.7v-6.9h-.2c0-4-3.3-7.3-7.3-7.3v-.2h-.2zm15.3 34.8v7.2h.1c0 3.8 3 7 6.7 7.3v-32.5h-6.9v5.6h2.4v12.4h-2.3zm-17.6-10v-8h-29.7v.8h.3c0 4 3.2 7.3 7.2 7.3v-.1h6.6v-1.9h11.5v1.9h4.1zm-13.9 95.1h.2v-12h-31v17.9h25.1v-.2c3.2 0 5.7-2.5 5.7-5.7zm13.9-87.5h-4.1v1.9h-1.9v31h-.1c0 .8-.1 1.5-.2 2.2h6.3v-35.1z"/><ellipse cx="180" cy="114.7" rx="2.5" ry="2.5"/><path d="M4.1 162c2.2 0 3.9-1.8 3.9-3.9 0-2.2-1.8-3.9-3.9-3.9-1.9 0-3.4 1.3-3.8 3.1v1.8c.3 1.6 1.9 2.9 3.8 2.9zm164.6-116v-.1h31.3v-46.2h-15.1c.8 1.2 1.3 2.6 1.3 4.1 0 4-3.2 7.2-7.2 7.2s-7.2-3.2-7.2-7.2c0-1.5.5-3 1.3-4.1h-21.4v21.3c3.4.6 5.9 3.5 5.9 7.1 0 3.5-2.6 6.5-5.9 7.1v22.2h5.2c.2-6.4 5.4-11.4 11.8-11.4zm-2.5-27.4l2.8.9 2.8-2.8-1-2.8c1.5-.9 3.1-1.6 4.8-2l1.3 2.7h4l1.3-2.7c1.7.4 3.3 1.1 4.8 2l-1 2.8 2.8 2.8 2.8-.9c.9 1.5 1.6 3.1 2 4.8l-2.7 1.3v3.9l2.6 1.3c-.4 1.7-1.1 3.3-2 4.8l-2.8-.9-2.8 2.8.9 2.7c-1.5.9-3.1 1.6-4.8 2l-1.3-2.6h-4l-1.3 2.6c-1.7-.4-3.4-1.1-4.8-2l.9-2.7-2.8-2.8-2.8.9c-.9-1.4-1.6-3.1-2-4.8l2.6-1.3v-4l-2.7-1.3c.8-1.6 1.5-3.2 2.4-4.7zm-140.5 122h-25.5v7.4c.5-.2 1-.3 1.5-.4l1 1.9h2.8l1-1.9c1.2.3 2.4.8 3.4 1.4l-.7 2 2 2 2-.7c.7 1 1.1 2.2 1.4 3.4l-1.9.9v2.8l1.9.9c-.3 1.2-.8 2.4-1.4 3.4l-2-.7-2 2 .7 2c-1 .7-2.2 1.1-3.4 1.4l-.9-1.9h-2.8l-.9 1.9c-.5-.1-1-.3-1.5-.5v7h25.5v-34.3zm15.2-18.4v-.1h16v7.7h-16v.2c-4 0-7.3 3.3-7.3 7.3h-.1v17.7h31v-4c0-6.5 5.3-11.8 11.8-11.8v-.1h1.9v-19.9h-6.8c-1.9 6.1-7.7 10.6-14.4 10.6v-7.8c2.3 0 4.4-1.1 5.8-2.8h-62.6v18.1h25.5c0-8.3 6.8-15.1 15.2-15.1zm5.4 28.4c-4 0-7.2-3.2-7.2-7.2s3.2-7.2 7.2-7.2 7.2 3.2 7.2 7.2c0 3.9-3.2 7.2-7.2 7.2z"/><ellipse cx="179" cy="26.7" rx="5.5" ry="5.5"/><path d="M.2-.3h15.4v19.7h-15.4z"/><ellipse cx="67.4" cy="28.1" rx="3.9" ry="3.9"/><ellipse cx="179" cy="3.9" rx="3.9" ry="3.9"/><ellipse cx="46.3" cy="143.4" rx="3.9" ry="3.9"/><circle cx="16" cy="38.7" r="2.5"/><path d="M39 16.8h1.9v-17.1h-22v19.8h20.1zm25.2 97.9h.2v-11.3h-19.7v5.4c0 1.1-.9 2-2 2h-42.5v6.2h63.6c.3-.8.4-1.5.4-2.3zm135.7-62.9h-31.3v.2c-3 0-5.5 2.4-5.7 5.3h4.6v.1c7.2 0 13.2 5 14.8 11.8h17.6v-17.4z"/><ellipse cx="132.1" cy="49.4" rx="3.1" ry="3.1"/><path d="M121.5 38.1c-3.2 0-5.7 2.6-5.7 5.7h-.2v53.6h2.3v1.6h9.8v-.2c4.1 0 7.3-3.3 7.3-7.3h.2v-19.7c.4-7.7 6.5-13.8 14.1-14.3v-22.2c-3.5-.5-6.2-3.5-6.2-7.1 0-3.6 2.7-6.6 6.2-7.1v-21.4h-15.7v11.3h2.7v11.4h-2.7v4.2h-.1c-.3 6.1-5.5 11-12.1 11.3v.2zm10 51.8h-11.5v-11.4h11.5v11.4zm-6.6-45l1.6.5 1.6-1.6-.5-1.6c.8-.5 1.7-.9 2.7-1.1l.8 1.5h2.2l.8-1.5c1 .2 1.9.6 2.7 1.1l-.5 1.6 1.6 1.6 1.6-.5c.5.8.9 1.7 1.1 2.7l-1.5.7v2.2l1.5.7c-.2 1-.6 1.9-1.1 2.7l-1.6-.5-1.6 1.6.5 1.5c-.8.5-1.7.9-2.7 1.1l-.7-1.5h-2.2l-.7 1.5c-1-.2-1.9-.6-2.7-1.1l.5-1.5-1.6-1.6-1.6.5c-.5-.8-.9-1.7-1.1-2.7l1.5-.7v-2.2l-1.5-.7c0-1 .4-1.9.9-2.7zm.1-33.8h2.7v-11.4h-22.8v14.3h20.1zm37 53.9v14.1h13.2v-6.5h-.2c0-4-3.3-7.3-7.3-7.3v-.3h-5.7zm37.9 7.2h-17v2.1h-.1v4.8h17.1zm-189.3 2.1h.1c4-.1 7.2-3.3 7.2-7.3h.2v-.8h-18v8l10.5.1zm34.1 17.6v5.4h19.7v-13.6h-1.9v-1.9h-6.4v.2c-8.4.1-15.1-6.7-15.1-15h-.3v-.8h-14.7v.8h-.2c0 8.3-6.8 15.1-15.1 15.1v-.7.4h-10.5v8.1h42.5c1.1 0 2 .9 2 2zm125.7 50.2v7.7h-19.8v-14l-7.6 7.6c1.8 2.1 2.8 4.7 2.8 7.6v5.2h2.3v10.6h-2.3v5.4h8.5v-2.6c0-2 1.6-3.6 3.6-3.6h19.4c2 0 3.6 1.6 3.6 3.6v2.6h1v-.2c3.2 0 5.7-2.6 5.7-5.7h.3v-.3h-.1v-24h-17.4zm29.5 57.4v-118.1h-17.1v10h.2c0 4 3.3 7.3 7.3 7.3v.3h9.5v7.7h-9.5v-.1c-8.4 0-15.1-6.8-15.1-15.1h-.1v-10h-13.1v35.5h8.4v22.3h17.6c.1-6.5 5.3-11.7 11.8-11.7v6.1c-3.2 0-5.7 2.6-5.7 5.7h-.2v29.1h-.3c-.9 5.3-5.4 9.4-10.9 9.8v.1h-1.8v2.6c0 2-1.6 3.6-3.6 3.6h-4v15h7.5c-.1-.4-.1-.7-.1-1.1 0-4 3.2-7.2 7.2-7.2s7.2 3.2 7.2 7.2c0 .4 0 .7-.1 1.1h4.9zm-13.3-83.3c-.2.8-.5 1.5-.9 2.2l-1.2-.4-1.3 1.3.4 1.2c-.7.4-1.4.7-2.2.9l-.6-1.2h-1.8l-.6 1.2c-.8-.2-1.5-.5-2.2-.9l.4-1.2-1.3-1.3-1.2.4c-.4-.7-.7-1.4-.9-2.2l1.2-.6v-1.8l-1.2-.6c.2-.8.5-1.5.9-2.2l1.3.4 1.3-1.3-.4-1.3c.7-.4 1.4-.7 2.2-.9l.6 1.2h1.8l.6-1.2c.8.2 1.5.5 2.2.9l-.4 1.3 1.3 1.3 1.3-.4c.4.7.7 1.4.9 2.2l-1.2.6v1.8l1 .6zm18.4 71.1c0-2.1-1.7-3.9-3.9-3.9-.4 0-.8.1-1.1.2v7.4c.3.1.7.2 1.1.2 2.2-.1 3.9-1.8 3.9-3.9zm.5-112.4h-.1v-24.7h-.2c0-3-2.3-5.4-5.1-5.7v44.4l7.7-7.7c-1.3-1.8-2.2-3.9-2.3-6.3z"/><ellipse cx="256.7" cy="159.9" rx="3.5" ry="3.4"/><path d="M279.5 159.9c0-4.2-3.4-7.7-7.7-7.7-4.2 0-7.7 3.4-7.7 7.7 0 3.9 2.9 7.1 6.7 7.6v-7.6h2.3v7.5c3.7-.7 6.4-3.8 6.4-7.5zm74.6-69.7c-2.8 3.1-6.8 5-11.2 5v.1h-7v6.8h30.1l-11.9-11.9zm25.8 21.1v-6.9h-6.9z"/><ellipse cx="277.4" cy="133.1" rx="3.9" ry="3.9"/><path d="M320.6 142.4v16h14.1v-8.6h-.2c0-4-3.3-7.3-7.3-7.3v-.1h-6.6zm35.4-33.2c6.3 0 11.5 4.9 11.8 11.1h.2c0 3.4 2.6 6.2 5.7 6.2v.7h3.7v-2.7h2.5v-8.5l-11.6-11.6h-32.4v4.8h20.1zm-140.9 48.1c0-2 1.6-3.6 3.6-3.6h2.6v-8.4h-21.3v16.9h15v-4.9zm168-107.3h-11.4v-1.9h-6.1v.1c-4 0-7.3 3.3-7.3 7.3h-.2v24.5h-.1c0 2.7-.7 5.2-1.9 7.4l14.7 14.6h9.2v-14.4h6v14.5h14.3v-20.3h-8.4v.1c-3.2 0-5.7 2.6-5.7 5.7h-6.1c0-6.2 4.9-11.4 11-11.8h9.2v-27.7h-17.1v1.9zm-11.4 24.2c-4 0-7.2-3.2-7.2-7.2s3.2-7.2 7.2-7.2 7.2 3.2 7.2 7.2-3.2 7.2-7.2 7.2zm-21.3-18.6h.1c0-8.3 6.8-15.1 15.1-15.1h6.1v-1.9h2.7v-38.7h-38.5v18.2c6.9 1.4 12.1 7.5 12.1 14.8 0 7.3-5.2 13.4-12.1 14.8v29.9h14.5v-22zm4.1-41.4c.2-.8.5-1.5.9-2.2l1.2.4 1.3-1.3-.4-1.2c.7-.4 1.4-.7 2.2-.9l.6 1.2h1.8l.6-1.2c.8.2 1.5.5 2.2.9l-.4 1.3 1.3 1.3 1.3-.4c.4.7.7 1.4.9 2.1l-1.2.6v1.8l1.2.6c-.2.8-.5 1.5-.9 2.1l-1.3-.4-1.3 1.3.4 1.3c-.7.4-1.4.7-2.2.9l-.6-1.2h-1.8l-.6 1.2c-.8-.2-1.5-.5-2.2-.9l.4-1.2-1.3-1.3-1.2.4c-.4-.7-.7-1.4-.9-2.2l1.2-.6v-1.8l-1.2-.6zm-154.4 150.9h15v4.7h-15zm60.4-65.7v3.8h.1c0 3.2 2.6 5.7 5.7 5.7v.2h14.2v-29.1h-20v11.2h10v8.3h-10zm111.2 54.3c1.7 0 3.1-1.1 3.6-2.6h-7.3c.6 1.5 2 2.6 3.7 2.6zm-70.9-46.9h1.4v2.3h31.4v-4.7h-32.8zm17.6 51.6v-16h-10v-.1c-8.4 0-15.1-6.8-15.1-15.1h-.1v-9.8h-1.5v-2.3h-25.3v.2c-3.2 0-5.7 2.6-5.7 5.7h-6.1c0-3.5 1.6-6.7 4-8.9-2.3-2-3.9-5-4-8.2v-4.5h-10v-8.3h10v-5.1h-33.2v17.2h7.8c6.1 0 11.1 4.6 11.7 10.5h.1v23.1h2.3v2.3h5.2v-.1c3.2 0 5.7-2.6 5.7-5.7h.2v-12.3h6v12.4h-.1c0 2.4-.7 4.6-2 6.5l10.1 10h14.3v8.4h35.7zm-38.6-14.8l-.9-1.9h-2.8l-.9 1.9c-1.2-.3-2.4-.8-3.4-1.4l.7-2-2-2-2 .7c-.7-1-1.1-2.2-1.4-3.4l1.9-.9v-2.8l-1.9-.9c.3-1.2.8-2.4 1.4-3.4l2 .7 2-2-.7-2c1-.7 2.2-1.2 3.4-1.4l.9 1.9h2.8l.9-1.9c1.2.3 2.4.8 3.4 1.4l-.7 2 2 2 2-.7c.7 1 1.2 2.2 1.4 3.4l-1.9 1v2.8l1.9 1c-.3 1.2-.8 2.4-1.4 3.4l-2-.7-2 2 .7 2c-1 .4-2.2.9-3.4 1.2zm91.9 2.4c-1.8 0-3.3 1.2-3.7 2.9h7.5c-.5-1.7-2-2.9-3.8-2.9z"/><ellipse cx="215.6" cy="124.5" rx="3.2" ry="3.2"/><path d="M211.3 49.8l.1 24.4h.2c0 3.2 2.6 5.7 5.7 5.7v.2h37.2v-4.3h-.2c0-3.2-2.6-5.7-5.7-5.7v-.1h-19.4v-.1c-5.9-.5-10.6-5.4-10.7-11.5h-.1v-25.4h-18.3v5.4c6.1.3 11 5.3 11.2 11.4zm7.8 36.2h-3.4v-.2c-2.1-.3-3.9-1.1-5.5-2.3l-10.1 10.1v9.6h19v-17.2z"/><ellipse cx="303.6" cy="6.9" rx="3.5" ry="3.5"/><path d="M340.1 32.9c0-2.9-1.7-5.5-4.3-6.6v13.3c2.6-1.2 4.3-3.7 4.3-6.7z"/><ellipse cx="303.6" cy="16.9" rx="3.5" ry="3.5"/><path d="M291.6 106.8h1.5v-4.1h.1c0-8.3 6.8-15.1 15.1-15.1h7.2v-2.4h2.4v-5.2h-35.2v29.2h8.9v-2.4zm42-19.2v-7.6h-8v5.2h2.4v2.4zm9.2-.2c4 0 7.3-3.3 7.3-7.3h.2v-.1h-14.5v7.7h7v-.3zm-34.5 7.9v.1c-3.8 0-7 3-7.3 6.7h32.6v-6.8h-5.6v2.4h-12.5v-2.4h-7.2zm25.3-47.3h-.8v.3c-4 0-7.3 3.2-7.3 7.2h.1v6.5h1.9v11.4h-1.9v4.2h8v-29.6zm-103.4 15.8v.2h12v-31h-17.9v25.1h.2c0 3.2 2.6 5.7 5.7 5.7zm87.7 9.7h-1.9v-1.9h-31v-.1c-.8 0-1.5-.1-2.2-.2v6.3h35.2v-4.1zm-85.1 63.4h2.3v-21.9h-.2c0-3.2-2.6-5.7-5.7-5.7v-.1h-29.1v30h32.7v-2.3zm-8.6-10.5c-.2 1-.6 1.9-1.2 2.8l-1.7-.6-1.6 1.6.6 1.6c-.8.5-1.8.9-2.8 1.1l-.8-1.5h-2.3l-.8 1.5c-1-.2-2-.6-2.8-1.2l.5-1.6-1.6-1.6-1.6.5c-.5-.8-.9-1.8-1.2-2.8l1.5-.8v-2.3l-1.5-.7c.2-1 .6-2 1.2-2.8l1.6.5 1.6-1.6-.5-1.6c.8-.5 1.8-.9 2.8-1.2l.8 1.5h2.3l.8-1.5c1 .2 2 .6 2.8 1.1l-.6 1.6 1.6 1.6 1.7-.6c.5.8.9 1.8 1.2 2.8l-1.6.8v2.3l1.6 1.1z"/><circle cx="285" cy="179.4" r="2.5"/><path d="M241.5 7.7c2.2 0 3.9-1.8 3.9-3.9 0-1.9-1.3-3.4-3.1-3.8h-1.8c-1.7.4-3.1 2-3.1 3.8.1 2.1 1.9 3.9 4.1 3.9zm158.7 143.4h-21.4c-.6 3.4-3.5 5.9-7.1 5.9-3.5 0-6.5-2.6-7.1-5.9h-22.2v5.1c6.3.2 11.4 5.4 11.4 11.8h.1v31.2h46.2v-15c-1.2.8-2.6 1.3-4.1 1.3-4 0-7.2-3.2-7.2-7.2s3.2-7.2 7.2-7.2c1.5 0 3 .5 4.1 1.3v-21.3zm-12.3 30.6c-.4 1.7-1.1 3.3-2 4.8l-2.8-1-2.8 2.8.9 2.8c-1.5.9-3.1 1.6-4.8 2l-1.3-2.6h-4l-1.3 2.6c-1.7-.4-3.4-1.1-4.8-2l.9-2.8-2.8-2.8-2.8.9c-.9-1.5-1.6-3.1-2-4.8l2.6-1.3v-4l-2.6-1.3c.4-1.7 1.1-3.4 2-4.8l2.8.9 2.8-2.8-.9-2.8c1.5-.9 3.1-1.6 4.8-2l1.3 2.6h4l1.3-2.6c1.7.4 3.4 1.1 4.8 2l-.9 2.8 2.8 2.8 2.8-.9c.9 1.4 1.6 3.1 2 4.8l-2.7 1.3v4l2.7 1.4zm-128.9-181.8h-7.4c.2.5.3 1 .4 1.5l-1.9 1v2.8l1.9 1c-.3 1.2-.8 2.4-1.4 3.4l-2-.7-2 2 .7 2c-1 .7-2.2 1.1-3.4 1.4l-.9-1.9h-2.8l-.9 1.9c-1.2-.3-2.4-.8-3.4-1.4l.7-2-2-2-2 .7c-.7-1-1.1-2.2-1.4-3.4l1.9-.9v-2.8l-1.9-.9c.1-.5.3-1 .5-1.5h-7v25.5h34.3v-25.7zm-14.5 33.1v31h4.1c6.5 0 11.8 5.3 11.8 11.8h.1v1.9h20v-6.8c-6.1-1.9-10.6-7.6-10.6-14.4h7.8c0 2.3 1.1 4.4 2.8 5.7v-62.3h-18.2v25.5c8.4 0 15.1 6.8 15.1 15.1h.1v16h-7.7v-16h-.2c0-4-3.3-7.3-7.3-7.3v-.2h-17.8zm19 13c0 4-3.2 7.2-7.2 7.2s-7.2-3.2-7.2-7.2 3.2-7.2 7.2-7.2c3.9 0 7.2 3.2 7.2 7.2zm-63.4-46.1h18.3v25.5h-18.3z"/><ellipse cx="373.2" cy="178.4" rx="5.5" ry="5.5"/><path d="M380.4-.1h19.8v15.4h-19.8z"/><ellipse cx="371.7" cy="67" rx="3.9" ry="3.9"/><ellipse cx="396" cy="178.4" rx="3.9" ry="3.9"/><ellipse cx="256.3" cy="45.9" rx="3.9" ry="3.9"/><ellipse cx="361.1" cy="15.6" rx="2.5" ry="2.5"/><path d="M380.4 38.6h2.7v1.9h17.1v-21.9h-19.8zm-95.4 25.4h11.4v-19.7h-5.4c-1.1 0-2-.9-2-2v-42.4h-6.2v63.5c.7.2 1.5.4 2.3.4v.2zm45.5 135.3h17.5v-31.3h-.2c0-3-2.4-5.5-5.4-5.7v4.6h-.1c0 7.2-5 13.2-11.8 14.7v17.7z"/><ellipse cx="350.4" cy="131.5" rx="3.1" ry="3.1"/><path d="M377.4 133.1h-4.2v-.1c-6.1-.3-11-5.5-11.3-12.1h-.2c0-3.2-2.6-5.7-5.7-5.7v-.2h-53.7v2.3h-1.5v9.8h.2c0 4 3.3 7.3 7.3 7.3v.2h19.7c7.7.4 13.9 6.5 14.4 14.1h22.2c.5-3.5 3.5-6.2 7.1-6.2 3.6 0 6.7 2.7 7.1 6.2h21.3v-15.7h-11.4v2.7h-11.4v-2.6zm-56.2-2.2h-11.5v-11.4h11.5v11.4zm37.5 2.5c-.2 1-.6 1.9-1.1 2.7l-1.6-.5-1.6 1.6.5 1.6c-.8.5-1.7.9-2.7 1.1l-.7-1.5h-2.2l-.7 1.5c-1-.2-1.9-.6-2.7-1.1l.5-1.5-1.6-1.6-1.5.5c-.5-.8-.9-1.7-1.1-2.7l1.5-.7v-2.2l-1.5-.7c.2-1 .6-1.9 1.1-2.7l1.5.5 1.6-1.6-.5-1.6c.8-.5 1.7-.9 2.7-1.1l.7 1.5h2.2l.7-1.5c1 .2 1.9.6 2.7 1.1l-.5 1.6 1.6 1.6 1.6-.5c.5.8.9 1.7 1.1 2.7l-1.5.7v2.2l1.5.6zm41.5-6.2v-22.8h-14.3v20.1h2.9v2.7zm-79.6 47.3h6.6v-.2c4 0 7.3-3.3 7.3-7.3h.2v-5.6h-14.1v13.1zm0 24.8h6.9v-17.1h-6.9zm12.2-181.7v.2h.8v-17.9h-8v10.3h-.1v.1c0 4.1 3.3 7.3 7.3 7.3zm-30.5 46.4h13.7v-1.9h1.9v-6.4h-.2c0-8.3 6.8-15.1 15.1-15.1v-.3h.8v-14.6h-.8v-.2c-8.4 0-15.1-6.8-15.1-15.1h.7-.5v-10.5h-8.1v42.4c0 1.1-.9 2-2 2h-5.4v19.7zm-46.1 78.4c-2.1 1.8-4.7 2.8-7.6 2.8h-5.2v2.3h-10.6v-2.3h-5.4v8.4h2.6c2 0 3.6 1.6 3.6 3.6v19.4c0 2-1.6 3.6-3.6 3.6h-2.6v1h.2c0 3.2 2.6 5.7 5.7 5.7v.3h.3v-.1h24v-17.4h-7.7v-19.7h14l-7.7-7.6zm62.2 39.8h-10v.2c-4 0-7.3 3.3-7.3 7.3h-.2v9.5h-7.7v-9.5h.1c0-8.3 6.8-15.1 15.1-15.1v-.1h10v-13.2h-35.5v8.4h-22.3v17.5c6.5.1 11.7 5.3 11.7 11.8h-6.1c0-3.2-2.6-5.7-5.7-5.7v-.2h-29.1v-.3c-5.3-.9-9.4-5.4-9.8-10.8h-.1v-1.8h-2.6c-2 0-3.6-1.6-3.6-3.6v-3.9h-15v7.5c.4-.1.7-.1 1.1-.1 4 0 7.2 3.2 7.2 7.2s-3.2 7.2-7.2 7.2c-.4 0-.7 0-1.1-.1v4.9h118.3v-17.1zm-26.8-1.4c-.2.8-.5 1.5-.9 2.1l-1.3-.4-1.3 1.3.4 1.3c-.7.4-1.4.7-2.2.9l-.6-1.2h-1.8l-.6 1.2c-.8-.2-1.5-.5-2.2-.9l.4-1.2-1.3-1.3-1.2.4c-.4-.7-.7-1.4-.9-2.2l1.2-.6v-1.8l-1.2-.6c.2-.8.5-1.5.9-2.2l1.2.4 1.3-1.3-.4-1.2c.7-.4 1.4-.7 2.2-.9l.6 1.2h1.8l.6-1.2c.8.2 1.5.5 2.2.9l-.4 1.3 1.3 1.3 1.3-.4c.4.6.7 1.4.9 2.2l-1.2.6v1.8l1.2.5zm-79.2 213.4c-2.1 0-3.9 1.7-3.9 3.9 0 .4.1.8.2 1.1h7.4c.1-.4.2-.7.2-1.1 0-2.2-1.7-3.9-3.9-3.9zm137.4-.2v-.2h-24.8v-.1c-2.4-.1-4.5-1-6.3-2.3l-7.7 7.7h44.5c-.3-2.9-2.8-5.1-5.7-5.1z"/><ellipse cx="239.9" cy="342.6" rx="3.5" ry="3.4"/><path d="M247.6 327.5c0-4.2-3.4-7.7-7.7-7.7-3.8 0-6.9 2.7-7.5 6.3h7.5v2.3h-7.6c.5 3.8 3.7 6.7 7.6 6.7 4.2.1 7.7-3.4 7.7-7.6zm57-70.9h.1c0-4.4 1.9-8.4 5-11.2l-11.9-11.9v30.1h6.9v-7zm-9.1-37h-6.9l6.9 7z"/><circle cx="266.8" cy="321.9" r="3.9"/><path d="M257.4 272.2h-.1c0-4-3.3-7.3-7.3-7.3v-.2h-8.6v14.1h16.1v-6.6zm33.3-28.7l.1 20.1h4.8v-32.3l-11.6-11.6h-8.5v2.5h-2.7v3.7h.7c0 3.2 2.8 5.7 6.2 5.7v.2c6 .3 11 5.4 11 11.7zm-44.6 137c0 2-1.6 3.6-3.6 3.6h-4.9v15h17v-21.2h-8.5v2.6zm115.3-152.7h-1.9v6c0 8.3-6.8 15.1-15.1 15.1v.1h-22.1v14.5h30c1.4-6.9 7.5-12 14.8-12 7.3 0 13.4 5.2 14.8 12h18.3v-38.5h-38.8v2.8zm17.3 6.9l1.3.4 1.3-1.3-.4-1.3c.7-.4 1.4-.7 2.2-.9l.6 1.2h1.8l.6-1.2c.8.2 1.5.5 2.2.9l-.4 1.3 1.3 1.3 1.3-.4c.4.7.7 1.4.9 2.2l-1.2.6v1.8l1.2.6c-.2.8-.5 1.5-.9 2.2l-1.2-.4-1.3 1.3.4 1.2c-.7.4-1.4.7-2.2.9l-.6-1.2h-1.8l-.6 1.2c-.8-.2-1.5-.5-2.2-.9l.4-1.2-1.3-1.3-1.2.4c-.4-.7-.7-1.4-.9-2.2l1.2-.6v-1.8l-1.2-.6c0-.8.3-1.5.7-2.2zm-26.9-18.3v-17h-27.7v9.2c-.4 6.1-5.5 11-11.8 11v-6.1c3.2 0 5.7-2.6 5.7-5.7h.1v-8.4h-20.3v14.2h14.5v6h-14.5v9.2l14.7 14.6c2.2-1.2 4.7-1.9 7.4-1.9v-.1h24.5v-.2c4 0 7.3-3.3 7.3-7.3h.1v-6h-1.8v-11.4h1.8zm-18.8 18.6c-4 0-7.2-3.2-7.2-7.2s3.2-7.2 7.2-7.2 7.2 3.2 7.2 7.2-3.2 7.2-7.2 7.2zm-103 149.1h4.7v15h-4.7zm90-45.3v-19.9h-29.2v14.1h.2c0 3.1 2.6 5.7 5.7 5.7v.1h3.8v-10h8.3v10h11.2zm-71.3-107.3v-7.3c-1.5.5-2.6 2-2.6 3.6 0 1.7 1.1 3.1 2.6 3.7zm46.8 67.1v-32.8h-4.8v31.3h2.4v1.5zm1.1 79.3h17.2v-33.1h-5.1v10h-8.3v-10h-4.4c-3.3-.2-6.2-1.7-8.3-4-2.2 2.5-5.3 4-8.9 4v-6.1c3.2 0 5.7-2.6 5.7-5.7h.2v-25.3h-2.3v-1.5h-9.8v-.1c-8.4 0-15.1-6.8-15.1-15.1h-.1v-10h-16.1v35.5h8.4v14.3l10.1 10c1.9-1.2 4.1-2 6.5-2v-.1h12.5v6h-12.5v.2c-3.2 0-5.7 2.6-5.7 5.7h-.1v5.2h2.3v2.3h23.2v.1c5.9.6 10.6 5.6 10.6 11.7v8zm-21.2-54.6l1.9.9c-.3 1.2-.8 2.4-1.4 3.4l-2-.7-2 2 .7 2c-1 .7-2.2 1.1-3.4 1.4l-.9-1.8h-2.8l-.9 1.8c-1.2-.3-2.4-.8-3.4-1.4l.7-2-2-2-2 .7c-.7-1-1.2-2.2-1.4-3.4l1.9-.9v-2.8l-1.9-.9c.3-1.2.8-2.4 1.4-3.4l2 .7 2-2-.7-2c1-.7 2.2-1.1 3.4-1.4l1 1.9h2.8l1-1.9c1.2.3 2.4.8 3.4 1.4l-.7 2 2 2 2-.7c.7 1 1.1 2.2 1.4 3.4l-1.9.9v2.8zm-24.4-99.2v7.5c1.7-.4 2.9-1.9 2.9-3.7-.1-1.9-1.3-3.4-2.9-3.8z"/><ellipse cx="275.4" cy="383.6" rx="3.2" ry="3.2"/><path d="M341.6 380.8c-6-.1-11-4.8-11.5-10.7h-.1v-19.4h-.1c0-3.1-2.6-5.7-5.7-5.7v-.2h-4.3v37.2h.2c0 3.2 2.6 5.7 5.7 5.7v.2h24.4v.1c6.1.2 11.1 5.1 11.4 11.2h5.4v-18.3l-25.4-.1zm-27.5 2.8h-.2v-3.4h-17.2v19h9.7l10.1-10.1c-1.3-1.6-2.1-3.5-2.4-5.5z"/><ellipse cx="393.2" cy="295.8" rx="3.5" ry="3.5"/><path d="M367.1 259.3c-3 0-5.5 1.7-6.7 4.3h13.3c-1.1-2.5-3.7-4.3-6.6-4.3z"/><ellipse cx="383.1" cy="295.8" rx="3.5" ry="3.5"/><path d="M320 281.5h-5.3v2.4h-2.4v7.2c0 8.3-6.8 15.1-15.1 15.1v.1h-4.1v1.5h-2.3v8.9h29.2v-35.2zm0-15.7h-7.7v5.7h2.4v2.3h5.3zm0-16.7h-.1v.2c-4 0-7.3 3.3-7.3 7.3h-.2v6.9h7.7v-14.4zm-22.2 49.3c3.8-.3 6.7-3.4 6.7-7.3h.1v-7.2h-2.4v-12.4h2.4v-5.6h-6.9v32.5zm53.8-31.8h.3v-.8h-29.7v8h4.2v-1.8h11.4v1.9h6.6v.1c4-.1 7.2-3.4 7.2-7.4zm-15.6 102.4h.2c0 3.2 2.6 5.7 5.7 5.7v.2h25.1v-17.9h-31v12zm-13.7-87.5v35.1h6.3c-.1-.7-.2-1.5-.2-2.2h-.1v-31h-1.9v-1.9h-4.1zm-37.5 82.9v-.2h-21.9v2.3h-2.3v32.6h30.1v-29.1h-.1c0-3.1-2.6-5.6-5.8-5.6zm-2.4 20.3l1.5.8c-.2 1-.6 1.9-1.2 2.8l-1.6-.5-1.6 1.6.5 1.6c-.8.5-1.8.9-2.8 1.2l-.8-1.5h-2.3l-.8 1.5c-1-.2-2-.6-2.8-1.2l.5-1.6-1.6-1.6-1.6.5c-.5-.8-.9-1.8-1.2-2.8l1.5-.8v-2.3l-1.5-.8c.2-1 .6-1.9 1.2-2.8l1.6.5 1.6-1.6-.6-1.6c.8-.5 1.8-.9 2.8-1.2l.8 1.6h2.3l.8-1.6c1 .2 2 .6 2.8 1.2l-.6 1.6 1.6 1.6 1.6-.5c.5.8.9 1.8 1.1 2.8l-1.5.8v2.3z"/><circle cx="220.4" cy="314.4" r="2.5"/><path d="M396.3 353.9c-2.2 0-3.9 1.8-3.9 3.9 0 2.2 1.8 3.9 3.9 3.9 1.9 0 3.4-1.3 3.8-3.1v-1.8c-.3-1.6-1.9-2.9-3.8-2.9zm-147.6-96.8v-22.2c-3.4-.6-5.9-3.5-5.9-7.1 0-3.5 2.6-6.5 5.9-7.1v-21.3h-21.4c.8 1.2 1.3 2.6 1.3 4.1 0 4-3.2 7.2-7.2 7.2s-7.2-3.2-7.2-7.2c0-1.5.5-3 1.3-4.1h-15.1v46.1h31.3v.1c6.4 0 11.6 5.1 11.8 11.4h5.2zm-12.6-27.4c-.4 1.7-1.1 3.3-2 4.8l-2.8-.9-2.8 2.8.9 2.7c-1.5.9-3.1 1.6-4.8 2l-1.3-2.6h-4l-1.3 2.6c-1.7-.4-3.4-1.1-4.8-2l.9-2.7-2.8-2.8-2.8.9c-.9-1.5-1.6-3.1-2-4.8l2.6-1.3v-4l-2.7-1.3c.4-1.7 1.1-3.4 2-4.8l2.8.9 2.8-2.8-1-2.8c1.5-.9 3.1-1.6 4.8-2l1.3 2.7h4l1.3-2.7c1.7.4 3.3 1.1 4.8 2l-.9 2.8 2.8 2.8 2.8-.9c.9 1.5 1.6 3.1 2 4.8l-2.7 1.3v4l2.9 1.3zm138.6 145.2h25.5v-7l-1.5.5-.9-1.9h-2.8l-.9 1.8c-1.2-.3-2.4-.8-3.4-1.4l.7-2-2-2-2 .7c-.7-1-1.2-2.2-1.4-3.4l1.9-.9v-2.8l-1.9-.9c.3-1.2.8-2.4 1.4-3.4l2 .7 2-2-.7-2c1-.7 2.2-1.1 3.4-1.4l1 1.9h2.8l1-1.9 1.5.4v-7.4h-25.5v34.4zm-31.2-53.2v7.8c-6.8 0-12.5-4.4-14.4-10.6h-6.8v19.9h1.9v.1c6.5 0 11.8 5.3 11.8 11.8v4.1h31v-17.8h-.1c0-4-3.3-7.3-7.3-7.3v-.2h-16v-7.7h16v.1c8.4 0 15.1 6.8 15.1 15.1h25.5v-18.1h-62.4c1.3 1.7 3.4 2.8 5.7 2.8zm10.6 14.1c4 0 7.2 3.2 7.2 7.2s-3.2 7.2-7.2 7.2-7.2-3.2-7.2-7.2c-.1-3.9 3.2-7.2 7.2-7.2zm20.6 45.1h25.5v18.3h-25.5zm-153.3-160.1c-3 0-5.5 2.5-5.5 5.5s2.5 5.5 5.5 5.5 5.5-2.5 5.5-5.5-2.5-5.5-5.5-5.5zm163.4-21.4h15.4v19.7h-15.4z"/><ellipse cx="333" cy="227.8" rx="3.9" ry="3.9"/><ellipse cx="221.4" cy="203.6" rx="3.9" ry="3.9"/><ellipse cx="354.1" cy="343" rx="3.9" ry="3.9"/><circle cx="384.4" cy="238.3" r="2.5"/><path d="M381.5 219.1v-19.7h-22v17h1.9v2.7zm-25.8 89.3v-5.4h-19.7v11.3h.2c0 .8.1 1.5.4 2.3h63.6v-6.2h-42.5c-1.1 0-2-.9-2-2zm-122.9-51.2v-.1h4.6c-.2-3-2.7-5.3-5.7-5.3v-.2h-31.3v17.4h17.6c1.5-6.8 7.6-11.8 14.8-11.8z"/><ellipse cx="268.3" cy="249.1" rx="3.1" ry="3.1"/><path d="M282.4 298.6v-1.5h2.3v-53.6h-.2c0-3.2-2.6-5.7-5.7-5.7v-.2c-6.6-.3-11.8-5.2-12.1-11.3h-.1v-4.2h-2.6v-11.4h2.7v-11.3h-15.7v21.3c3.5.5 6.2 3.5 6.2 7.1 0 3.6-2.7 6.6-6.2 7.1v22.2c7.7.5 13.8 6.7 14.1 14.3v19.6h.2c0 4 3.3 7.3 7.3 7.3v.2h9.8zm-15.2-42.7l-.7 1.5c-1-.2-1.9-.6-2.7-1.1l.5-1.5-1.6-1.6-1.6.5c-.5-.8-.9-1.7-1.1-2.7l1.5-.7v-2.3l-1.5-.7c.2-1 .6-1.9 1.1-2.7l1.6.5 1.6-1.6-.5-1.6c.8-.5 1.7-.9 2.7-1.1l.8 1.5h2.2l.8-1.5c1 .2 1.9.6 2.7 1.1l-.5 1.6 1.6 1.6 1.6-.5c.5.8.9 1.7 1.1 2.7l-1.5.7v2.2l1.5.7c-.2 1-.6 1.9-1.1 2.7l-1.6-.5-1.6 1.6.5 1.5c-.8.5-1.7.9-2.7 1.1l-.7-1.5h-2.4zm1.7 33.7v-11.4h11.5v11.4h-11.5zm26.6-90.2h-22.8v11.3h2.7v3h20.1zm-57.1 65.3h-5.6v.2c-4 0-7.3 3.3-7.3 7.3h-.2v6.5h13.2v-14zm-38 7.2v6.9h17.2v-4.9h-.1v-2zm181.8-5.3h.2c0 4 3.2 7.3 7.2 7.3h.1v-.1h10.4v-8h-18c.1.3.1.6.1.8zm7.6 14.5v.7c-8.4 0-15.1-6.8-15.1-15.1h-.2v-.8h-14.6v.8h-.3c0 8.3-6.8 15.1-15.1 15.1v-.2h-6.4v1.9h-2.1v13.5h19.7v-5.4c0-1.1.9-2 2-2h42.5v-8.1h-10.4v-.4zm-140 68.4h-19.8v-7.7h-17.5v24h-.1v.3h.3c0 3.2 2.6 5.7 5.7 5.7v.2h1v-2.6c0-2 1.6-3.6 3.6-3.6h19.4c2 0 3.6 1.6 3.6 3.6v2.6h8.5v-5.4h-2.3v-10.6h2.3v-5.2c0-2.9 1.1-5.6 2.8-7.6l-7.6-7.6v13.9zm-30.4 31v-2.6h-1.8v-.1c-5.5-.4-10-4.5-10.9-9.8h-.3v-29.1h-.2c0-3.2-2.6-5.7-5.7-5.7v-6.1c6.5 0 11.7 5.2 11.8 11.7h17.7v-22.3h8.4v-35.5h-13.2v10h-.1c0 8.3-6.8 15.1-15.1 15.1v.1h-9.5v-7.7h9.5v-.2c4.1 0 7.3-3.3 7.3-7.3h.2v-10h-17.1v118.1h4.9c-.1-.4-.1-.7-.1-1.1 0-4 3.2-7.2 7.2-7.2s7.2 3.2 7.2 7.2c0 .4 0 .7-.1 1.1h7.5v-15h-4c-1.9 0-3.6-1.6-3.6-3.6zm-4.8-69.7l1.3.4 1.3-1.3-.4-1.3c.7-.4 1.4-.7 2.2-.9l.6 1.2h1.8l.6-1.2c.8.2 1.5.5 2.2.9l-.4 1.3 1.3 1.3 1.3-.4c.4.7.7 1.4.9 2.2l-1.2.6v1.8l1.2.6c-.2.8-.5 1.5-.9 2.2l-1.2-.4-1.3 1.3.4 1.2c-.7.4-1.4.7-2.2.9l-.6-1.2h-1.8l-.6 1.2c-.8-.2-1.5-.5-2.2-.9l.4-1.2-1.3-1.3-1.2.4c-.4-.7-.7-1.4-.9-2.2l1.2-.6v-1.8l-1.2-.6c0-.9.3-1.6.7-2.2zm-19.3 76.2c0 2.1 1.7 3.9 3.9 3.9.4 0 .8-.1 1.1-.2v-7.4c-.3-.1-.7-.2-1.1-.2-2.1 0-3.9 1.7-3.9 3.9zm-.1-137.1h-.2v24.7h-.1c-.1 2.4-1 4.5-2.3 6.3l7.7 7.7v-44.4c-2.9.3-5.1 2.7-5.1 5.7z"/><ellipse cx="143.7" cy="359.5" rx="3.5" ry="3.4"/><path d="M136.2 359.5c0-4.2-3.4-7.7-7.7-7.7-4.2 0-7.7 3.4-7.7 7.7 0 3.8 2.7 6.9 6.3 7.5v-7.5h2.3v7.6c3.9-.4 6.8-3.7 6.8-7.6zm-71.7-57.7v-6.8h-7v-.1c-4.5 0-8.5-1.9-11.2-5l-11.9 11.9h30.1zm-44 9.2l6.9-6.9h-6.9z"/><ellipse cx="123" cy="332.7" rx="3.9" ry="3.9"/><path d="M73.2 342.2c-4 0-7.3 3.3-7.3 7.3h-.2v8.6h14.1v-16h-6.6v.1zm-52.7-18.1h2.5v2.7h3.7v-.7c3.2 0 5.7-2.8 5.7-6.2h.2c.3-6.2 5.5-11.1 11.8-11.1v-.1h20.1v-4.8h-32.4l-11.6 11.6v8.6zm158.5 29.2h2.6c2 0 3.6 1.6 3.6 3.6v4.8h15v-16.9h-21.2v8.5zm-178.8-71.8v20.3h14.3v-14.5h-.1c0-3.2-2.6-5.7-5.7-5.7v-.1h-8.5zm9.2-6c6.2.4 11 5.5 11 11.8v14.5h9.2l14.7-14.6c-1.2-2.2-2-4.7-2-7.4h-.1v-24.5h-.2c0-4-3.3-7.3-7.3-7.3v-.1h-6.1v1.9h-11.3v-1.9h-17.1v27.7h9.2zm19.3-16c4 0 7.2 3.2 7.2 7.2s-3.2 7.2-7.2 7.2-7.2-3.2-7.2-7.2 3.2-7.2 7.2-7.2zm6-19.3c8.4 0 15.1 6.8 15.1 15.1h.2v22.1h14.5v-29.9c-6.9-1.4-12.1-7.5-12.1-14.8 0-7.3 5.2-13.4 12.1-14.8v-18.2h-38.5v38.7h2.7v1.9h6zm-2.1-26.4c.2-.8.5-1.5.9-2.1l1.3.4 1.3-1.3-.4-1.3c.7-.4 1.4-.7 2.2-.9l.6 1.2h1.8l.6-1.2c.8.2 1.5.5 2.2.9l-.4 1.2 1.3 1.3 1.2-.4c.4.7.7 1.4.9 2.2l-1.2.6v1.8l1.2.6c-.2.8-.5 1.5-.9 2.2l-1.2-.4-1.3 1.3.4 1.2c-.7.4-1.4.7-2.2.9l-.6-1.2h-1.8l-.6 1.2c-.8-.2-1.5-.5-2.2-.9l.4-1.3-1.3-1.3-1.3.4c-.4-.7-.7-1.4-.9-2.2l1.2-.6v-1.8l-1.2-.5zm152.7 151h15v4.7h-15zm-45.4-74v-11.2h-20v29.2h14.2v-.2c3.2 0 5.7-2.6 5.7-5.7h.1v-3.8h-10v-8.3h10zm-111.2 62.6c1.7 0 3.1-1.1 3.6-2.6h-7.3c.6 1.5 2 2.6 3.7 2.6zm70.9-49.3h-32.8v4.7h31.4v-2.3h1.4zm18 54v-8.4h14.3l10.1-10c-1.2-1.9-2-4.1-2-6.5h-.1v-12.4h6v12.4h.2c0 3.2 2.6 5.7 5.7 5.7v.1h5.2v-2.3h2.3v-23.1h.1c.6-5.9 5.6-10.5 11.7-10.5h7.8v-17.2h-33.2v5.1h10v8.3h-10v4.5c-.2 3.3-1.7 6.2-4 8.2 2.5 2.2 4 5.3 4 8.9h-6.1c0-3.2-2.6-5.7-5.7-5.7v-.2h-25.3v2.3h-1.5v9.8h-.1c0 8.3-6.8 15.1-15.1 15.1v.1h-9.9v16h35.6zm-5.2-27.7c.3-1.2.8-2.4 1.4-3.4l2 .7 2-2-.7-2c1-.7 2.2-1.1 3.4-1.4l.9 1.9h2.8l.9-1.9c1.2.3 2.4.8 3.4 1.4l-.7 2 2 2 2-.7c.7 1 1.1 2.2 1.4 3.4l-1.9.9v2.8l1.9.9c-.3 1.2-.8 2.4-1.4 3.4l-2-.7-2 2 .7 2c-1 .7-2.2 1.2-3.4 1.4l-.9-1.9h-2.8l-.9 1.9c-1.2-.3-2.4-.8-3.4-1.4l.7-2-2-2-2 .7c-.7-1-1.1-2.2-1.4-3.4l1.9-1v-2.8l-1.9-.8zm-83.7 15.2c-1.8 0-3.3 1.2-3.7 2.9h7.5c-.5-1.6-2-2.9-3.8-2.9z"/><ellipse cx="184.7" cy="324.1" rx="3.2" ry="3.2"/><path d="M182 258c-.2 6-4.9 10.9-10.8 11.5v.1h-19.4v.1c-3.2 0-5.7 2.6-5.7 5.7h-.2v4.3h37.2v-.2c3.2 0 5.7-2.6 5.7-5.7h.2v-24.4h.1c.2-6.1 5.1-11.1 11.2-11.4v-5.4h-18.3v25.4zm2.7 27.5v.2h-3.4v17.2h19v-9.6l-10.1-10.1c-1.5 1.2-3.4 2-5.5 2.3z"/><ellipse cx="96.8" cy="206.5" rx="3.5" ry="3.5"/><path d="M64.5 239.3v-13.3c-2.5 1.2-4.3 3.7-4.3 6.6 0 3 1.8 5.5 4.3 6.7z"/><ellipse cx="96.8" cy="216.6" rx="3.5" ry="3.5"/><path d="M117.6 308.8v-29.2h-35.1v5.3h2.4v2.4h7.2c8.4 0 15.1 6.8 15.1 15.1h.1v4.1h1.5v2.3h8.8zm-50.8-21.5h5.6v-2.4h2.4v-5.3h-8zm-2.3 0v-7.7h-14.5v.1h.2c0 4 3.3 7.3 7.3 7.3v.2h7zm20.4 7.6v2.4h-12.5v-2.4h-5.6v6.8h32.6c-.3-3.8-3.5-6.7-7.3-6.7v-.1h-7.2zm-18.1-47.2v29.7h8v-4.2h-1.9v-11.4h1.9v-6.5h.1c-.1-4-3.3-7.2-7.3-7.2v-.3c-.3-.1-.6-.1-.8-.1zm103.4 16v-.2c3.2 0 5.7-2.6 5.7-5.7h.2v-25.1h-17.9v31h12zm-52.6 7.4c-.7.1-1.5.2-2.2.2v.1h-31.1v1.9h-1.9v4.2h35.2v-6.4zm53.6 37.9c-3.2 0-5.7 2.6-5.7 5.7h-.2v21.9h2.3v2.3h32.7v-30l-29.1.1zm4.9 13.2c.2-1 .6-1.9 1.2-2.8l1.7.6 1.6-1.6-.6-1.6c.8-.5 1.8-.9 2.8-1.1l.8 1.5h2.3l.8-1.5c1 .2 2 .6 2.8 1.2l-.5 1.6 1.6 1.6 1.6-.5c.5.8.9 1.8 1.2 2.8l-1.5.8v2.3l1.5.8c-.2 1-.6 2-1.2 2.8l-1.6-.5-1.6 1.6.5 1.6c-.8.5-1.8.9-2.8 1.2l-.8-1.5h-2.3l-.8 1.5c-1-.2-2-.6-2.8-1.1l.6-1.6-1.6-1.6-1.7.6c-.5-.8-.9-1.8-1.2-2.8l1.6-.8v-2.7l-1.6-.8zm-60.7 54.4c-1.4 0-2.5 1.1-2.5 2.5s1.1 2.5 2.5 2.5 2.5-1.1 2.5-2.5-1.1-2.5-2.5-2.5zm44.4-177h-1.8c-1.7.4-3.1 2-3.1 3.8 0 2.2 1.8 3.9 3.9 3.9 2.2 0 3.9-1.8 3.9-3.9.1-1.8-1.2-3.4-2.9-3.8zm-101.8 151.2h-22.2c-.6 3.4-3.5 5.9-7.1 5.9-3.5 0-6.5-2.5-7.1-5.9h-21.4v21.4c1.2-.8 2.6-1.3 4.1-1.3 4 0 7.2 3.2 7.2 7.2s-3.2 7.2-7.2 7.2c-1.5 0-3-.5-4.1-1.3v15h46.2v-31.2h.1c0-6.4 5.1-11.6 11.4-11.8v-5.2zm-16 30.5c-.4 1.7-1.1 3.4-2 4.8l-2.8-.9-2.8 2.8.9 2.8c-1.5.9-3.1 1.6-4.8 2l-1.3-2.6h-4l-1.3 2.6c-1.7-.4-3.4-1.1-4.8-2l.9-2.8-2.8-2.8-2.8 1c-.9-1.4-1.6-3.1-2-4.8l2.7-1.3v-4l-2.7-1.3c.4-1.7 1.1-3.3 2-4.8l2.8.9 2.8-2.8-.9-2.8c1.5-.9 3.1-1.6 4.8-2l1.3 2.6h4l1.3-2.6c1.7.4 3.4 1.1 4.8 2l-.9 2.8 2.8 2.8 2.8-.9c.9 1.5 1.6 3.1 2 4.8l-2.6 1.3v4l2.6 1.2zm134.1-181.7h-7l.5 1.5-1.9.9v2.8l1.9.9c-.3 1.2-.8 2.4-1.4 3.4l-2-.7-2 2 .7 2c-1 .7-2.2 1.2-3.4 1.4l-.9-1.9h-2.8l-.9 1.9c-1.2-.3-2.4-.8-3.4-1.4l.7-2-2-2-2 .7c-.7-1-1.2-2.2-1.4-3.4l1.9-1v-2.7l-1.9-1c0-.2.1-.8.3-1.6h14.1v-15h-4.9c-2 0-3.6-1.6-3.6-3.6v-2.6h-8.5v18.6l-4.4 2.8v25.5h34.7v-25.5zm-36.2 75.8c.1-6.5 5.4-11.8 11.9-11.8h4.1v-31h-17.8v.1c-4.1 0-7.3 3.3-7.3 7.3h-.2v16h-7.7v-16h.1c0-8.3 3.8-15.1 12.2-15.1l.5-29.4 4.2-2.3v-26.6h-2.3v-2.3h-21.9v.2c-3.2 0-5.7 2.6-5.7 5.7h-.1v39.8l1.7-1v33c0 1.1-.9 2-2 2h-5.6v19.7h11.4v-.2c.8 0 1.5-.1 2.3-.4v-57.4l2.3-1.3v57.5c1.7-1.3 2.8-3.4 2.8-5.7h7.8c0 6.8-4.5 12.5-10.6 14.4v6.8h20v-2zm-19.6-84.1l.5-1.6-1.6-1.6-1.6.5c-.5-.8-.9-1.8-1.2-2.8l1.5-.8v-2.3l-1.5-.8c.2-1 .6-2 1.1-2.8l1.6.5 1.6-1.6-.6-1.6c.8-.5 1.8-.9 2.8-1.2l.8 1.6h2.3l.8-1.6c1 .2 1.9.6 2.8 1.2l-.6 1.6 1.6 1.6 1.6-.5c.5.8.9 1.8 1.2 2.8l-1.5.8v2.3l1.5.8c-.2 1-.6 1.9-1.2 2.8l-1.6-.5-1.6 1.6.5 1.6c-.8.5-1.8.9-2.8 1.2l-.8-1.5h-2.3l-.8 1.5c-.7-.3-1.7-.6-2.5-1.2zm16.6 54.3c0-4 3.2-7.2 7.2-7.2s7.2 3.2 7.2 7.2-3.2 7.2-7.2 7.2-7.2-3.2-7.2-7.2zm45.1-46h18.3v25.5h-18.3z"/><ellipse cx="27.2" cy="378" rx="5.5" ry="5.5"/><ellipse cx="28.7" cy="266.7" rx="3.9" ry="3.9"/><ellipse cx="4.4" cy="378" rx="3.9" ry="3.9"/><ellipse cx="144.1" cy="245.6" rx="3.9" ry="3.9"/><circle cx="39.2" cy="215.3" r="2.5"/><path d="M17.3 238.3h2.7v-20h-19.8v21.9h17.1zm40.8 128.3h-.1v-4.6c-3 .2-5.4 2.7-5.4 5.7h-.2v31.2h17.5v-17.6c-6.8-1.4-11.8-7.5-11.8-14.7z"/><ellipse cx="50" cy="331.2" rx="3.1" ry="3.1"/><path d="M35.8 348.5h22.2c.5-7.6 6.7-13.7 14.4-14.1h19.6v-.2c4.1 0 7.3-3.3 7.3-7.3h.2v-9.8h-1.5v-2.3h-53.6v.2c-3.2 0-5.7 2.6-5.7 5.7h-.2c-.3 6.6-5.2 11.8-11.3 12.1v.1h-4.2v2.7h-11.4v-2.7h-11.4v15.7h21.3c.5-3.5 3.5-6.2 7.1-6.2 3.7-.1 6.7 2.6 7.2 6.1zm43.3-29.3h11.5v11.4h-11.5v-11.4zm-37.4 10.1c.2-1 .6-1.9 1.1-2.7l1.6.5 1.6-1.6-.5-1.6c.8-.5 1.7-.9 2.7-1.1l.7 1.5h2.2l.7-1.5c1 .2 1.9.6 2.7 1.1l-.5 1.6 1.6 1.6 1.5-.5c.5.8.9 1.7 1.1 2.7l-1.5.7v2.2l1.5.7c-.2 1-.6 1.9-1.1 2.7l-1.5-.5-1.6 1.6.5 1.5c-.8.5-1.7.9-2.7 1.1l-.7-1.5h-2.2l-.7 1.5c-1-.2-1.9-.6-2.7-1.1l.5-1.6-1.6-1.6-1.6.5c-.5-.8-.9-1.7-1.1-2.7l1.5-.7v-2.2l-1.5-.6zm-41.5-2.5h11.4v-2.7h2.9v-20h-14.3zm65.4 39.8h.2c0 4 3.3 7.3 7.3 7.3v.2h6.6v-13.1h-14.1v5.6zm9.3 15.3h-2v17h6.9v-17h-4.9zm-8.1-182.3v17.9h.8v-.2c4 0 7.3-3.2 7.3-7.2v-.1h-.1v-10.3h-8zm31.2 64.1v-19.7h-5.4c-1.1 0-2-.9-2-2v-42.4h-8.1v10.3h-.5.7c0 8.3-6.8 15.1-15.1 15.1v.2h-.8v14.5h.8v.3c8.4 0 15.1 6.8 15.1 15.1h-.2v6.4h1.9v1.9h13.6zm72.4 89.6h2.6v-8.4h-5.4v2.3h-10.6v-2.3h-5.2c-2.9 0-5.6-1.1-7.6-2.8l-7.6 7.6h14v19.8h-7.7v17.4h24v.1h.3v-.3c3.2 0 5.7-2.6 5.7-5.7h.2v-1h-2.6c-2 0-3.6-1.6-3.6-3.6v-19.4c-.1-2 1.5-3.7 3.5-3.7zm14.9 23c0 2-1.6 3.6-3.6 3.6h-2.7v1.8h-.1c-.4 5.5-4.5 9.9-9.8 10.8v.3h-29.1v.2c-3.2 0-5.7 2.6-5.7 5.7h-6.1c0-6.5 5.2-11.7 11.7-11.8v-17.5h-22.3v-8.4h-35.6v13.2h10v.1c8.4 0 15.1 6.8 15.1 15.1h.1v9.5h-7.7v-9.5h-.2c0-4-3.3-7.3-7.3-7.3v-.2h-10v17.1h118.3v-4.9c-.4.1-.7.1-1.1.1-4 0-7.2-3.2-7.2-7.2s3.2-7.2 7.2-7.2c.4 0 .7 0 1.1.1v-7.5h-15v3.9zm-64.4 3.6l1.2.6c-.2.8-.5 1.5-.9 2.2l-1.2-.4-1.3 1.3.4 1.2c-.7.4-1.4.7-2.2.9l-.6-1.2h-1.8l-.6 1.2c-.8-.2-1.5-.5-2.2-.9l.4-1.3-1.3-1.3-1.3.4c-.4-.6-.7-1.4-.9-2.1l1.2-.6v-1.8l-1.2-.6c.2-.8.5-1.5.9-2.2l1.3.4 1.3-1.3-.4-1.3c.7-.4 1.4-.7 2.2-.9l.6 1.2h1.8l.6-1.2c.8.2 1.5.5 2.2.9l-.4 1.2 1.3 1.3 1.2-.4c.4.7.7 1.4.9 2.2l-1.2.6v1.9zm-100.9-180.4c.1-3.3 2.5-6 5.7-6.5v-11.8h-25.5v18.3h.3l-.3.2v15.3h19.8v-15.5z"/></g><path opacity=".3" d="M.2-.3h400v400.4h-400z"/></svg>