<svg xmlns="http://www.w3.org/2000/svg" viewBox="0 110 612 606" enable-background="new 0 110 612 606"><path fill="#03283A" d="M-10 99.1h634.3v627.9h-634.3z"/><path opacity=".2" d="M51.5 153.5h-13.6l5.3-31-30.7 31h13.6l-5.3 31zm101.5 0h-13.6l5.3-31-30.7 31h13.6l-5.3 31zm103 0h-13.6l5.3-31-30.7 31h13.6l-5.3 31zm101.5 0h-13.6l5.3-31-30.7 31h13.6l-5.3 31zm103.5 0h-13.6l5.3-31-30.7 31h13.6l-5.3 31zm101.5 0h-13.6l5.3-31-30.7 31h13.6l-5.3 31zm-473.4 74.4h-13.5l5.2-31-30.6 31h13.5l-5.2 31zm101.5 0h-13.5l5.2-31-30.6 31h13.5l-5.2 31zm103 0h-13.5l5.2-31-30.6 31h13.5l-5.2 31zm101.5 0h-13.5l5.2-31-30.6 31h13.5l-5.2 31zm103.5 0h-13.5l5.2-31-30.6 31h13.5l-5.2 31zm101.5 0h-13.5l5.2-31-30.6 31h13.5l-5.2 31zm-548.5 73.6h-13.5l5.2-31-30.6 31h13.5l-5.2 31zm101.5 0h-13.5l5.2-31-30.6 31h13.5l-5.2 31zm103 0h-13.5l5.2-31-30.6 31h13.5l-5.2 31zm101.5 0h-13.5l5.2-31-30.6 31h13.5l-5.2 31zm103.5 0h-13.5l5.2-31-30.6 31h13.5l-5.2 31zm101.5 0h-13.5l5.2-31-30.6 31h13.5l-5.2 31zm-473.3 74.4h-13.6l5.3-31-30.7 31h13.6l-5.3 31zm101.5 0h-13.6l5.3-31-30.7 31h13.6l-5.3 31zm103 0h-13.6l5.3-31-30.7 31h13.6l-5.3 31zm101.5 0h-13.6l5.3-31-30.7 31h13.6l-5.3 31zm103.5 0h-13.6l5.3-31-30.7 31h13.6l-5.3 31zm101.5 0h-13.6l5.3-31-30.7 31h13.6l-5.3 31zm-548.8 74.1h-13.6l5.3-31-30.7 31h13.6l-5.3 31zm101.5 0h-13.6l5.3-31-30.7 31h13.6l-5.3 31zm103 0h-13.6l5.3-31-30.7 31h13.6l-5.3 31zm101.5 0h-13.6l5.3-31-30.7 31h13.6l-5.3 31zm103.5 0h-13.6l5.3-31-30.7 31h13.6l-5.3 31zm101.5 0h-13.6l5.3-31-30.7 31h13.6l-5.3 31zm-473.4 74.4h-13.5l5.2-31-30.6 31h13.5l-5.2 31zm101.5 0h-13.5l5.2-31-30.6 31h13.5l-5.2 31zm103 0h-13.5l5.2-31-30.6 31h13.5l-5.2 31zm101.5 0h-13.5l5.2-31-30.6 31h13.5l-5.2 31zm103.5 0h-13.5l5.2-31-30.6 31h13.5l-5.2 31zm101.5 0h-13.5l5.2-31-30.6 31h13.5l-5.2 31zm-548.5 73.6h-13.5l5.2-31-30.6 31h13.5l-5.2 31zm101.5 0h-13.5l5.2-31-30.6 31h13.5l-5.2 31zm103 0h-13.5l5.2-31-30.6 31h13.5l-5.2 31zm101.5 0h-13.5l5.2-31-30.6 31h13.5l-5.2 31zm103.5 0h-13.5l5.2-31-30.6 31h13.5l-5.2 31zm101.5 0h-13.5l5.2-31-30.6 31h13.5l-5.2 31zm-473.3 74.4h-13.6l5.3-31-30.7 31h13.6l-5.3 31zm101.5 0h-13.6l5.3-31-30.7 31h13.6l-5.3 31zm103 0h-13.6l5.3-31-30.7 31h13.6l-5.3 31zm101.5 0h-13.6l5.3-31-30.7 31h13.6l-5.3 31zm103.5 0h-13.6l5.3-31-30.7 31h13.6l-5.3 31zm101.5 0h-13.6l5.3-31-30.7 31h13.6l-5.3 31z"/></svg>