<svg xmlns="http://www.w3.org/2000/svg" viewBox="0 122 1000 982" enable-background="new 0 122 1000 982"><path fill="#002" d="M-16.3 97.1h1036.4v1026h-1036.4z"/><path opacity=".05" fill="#fff" d="M53.7 169.7l17.8-32.7 17.9 32.7 32.6 17.8-32.6 17.9-17.9 32.7-17.8-32.7-32.7-17.9zm172 0l17.8-32.7 17.9 32.7 32.6 17.8-32.6 17.9-17.9 32.7-17.8-32.7-32.7-17.9zm169 0l17.8-32.7 17.9 32.7 32.6 17.8-32.6 17.9-17.9 32.7-17.8-32.7-32.7-17.9zm-255 171l17.8-32.7 17.9 32.7 32.6 17.9-32.6 17.8-17.9 32.7-17.8-32.7-32.7-17.8zm172 0l17.8-32.7 17.9 32.7 32.6 17.9-32.6 17.8-17.9 32.7-17.8-32.7-32.7-17.8zm172.3 0l17.9-32.7 17.9 32.7 32.6 17.9-32.6 17.8-17.9 32.7-17.9-32.7-32.6-17.8zm75.7-171l17.9-32.7 17.8 32.7 32.7 17.8-32.7 17.9-17.8 32.7-17.9-32.7-32.7-17.9zm172 0l17.9-32.7 17.8 32.7 32.7 17.8-32.7 17.9-17.8 32.7-17.9-32.7-32.7-17.9zm169 0l17.9-32.7 17.8 32.7 32.7 17.8-32.7 17.9-17.8 32.7-17.9-32.7-32.7-17.9zm-255 171l17.9-32.7 17.8 32.7 32.7 17.9-32.7 17.8-17.8 32.7-17.9-32.7-32.7-17.8zm172 0l17.9-32.7 17.8 32.7 32.7 17.9-32.7 17.8-17.8 32.7-17.9-32.7-32.7-17.8zm-764 163.9l17.8-32.6 17.9 32.6 32.6 17.9-32.6 17.9-17.9 32.6-17.8-32.6-32.7-17.9zm172 0l17.8-32.6 17.9 32.6 32.6 17.9-32.6 17.9-17.9 32.6-17.8-32.6-32.7-17.9zm169 0l17.8-32.6 17.9 32.6 32.6 17.9-32.6 17.9-17.9 32.6-17.8-32.6-32.7-17.9zm-255 171l17.8-32.6 17.9 32.6 32.6 17.9-32.6 17.9-17.9 32.6-17.8-32.6-32.7-17.9zm172 0l17.8-32.6 17.9 32.6 32.6 17.9-32.6 17.9-17.9 32.6-17.8-32.6-32.7-17.9zm172.3 0l17.9-32.6 17.9 32.6 32.6 17.9-32.6 17.9-17.9 32.6-17.9-32.6-32.6-17.9zm75.7-171l17.9-32.6 17.8 32.6 32.7 17.9-32.7 17.9-17.8 32.6-17.9-32.6-32.7-17.9zm172 0l17.9-32.6 17.8 32.6 32.7 17.9-32.7 17.9-17.8 32.6-17.9-32.6-32.7-17.9zm169 0l17.9-32.6 17.8 32.6 32.7 17.9-32.7 17.9-17.8 32.6-17.9-32.6-32.7-17.9zm-255 171l17.9-32.6 17.8 32.6 32.7 17.9-32.7 17.9-17.8 32.6-17.9-32.6-32.7-17.9zm172 0l17.9-32.6 17.8 32.6 32.7 17.9-32.7 17.9-17.8 32.6-17.9-32.6-32.7-17.9zm-759.6 145l17.9-32.6 17.8 32.6 32.7 17.9-32.7 17.9-17.8 32.6-17.9-32.6-32.6-17.9zm172 0l17.9-32.6 17.8 32.6 32.7 17.9-32.7 17.9-17.8 32.6-17.9-32.6-32.6-17.9zm169 0l17.9-32.6 17.8 32.6 32.7 17.9-32.7 17.9-17.8 32.6-17.9-32.6-32.6-17.9zm-255 171l17.9-32.6 17.8 32.6 32.7 17.9-32.7 17.9-17.8 32.6-17.9-32.6-32.6-17.9zm-164.2-641.4l17.9-32.7 17.8 32.7 32.7 17.8-32.7 17.9-17.8 32.7-17.9-32.7-32.7-17.9zm0 334.9l17.9-32.6 17.8 32.6 32.7 17.9-32.7 17.8-17.8 32.7-17.9-32.7-32.7-17.8zm4.5 316l17.8-32.6 17.9 32.6 32.7 17.9-32.7 17.8-17.9 32.7-17.8-32.7-32.7-17.8zm995.5-660.4l17.9-32.7 17.8 32.7 32.7 17.9-32.7 17.8-17.8 32.7-17.9-32.7-32.6-17.8zm0 334.9l17.9-32.6 17.8 32.6 32.7 17.9-32.7 17.9-17.8 32.6-17.9-32.6-32.6-17.9zm4.5 316l17.8-32.6 17.9 32.6 32.7 17.9-32.7 17.9-17.9 32.6-17.8-32.6-32.7-17.9zm-668.3 0l17.9-32.6 17.8 32.6 32.7 17.9-32.7 17.9-17.8 32.6-17.9-32.6-32.6-17.9zm172.4 0l17.8-32.6 17.9 32.6 32.7 17.9-32.7 17.9-17.9 32.6-17.8-32.6-32.7-17.9zm75.7-171l17.8-32.6 17.9 32.6 32.6 17.9-32.6 17.9-17.9 32.6-17.8-32.6-32.7-17.9zm172 0l17.8-32.6 17.9 32.6 32.6 17.9-32.6 17.9-17.9 32.6-17.8-32.6-32.7-17.9zm169 0l17.8-32.6 17.9 32.6 32.6 17.9-32.6 17.9-17.9 32.6-17.8-32.6-32.7-17.9zm-255 171l17.8-32.6 17.9 32.6 32.6 17.9-32.6 17.9-17.9 32.6-17.8-32.6-32.7-17.9zm172 0l17.8-32.6 17.9 32.6 32.6 17.9-32.6 17.9-17.9 32.6-17.8-32.6-32.7-17.9z"/></svg>