<svg xmlns="http://www.w3.org/2000/svg" viewBox="0 0 339.6 339.6" enable-background="new 0 0 339.6 339.6"><path fill="#B0832D" d="M322 0h-304.3c-9.8 0-17.7 7.9-17.7 17.7v304.3c0 9.7 7.9 17.7 17.7 17.7h186.6c9.8 0 135.4-129.9 135.4-139.6v-182.4c-.1-9.8-8-17.7-17.7-17.7z"/><path fill="#936627" d="M297.9 26.8h-256.2c-8.2 0-14.9 6.7-14.9 14.9v256.2c0 8.2 6.7 14.9 14.9 14.9h256.2c8.2 0 14.9-6.7 14.9-14.9v-256.2c0-8.2-6.7-14.9-14.9-14.9z"/><path fill="#815522" d="M297.9 26.8h-123.7v286h123.8c8.2 0 14.9-6.7 14.9-14.9v-256.2c-.1-8.2-6.8-14.9-15-14.9z"/><path fill="#6C491C" d="M33.8 304.9v-256.2c0-8.2 6.7-14.9 14.9-14.9h256.2c2.3 0 4.4.6 6.4 1.5-2.4-5-7.5-8.5-13.4-8.5h-256.2c-8.2 0-14.9 6.7-14.9 14.9v256.2c0 5.9 3.5 11 8.5 13.4-.9-1.9-1.5-4.1-1.5-6.4z"/><circle fill="#6C491C" cx="17.7" cy="321.9" r="8.7"/><circle fill="#6C491C" cx="17.7" cy="17.8" r="8.7"/><path fill="#6C491C" d="M240.8 103.1l-135.3 139 97.5 97.5h119c9.8 0 17.7-7.9 17.7-17.7v-119.9l-98.9-98.9z"/><path fill="#543713" d="M240.8 103.1l-135.3 139 70.7 70.7h121.8c8.2 0 14.9-6.7 14.9-14.9v-122.7l-72.1-72.1z"/><circle fill="#543713" cx="320.1" cy="321.9" r="8.7"/><circle fill="#815522" cx="320.1" cy="17.8" r="8.7"/><path fill="#B0832D" d="M275.3 173.6c0-55.9-45.3-101.2-101.2-101.2v202.4c55.9 0 101.2-45.3 101.2-101.2z"/><path fill="#FEC23F" d="M73 173.6c0 55.9 45.3 101.2 101.2 101.2v-202.3c-55.9 0-101.2 45.3-101.2 101.1z"/><path fill="#B0832D" d="M98 219.6c-3.2 3.2-3.2 8.5 0 11.7 3.2 3.2 8.5 3.2 11.7 0 3.2-3.2 3.2-8.5 0-11.7-3.2-3.2-8.4-3.2-11.7 0z"/><path fill="#543713" d="M237.8 219.6c-3.2 3.2-3.2 8.5 0 11.7 3.2 3.2 8.5 3.2 11.7 0 3.2-3.2 3.2-8.5 0-11.7-3.2-3.2-8.4-3.2-11.7 0z"/><path fill="#B0832D" d="M168.3 80.1c-3.2 3.2-3.2 8.5 0 11.7 3.2 3.2 8.5 3.2 11.7 0 3.2-3.2 3.2-8.5 0-11.7-3.2-3.2-8.5-3.2-11.7 0z"/><path fill="#3EBCA4" d="M174.2 238.9c36.1 0 65.3-29.2 65.3-65.3 0-36.1-29.2-65.3-65.3-65.3l-5.1 101 5.1 29.6z"/><path fill="#8DD5E3" d="M174.2 108.4c-36.1 0-65.3 29.2-65.3 65.3 0 36.1 29.2 65.3 65.3 65.3v-130.6z"/><circle fill="#5A371B" cx="174.2" cy="173.6" r="14.1"/><path fill="#3EBCA4" d="M169.5 114.3h9.4v14.3h-9.4zm-30.542 30.805l-10.11-10.113 6.648-6.646 10.11 10.113zm-24.158 23.895h14.3v9.4h-14.3z"/><path fill="#029176" d="M219.2 169v9.3h14.3v-9.3zm-16.533-30.537l10.112-10.112 6.647 6.647-10.112 10.112z"/><circle fill="#fff" cx="174.2" cy="173.6" r="8.1"/><path fill="#5A371B" d="M174.2 100c-40.7 0-73.6 33-73.6 73.6 0 40.7 33 73.6 73.6 73.6s73.6-33 73.6-73.6c0-40.6-33-73.6-73.6-73.6zm35.4 128.4c-1.6.8-3.5 1.2-5.4 1.2-5.4 0-10-3.4-11.9-8.3l-.2.1c-2.4-7.8-9.5-13.5-18-13.5-8.3 0-15.3 5.4-17.9 12.9l-.2-.1c-1.6 5.1-6.4 8.8-12 8.8-2.1 0-4.1-.6-5.9-1.5-17.7-11.7-29.3-31.7-29.3-54.5 0-36.1 29.2-65.3 65.3-65.3s65.3 29.2 65.3 65.3c.1 23.1-11.8 43.3-29.8 54.9z"/><path fill="#998776" d="M167.2 216.9c-3.8 3.8-3.9 10.1 0 13.9 3.9 3.9 10.1 3.9 13.9 0 3.9-3.9 3.9-10.1 0-13.9-3.8-3.8-10.1-3.8-13.9 0z"/></svg>