<svg xmlns="http://www.w3.org/2000/svg" viewBox="0 0 91.1 91" enable-background="new 0 0 91.1 91"><circle fill="#06AED3" cx="45.7" cy="45.4" r="45.4"/><path fill="#056FB5" d="M21.8 6.5c-4.3 7-6.8 15.1-6.8 23.9 0 25.2 20.5 45.6 45.7 45.6 8.8 0 17-2.5 23.9-6.8-8 13-22.4 21.7-38.9 21.7-25.2.1-45.7-20.3-45.7-45.5 0-16.5 8.7-30.9 21.8-38.9z"/><path d="M61.5 87.8l-3.8-6s.6-12.3.6-16.2c0-3.9-1.7-10.7-1.7-10.7l9.5 2.3v-5.6s-11.2-30.2-8.9-29.6c2.2.6 8.9-2.2 8.9-2.2l-2.2-4.5 7.5-7.2c7.4 5.1 13.2 12.4 16.5 20.9l-19.6 20 1.7 6h10l-2.2 14s-6.1 6.6-7.8 6.4c-.8-.1-.8 4.3-.6 8.7-2.5 1.4-5.2 2.7-7.9 3.7zm-61.1-42.4c0-12.1 4.8-23.1 12.6-31.3.4.7.6 1.2.6 1.2 2.2.6 15.1 2.8 15.1 2.8l5.6-2.8 8.9 8.9-4.5 5.8 6.7 6-6.1 4.5s-9.5-3.9-9.8-3.9c-.3 0-6.4-6.5-6.4-6.5l-1.1 10.3h-5.6l-2.8-7.3-10.6 7.3 2.2 13.4 6.1-10 29.6 1.1 1.1 14-9.5 6.7-8.4 16.2 13.8 8.2c-21.3-3.7-37.5-22.2-37.5-44.6z" fill="#046937"/><path d="M60.7 76.1c4 0 7.8-.5 11.5-1.5-.8.6-1.5 1-2 .9-.8-.1-.8 4.3-.6 8.8l-.8.5-.8.5-1.8 1-.6.3c-.7.3-1.4.7-2.2 1l-.9.4-.9.3-3.8-6.1s.1-2.8.3-6.1c.8-.1 1.7 0 2.6 0zm-60.6-33.5c0-.3 0-.5.1-.8l.2-2 .1-.8.4-2.6.1-.4.5-2.2.3-.9.5-1.7.3-.9c.3-.8.5-1.5.8-2.2.1-.3.2-.6.4-.8l.7-1.5.5-1c.2-.4.4-.8.7-1.2l.6-1c.3-.5.6-1.1 1-1.6l.9-1.3.7-1.1c.3-.4.5-.7.8-1 .3-.3.5-.6.8-1l.8-1 1.4-1.6.1-.1c.4.7.6 1.2.6 1.2.7.2 2.2.5 4.1.8-1.5 4.6-2.4 9.5-2.4 14.5 0 3.4.4 6.7 1.1 9.9l-2.9-7.3-10.7 7.4 2.3 13.5 6.1-10.2 6 .2c2.8 8.8 8.1 16.5 15.2 22.2l-8.2 16 13.9 8.3c-5.4-.9-10.4-2.8-15-5.4h-.1c-1.1-.6-2.2-1.3-3.3-2.1h-.1c-3.2-2.2-6-4.8-8.6-7.8l-.2-.2c-.6-1-1.3-1.9-2-2.9-.1-.1-.2-.2-.2-.3l-2-3-.2-.3-1.8-3.3-1.5-3.4-.1-.3c-.4-1.1-.8-2.3-1.1-3.4-.1-.2-.1-.4-.2-.5-.3-1.1-.6-2.3-.8-3.4l-.1-.6c-.2-1.2-.4-2.4-.5-3.6v-.5c0-1.4-.1-2.7-.1-4 0-1 0-1.9.1-2.8z" fill="#0B4823"/></svg>