<svg xmlns="http://www.w3.org/2000/svg" viewBox="0 0 1000 1000" enable-background="new 0 0 1000 1000"><path fill="#F4E0AC" d="M506.8 660.4c-89.3 0-161-71.7-161-161s71.7-161 161-161v-249h-65l-44.6-89.4c-58.2 12.2-113.7 35.2-162.4 66.3l32.5 96.1-94.7 94.7-96.1-32.5c-31.2 48.7-54.2 104.2-67.7 162.4l89.3 46v134l-90.7 46c13.6 58.2 36.6 113.7 67.7 162.4l96.1-32.5 94.7 94.7-32.5 96.1c48.7 31.1 104.2 54.1 162.4 66.3l44.7-89.3h65v-250.3h1.3zm-13.6-320.8c89.3 0 161 71.7 161 161s-71.7 161-161 161v249h65l44.7 89.3c58.2-12.2 113.7-35.2 162.4-66.3l-32.5-96.1 94.7-94.7 96.1 32.5c31.1-48.7 54.1-104.2 67.7-162.4l-90.7-44.7v-135.2l90.7-46c-13.5-58.2-36.5-113.7-67.7-162.4l-93.4 32.5-94.7-94.7 32.5-96.1c-48.8-31.1-104.3-54.1-162.5-66.3l-44.7 89.3h-65v250.3h-2.6z"/><circle fill="#543713" cx="500" cy="500.7" r="177.3"/><circle fill="#E7BD50" cx="500" cy="500.7" r="102.8"/><g opacity=".5"><path stroke="#B79E8B" stroke-width="30" stroke-miterlimit="10" d="M187.1 516.3c-3.8-174.6 134.4-318.9 309-322.6" fill="none"/><path fill="#B79E8B" d="M602 191.4l-147.8 64.2 34-61.7-36.7-60.2z"/></g><g opacity=".5"><path stroke="#B79E8B" stroke-width="30" stroke-miterlimit="10" d="M803.1 500.7c-.1 174.6-141.5 315.8-316.1 315.6" fill="none"/><path fill="#B79E8B" d="M381.1 816.2l149.2-60.8-35.4 60.9 35.3 61z"/></g></svg>