<svg xmlns="http://www.w3.org/2000/svg" viewBox="0 0 1000 1000" enable-background="new 0 0 1000 1000"><path fill="#F4E0AC" d="M500 659.6c-89.8 0-160.8-70.9-160.8-160.8s71-160.7 160.8-160.7v-248.3h-66.2l-42.5-89.8c-59.1 11.8-113.5 35.5-163.1 66.2l33.1 94.6-94.6 94.6-96.9-30.7c-30.8 49.5-54.4 103.9-68.6 163l92.2 44.9v134.8l-92.2 44.9c14.2 59.1 35.5 113.5 68.6 163.1l96.9-33.1 94.6 94.6-33.1 94.6c49.6 30.7 104 54.4 163.1 66.2l44.9-89.8h66.2v-248.3h-2.4zm0-321.5c89.8 0 160.8 70.9 160.8 160.8s-71 160.7-160.8 160.7v248.2h66.2l44.9 89.8c59.1-11.8 113.5-35.5 163.1-66.2l-33.1-94.6 94.6-94.6 96.9 33.1c30.7-49.6 54.4-104 68.6-163.1l-92.2-44.8v-134.8l92.2-44.9c-14.2-59.1-35.5-113.5-68.6-163.1l-96.9 33.1-94.6-94.6 33.1-94.6c-49.6-30.7-104-54.4-163.1-66.2l-44.9 89.8h-66.2v246z"/><circle fill="#543713" cx="500" cy="498.8" r="179.7"/><g opacity=".5"><path stroke="#B79E8B" stroke-width="30" stroke-miterlimit="10" d="M196.7 529.7c-5.8-174.5 130.8-320.3 305.3-326.1" fill="none"/><path fill="#B79E8B" d="M200.2 635.6l56-151.2-59.8 37.4-62.1-33.4z"/></g><g opacity=".5"><path stroke="#B79E8B" stroke-width="30" stroke-miterlimit="10" d="M807.9 478.8c4.9 174.5-132.4 319.7-306.9 324.6" fill="none"/><path fill="#B79E8B" d="M804.9 372.9l-56.8 150.9 60-37.1 61.9 33.7z"/></g></svg>