<svg xmlns="http://www.w3.org/2000/svg" viewBox="0 0 191.6 41.2" enable-background="new 0 0 191.6 41.2"><path fill="#946B3E" d="M191.6 12.55v-3.8h-111.1l111.1 3.8m-191.6 2.4v5.5h64.2l-64.2-5.5m124.1 6.9l-15.5 3h58.7l-43.2-3z"/><path fill="#4B3720" d="M0 24.85c0 3.1 1.6 4.7 4.7 4.7h182c3.1 0 4.7-1.6 4.7-4.7h-191.4z"/><path fill="#B68855" d="M0 4.65v.6h191.6v-.6c0-3.1-1.6-4.7-4.7-4.7h-182c-3.3.1-4.9 1.6-4.9 4.7z"/><path fill="#A47747" d="M108.6 24.85l15.5-3 43.1 3h24.4v-12.4l-111.1-3.8h111.1v-3.3h-191.6v9.5l64.2 5.5h-64.2v4.5h108.6z"/><path fill="#463D35" d="M143.4 38.95l13.1-1.1v-2.3h-13.1v3.4z"/><path fill="#62574C" d="M143.4 38.95v2.3h13.1v-3.4l-13.1 1.1m-5.6-9.4v6.1h24.3v-6.1h-24.3z"/><path fill="#463D35" d="M48.3 35.55h-13.1v3.4l13.1-1.1v-2.3z"/><path fill="#62574C" d="M35.4 38.95v2.3h13.1v-3.4l-13.1 1.1m18.5-3.4v-6.1h-24.3v6.1h24.3z"/></svg>