<svg xmlns="http://www.w3.org/2000/svg" viewBox="0 0 339.4 339.4" enable-background="new 0 0 339.4 339.4"><path fill="#B0832D" d="M321.7 0h-304.1c-9.7 0-17.6 7.9-17.6 17.6v304.1c0 9.7 7.9 17.6 17.6 17.6h205c9.7 0 116.8-141.7 116.8-151.5v-170.2c0-9.7-7.9-17.6-17.7-17.6z"/><path fill="#936627" d="M297.7 26.8h-256c-8.2 0-14.9 6.7-14.9 14.9v256c0 8.2 6.6 14.9 14.9 14.9h256c8.2 0 14.9-6.7 14.9-14.9v-256c-.1-8.2-6.7-14.9-14.9-14.9z"/><path fill="#815522" d="M297.7 26.8h-123.7v285.7h123.7c8.2 0 14.9-6.7 14.9-14.9v-256c-.1-8.1-6.7-14.8-14.9-14.8z"/><path fill="#6C491C" d="M33.8 304.7v-256c0-8.2 6.6-14.9 14.9-14.9h256c2.3 0 4.4.6 6.4 1.5-2.4-5-7.5-8.5-13.4-8.5h-256c-8.2 0-14.9 6.7-14.9 14.9v256c0 5.9 3.5 11 8.5 13.4-.9-2-1.5-4.1-1.5-6.4z"/><circle fill="#6C491C" cx="17.7" cy="321.6" r="8.7"/><circle fill="#6C491C" cx="17.7" cy="17.7" r="8.7"/><circle fill="#543713" cx="319.8" cy="321.6" r="8.7"/><circle fill="#815522" cx="319.8" cy="17.7" r="8.7"/><path fill="#6C491C" d="M339.4 321.7v-133.8l-124.6-124.6-14 19.3-20.8 5.1-16 2.9-2 18.4-7.5 163 67.3 67.3h99.2c12 .1 18.4-7.8 18.4-17.6z"/><path fill="#543713" d="M310.8 297.7v-138.4l-96-96-14 19.3-20.8 5.1-16 2.9-2 18.4-7.5 163 40.5 40.5h101c8.2 0 14.8-6.6 14.8-14.8z"/><path fill="#B0832D" d="M218 77.4h-34.8v17.6h23.1v33.7c0 3.2 2.6 5.9 5.9 5.9h5.9c3.2 0 5.9-2.6 5.9-5.9v-45.5c-.2-3.2-2.8-5.8-6-5.8z"/><path fill="#F15E35" d="M171.9 278.1c-8.8 0-16.7-4.4-21.5-11.1-.5-.1.4.2 0 0-21.3-33.1-38-70.9-45.8-111-.6-2.7-1.1-5.3-1.5-8v-.6c0-5.7 1.8-10.9 4.9-15.2 1.4-1.6 2.8-3.2 4.3-4.7 15.2-15.4 36.3-25 59.6-25v175.6z"/><path fill="#8C1D1B" d="M171.9 278.1c8.8 0 16.7-4.4 21.5-11.1.5-.1-.4.2 0 0 21.3-33.1 38-70.9 45.8-111 .6-2.7 1.1-5.3 1.5-8v-.6c0-5.7-1.8-10.9-4.9-15.2-1.3-1.6-2.8-3.2-4.3-4.7-15.2-15.4-36.3-25-59.6-25v175.6z"/><path fill="#B0832D" d="M186.8 83.6v-15.8c0-3.8-3.1-6.9-6.9-6.9h-4.4v22.6h11.3z"/><path fill="#E7BE51" d="M164.9 83.6v-15.8c0-3.8 3.1-6.9 6.9-6.9h4.4v22.6h-11.3z"/><path fill="#D5BC86" d="M186.8 70.2v-2.4c0-3.8-3.1-6.9-6.9-6.9h-4.4v9.2h11.3z"/><path fill="#fff" d="M164.9 70.2v-2.4c0-3.8 3.1-6.9 6.9-6.9h4.4v9.2h-11.3z"/><path fill="#B0832D" d="M217.2 83.6v-15.8c0-3.8-3.1-6.9-6.9-6.9h-4.4v22.6h11.3z"/><path fill="#E7BE51" d="M195.3 83.6v-15.8c0-3.8 3.1-6.9 6.9-6.9h4.4v22.6h-11.3z"/><path fill="#543713" d="M206.3 132.1h17.4v69h-17.4z"/><path fill="#B0832D" d="M192.7 142.6v7.2c0 3.8 3.1 6.9 6.9 6.9h46.1c3.8 0 6.9-3.1 6.9-6.9v-7.2h-59.9z"/><path fill="#815522" d="M206.3 94.9v33.7c0 3.2 2.6 5.9 5.9 5.9h5.9c3.2 0 5.9-2.6 5.9-5.9v-45.4c0-1.3-.5-2.6-1.2-3.5l-16.5 15.2z"/><path fill="#B0832D" d="M222.6 79.7c.4.5.6 1 .9 1.6-.8-2.3-2.9-3.9-5.5-3.9h-62.8c-3.2 0-5.9 2.6-5.9 5.9v30.7c0 3.2 2.6 5.9 5.9 5.9h5.9c3.2 0 5.9-2.6 5.9-5.9l-2.1-20.4 41.7-2.6 16-11.3z"/><path fill="#E7BE51" d="M252.5 143.7v-7.2c0-3.8-3.1-6.9-6.9-6.9h-46.1c-3.8 0-6.9 3.1-6.9 6.9v7.2h59.9z"/><path fill="#B0832D" d="M252.5 195.9v-7.2c0-3.8-3.1-6.9-6.9-6.9h-46.1c-3.8 0-6.9 3.1-6.9 6.9v7.2h59.9z"/><path fill="#6C491C" d="M225.7 194.8l-13-13h-7.3l-1.7 13h-11v7.2c0 3.8 3.1 6.9 6.9 6.9h2.3l-1.1 8.5 4.7-8.5h40.2c3.8 0 6.9-3.1 6.9-6.9v-7.2h-26.9z"/><path fill="#A62022" d="M171.9 159.7l-31.2-31.2-26.7 5.9-10.9 12.6v1c.4 2.7.9 5.4 1.5 8 3.2 16.6 8 32.8 14 48.4l8 12.9 45.3 45.3v-102.9z"/><path fill="#B0832D" d="M186.6 223.7c15.6 0 28.2-12.6 28.2-28.2s-12.6-28.2-28.2-28.2v56.4z"/><path fill="#E7BE51" d="M186.5 167.4c-15.6 0-28.2 12.6-28.2 28.2s12.6 28.2 28.2 28.2v-56.4z"/><path fill="#543713" d="M206.6 195.6c0 11-8.9 20-20 20-11 0-20-8.9-20-20 0-11 9-20 20-20 11.1 0 20 8.9 20 20z"/><path fill="#3EBCA4" d="M186.6 211.4c8.8 0 15.9-7.1 15.9-15.9s-7.1-15.9-15.9-15.9v31.8z"/><path fill="#8DD5E3" d="M186.6 179.7c-8.8 0-15.9 7.1-15.9 15.9s7.1 15.9 15.9 15.9v-31.8z"/><path fill="#815522" d="M158.2 119.8h2.9c3.2 0 5.9-2.6 5.9-5.9v-19h39.3l13.4-8.8h-61.5v33.7z"/><path fill="#D5BC86" d="M217.2 70.2v-2.4c0-3.8-3.1-6.9-6.9-6.9h-4.4v9.2h11.3z"/><path fill="#fff" d="M195.3 70.2v-2.4c0-3.8 3.1-6.9 6.9-6.9h4.4v9.2h-11.3z"/><circle fill="#543717" cx="319.8" cy="321.6" r="8.7"/></svg>