<svg xmlns="http://www.w3.org/2000/svg" viewBox="0 0 108.2 108.2" enable-background="new 0 0 108.2 108.2"><path fill="#fff" d="M52.8 100.9c-29.8 0-47.7-23.7-47.7-47 0-16.2 2.5-30.9 13.9-40.8 9.5-8.1 21.8-13.1 35.3-13.1 29.8 0 53.9 24.2 53.9 53.9 0 12.7-4.4 24.4-11.7 33.6-9.9 12.4-26.6 13.4-43.7 13.4z"/><circle fill="#B4B4B4" cx="50.3" cy="17.5" r="8.1"/><path fill="#B4B4B4" d="M88.4 77.2c-4.5 0-8.1-3.6-8.1-8.1s3.6-8.1 8.1-8.1 8.1 3.6 8.1 8.1-3.6 8.1-8.1 8.1zm-10.8-38.9c-7 0-12.7-5.7-12.7-12.7 0-7 5.7-12.7 12.7-12.7 7 0 12.7 5.7 12.7 12.7 0 7-5.7 12.7-12.7 12.7zm-34.5 28.3c-4.5 0-8.1-3.6-8.1-8.1s3.6-8.1 8.1-8.1 8.1 3.6 8.1 8.1-3.6 8.1-8.1 8.1zm24.7-4.6c-4.5 0-8.1-3.6-8.1-8.1s3.6-8.1 8.1-8.1 8.1 3.6 8.1 8.1-3.6 8.1-8.1 8.1z"/><path fill="#717171" d="M100.5 82.4c-8.3 5.1-18 8-28.4 8-30 0-54.3-24.3-54.3-54.3 0-10.4 2.9-20.2 8-28.4-15.5 9.6-25.8 26.7-25.8 46.3 0 30 24.3 54.3 54.3 54.3 19.5-.1 36.7-10.4 46.2-25.9z"/></svg>