<svg xmlns="http://www.w3.org/2000/svg" viewBox="399.8 332 200.4 668" enable-background="new 399.8 332 200.4 668"><path fill="#4C7A85" d="M510.8 1000h89.4l-18.3-65.2h-71.1z"/><path fill="#fff" d="M580.3 796.9h-69.5v157.8h89.4v-94.2zm-161.1-200.4h161.1c0-107.2-44.7-225.8-51.2-243.5l-.5-1.6v-.5c-4.8-10.8-15.6-17.8-28-17.8s-23.2 7.5-28 17.8v.5s-.5 1.1-.5 1.6c-8.2 17.7-52.9 136.3-52.9 243.5zm0-.5h161.1v200.9h-161.1z"/><path fill="#6A6A6A" d="M489.2 796.9h21v203.1h-21z"/><path fill="#4C7A85" d="M489.2 1000h-89.4l18.3-65.2h71.1z"/><path fill="#B4B4B4" d="M565.2 596v.4h-57.7v-.4h-15.1v.4h-57.7v-.4h-15.1v200.5h160.7v-200.5h-15.1zm0 6.1v45.3h-57.7v-45.3h57.7zm-57.7 93.2v-42.3h57.7v42.1h-57.7v.2zm57.7 5.6v42.3h-57.7v-42.3h57.7zm-130.4-98.8h57.7v45.3h-57.7v-45.3zm0 50.9h57.7v42.1h-57.7v-42.1zm0 47.9h57.7v42.3h-57.7v-42.3zm0 90v-42.1h57.7v42.1h-57.7zm72.7 0v-42.1h57.7v42.1h-57.7z"/><path fill="#fff" d="M419.2 796.9h70v157.8h-89.4v-94.2z"/><path fill="#4C7A85" d="M472 581.5c4.8-10.2 15.6-17.8 28-17.8s22.6 7 28 17.8l30.7-14.5c-10.2-22.1-32.3-37.2-58.2-37.2-25.9 0-48.5 15.1-58.7 37.2l30.2 14.5z"/><path fill="#B4B4B4" d="M528 349.8c-4.8-10.8-15.6-17.8-28-17.8s-23.2 7.5-28 17.8v.5s-.5 1.1-.5 1.6c-4.3 10.2-20.5 51.7-33.4 105.6h123.4c-12.9-53.9-29.1-95.4-32.9-105.6 0-.5 0-1-.6-2.1z"/><path fill="#fff" d="M474.1 390.7h51.7v38.8h-51.7z"/><path fill="#F15C27" d="M474.1 410.1h51.7v19.4h-51.7z"/><path fill="#1072BA" d="M474.1 403.7h51.7v13.5h-51.7z"/></svg>