<svg xmlns="http://www.w3.org/2000/svg" viewBox="0 0 14.2 649.8" enable-background="new 0 0 14.2 649.8"><path fill="#996158" d="M10.5 642.5l-3.3 2.2-3.5 2.3c.1.4.3.9.7 1.2.6.5 1.4 1 2.2 1.1h.5c.9-.1 1.6-.4 2.1-1.1.5-.4.9-1 1-1.5.1-.3.1-.6.1-1l.2-3.2m-.1-13l-3.3 2.2-3.7 2.6v4.4l3.7-2.7 3.3-2.2v-4.3m.1-12.9l-3.3 2.2-3.8 2.7v4.2l3.8-2.6 3.2-2.2.1-4.3m0-13l-3.3 2.2-3.8 2.7v4.3l3.7-2.7 3.3-2.1v-4.4m-6.9-8v4.3l3.8-2.7 3.3-2.1v-4.4l-3.3 2.2-3.8 2.7m0-8.7l3.8-2.7 3.3-2.1v-4.4l-3.3 2.3-3.8 2.6v4.3m0-17.9v4.3l3.8-2.7 3.2-2.2v-4.2l-3.2 2.1-3.8 2.7m.1-12.9v4.3l3.8-2.7 3.2-2.2v-4.3l-3.2 2.2-3.8 2.7m0-12.9v4.3l3.8-2.7 3.2-2.1v-4.3l-3.2 2.1-3.8 2.7m3.7-15.6l-3.8 2.7-.1 4.3 3.8-2.7 3.2-2.1v-4.3l-3.1 2.1m0-13l-3.8 2.7-.1 4.3 4-2.6 3.3-2.2v-4.3l-3.4 2.1m-3.7-10.2l.1 4.3 3.7-2.7 3.3-2.2-.1-4.3-3.2 2.2-3.8 2.7m0-13v4.4l3.8-2.7 3.3-2.2v-4.3l-3.3 2.1-3.8 2.7m0-8.6l3.7-2.7 3.3-2.1v-4.5l-3.2 2.3-4 2.6.2 4.4m0-17.3v4.3l3.7-2.6 3.3-2.2v-4.4l-3.3 2.2-3.7 2.7m0-13v4.4l3.7-2.7 3.3-2.2v-4.3l-3.3 2.2-3.7 2.6m7-13.4v-4.3l-3.3 2.2-3.7 2.7v4.3l3.7-2.7 3.3-2.2m-7-7l3.8-2.6 3.3-2.2-.1-4.4-3.3 2.2-3.7 2.6v4.4m3.8-19.8l-3.8 2.7v4.4l3.8-2.7 3.2-2.2v-4.5l-3.2 2.3m3.2-10.9l.1-4.2-3.3 2.2-3.8 2.7v4.3l3.8-2.7 3.2-2.3m.2-17.2l-3.3 2.2-3.8 2.7v4.4l3.8-2.7 3.2-2.3.1-4.3m-7.2-3.4l3.8-2.7 3.2-2.1.1-4.4-3.3 2.2-3.8 2.6v4.4m7.3-22.1l-3.3 2.2-3.7 2.6-.1 4.3 4-2.6 3.1-2.2v-4.3m-.1-8.7v-4.3l-3.3 2.1-3.7 2.7v4.4l3.7-2.7 3.3-2.2m0-12.8v-4.4l-3.3 2.2-3.7 2.7v4.3l3.7-2.7 3.3-2.1m-3.4-9.7l3.3-2.2-.1-4.2-3.2 2.2-3.8 2.7v4.2l3.8-2.7m3.5-15.1v-4.3l-3.3 2.1-3.9 2.8v4.4l3.7-2.7 3.5-2.3m0-12.9l-.1-4.4-3.1 2.2-4 2.7v4.3l3.7-2.7 3.5-2.1m0-12.9v-4.4l-3.3 2.2-3.8 2.7v4.3l3.8-2.6 3.3-2.2m-3.3-15.1l-3.8 2.7.1 4.3 3.7-2.7 3.3-2.1v-4.4l-3.3 2.2m0-12.9l-3.8 2.7.1 4.2 3.7-2.6 3.3-2.2v-4.3l-3.3 2.2m3.3-15.3l-3.2 2.2-3.8 2.7.1 4.4 3.8-2.7 3.2-2.2v-4.4m0-7.5l-.1-4.4-3.2 2.2-3.8 2.7.1 4.3 3.7-2.7 3.3-2.1m-.1-16.2l-3.2 2.2-3.8 2.7v4.4l3.8-2.7 3.2-2.2v-4.4m.1-13l-3.3 2.2-3.7 2.7-.1 4.3 3.8-2.7 3.3-2.2-.1-3.8.1-.5m0-12.8l-3.3 2.1-3.7 2.7v4.3l3.7-2.7 3.2-2.1.1-4.3m0-13l-3.3 2.1-3.7 2.7-.2 4.4 3.8-2.7 3.4-2.3v-4.2m-7.1-7.7v4.3l3.7-2.7 3.3-2.2v-4.3l-3.3 2.2-3.7 2.7m0-8.8l3.7-2.7 3.3-2.1v-4.3l-3.3 2.1-3.7 2.7v4.3m0-12.8l3.7-2.7 3.3-2.2v-4.4l-3.2 2.2-3.8 2.7v4.4m0-17.3v4.3l3.8-2.7 3.2-2.1v-4.3l-3.2 2.2-3.8 2.6m7.1-16.5l-3.2 2.1-3.8 2.7v4.3l3.7-2.7 3.3-2.2v-4.2m-3.2-10.9l-3.8 2.7v4.4l3.8-2.7 3.2-2.2v-4.3l-3.2 2.1m3.3-10.8l-.1-4.3-3.2 2.1-3.8 2.7v4.3l3.8-2.7 3.3-2.1m-7.2-12.4v4.4l3.8-2.7 3.3-2.2v-4.3l-3.2 2.2-3.9 2.6m3.9-11.2l3.3-2.2v-4.4l-3.3 2.3-3.8 2.7v4.3l3.8-2.7m0-17.3l-3.8 2.7v4.2l3.7-2.7 3.3-2.2v-4.3l-3.2 2.3m0-12.9l-3.8 2.6v4.4l3.7-2.7 3.3-2.1.1-4.5-3.3 2.3m3.3-15.1l-3.2 2.1-3.9 2.7v4.3l3.7-2.6 3.3-2.2v-4.3m.1-8.6v-4.4l-3.3 2.2-3.8 2.6-.1 4.4 4-2.7 3.2-2.1m0-15c0-.7-.2-1.4-.6-1.9l-2.6 1.8-3.9 2.7v4.3l3.8-2.6 3.3-2.3v-2z"/><path fill="#FFE8C6" d="M7.2 636.1l.1 8.8 3.3-2.2-.1-8.6-3.3 2m0-13l-.1 8.6 3.3-2.2v-8.6l-3.2 2.2m3.3-6.5v-8.6l-3.3 2.1.1 8.6 3.2-2.1m-3.3-10.8l3.3-2.2v-8.5l-3.3 2.1v8.6m3.3-15.1v-8.5l-3.3 2.1v8.6l3.3-2.2m0-22.3l-3.2 2.2-.1 9.4 3.3-2.2v-9.4m0-4.2v-8.8l-3.2 2.2v8.6l3.2-2m0-13v-8.5l-3.2 2.1v8.6l3.2-2.2m0-12.8v-8.6l-3.2 2.1v8.6l3.2-2.1m.1-21.7l-3.3 2.2v8.5l3.2-2.1.1-8.6m0-12.9l-3.3 2.2v8.6l3.3-2.2v-8.6m-.1-4.3l.1-8.6-3.3 2.2v8.6l3.2-2.2m.1-12.9v-8.6l-3.3 2.1v8.5l3.3-2m0-13.1v-8.5l-3.3 2.2.1 8.6 3.2-2.3m0-21.5l-3.3 2.2v8.5l3.3-2.2v-8.5m0-12.9l-3.3 2.2v8.6l3.3-2.2v-8.6m.2-11.7l-3.3 2.2-.1 7.5 3.3-2.2.1-7.5m-.2-13l-3.2 2.2-.1 8.6 3.3-2.2v-8.6m0-13l-3.2 2.2v8.5l3.2-2.1v-8.6m0-13l-3.2 2.3v8.6l3.3-2.2-.1-8.7m0-12.4l-3.2 2.1v8.3l3.3-2.2-.1-8.2m0-13.1l-3.1 2.2-.1 8.6 3.3-2.2-.1-8.6m.2-12.9l-3.3 2.2v8.6l3.3-2.2v-8.6m0-12.8l-3.3 2.1v8.6l3.3-2.1v-8.6m.1-12l-3.3 2.2v7.6l3.3-2.2v-7.6m0-12.8l-3.3 2.2.1 8.6 3.2-2.2v-8.6m0-12.9l-3.3 2.1.1 8.6 3.3-2.1v-8.6m-3.3-2.1l3.1-2.2.1-8.6-3.3 2.2.1 8.6m-.1-13l3.3-2.2v-8.5l-3.3 2.1v8.6m0-21.5v8.6l3.3-2.2v-8.6l-3.3 2.2m.1-12.9l-.1 8.6 3.3-2.2v-8.6l-3.2 2.2m0-4.4l3.2-2.2.1-7.7-3.3 2.1v7.8m0-19.5v7.5l3.2-2.2v-7.5l-3.2 2.2m0-12.9v8.6l3.2-2.2.1-8.6-3.3 2.2m0-13v8.6l3.3-2.2-.1-8.6-3.2 2.2m3.3-6.4v-8.6l-3.3 2.2v8.6l3.3-2.2m-3.3-10.9l3.3-2.1v-8.3l-3.3 2.2v8.2m3.3-14.7v-8.6l-3.3 2.1v8.6l3.3-2.1m0-13v-8.6l-3.3 2.2v8.6l3.3-2.2m0-21.5l-3.2 2.1v8.6l3.2-2.2v-8.5m0-4.3v-7.5l-3.3 2.2.1 7.5 3.2-2.2m0-20.5l-3.2 2.2v8.6l3.2-2.1v-8.7m.1-12.9l-3.3 2.1v8.5l3.2-2.1.1-8.5m0-12.9l-3.3 2.2v8.7l3.2-2.1.1-8.8m0-12.9l-3.3 2.2v8.6l3.2-2.2.1-8.6m0-13.1l-3.3 2.2v8.7l3.3-2.3v-8.6m0-12.8l-3.3 2.1v8.6l3.3-2.2v-8.5m0-12.9l-3.3 2.2v8.5l3.3-2.2v-8.5m0-12.9l-3.3 2.2v8.5l3.2-2.1.1-8.6m0-13.1l-3.3 2.4v8.6l3.3-2.2v-8.8m-1.1-4.3c-.5-.7-1.3-1-2.2-1.1l.1 3.4 2.6-1.8-.5-.5z"/><path fill="#D7A590" d="M7.2 644.7l-.1-8.8-3.7 2.7-.1 7.3c0 .4.1.9.3 1.3l3.6-2.5m0-12.9l.1-8.6-3.8 2.6v8.6l3.7-2.6m0-21.6l-3.7 2.7v8.6l3.8-2.7-.1-8.6m0-4.4v-8.6l-3.8 2.7v8.6l3.8-2.7m0-21.5l-3.8 2.7v8.6l3.8-2.7v-8.6m.1-13.6l-3.8 2.7v9.4l3.8-2.6v-9.5m0-13l-3.8 2.7-.1 8.6 3.8-2.7v-8.6m.1-12.9l-3.8 2.7v8.6l3.8-2.7v-8.6m0-13l-3.8 2.7.1 8.6 3.8-2.7v-8.6m-.1-12.8l-4 2.6.1 8.6 3.8-2.7v-8.5m.1-13l-3.7 2.7-.1 8.5 3.8-2.7v-8.5m0-12.9l-3.8 2.7v8.6l3.8-2.7v-8.6m0-12.9l-3.7 2.7-.1 8.5 3.8-2.7v-8.5m0-13l-3.7 2.6-.1 8.6 4-2.6-.2-8.6m0-12.9l-3.7 2.7v8.5l3.7-2.7v-8.5m0-13l-3.7 2.7v8.5l3.7-2.6v-8.6m.1-11.7l-3.8 2.6v7.6l3.7-2.7.1-7.5m0-13l-3.8 2.7v8.5l3.7-2.6.1-8.6m0-12.9l-3.8 2.7v8.5l3.8-2.7v-8.5m0-12.9l-3.8 2.7v8.6l3.8-2.7v-8.6m0-12.7l-3.8 2.7v8.3l3.8-2.7v-8.3m.2-12.9l-4 2.6v8.6l3.8-2.6.2-8.6m-3.9-1.6l3.7-2.6v-8.6l-3.7 2.6v8.6m0-21.6v8.6l3.7-2.7v-8.6l-3.7 2.7m0-11.9v7.6l3.7-2.7v-7.6l-3.7 2.7m0-4.1l3.8-2.7-.1-8.6-3.7 2.7v8.6m0-21.7v8.6l3.8-2.7-.1-8.6-3.7 2.7m0-12.9v8.6l4-2.7-.1-8.6-3.9 2.7m.1-12.9l-.1 8.6 3.8-2.7v-8.6l-3.7 2.7m-.1-4.3l3.8-2.7v-8.6l-3.7 2.6-.1 8.7m.1-21.6l-.1 8.6 3.8-2.7.1-8.6-3.8 2.7m3.9-7v-7.8l-3.7 2.7-.1 7.8 3.8-2.7m0-12v-7.5l-3.8 2.7v7.5l3.8-2.7m0-11.8v-8.6l-3.8 2.7v8.5l3.8-2.6m0-13v-8.6l-3.7 2.7v8.6l3.7-2.7m0-21.5l-3.9 2.7.1 8.6 3.7-2.7v-8.6m.1-4.4v-8.3l-3.7 2.7v8.3l3.7-2.7m0-21.1l-3.7 2.7v8.6l3.7-2.7v-8.6m0-13l-3.7 2.7v8.6l3.7-2.7v-8.6m.1-13l-3.8 2.7v8.6l3.8-2.7v-8.6m-.1-11.7l-3.7 2.7v7.5l3.8-2.7-.1-7.5m.1-12.9l-3.8 2.7v8.6l3.8-2.7v-8.6m0-13l-3.8 2.7v8.5l3.8-2.7v-8.5m0-12.9l-3.9 2.7v8.6l3.9-2.6v-8.7m0-12.9l-3.8 2.7v8.5l3.8-2.6v-8.6m0-13l-3.8 2.6-.1 8.8 3.8-2.7v-8.7m.1-13l-3.8 2.7v8.6l3.7-2.7v-8.6m.1-12.8l-3.8 2.6v8.6l3.7-2.7v-8.5m.2-12.9l-4 2.7.1 8.5 3.8-2.7v-8.5m.1-12.9l-3.9 2.6v8.6l3.8-2.6v-8.6m-.4-7.8h-.2c-.8 0-1.6.4-2.3 1.1-.6.7-1 1.5-1 2.5v2.6l3.8-2.7v-3.5h-.3z"/><path fill="#463D35" d="M3.2 646.2h7.6v-2l-7.6.7v1.3z"/><path fill="#62574C" d="M3.2 643v2l7.6-.7v-1.3h-7.6m-3.2 3.2v3.6h14.2v-3.6h-14.2z"/></svg>