<svg xmlns="http://www.w3.org/2000/svg" viewBox="0 0 14.2 172.3" enable-background="new 0 0 14.2 172.3"><path fill="#996158" d="M9.6 169.7v-2.4l-4.8 3.4c.1.3.3.6.5.8.4.4 1 .7 1.6.7h.2c.7 0 1.3-.3 1.8-.7.3-.3.6-.7.7-1.1v-.7m0-8.5v-3.1l-5 3.4v3.1l5-3.4m0-9.2v-3l-5 3.4v3.1l5-3.5m0-12.3l-5 3.5v3.1l5-3.5v-3.1m-5-14.9v3.1l5-3.4v-3.1l-5 3.4m5 5.7l-5 3.5v3l5-3.4v-3.1m-5-12.3l5-3.5v-3l-5 3.4v3.1m0-9.1l5-3.5v-3.1l-5 3.5v3.1m5-12.7v-3.1l-5 3.5v3.1l5-3.5m0-12.3l-5 3.5v3.1l5-3.5v-3.1m0-9.2l-5 3.5v3.1l5-3.5v-3.1m0-6.1v-3.1l-5 3.5v3l5-3.4m0-9.2v-3.1l-5 3.5v3.1l5-3.5m0-12.3l-5 3.5v3.1l5-3.5v-3.1m0-6.1v-3.1l-5 3.5v3l5-3.4m-5-5.7l5-3.4v-3.1l-5 3.5v3m0-9.3l5-3.4v-3l-5 3.4v3m5-12.5v-3.1l-5 3.5v3.1l5-3.5m0-10.6c0-.5-.2-1-.4-1.4l-4.6 3.2v3.1l5-3.5v-1.4z"/><path fill="#D7A590" d="M9.6 161.2l-5 3.5v5.1c0 .3.1.7.2 1l4.8-3.4v-6.2m-5 .4l5-3.4v-6.2l-5 3.5v6.1m0-9.2l5-3.4v-6.2l-5 3.5v6.1m0-15.3v6.2l5-3.5v-6.1l-5 3.4m0-9.2v6.2l5-3.5v-6.1l-5 3.4m5-13.2l-5 3.5v6.6l5-3.5v-6.6m0-9.1l-5 3.5v6.1l5-3.4v-6.2m0-3.1v-6.1l-5 3.5v6.1l5-3.5m0-15.3l-5 3.5v6.1l5-3.5v-6.1m0-9.2l-5 3.5v6.1l5-3.5v-6.1m-5 .4l5-3.5v-6.1l-5 3.4v6.2m0-9.2l5-3.5v-6.2l-5 3.5v6.2m0-15.3v6.1l5-3.5v-6.1l-5 3.5m0-9.2v6.2l5-3.5v-6.1l-5 3.4m5-12.6l-5 3.4v6.2l5-3.5v-6.1m0-9.3l-5 3.4v6.2l5-3.5v-6.1m0-3v-6.2l-5 3.4v6.2l5-3.4m0-15.4l-5 3.5v6.2l5-3.5v-6.2m-.8-3.1c-.5-.5-1.1-.8-1.8-.8s-1.3.3-1.8.8-.8 1.1-.8 1.8v1.8l4.6-3.2c.1-.1-.1-.3-.2-.4z"/><path fill="#463D35" d="M10.9 3.6h-7.6v2l7.6-.7v-1.3z"/><path fill="#62574C" d="M10.9 6.8v-2l-7.6.7v1.3h7.6m3.3-3.2v-3.6h-14.2v3.6h14.2z"/></svg>