<svg xmlns="http://www.w3.org/2000/svg" viewBox="0 0 98.2 45.5" enable-background="new 0 0 98.2 45.5"><path fill="#E6E6E5" d="M98.2 22.8c0 11.2-9.1 20.3-20.3 20.3-11.2 0-20.3-9.1-20.3-20.3 0-11.2 9.1-20.3 20.3-20.3 11.2 0 20.3 9 20.3 20.3z"/><path fill="#B4B4B4" d="M89.8 31.1c-11.2 0-20.3-9.1-20.3-20.3 0-2.5.5-4.8 1.3-7-7.8 2.9-13.3 10.3-13.3 19 0 11.2 9.1 20.3 20.3 20.3 8.7 0 16.1-5.6 19-13.3-2.2.8-4.5 1.3-7 1.3z"/><path fill="#424242" d="M0 20.3h77.8v4.9h-77.8zm0-20.3h77.8v4.9h-77.8zm0 40.6h77.8v4.9h-77.8z"/></svg>