<svg xmlns="http://www.w3.org/2000/svg" viewBox="0 0 183.9 122.8" enable-background="new 0 0 183.9 122.8"><path fill="#FBB03C" d="M159 53.4c.5 5.2.4 10.5-.4 15.9 2.4 4.6 3.1 9.1 1.8 13.3-5.1 16.4-39.8 20.3-77.7 8.7-37.8-11.7-64.3-34.5-59.3-51 1.3-4.1 4.4-7.4 9-9.9 2.4-4.8 5.2-9.3 8.6-13.3-21.7.2-37.1 5.7-40.4 16.2-5.8 19 30.3 46.9 80.7 62.4 50.4 15.5 96 12.7 101.9-6.3 3.3-10.4-6.4-23.7-24.2-36z"/><path d="M110 2.7c-32.4-10-66.8 8.2-76.7 40.6-1 3.1-1.6 6.3-2 9.4 6.8 12.7 26.9 26.3 52.8 34.3 25.8 8 50.1 8 62.9 1.4 1.4-2.8 2.6-5.8 3.6-8.9 10-32.4-8.2-66.8-40.6-76.8zm-76.8 76.6c5.7 18.8 20.4 34.6 40.6 40.8 20.2 6.2 41.2 1.4 56.5-10.9-15.2-1.3-32.4-4.6-50.1-10-17.6-5.5-33.7-12.4-47-19.9z" fill="#80819F"/><path d="M123.5 71.1c-2.4 8-5.6 15.3-9.3 21.7 13.6 1 25.2-.5 32.8-4.5.7-1.4 1.3-2.7 1.9-4.1.6-1.6 1.2-3.1 1.7-4.7 7.5-24.3-.9-49.7-19.2-65.1-6.1-5.1-13.3-9.1-21.4-11.6 17.4 5.3 23.5 35.9 13.5 68.3zm-43 50.6c1.8.3 3.5.6 5.2.8l1.1.1c1.5.1 3 .2 4.5.2h1.2c1.6 0 3.3-.1 4.9-.3l1.7-.2 3.9-.6c.8-.1 1.5-.3 2.3-.5 1.1-.2 2.2-.5 3.3-.8.7-.2 1.5-.4 2.2-.7 1.2-.4 2.4-.8 3.5-1.3l2.7-1.2 1.9-.9 4.5-2.4 1.2-.7c.9-.6 1.8-1.1 2.6-1.8.4-.2.7-.5 1.1-.8.7-.5 1.5-1.1 2.2-1.7-7.9-.7-16.3-1.9-25.1-3.6-9.9 11.7-21.5 17.6-31.5 14.5 1.8.6 3.6 1 5.4 1.4.4.4.8.4 1.2.5z" fill="#4A4B76"/><path fill="#fff" d="M89.5 32c-1.9 6.1-8.3 9.5-14.4 7.6-6.1-1.9-9.5-8.3-7.6-14.4 1.9-6.1 8.3-9.5 14.4-7.6 6.1 1.9 9.5 8.3 7.6 14.4z"/></svg>