<svg xmlns="http://www.w3.org/2000/svg" viewBox="0 0 140.9 181.4" enable-background="new 0 0 140.9 181.4"><path fill="#533F30" d="M10.8 87.8h-4.7v-3l-3.1 2.5-3 2.4 3 2.4 3.1 2.4v-2.9h4.7zm21.3-20c-6 0-11.4 2.3-15.5 6.1v-.3h-7.4v34.2h7.4v-.3c4.1 3.8 9.5 6.1 15.5 6.1 8.5 0 15.9-4.7 19.9-11.5v-22.8c-3.9-6.9-11.3-11.5-19.9-11.5z"/><path fill="#736458" d="M6.1 87.8v-3l-3.1 2.5-3 2.4h10.8v-1.9z"/><path fill="#fff" d="M132.9 67.8h-27.3l-.7 45.8h25.5z"/><path fill="#B4B4B4" d="M130.4 90.7h-24.8l-.7 22.9h25.5z"/><path fill="#533F30" d="M71.6 67.8c-12.6 0-22.9 9.8-22.9 22.9 0 13.2 10.3 22.9 22.9 22.9h33.9v-45.8h-33.9z"/><path fill="#B4B4B4" d="M130.4 67.8l10.5-3.4v26.3l-10.5 22.9z"/><path fill="#736458" d="M46.1 72.5c-3.9-3-8.7-4.7-13.9-4.7-12.7 0-23 10.2-23 22.9 0 3 .6 5.9 1.6 8.5 2.4.7 4.8 1 7.4 1 15.4 0 27.8-12.4 27.9-27.7z"/><path fill="#9E938B" d="M9.2 73.6h7.4v26.6h-7.4z"/><path fill="#736458" d="M67.9 67.8v.2c-6.6.8-12.3 4.5-15.9 9.7v22.1c1.6.3 3.3.5 5 .5 8.3 0 15.8-3.7 20.9-9.5h27.6v-23h-37.6zm-.7 27.3c-2.4 0-4.4-2-4.4-4.4 0-2.4 2-4.4 4.4-4.4 2.4 0 4.4 2 4.4 4.4 0 2.4-2 4.4-4.4 4.4z"/><path fill="#fff" d="M26.9 82.9h9.7v15.5h-9.7z"/><path fill="#F15C27" d="M31.7 82.9h4.8v15.5h-4.8z"/><path fill="#1072BA" d="M30.1 82.9h3.3v15.5h-3.3z"/><path fill="#424242" d="M130.4 90.7v22.9l10.5 3.3v-26.2z"/><path d="M93.8 1.2h30.5v61.6h-30.5zm0 117.4h30.5v61.6h-30.5z" fill="#0F3B59"/><path d="M92.8 0v64h32.9v-64h-32.9zm28.8 2.1l-12.3 5.6-12.3-5.6h24.6zm-24.6 44.3l12.3-5.6 12.3 5.6h-24.6zm24.6 2.1l-12.3 5.6-12.3-5.6h24.6zm-24.6-15.4h24.6l-12.3 5.6-12.3-5.6zm0-2.2l12.3-5.6 12.3 5.6h-24.6zm0-13.3h24.6l-12.3 5.6-12.3-5.6zm0-2.2l12.3-5.6 12.3 5.6h-24.6zm-2.1-12.1l12 5.5-12 5.5v-11zm0 15.5l12 5.5-12 5.5v-11zm0 15.5l12 5.5-12 5.5v-11zm0 15.5l12 5.5-12 5.5v-11zm2.1 12.1l12.3-5.6 12.3 5.6h-24.6zm26.7-1.2l-12-5.5 12-5.5v11zm0-15.5l-12-5.5 12-5.5v11zm0-15.5l-12-5.5 12-5.5v11zm0-15.5l-12-5.5 12-5.5v11zm-30.9 118.7v48.5h32.9v-64h-32.9v15.5zm4.2 46.4l12.3-5.6 12.3 5.6h-24.6zm24.6-44.3l-12.3 5.6-12.3-5.6h24.6zm-24.6-2.2l12.3-5.6 12.3 5.6h-24.6zm24.6 15.5h-24.6l12.3-5.6 12.3 5.6zm0 2.2l-12.3 5.6-12.3-5.6h24.6zm0 13.3h-24.6l12.3-5.6 12.3 5.6zm0 2.1l-12.3 5.6-12.3-5.6h24.6zm2.1 12.2l-12-5.5 12-5.5v11zm0-15.5l-12-5.5 12-5.5v11zm0-15.5l-12-5.5 12-5.5v11zm0-15.5l-12-5.5 12-5.5v11zm-2.1-12.1l-12.3 5.6-12.3-5.6h24.6zm-26.7 1.2l12 5.5-12 5.5v-11zm0 15.5l12 5.5-12 5.5v-11zm0 15.5l12 5.5-12 5.5v-11zm0 15.5l12 5.5-12 5.5v-11z" fill="#056FB5"/></svg>