<svg xmlns="http://www.w3.org/2000/svg" viewBox="0 0 186.4 186.6" enable-background="new 0 0 186.4 186.6"><path fill="#807567" d="M93.3 0c-25.9 0-47.7 9.2-65.9 27.4-3.1 2.9-5.8 6.1-8.5 9.2-12.6 16.2-18.9 35.1-18.9 56.7s6.3 40.5 18.9 56.7c2.5 3.1 5.4 6.3 8.5 9.4 18.2 18.2 40 27.2 65.9 27.2s47.7-9.2 65.9-27.2c18.2-18.2 27.2-40.2 27.2-66.1 0-25.6-9.2-47.7-27.2-65.9-18.2-18.4-40-27.4-65.9-27.4m-.2 4.3c24.7 0 45.6 8.8 63 26.1s26.1 38.4 26.1 62.7c0 24.5-8.8 45.6-26.1 63s-38.2 26.1-62.7 26.1-45.6-8.8-63-26.1c-2.9-2.9-5.6-5.8-7.9-9-12.1-15.5-18.2-33.5-18.2-54s6.1-38.4 18.2-53.7c2.5-3.1 4.9-6.1 7.9-9 17.3-17.6 38.2-26.1 62.7-26.1z"/><path fill="#BAB1A6" d="M93.3 4.3c-24.7 0-45.6 8.8-63 26.1-2.9 2.9-5.6 5.8-7.9 9-12.1 15.5-18.2 33.3-18.2 53.7s6.1 38.4 18.2 54c2.5 3.1 4.9 6.1 7.9 9 17.3 17.3 38.2 26.1 63 26.1s45.4-8.8 62.7-26.1 26.1-38.4 26.1-63-8.8-45.4-26.1-62.7-38.2-26.1-62.7-26.1m-.2 10.5c21.8 0 40.2 7.6 55.5 22.9 14.6 14.8 22.3 32.4 22.9 53.1v4.4c-.7 20.7-8.3 38.2-22.9 53.1-15.3 15.3-33.7 22.9-55.3 22.9s-40-7.6-55.3-22.9c-2.5-2.5-4.9-5.2-7-7.9-10.1-13-15.5-28.1-16-45.2v-2.2c0-.7 0-1.6.2-2.2.4-17.1 5.6-32.2 15.7-45.2 2-2.7 4.5-5.4 7-7.9 15.4-15.2 33.8-22.9 55.2-22.9z"/><path fill="#D5CFC9" d="M93.3 14.8c-21.8 0-40 7.6-55.3 22.9-2.5 2.5-4.9 5.2-7 7.9-10.1 13-15.5 28.1-15.7 45.2 0 .7-.2 1.6-.2 2.2v2.2c.4 17.1 5.8 32.2 16 45.2 2 2.7 4.5 5.4 7 7.9 15.3 15.3 33.7 22.9 55.3 22.9s40-7.6 55.3-22.9c14.6-14.8 22.3-32.4 22.9-53.1v-4.4c-.7-20.7-8.3-38.2-22.9-53.1-15.4-15.2-33.8-22.9-55.4-22.9m-7 4.8c.2-.2.4-.7.7-.9 1.8-1.8 3.8-2.7 6.3-2.7h.2c2.5 0 4.5.9 6.3 2.7.2.2.4.7.7.9 18.7 1.6 34.6 9 48.3 22.7 14.2 14.2 21.8 31.3 22.7 50.8-1.1 19.6-8.5 36.7-22.7 50.8-15.3 15.3-33.7 22.9-55.3 22.9-21.6 0-40-7.6-55.3-22.9-2.5-2.5-4.9-5.2-7-7.9-9.9-12.6-15.1-27-15.7-43.4.9-16 6.1-30.1 15.7-42.3 2-2.7 4.5-5.4 7-7.9 13.3-13.6 29.5-21.3 48.1-22.8z"/><path fill="#CBC3BA" d="M84.3 25c0-2 .7-3.8 1.8-5.4-18.7 1.6-34.6 9-48.3 22.7-2.5 2.5-4.9 5.2-7 7.9-9.7 12.4-15.1 26.5-15.7 42.3.7 16.4 6.1 30.8 15.7 43.4 2 2.7 4.5 5.4 7 7.9 15.3 15.3 33.7 22.9 55.3 22.9s40-7.6 55.3-22.9c14.2-14.2 21.8-31 22.7-50.8-1.1-19.6-8.5-36.7-22.7-50.8-13.5-13.5-29.7-21.1-48.3-22.7 1.1 1.3 1.8 3.1 1.8 5.4 0 2.5-.9 4.5-2.7 6.3-1.8 1.6-3.8 2.5-6.3 2.5h-.2c-2.5 0-4.5-.9-6.3-2.5-1.2-1.7-2.1-3.8-2.1-6.2m35.8 68.1l-26.8 26.8-26.8-26.8 26.8-26.8 26.8 26.8z"/><path fill="#CB2026" d="M86.8 18.9c-.2.2-.4.7-.7.9-1.3 1.6-1.8 3.4-1.8 5.4 0 2.5.9 4.5 2.5 6.3 1.8 1.6 3.8 2.5 6.3 2.5h.2c2.5 0 4.5-.9 6.3-2.5 1.8-1.8 2.7-4 2.7-6.3 0-2-.7-3.8-1.8-5.4-.2-.2-.4-.7-.7-.9-1.8-1.8-3.8-2.7-6.3-2.7h-.2c-2.5-.2-4.7.9-6.5 2.7z"/><path fill="#BAB1A6" d="M130.6 107c-1.6.4-3.1 1.8-4.5 4-1.3 2.2-2 4.7-2 7 0 2.2.7 3.8 2 4.5s3.1.7 5.2-.4c2-1.1 3.6-2.7 4.7-4.9 1.3-2.2 2-4.5 1.8-6.5-.2-1.8-1.1-2.9-2.7-3.1-1.5-.8-3.1-1-4.5-.6m29.9-32.6c.9.7 2 .7 3.1 0s1.8-1.6 2.2-2.7c.4-1.3.2-2.5-.4-3.8-.7-1.1-1.6-2-2.9-2.5-1.3-.2-2.5-.2-3.6.4-1.1.7-1.8 1.6-2 2.7-.2 1.3.2 2.5.9 3.4.7 1.4 1.8 2.3 2.7 2.5m-49.2 94c1.1-.4 1.8-1.3 2-2.7.4-1.3.2-2.5-.4-3.6s-1.6-1.8-2.9-2.2c-1.3-.2-2.5-.2-3.8.4-1.1.7-1.8 1.6-1.8 2.7-.2 1.3 0 2.2.9 3.4s1.8 1.8 2.7 2.2c1.1.7 2.2.7 3.3-.2m-65.7-38c-4.3 0-7.9 1.6-10.8 4.5-2.9 2.9-4.5 6.3-4.5 10.3 0 4.3 1.6 7.9 4.5 10.8 2.9 3.1 6.5 4.7 10.8 4.7 4 0 7.2-1.6 9.7-4.7 2.5-2.9 3.4-6.5 2.7-10.8-.9-4-2-7.4-3.6-10.8-2-2.6-4.9-4-8.8-4m10.2-36.9c.9.7 2 .7 3.1-.2 1.1-.7 1.8-1.6 2-2.7.4-1.3.4-2.5-.2-3.6-.7-1.1-1.8-2-3.1-2.5-1.3-.2-2.5 0-3.6.4-1.1.7-1.8 1.6-2 2.7-.2 1.3.2 2.5 1.1 3.4.9 1.2 1.8 1.9 2.7 2.5m43.8-43.1c0-2.2-.9-4.3-2.5-6.1-1.6-1.6-3.4-2.5-5.8-2.5-2.2 0-4.3.9-6.1 2.5-1.8 1.6-2.5 3.6-2.5 6.1 0 2.2.9 4 2.5 5.6 1.6 1.1 3.6 1.6 6.1 1.1 2.5-.4 4.3-1.1 5.8-2 1.6-.9 2.5-2.5 2.5-4.7m-48.3-29.3c-2-.7-4.3-.2-6.3.9s-3.1 2.7-3.4 4.9c-.2 2 .2 3.8 1.8 5.4 1.6 1.8 3.1 3.1 4.7 4 1.6.9 3.4.9 5.4-.2 2-1.1 3.4-2.7 4-4.9.4-2.2.2-4.3-.9-6.3-1.3-2-3.1-3.1-5.3-3.8z"/><path fill="#807567" d="M93.1 39.3l-53.5 53.7 53.5 53.5 53.7-53.5-53.7-53.7m.2 26.8c7.4 0 13.7 2.7 19.1 8.1 4.9 5.2 7.4 11.2 7.4 18.7.2 7.4-2.2 13.9-7.4 19.1-3.1 3.1-6.5 5.2-10.6 6.3-1.1.4-2.5.7-3.8.9-1.6.2-3.1.4-4.7.4h-.2c-7.4 0-13.7-2.5-18.9-7.6-5.2-5.2-7.9-11.7-7.9-19.1 0-7.2 2.7-13.5 7.9-18.7 1.6-1.6 3.1-2.9 4.9-4 4-2.7 8.8-4 13.7-4 .1-.1.5-.1.5-.1z"/><path fill="#534C43" d="M112.4 74.2c-5.4-5.4-11.7-8.1-19.1-8.1h-.2c-5.2 0-9.7 1.3-13.7 4-1.8 1.1-3.6 2.5-4.9 4-5.2 5.2-7.9 11.5-7.9 18.7 0 7.4 2.7 13.9 7.9 19.1 5.2 5.2 11.5 7.6 18.9 7.6h.2c1.6 0 3.1 0 4.7-.4 1.3-.2 2.5-.4 3.8-.9 4-1.1 7.4-3.4 10.6-6.3 5.2-5.2 7.6-11.7 7.4-19.1-.3-7.4-2.7-13.4-7.7-18.6m-31.9 6.3l.7-.7c.9-.9 1.8-1.6 2.7-2 2.7-1.8 5.6-2.7 9-2.7h.2c4.7 0 9 1.8 12.6 5.4 3.4 3.4 5.2 7.4 5.2 12.4s-1.8 9.2-5.2 12.8c-1.6 1.6-3.4 2.7-5.2 3.6-.9.2-1.8.4-2.7.9-1.6.4-3.1.7-4.7.4h-.2c-4.7 0-9-1.6-12.6-4.9-3.4-3.6-5.2-7.9-5.2-12.8.2-4.8 2-9 5.4-12.4z"/><path fill="#946B3E" d="M98 89.9v20.2c.9-.2 1.8-.4 2.7-.9l-2.7-19.3m-13.9-12.1l-2.7 2 2.7 14.4v-16.4z"/><path fill="#C3945F" d="M81.2 79.8l-.7.7c-3.4 3.4-5.2 7.6-5.2 12.4 0 4.9 1.8 9.2 5.2 12.8 3.6 3.4 7.9 4.9 12.6 4.9h.2c1.8 0 3.4-.2 4.7-.4v-20.2l2.7 19.3c1.8-.9 3.6-2 5.2-3.6 3.4-3.6 5.2-7.9 5.2-12.8s-1.8-9-5.2-12.4c-3.6-3.6-7.9-5.4-12.6-5.4h-.2c-3.4 0-6.3.9-9 2.7v16.4l-2.9-14.4z"/></svg>