<svg xmlns="http://www.w3.org/2000/svg" viewBox="0 0 319.9 319.9" enable-background="new 0 0 319.9 319.9"><path fill="#F0CA8F" d="M310.6 27.7c0-10.1-8.2-18.3-18.3-18.3v-.4c-25.2-3.3-76.3-9-132.4-9-56 0-107.1 5.7-132.2 9v.3c-10.1 0-18.3 8.2-18.3 18.3h-.3c-3.3 26-9.1 79.2-9.1 132.3 0 52.8 5.7 105.7 9 131.8h.3c0 10.1 8.2 18.3 18.3 18.3v.7c25.7 3.3 78.4 9.1 132.3 9.1 53.9 0 95.9-18.6 121.7-21.9l9.5-21.7c10.1 0 3.4 3.8 3.4-6.3l-6.9-37.2c3.3-25.3 32.3-17.1 32.3-72.8 0-53.9-5.8-106.5-9.1-132.3h-.2z"/><path fill="#D3A167" d="M148.3 148.6l-72.3 101.3 77.6 69.5 8.6.1c52.9 0 104.6-5.7 129.9-8.9v-.7c9.9 0 18-8.1 18-18h.4c3.3-24.8 8.8-74.7 8.8-129.4 0-5.6-.1-11.1-.2-16.7l-72.4-72.4-98.4 75.2z"/></svg>