<svg xmlns="http://www.w3.org/2000/svg" viewBox="0 0 617.7 299.4" enable-background="new 0 0 617.7 299.4"><path fill="#D1D2D1" d="M424.5 60.9c-15.1-35.3-61.2-60.9-115.7-60.9s-100.6 25.6-115.7 60.9c-113.2 9-193.1 30.9-193.1 56.5 0 33.7 138.3 61 308.8 61s308.8-27.3 308.8-61c.1-25.6-79.8-47.5-193.1-56.5zm-115.2 39.9c-52.9 0-142.8 8.7-100.7-47.7 20.1-23.2 47.8-44.7 100.7-44.7 52.9 0 79.2 21.1 104.2 51.8 29.9 38.2-51.3 40.6-104.2 40.6z"/><path fill="#868686" d="M308.8 177.3c-61.1 0-118.5-2.9-168-8 9.9 30.6 75.2 54.6 156.1 56.8 3.9.1 7.9.2 11.9.2 86.4 0 157.6-24.9 168-57-49.5 5.1-106.8 8-168 8z"/><path fill="#878787" d="M0 115.4c0 48.4 138.3 62.1 308.8 62.1s308.8-13.8 308.8-62.1c-155 50.4-503.3 45.4-617.6 0z"/><path fill="#868686" d="M281.3 225.3l21.9 74.1 18.1-74.1zM388.2 214.4l34.4 42-8.5-52.9zM213.1 214.4l-34.4 42 8.5-52.9z"/></svg>