<svg xmlns="http://www.w3.org/2000/svg" viewBox="0 0 222.9 217.8" enable-background="new 0 0 222.9 217.8"><path fill="#C96C36" d="M118.4 108.9c0 3.8-3.1 6.8-7 6.8-3.8 0-7-3-7-6.8s3.1-6.8 7-6.8c3.8 0 7 3 7 6.8zm94-94.2l-197.5 192.9-4.5-4.4 197.5-192.9z"/><path d="M161.9 83.1l-2.7 2.7-24-23.5 2.7-2.7zm10-9.7l-2.8 2.7-24-23.5 2.7-2.7zm9.9-9.7l-2.8 2.7-24-23.5 2.8-2.7zm9.9-9.7l-2.7 2.7-24.1-23.5 2.8-2.7zm10-9.8l-2.8 2.7-24-23.4 2.7-2.7zm9.9-9.7l-2.8 2.7-24-23.4 2.8-2.7zm-87.8 38.2l24.7 24.1 74.5-72.7-24.7-24.1-74.5 72.7zm93.3-48.4l-68.4 66.9-19.3-18.8 68.4-66.9 19.3 18.8z" fill="#D7A772"/><path d="M38.1 204l-2.7 2.7-24.1-23.5 2.8-2.7zm10-9.7l-2.8 2.7-24-23.5 2.7-2.7zm9.9-9.7l-2.8 2.7-24-23.5 2.8-2.7zm9.9-9.7l-2.7 2.7-24.1-23.5 2.8-2.7zm10-9.7l-2.8 2.7-24-23.5 2.7-2.7zm9.9-9.7l-2.8 2.7-24-23.5 2.8-2.7zm-87.8 38.2l24.7 24.1 74.4-72.8-24.7-24.1-74.4 72.8zm93.3-48.4l-68.4 66.9-19.3-18.9 68.4-66.8 19.3 18.8z" fill="#CFA172"/><path fill="#C96C36" d="M10.6 14.7l197.5 192.9 4.4-4.4-197.5-192.9z"/><path d="M61 83.1l2.8 2.7 24-23.5-2.8-2.7zm-9.9-9.7l2.7 2.7 24.1-23.5-2.8-2.7zm-10-9.7l2.8 2.7 24-23.5-2.7-2.7zm-9.9-9.7l2.8 2.7 24-23.5-2.8-2.7zm-9.9-9.8l2.7 2.7 24.1-23.4-2.8-2.7zm-10-9.7l2.8 2.7 24-23.4-2.7-2.7zm13.4-34.5l-24.7 24.1 74.5 72.7 24.7-24.1-74.5-72.7zm.4 5.5l68.4 66.9-19.2 18.8-68.4-66.9 19.2-18.8zM184.8 204l2.8 2.7 24-23.5-2.8-2.7zm-9.9-9.7l2.7 2.7 24.1-23.5-2.8-2.7zm-9.9-9.7l2.7 2.7 24-23.5-2.7-2.7zm-10-9.7l2.8 2.7 24-23.5-2.8-2.7zm-9.9-9.7l2.7 2.7 24.1-23.5-2.8-2.7zm-9.9-9.7l2.7 2.7 24-23.5-2.7-2.7zm13.3-34.6l-24.7 24.1 74.5 72.7 24.7-24.1-74.5-72.7zm.4 5.6l68.4 66.9-19.3 18.8-68.4-66.9 19.3-18.8z" fill="#D7A772"/><path fill="#490F43" d="M114.4 108.9c0 1.6-1.3 2.9-3 2.9-1.6 0-3-1.3-3-2.9 0-1.6 1.3-2.9 3-2.9 1.6 0 3 1.3 3 2.9z"/></svg>