<svg xmlns="http://www.w3.org/2000/svg" viewBox="0 0 247.6 247.6" enable-background="new 0 0 247.6 247.6"><path fill="#584137" d="M86.25 229.75l1 6.3c-19.5-5.1-36.5-13.3-51-24.6 12.5 12.4 27.6 21.9 45.3 28.3 15.2 5.7 30.3 8.2 45.2 7.7l-40.5-17.7m-64.4-175.8l37.9 13.7c4.8-5.7 10.4-10.6 17-14.8l-41.9-15.2c-4.6 5-9.1 10.3-13 16.3m34.5 18c.1-.3.3-.6.6-.9l-38.6-11.8c0 .3-.1.6-.3.7-3.9 6.6-7.3 13.7-10.1 21.3-6.3 17.3-8.8 34.3-7.6 51.3l42 15.2c-5.5-17.6-5.1-35.3 1.5-53.3 3.2-8.2 7.3-15.8 12.5-22.5m83.6 174.7c7.7-1.2 15.3-3.1 22.9-5.7l-78.7-20.1 1.2 5.8 54.6 20m107.3-131.6l-41.9-15.4c5.4 17.6 4.8 35.3-1.8 53.3-2.5 7-5.7 13.3-9.7 19.1-6.1 9.1-13.9 16.7-23.2 22.8l42 15.2c7-7.3 13.1-15.5 18.3-24.4l-28.9-10.6 32.3 3.9c2.1-4.2 3.9-8.5 5.5-12.8 6.2-17.3 8.7-34.3 7.4-51.1m-59 54.8c3.9-5.7 7.2-11.9 9.7-19.1 6.7-18.2 6.7-36.1.1-53.6l-114.2-41.6c-7 4-13 8.8-18.2 14.3l62.6 22.8-65.2-19.6c-.3.3-.6.6-.7.9-5.4 6.7-9.5 14.3-12.7 22.9-6.6 18.2-6.7 36.2-.3 53.8l114.2 41.6c10-5.8 18.2-13.3 24.7-22.4m-64.4-60.3c1.5 0 3.1.3 4.8.9h.1c3.7 1.3 6.3 3.7 7.9 7.3 1.6 3.7 1.8 7.3.4 10.9-1.3 3.9-3.7 6.4-7.3 8-1.8.9-3.6 1.3-5.4 1.5l38 22.2-48.7-17.6-3.6-14.5v-.2c-.1-.3-.1-.6-.3-.9-.6-2.7-.4-5.4.4-8.2 1.3-3.6 3.9-6.3 7.5-7.9 2-1.1 4.1-1.5 6.2-1.5z"/><path fill="#4B3730" d="M56.95 71.25c.7-1.2 1.8-2.4 2.8-3.6l-37.9-13.7c-1.3 1.8-2.5 3.6-3.6 5.5l38.7 11.8m69.9 176.3c4.3 0 8.6-.3 13.1-.9l-54.4-19.8-39.5-14.3 40.4 17.3 40.4 17.7m75.2-72.6l28.9 10.6c1.2-2.1 2.4-4.3 3.3-6.6l-32.2-4m-41.7-156c-.9 1-1.8 2.1-2.7 3l55.1 15.9-52.4-18.9m-94.6 50.9c-1 1-1.9 2.1-2.7 3.1l65.3 19.7-62.6-22.8m96.7 90.5l-38.1-22.2c-1.9 0-3.7-.1-5.5-.7h-.1c-3.7-1.3-6.3-3.9-7.9-7.6-.1-.4-.4-1-.6-1.5l3.6 14.6 48.6 17.4z"/><path fill="#61493C" d="M162.85 241.15c4.3-1.6 8.8-3.4 13.1-5.5 14.2-6.6 26.4-15.1 36.7-25.5l-42-15.3c-3.4 2.2-7.2 4.3-11 6.1-21.5 10-43.1 10.9-65 3-22.1-8.2-38-22.8-48-44.3-1.9-3.9-3.3-7.7-4.5-11.6l-41.9-15.1c1.2 14.5 5.1 28.8 11.6 43.1 6.4 14 14.6 25.8 24.4 35.6 14.5 11.3 31.4 19.5 51 24.6l-1-6.3-40.4-17.3 39.5 14.3-1.2-5.8 78.7 20m3.9-233.1c-1.6 3.7-3.7 7.3-6.4 10.7l52.5 18.9c-12.4-12.9-27.8-22.7-46.1-29.6m-9.8 187.3c2.2-1 4.5-2.1 6.6-3.1l-114.2-41.6c.7 2.2 1.6 4.5 2.7 6.6 9.2 19.7 24.1 33.2 44.7 40.8h.1c20.4 7.5 40.5 6.6 60.1-2.7m-6.3-145.7c-9.1-3.3-18-4.9-26.8-4.9-11.3-.1-22.5 2.2-33.5 7.5-2.1 1-4.3 2.1-6.3 3.3l114.1 41.5c-.9-2.4-1.8-4.6-2.8-6.7-9.2-19.8-24-33.4-44.4-40.8h-.3m-26.8-11c9.7 0 19.4 1.8 29.1 5.4 21.9 7.9 37.9 22.7 47.7 44 1.9 3.9 3.4 7.7 4.8 11.6l41.8 15.5c-1-14.5-5.1-28.9-11.8-43.2-6-12.8-13.6-24.2-22.7-33.8l-55.1-16c-.4.3-.7.7-1.2 1-9.1 9.1-20 13.6-32.8 13.6s-23.7-4.5-32.8-13.6c-4.5-4.5-7.9-9.4-10.1-14.9-3.3 1.2-6.4 2.4-9.5 3.9-14.2 6.9-26.4 15.3-36.7 25.8l41.9 15.2c3.4-2.2 7.2-4.3 11-6.1 12.2-5.7 24.2-8.4 36.4-8.4z"/><path fill="#016F4A" d="M157.65 21.95c.9-1 1.8-1.9 2.7-3l-49.3-18.2 16.5 12.4 30.1 8.8z"/><path fill="#059967" d="M156.65 22.95c.3-.3.7-.7 1.2-1l-30.3-8.6-16.5-12.4c-10.1 1-20.1 3.6-30 7.3 2.2 5.4 5.5 10.4 10.1 14.9 9.1 9.1 20 13.6 32.8 13.6 12.7-.2 23.6-4.7 32.7-13.8m10.1-14.9c-.3-.1-.4-.1-.6-.3-14.2-5.2-28.3-7.7-42.3-7.7-4.3 0-8.6.3-12.8.7l49.5 18c2.5-3.4 4.6-7 6.2-10.7z"/><path fill="#392A23" d="M152.85 44.15c-9.7-3.7-19.4-5.5-29.1-5.5-12.2-.1-24.1 2.7-36.1 8.2-3.9 1.8-7.6 3.9-11 6.1-6.6 4.2-12.2 9.1-17 14.8-1 1.2-2.1 2.4-2.8 3.6-.3.3-.4.6-.6.9-5.1 6.6-9.2 14.2-12.4 22.7-6.6 18-7.2 35.9-1.5 53.3 1 3.9 2.5 7.6 4.5 11.6 10 21.3 25.9 36.1 48 44.1 21.9 7.9 43.5 7 65-3 3.9-1.8 7.5-3.9 11-6.1 9.2-6.1 17-13.7 22.9-22.8 4-5.7 7.2-12.1 9.7-19.1 6.6-18 7.2-35.8 1.8-53.3-1.2-3.9-2.8-7.7-4.8-11.6-9.7-21.4-25.7-36-47.6-43.9m-29 .6c8.8 0 17.7 1.6 26.8 4.9h.1c20.4 7.5 35.2 21 44.4 40.8 1 2.1 1.9 4.3 2.8 6.7 6.6 17.6 6.6 35.5-.1 53.6-2.5 7-5.8 13.4-9.7 19.1-6.4 9.1-14.6 16.5-24.7 22.4-2.1 1-4.3 2.2-6.6 3.1-19.7 9.1-39.6 10-60.1 2.5h-.1c-20.4-7.5-35.3-21-44.7-40.8-1-2.1-1.9-4.3-2.7-6.6-6.4-17.6-6.4-35.6.3-53.8 3.1-8.6 7.5-16.2 12.7-22.9.1-.3.3-.6.7-.9.7-1 1.6-2.1 2.7-3.1 5.2-5.5 11.2-10.3 18.2-14.3 2.1-1.2 4.2-2.4 6.3-3.3 11.2-5.1 22.3-7.6 33.7-7.4m4.7 65.7c-1.6-.6-3.3-.9-4.8-.9-2.1-.1-4.2.3-6.3 1.3-3.6 1.6-6 4.3-7.5 7.9-1 2.8-1.2 5.5-.4 8.2.1.3.1.6.3.9v.4l.7 1.6c1.6 3.7 4.3 6.1 7.9 7.6h.1c1.8.6 3.6.9 5.5.7 1.8-.1 3.6-.6 5.4-1.5 3.7-1.8 6.1-4.3 7.5-8.2 1.3-3.6 1.2-7.2-.4-10.9-1.5-3.4-4.2-5.8-8-7.1m-4.7 1c1.3.1 2.7.3 4 .9h.1c3.1 1 5.4 3.3 6.7 6.4 1.5 3 1.6 6.1.4 9.2-1 3.3-3.1 5.5-6.4 6.9-3 1.5-6.1 1.6-9.1.4h-.1c-3.1-1-5.5-3.3-7-6.4-1.3-3-1.5-6-.3-9.2 1.2-3.1 3.3-5.4 6.3-6.9 1.8-.8 3.6-1.3 5.4-1.3z"/><path fill="#786353" d="M119.55 135.45h.1l4.2-11.6-11.6-4.2c-1.2 3.3-1 6.3.3 9.2 1.4 3.2 3.8 5.4 7 6.6z"/><path fill="#54534A" d="M128.75 134.85c3.3-1.3 5.4-3.6 6.6-6.9l-11.5-4.2-4.2 11.6c3.1 1.2 6.1 1 9.1-.5z"/><path fill="#9D8061" d="M134.75 118.75c-1.3-3.1-3.6-5.4-6.7-6.6l-4.2 11.6 11.5 4.2c1-3.1.8-6.2-.6-9.2z"/><path fill="#A2A183" d="M127.85 112.25c-1.3-.4-2.7-.6-4-.7-1.8 0-3.6.4-5.4 1.3-3 1.5-5.1 3.7-6.3 6.9l11.6 4.2 4.1-11.7z"/></svg>