<svg xmlns="http://www.w3.org/2000/svg" viewBox="0 0 285.1 150.1" enable-background="new 0 0 285.1 150.1"><path fill="#6E365F" d="M250.8 122.1c.5-4.1.7-8.2.7-12.4 0-60.6-49.1-109.7-109.7-109.7-60.5 0-109.6 49.1-109.6 109.7 0 4.2.2 8.3.7 12.4h217.9z"/><path fill="#FFC51A" d="M218.5 127.6c.3-2.9.5-5.8.5-8.7 0-42.6-34.5-77.1-77.1-77.1-42.6 0-77.1 34.5-77.1 77.1 0 2.9.2 5.9.5 8.7h153.2z"/><path fill="#317339" d="M37.2 75.7c8.4 6.4 13.8 16.4 13.8 27.8 0 3.4-.5 6.6-1.4 9.7h-12.4v-37.5z"/><path fill="#B33925" d="M203 43.7h4.2v5.7h-4.2z"/><path fill="#F1E5C6" d="M195 51.6h24.2v19.4h-24.2z"/><path fill="#C13A27" d="M221 54.7h-27.7l1.7-8.1h24.3z"/><path fill="#CB8C68" d="M200.7 57.8h11.6v6.9h-11.6z"/><path fill="#AD6035" d="M179.3 58.8h3.6v7.1h-3.6z"/><path fill="#05A267" d="M181.3 42.9c-4.7 0-8.5 3.8-8.5 8.5s3.8 8.5 8.5 8.5v-17z"/><path fill="#3DB660" d="M181.3 46.6c-2.6 0-4.8 2.1-4.8 4.8 0 2.6 2.1 4.8 4.8 4.8v-9.6z"/><path fill="#05A267" d="M181.3 42.9c4.7 0 8.5 3.8 8.5 8.5s-3.8 8.5-8.5 8.5v-17z"/><path fill="#3DB660" d="M181.3 46.6c2.6 0 4.8 2.1 4.8 4.8 0 2.6-2.1 4.8-4.8 4.8v-9.6z"/><path fill="#AD6035" d="M227.6 56.8h7.3v14.4h-7.3z"/><path fill="#3DB660" d="M231.6 24.6c-9.5 0-17.2 7.7-17.2 17.2s7.7 17.2 17.2 17.2v-34.4z"/><path fill="#85C990" d="M231.6 32.1c-5.4 0-9.7 4.3-9.7 9.7 0 5.4 4.3 9.7 9.7 9.7v-19.4z"/><path fill="#05A267" d="M231.6 24.6c9.5 0 17.2 7.7 17.2 17.2s-7.7 17.2-17.2 17.2v-34.4z"/><path fill="#3DB660" d="M231.6 32.1c5.4 0 9.7 4.3 9.7 9.7 0 5.4-4.3 9.7-9.7 9.7v-19.4z"/><path fill="#317339" d="M259.6 82.7c4.6 3.5 7.6 9 7.6 15.3 0 1.8-.3 3.6-.7 5.3h-6.8v-20.6z"/><path fill="#F1E5C6" d="M235.3 77.4h24.2v19.4h-24.2z"/><path fill="#F27B21" d="M261.3 80.5h-27.7l1.7-8.1h24.3z"/><path fill="#48B971" d="M197 61c-45.6 0-82.5 36.9-82.5 82.5h165c0-45.5-36.9-82.5-82.5-82.5z"/><path fill="#209057" d="M158.9 116l3.7-46.1 55.9 57.7-66.6 4z"/><path fill="#069F72" d="M196.9 61v82.5h82.6c0-45.5-36.9-82.5-82.5-82.5h-.1z"/><path fill="#CDD592" d="M194 70c0-2-1.6-3.6-3.6-3.6s-3.6 1.6-3.6 3.6h7.2zm17.8 10.2c0-2.9-2.3-5.2-5.2-5.2s-5.2 2.3-5.2 5.2h10.4z"/><path fill="#B33925" d="M65.5 63.6h4.2v5.7h-4.2z"/><path fill="#488F52" d="M37.2 75.7c-8.4 6.4-13.8 16.4-13.8 27.8 0 3.4.5 6.6 1.4 9.7h12.4v-37.5z"/><path fill="#DDD59A" d="M37.2 58.3h14.5v47.3h-14.5z"/><path fill="#CB8C68" d="M48.7 78.7l-5.3 2.6v10.6l5.3.4z"/><path fill="#F1E5C6" d="M48.7 71.4h26.4v21.1h-26.4z"/><path fill="#C13A27" d="M77.1 74.8h-30.2l1.8-8.8h26.5z"/><path fill="#F27B21" d="M34.9 58.3h19.1l-9.6-21.9z"/><path fill="#AD6035" d="M88.1 74h5.7v11.4h-5.7z"/><path fill="#3DB660" d="M91.3 48.4c-7.5 0-13.6 6.1-13.6 13.6s6.1 13.6 13.6 13.6v-27.2z"/><path fill="#85C990" d="M91.3 54.4c-4.2 0-7.7 3.4-7.7 7.7 0 4.2 3.4 7.7 7.7 7.7v-15.4z"/><path fill="#05A267" d="M91.3 48.4c7.5 0 13.6 6.1 13.6 13.6s-6.1 13.6-13.6 13.6v-27.2z"/><path fill="#3DB660" d="M91.3 54.4c4.2 0 7.7 3.4 7.7 7.7 0 4.2-3.4 7.7-7.7 7.7v-15.4z"/><path fill="#F69321" d="M71.5 81.8h19.1v17.2h-19.1z"/><path fill="#48B971" d="M77.1 79.9c-35.3 0-63.9 28.6-63.9 63.9h127.8c0-35.2-28.6-63.9-63.9-63.9z"/><path fill="#069F72" d="M141 143.9c0-35.3-28.6-63.9-63.9-63.9v63.9h63.9zm-78 .6l.2-45.7 38.6 37.7-38.8 8z"/><path fill="#F2E6C6" d="M82.9 93.3c0-3.3-2.6-5.9-5.9-5.9-3.3 0-5.9 2.6-5.9 5.9h11.8z"/><path fill="#C3996B" d="M100.3 129.6h13.8v6.6h-13.8z"/><path fill="#fff" d="M121.4 69.9h21.1v52.8h-21.1z"/><path fill="#5A556A" d="M120.1 67h43.2l-21.6-16.3z"/><path fill="#D9DBD2" d="M141.7 69.9h20.2v52.8h-20.2z"/><path fill="#A3A49E" d="M120 118.5h43.3v4.3h-43.3z"/><ellipse fill="#F27B21" cx="141.7" cy="87" rx="5" ry="4.9"/><ellipse fill="#303438" cx="141.7" cy="87" rx="2.5" ry="2.4"/><path fill="#472D45" d="M120 66.8h43.3v3.2h-43.3zm43.3.2l-21.6-16.3v16.3z"/><path fill="#262834" d="M136.3 105.5h10.7v17.2h-10.7z"/><path fill="#A3A49E" d="M135.7 100.8h12v3.1h-12z"/><path fill="#B6B7B2" d="M121.4 69.9h40.4v3.9h-40.4z"/><path fill="#CDD592" d="M169.7 129.6h19.2v6.6h-19.2z"/><path fill="#FFC51A" d="M176.1 123.3c0 1.8-1.5 3.2-3.3 3.2s-3.3-1.5-3.3-3.2c0-1.8 1.5-3.2 3.3-3.2s3.3 1.4 3.3 3.2z"/><path fill="#624656" d="M107.2 129.3h13.7v6.9h-13.7z"/><path fill="#CDD592" d="M121 129.3h13.8v6.9h-13.8z"/><path fill="#624656" d="M134.7 129.3h13.8v6.9h-13.8zm27.6 0h13.8v6.9h-13.8z"/><path fill="#CDD592" d="M148.5 129.3h13.8v6.9h-13.8z"/><path fill="#FFC51A" d="M117.8 122.9c0 2.9-2.4 5.2-5.3 5.2s-5.3-2.3-5.3-5.2c0-2.9 2.4-5.2 5.3-5.2 3 0 5.3 2.3 5.3 5.2z"/><ellipse fill="#FFC51A" cx="166.2" cy="122.6" rx="5.1" ry="5"/><path fill="#CDD592" d="M107.2 122.7h13.8v6.9h-13.8z"/><path fill="#490F43" d="M121 122.7h13.8v6.9h-13.8z"/><path fill="#CDD592" d="M134.8 122.7h13.8v6.9h-13.8zm27.5 0h13.8v6.9h-13.8z"/><path fill="#490F43" d="M148.5 122.7h13.8v6.9h-13.8z"/><path fill="#F2E6C6" d="M109.6 136.3c0-5.6-4.6-10.2-10.2-10.2s-10.2 4.6-10.2 10.2h20.4z"/><path fill="#490F43" d="M84.2 136.5c0-4.1-3.4-7.5-7.5-7.5s-7.5 3.4-7.5 7.5h15z"/><path fill="#05806B" d="M63 98.9c-8.4 6.4-13.8 16.4-13.8 27.8 0 3.4.5 6.6 1.4 9.7h12.4v-37.5z"/><path fill="#144341" d="M63 98.9c8.4 6.4 13.8 16.4 13.8 27.8 0 3.4-.5 6.6-1.4 9.7h-12.4v-37.5z"/><path fill="#05806B" d="M46.4 111.5c-5.5 4.2-9.1 10.9-9.1 18.4 0 2.2.3 4.4.9 6.4h8.2v-24.8z"/><path fill="#144341" d="M46.4 111.5c5.5 4.2 9.1 10.9 9.1 18.4 0 2.2-.3 4.4-.9 6.4h-8.2v-24.8z"/><path fill="#018E71" d="M213.7 144.5l.2-45.7 37.6 39.1-37.8 6.6z"/><path fill="#048872" d="M248.9 140.4l.2-24.7 30.4 26.9-26.1 1.3z"/><path fill="#144341" d="M213.8 98.8c8.4 6.4 13.8 16.4 13.8 27.8 0 3.4-.5 6.6-1.4 9.7h-12.4v-37.5z"/><path fill="#016A58" d="M213.8 98.8c-8.4 6.4-13.8 16.4-13.8 27.8 0 3.4.5 6.6 1.4 9.7h12.4v-37.5z"/><path fill="#026158" d="M248.9 115.7c-4.6 3.5-7.6 9-7.6 15.3 0 1.8.3 3.6.8 5.3h6.8v-20.6z"/><path fill="#144341" d="M248.9 115.7c4.6 3.5 7.6 9 7.6 15.3 0 1.8-.3 3.6-.8 5.3h-6.8v-20.6z"/><path fill="#F2E6C6" d="M236.9 136.3c0-5.6-4.6-10.2-10.2-10.2s-10.2 4.6-10.2 10.2h20.4zm38.5 0c0-3.9-3.2-7-7-7-3.9 0-7 3.2-7 7h14z"/><path fill="#069F72" d="M18.1 143.9v-26l23.4 22.9-23.4 3.1z"/><path fill="#055A46" d="M18.1 117.9c4.1 3.2 6.8 8.2 6.8 13.8 0 1.7-.2 3.3-.7 4.8h-6.2v-18.6z"/><path fill="#48B971" d="M18.1 117.9c-4.1 3.2-6.8 8.2-6.8 13.8 0 1.7.2 3.3.7 4.8h6.2v-18.6z"/><path fill="#F2E6C6" d="M44.3 136.5c0-3.9-3.2-7-7-7-3.9 0-7 3.2-7 7h14z"/><path fill="#490F43" d="M28.8 136.3c0-2.3-1.9-4.2-4.2-4.2-2.3 0-4.2 1.9-4.2 4.2h8.4z"/><path fill="#48B971" d="M196.9 105.3c-6.9 5.3-11.4 13.6-11.4 23 0 2.8.4 5.4 1.1 8h10.3v-31z"/><path fill="#055A46" d="M196.9 105.3c6.9 5.3 11.4 13.6 11.4 23 0 2.8-.4 5.4-1.1 8h-10.3v-31z"/><path fill="#047364" d="M277.6 135.1h-270.1c-4.1 0-7.5 3.3-7.5 7.5 0 4.1 3.3 7.5 7.5 7.5h270.2c4.1 0 7.5-3.3 7.5-7.5-.1-4.1-3.4-7.5-7.6-7.5z"/></svg>