<svg xmlns="http://www.w3.org/2000/svg" viewBox="0 0 28.4 28.4" enable-background="new 0 0 28.4 28.4"><path fill="#323A47" d="M28.4 25.7c0 1.5-1.2 2.7-2.7 2.7h-23c-1.5 0-2.7-1.2-2.7-2.7v-23C0 1.2 1.2 0 2.7 0h23c1.5 0 2.7 1.2 2.7 2.7v23"/><path fill="#292E38" d="M19.5 6.4l-6.6 11.8-3 6 4.2 4.2h11.7c1.5 0 2.7-1.2 2.7-2.7V15.4l-9-9"/><path fill="#fff" d="M19.5 22.5h-9.2l.2-12.7 7.2.1z"/><path fill="#CCCCC3" d="M16.1 5.2c-1.2 0-2.3 1.5-2.9.5l-1.5 2.4-.2 13.2s1.4.5 3.4.5 3.4-.5 3.4-.5l-.5-14.4c-.5.4-.9-1.7-1.7-1.7zM14.9 22.5h4.6l-.3-12.7h-4.3z"/><path fill="#A2A9A5" d="M17.9 9.8l-3-.8v12.8c2 0 3.4-.5 3.4-.5l-.4-11.5z"/><path fill="#CCCCC3" d="M19.2 9.4L10.5 9v2.8c.3.1.6.2 1 .2.8 0 1.5-.4 2-1 .4.2.9.4 1.4.4.4 0 .8-.1 1.1-.2.4.5 1.1.9 1.9.9.5 0 1-.2 1.4-.5l-.1-2.2z"/><path fill="#A96145" d="M16.1 14c-.4 0-.8-.1-1.2-.2v8.7c2 0 3.4.3 3.4.3l-.3-9.2c-.5.3-1.3.4-1.9.4z"/><path fill="#EBAF44" d="M14.9 13.8c-.7-.3-1.3-.8-1.6-1.4h-1.6l-.2 10.2s1.4-.3 3.4-.3v-8.5z"/><path fill="#fff" d="M17.8 5.7h-.2c-.4-1.1-1.5-1.9-2.8-1.9-1.3 0-2.4.8-2.8 1.9-.2-.1-.4-.1-.6-.1C10.1 5.6 9 6.7 9 8c0 1.3 1.1 2.4 2.4 2.4.8 0 1.5-.4 2-1 .4.2.9.4 1.4.4.4 0 .8-.1 1.1-.2.4.5 1.1.9 1.9.9 1.3 0 2.4-1.1 2.4-2.4 0-1.3-1.1-2.4-2.4-2.4z"/><path fill="#CCCCC3" d="M19.5 22.3h-4.6v2h4.6c.6 0 1-.5 1-1s-.5-1-1-1z"/><path fill="#fff" d="M14.9 22.3h-4.6c-.6 0-1 .4-1 1s.5 1 1 1h4.6v-2z"/><circle fill="#CCCCC3" cx="17.9" cy="8.2" r="1.2"/></svg>