<svg xmlns="http://www.w3.org/2000/svg" viewBox="0 246.6 595.3 595.3" enable-background="new 0 246.6 595.3 595.3"><path fill="#181C20" d="M56.4 839.8C25.1 839.8 0 814.7 0 783.4V303c0-31.3 25.1-56.4 56.4-56.4h480.4c31.3 0 56.4 25.1 56.4 56.4v482.5c0 31.3-25.1 56.4-56.4 56.4H56.4"/><path fill="#323A47" d="M593.2 783.4c0 31.3-25.1 56.4-56.4 56.4H56.4C25.1 839.8 0 814.7 0 783.4V303c0-31.3 25.1-56.4 56.4-56.4h480.4c31.3 0 56.4 25.1 56.4 56.4v480.4"/><path fill="#292E38" d="M442.8 399.1L150.4 691.5l150.4 150.4H539c31.3 0 56.4-25.1 56.4-56.4v-234L442.8 399.1"/><path fill="#6181C0" d="M449.1 394.9l-127.4-12.6-102.4 104.5-71 211 210.9-71 102.4-104.5z"/><path fill="#6CA5DC" d="M340.5 503.5L148.3 697.8l71-211z"/><path fill="#6181C0" d="M340.5 503.5L148.3 697.8l210.9-71z"/><path fill="#8AC9F2" d="M321.7 382.3L219.3 486.8l121.2 16.7z"/><path fill="#fff" d="M321.7 382.3l127.4 12.6-108.6 108.6z"/><path fill="#6CA5DC" d="M461.6 522.3L359.2 626.8l-18.7-123.3z"/><path fill="#8AC9F2" d="M461.6 522.3l-12.5-127.4-108.6 108.6z"/></svg>