<svg xmlns="http://www.w3.org/2000/svg" viewBox="0 0 28.4 28.4" enable-background="new 0 0 28.4 28.4"><path fill="#323A47" d="M28.4 25.7c0 1.5-1.2 2.7-2.7 2.7h-23c-1.5 0-2.7-1.2-2.7-2.7v-23C0 1.2 1.2 0 2.7 0h23c1.5 0 2.7 1.2 2.7 2.7v23"/><path fill="#292E38" d="M22.9 3.7l-9 6.9 4.4 4.4-2.3 7.1-11.9.8 5.5 5.5h16.1c1.5 0 2.7-1.2 2.7-2.7V9.3l-5.5-5.6"/><path fill="#324032" d="M4.9 21.2l.5-.2 8.5-3.1c.9-.2 1.6-1 1.6-2V9.8l7-2.5v10.5c.7.7 1.1 1.7 1.1 2.7 0 1.1-.5 2.1-1.2 2.8H5.2c-.8 0-1.4-.6-1.4-1.4 0-.5.5-.6 1.1-.7z"/><path fill="#375346" d="M15.5 9.8v6.1c0 1-.7 1.8-1.6 2l-9 2.8c-.6.2-1 .7-1 1.3v.1h4.8L19 19.4V8.6l-3.5 1.2z"/><path fill="#324032" d="M15.5 11.9c1.1.1 3.7.1 3.7.9l.8-4.2-4.6 1.2v2.1z"/><path fill="#588557" d="M19.9 18.5c-.1-.1-.4-.1-.5 0l-.4.4-.4-.4c-.1-.1-.4-.1-.5 0-.1.1-.1.4 0 .5l.4.4-.5.4c-.1.1-.1.4 0 .5.1.1.4.1.5 0l.5-.3.4.4c.1.1.4.1.5 0 .1-.1.1-.4 0-.5l-.4-.4.4-.4c.2-.2.2-.5 0-.6zM19.9 15.3c-.1-.1-.4-.1-.5 0l-.4.4-.4-.4c-.1-.1-.4-.1-.5 0-.1.1-.1.4 0 .5l.4.4-.5.5c-.1.1-.1.4 0 .5.1.1.4.1.5 0l.4-.4.4.4c.1.1.4.1.5 0 .1-.1.1-.4 0-.5l-.4-.4.4-.4c.3-.2.3-.5.1-.6zM19.5 13.1l.4-.4c.1-.1.1-.4 0-.5-.1-.1-.4-.1-.5 0l-.4.3-.4-.4c-.1-.1-.4-.1-.5 0-.1.2-.1.4 0 .5l.4.4-.5.5c-.1.1-.1.4 0 .5.1.1.4.1.5 0l.4-.4.4.4c.1.1.4.1.5 0 .1-.1.1-.4 0-.5l-.3-.4z"/><path fill="#5E794F" d="M19.5 4c-1.3 0-3.2-.1-4.5-.3l-1.1 6.9c1.7.2 3.4.4 5.1.4l.5-7z"/><path fill="#4D5C3E" d="M22.9 3.7c-1.3.2-2.6.3-3.9.3v7c1.7 0 3.4-.1 5.1-.4l-1.2-6.9z"/></svg>