<svg xmlns="http://www.w3.org/2000/svg" viewBox="0 0 45.5 45.5" enable-background="new 0 0 45.5 45.5"><path fill="#323A47" d="M45.5 41.2c0 2.4-1.9 4.3-4.3 4.3H4.3c-2.4 0-4.3-1.9-4.3-4.3V4.3C0 1.9 1.9 0 4.3 0h36.9c2.4 0 4.3 1.9 4.3 4.3v36.9"/><path fill="#292E38" d="M39.3 6.4L35.9 11l-5.4-1.4-9.7-.3-4 3.4-1.4-1.2-4.1 1.8v2.3l2.8 2.8-5 2.8-.7 6.4 1.5 4.6.7 3.5-2.8 2.8L6 39.7l5.9 5.9h29.2c2.4 0 4.3-1.9 4.3-4.3V12.7l-6.1-6.3"/><path fill="#5E794F" d="M27.4 27.6l5.6 2-.6.6 1.8.6-.6.6 1.9.6-3.7 3.7-.6-1.9-.6.6-.6-1.8-.6.6z"/><path fill="#FCFBE5" d="M10.3 36.6h26.1V10.5l1.1-.9v28.2l-1.1-.1h-27z"/><path fill="#C08149" d="M13.1 16.9c.7-.3 1.4-.8 2-1.4.6-.6 1.1-1.3 1.4-2 .1-.2.2-.5.3-.7.4-1.1 1.1-2 2-2.9.3-.3.6-.6 1-.9 2.1-1.6 4.8-2.1 7.3-1.7 1.3.2 2.5.8 3.6 1.5.2.1.3.3.5.4 1.7 1.2 4.1 1 5.7-.5.5-.5.9-1.2 1.1-1.8v-.1c0-.1.1-.2.2-.3.3-.3.9-.3 1.2 0 .2.2.3.4.2.7v.1c-.3 1.1-.8 2.2-1.7 3.1-1.2 1.2-2.7 1.8-4.3 1.9-1.4.1-2.8-.3-3.9-1.2-.1-.1-.3-.2-.4-.3-2.5-1.8-6-1.5-8.3.7-.5.5-.9 1.1-1.2 1.7-.2.5-.4.9-.5 1.4-.5 1-1.1 2-2 2.8-.8.8-1.8 1.5-2.8 2-.5.1-1 .3-1.4.5-.6.3-1.2.7-1.7 1.2-2.3 2.3-2.5 5.8-.7 8.3.1.1.2.3.3.4.8 1.2 1.2 2.6 1.2 3.9-.1 1.6-.7 3.1-1.9 4.3-.9.9-2 1.5-3.1 1.7h-.1c-.2 0-.5-.1-.7-.2-.3-.3-.3-.9 0-1.2.1-.1.2-.2.3-.2h.1c.7-.2 1.3-.6 1.8-1.1 1.5-1.5 1.7-3.9.5-5.7-.1-.2-.3-.3-.4-.5-.8-1.1-1.3-2.3-1.5-3.6-.5-2.5.1-5.1 1.7-7.3.3-.3.5-.7.9-1 .9-.9 1.9-1.5 2.9-2-.1.2.1.1.4 0z"/><path fill="#524640" d="M11.3 12.4l24.3 24.2h.8v-.8L12.1 11.6z"/><path fill="#D66343" d="M15.4 11.5L9.1 9.3l2.2 6.3z"/><path fill="#E49944" d="M15.4 11.5L9.1 9.3l4.2 4.3z"/><path fill="#524640" d="M36.1 8.4c-.2.2-.2.6 0 .8l1.6 1.6c.2.2.6.2.8 0l.1-.1c.2-.2.2-.6 0-.8L37 8.3c-.3-.2-.6-.2-.9.1zM8 36.5c-.2.2-.2.6 0 .8l1.6 1.6c.2.2.6.2.8 0l.1-.1c.2-.2.2-.6 0-.8l-1.6-1.6c-.2-.2-.6-.2-.9.1z"/></svg>