<svg xmlns="http://www.w3.org/2000/svg" viewBox="0 0 28.4 28.4" enable-background="new 0 0 28.4 28.4"><path fill="#323A47" d="M28.4 25.7c0 1.5-1.2 2.7-2.7 2.7h-23c-1.5 0-2.7-1.2-2.7-2.7v-23C0 1.2 1.2 0 2.7 0h23c1.5 0 2.7 1.2 2.7 2.7v23"/><path fill="#292E38" d="M20.2 5.4L12 9.6l.6 13.2-2.8 1.1 4.6 4.6h11.4c1.5 0 2.7-1.2 2.7-2.7v-12l-8.3-8.4"/><path fill="#C45845" d="M19.5 12.2H9.1l1.7 2h7.3z"/><path fill="#DD8044" d="M10.8 14.2h7.3v1.2h-7.3z"/><path fill="#F3C444" d="M19.1 22.8H9.8l.7-1h7.9z"/><path fill="#E49944" d="M9.8 22.8h4.5v1.1H9.8z"/><path fill="#C45845" d="M14.3 22.8h4.8v1.1h-4.8z"/><path fill="#DD8044" d="M14.2 6.9h5.3v5.3h-5.3z"/><path fill="#F3C444" d="M9.1 6.9h5.2v5.3H9.1z"/><path fill="#DD8044" d="M8.7 10.4c-.4 0-.8-.4-.8-.8s.4-.8.8-.8v1.6z"/><path fill="#C45845" d="M20 8.8c.4 0 .8.4.8.8s-.4.8-.8.8V8.8z"/><path fill="#F3C444" d="M20.4 6c0 .5-.4.9-.9.9H9.1c-.5 0-.9-.4-.9-.9s.4-.9.9-.9h10.4c.5.1.9.5.9.9z"/><path fill="#DD8044" d="M9.1 6.9h10.4v1H9.1zM14.4 21.8v-6.3h-3.5c.6 1.1.9 2.3.9 3.6 0 1-.2 1.9-.5 2.7h3.1z"/><circle fill="#fff" cx="9" cy="5.8" r=".4"/><path fill="#C45845" d="M18.1 15.4h-7.2l.3.6c1.4.1 2.5.8 3.2 1.9v3.9h3.4c-.3-.8-.5-1.8-.5-2.7-.1-1.3.2-2.6.8-3.7z"/><circle fill="#DD8044" cx="11.2" cy="9.6" r=".8"/><circle fill="#DD8044" cx="14.3" cy="9.6" r=".8"/><circle fill="#D06044" cx="17.4" cy="9.6" r=".8"/></svg>