<svg xmlns="http://www.w3.org/2000/svg" viewBox="0 246.6 595.3 595.3" enable-background="new 0 246.6 595.3 595.3"><path fill="#181C20" d="M55.8 841.9C24.8 841.9 0 817.1 0 784V302.4c0-31 24.8-55.8 55.8-55.8h481.6c31 0 55.8 24.8 55.8 55.8v481.7c0 31-24.8 55.8-55.8 55.8H55.8"/><path fill="#323A47" d="M595.3 784c0 31-24.8 55.8-55.8 55.8H55.8C24.8 841.9 0 817.1 0 784V302.4c0-31 24.8-55.8 55.8-55.8h481.6c31 0 55.8 24.8 55.8 55.8V784"/><path fill="#292E38" d="M320.4 333.4L212.9 678.6l-62 47.5 113.7 113.7h272.8c31 0 55.8-24.8 55.8-55.8V606.3L320.4 333.4"/><path fill="#fff" d="M295.6 333.4l8.2-4.1 16.6 4.1-8.3 20.7z"/><path fill="#D0DF9A" d="M316.2 339.6h-12.4l-22.7 99.2 70.3 2.1z"/><path fill="#76B75F" d="M281.1 438.8H341v258.4h-59.9z"/><path fill="#52935E" d="M341 697.2l43.5-10.3V418.2L341 438.8z"/><path fill="#D0DF9A" d="M237.7 418.2l43.4 20.6v279.1l-43.4-31z"/><path fill="#fff" d="M281.1 438.8l22.7-99.2-8.2-6.2-57.9 84.8z"/><path fill="#76B75F" d="M341 438.8l-24.8-99.2 4.2-6.2 64.1 84.8z"/><path fill="#D0DF9A" d="M330.7 637.3L308 620.7v109.6l22.7 24.8z"/><path fill="#fff" d="M330.7 637.3l20.7-60-43.4 43.4z"/><path fill="#D0DF9A" d="M330.7 637.3l20.7-60 22.7 60z"/><path fill="#76B75F" d="M330.7 637.3h43.4v117.8h-43.4zM351.4 577.3l43.4 39.3-20.7 20.7z"/><path fill="#7AA95D" d="M394.8 616.6v115.7l-20.7 22.8V637.3zM243.9 581.5l37.2 37.2v59.9z"/><path fill="#628354" d="M281.1 620.7l26.9 26.9v49.6h-26.9z"/><path fill="#76B75F" d="M382.4 713.7h70.3v33.1h-70.3z"/><path fill="#D0DF9A" d="M382.4 713.7l12.4-14.4v-12.4h57.9l20.6 14.4-20.6 12.4z"/><path fill="#7AA95D" d="M473.3 701.3v31l-20.6 14.5v-33.1z"/><path fill="#A6C565" d="M146.8 660h55.8v49.6h-55.8z"/><path fill="#D0DF9A" d="M175.7 651.7h-24.8l4.1 22.8h37.2z"/><path fill="#7AA95D" d="M237.7 728.2h-86.8l4.1-26.9h82.7z"/><path fill="#52935E" d="M190.2 631.1l-39.3-4.2 45.5 113.7 45.4 20.7z"/><path fill="#76B75F" d="M150.9 626.9l31-53.7 8.3 57.9z"/><path fill="#D0DF9A" d="M190.2 631.1l-8.3-57.9 47.5 39.3z"/><path fill="#A6C565" d="M190.2 631.1l39.2-18.6 47.6 126-35.2 22.8z"/><path fill="#fff" d="M229.4 612.5l14.5-31-62-8.3z"/><path fill="#76B75F" d="M243.9 581.5l51.7 124-18.6 33-47.6-126z"/><path fill="#D0DF9A" d="M155 674.5l-49.6 14.4 49.6 12.4z"/><path fill="#fff" d="M105.4 688.9l45.5-37.2 4.1 22.8z"/><path fill="#76B75F" d="M105.4 688.9l49.6 12.4-4.1 26.9z"/><path fill="#D0DF9A" d="M258.4 691l22.7-20.7H308V691z"/><path fill="#A6C565" d="M258.4 691L246 713.7h76.4L308 691z"/><path fill="#52935E" d="M246 713.7l12.4 22.8h55.8l8.2-22.8z"/><path fill="#628354" d="M384.5 538l35.1 33.1v115.8h-24.8v-70.3l-10.3-10.3z"/></svg>