<svg xmlns="http://www.w3.org/2000/svg" xmlns:xlink="http://www.w3.org/1999/xlink" viewBox="0 0 28.4 28.4" enable-background="new 0 0 28.4 28.4"><path fill="#323A47" d="M28.4 25.7c0 1.5-1.2 2.7-2.7 2.7h-23c-1.5 0-2.7-1.2-2.7-2.7v-23C0 1.2 1.2 0 2.7 0h23c1.5 0 2.7 1.2 2.7 2.7v23"/><defs><path id="a" d="M19.3 6.5L7.8 19.1 5.5 17l-1.2 1.1v3.5l6.9 6.9h14.5c1.5 0 2.7-1.2 2.7-2.7V11l-2.6-2.6-2.8 1.9-3.7-3.8"/></defs><clipPath id="b"><use xlink:href="#a" overflow="visible"/></clipPath><path clip-path="url(#b)" fill="#292E38" d="M4.3 6.5h24.1v21.9H4.3z"/><path fill="#80A15A" d="M22.2 12.7c-.2-.9-.5-1.7-.9-2.5-.1-.2-.2-.5-.3-.7-.5-1-1.1-2-1.7-2.9-5.7.6-10.3 5-11.3 10.6-.1.5-.2 1-.2 1.5.3-.1 1.4 1 1.7 1 .6-.2.3-.7.9-.8.4-.1 1-.1 1.4-.2 1.2-.2 2.3-.2 3.6-.4 1.7-.2 3.3-.2 5-.2.8 0 1.7-1.1 2.6-1-.1-1.6-.4-3-.8-4.4z"/><path fill="#658755" d="M21.3 10.2c0-.1-.1-.2-.1-.3l-3.3 1.7-3.9 3-2.9 2.9.1 1.2c.2 0 .4-.1.6-.1 1.2-.2 2.3-.2 3.6-.4 1.7-.2 3.3-.2 5-.2.8 0 1.7-1.1 2.6-1-.1-1.5-.3-3-.7-4.4-.3-.8-.6-1.6-1-2.4z"/><path fill="#DAC3A5" d="M25.8 8.4c-1.3.1-2.5.3-3.7.7-.4.1-.8.2-1.2.4-2.8 1-5.4 2.6-7.5 4.7-1.2 1.2-2.2 2.5-3.1 4 .4-.1.7-.2 1.1-.2.8-1.2 1.8-2.4 2.8-3.4 2-1.9 4.3-3.3 7-4.3.4-.1.8-.3 1.3-.4 1.2-.3 2.4-.5 3.6-.6 0-.4-.1-.7-.3-.9z"/><path fill="#FCFBE5" d="M26.2 9.2c-1.3.1-2.5.3-3.6.6-.4.1-.8.2-1.3.4-2.6.9-5 2.4-7 4.3l2.8 1.1c1.5-1.2 3.2-2.2 5.1-2.8.5-.2 1-.3 1.5-.4 1.1-.3 2.3-.4 3.6-.5-.3-1-.7-1.9-1.1-2.7z"/><path fill="#3B5744" d="M24.9 17.2c-.7-.1-1.3-.1-2-.1-.8 0-1.6-.1-2.5-.1-1.8 0-3.5.1-5.2.3-1.3.1-2.5.3-3.8.6-.4.1-.7.1-1.1.2-.6.1-1.2.3-1.8.4-.3.1-.5.1-.8.2-.6.2-1.2.3-1.8.5h-.3c-.5 0-1-.4-1-1 0-.3.1-.5.3-.7l.2-.1c.1-.1.2-.3.2-.5 0-.4-.3-.7-.7-.7h-.2l-.2.1c-1 .5-1.6 1.5-1.6 2.6 0 .4.1.9.3 1.2.5 1 1.5 1.6 2.6 1.6.9 0 1.9-.1 2.2-.1.2 0 .5-.1.7-.1.3 0 .6-.1.9-.1l3-.3c1.1-.1 2.2-.1 3.3-.1 2.3 0 4.5.2 6.7.5l2.1.3h.2c.1-.8.1-1.6.1-2.4.4-.7.3-1.4.2-2.2z"/></svg>