<svg xmlns="http://www.w3.org/2000/svg" viewBox="0 246.6 595.3 595.4" enable-background="new 0 246.6 595.3 595.4"><path fill="#181C20" d="M56.6 841.9C25.2 841.9 0 816.7 0 785.3V303.2c0-31.4 25.2-56.6 56.6-56.6h482.1c31.4 0 56.6 25.2 56.6 56.6V785.3c0 31.4-25.2 56.6-56.6 56.6H56.6"/><path fill="#323A47" d="M595.3 785.3c0 31.4-25.2 56.6-56.6 56.6H56.6C25.2 841.9 0 816.7 0 785.3V303.2c0-31.4 25.2-56.6 56.6-56.6h482.1c31.4 0 56.6 25.2 56.6 56.6v482.1"/><path fill="#292E38" d="M465.3 328.4l-33.5 48.2-41.9 54.5-228.5 209.6-39.8 77.6L245.3 842h293.4c31.4 0 56.6-25.2 56.6-56.6v-325l-130-132"/><path fill="#79887D" d="M498.9 393.3c-12.6-12.6-35.6-12.6-48.2 0 12.6-12.6 12.6-35.6 0-48.2s-35.6-12.6-48.2 0-12.6 35.6 0 48.2l4.2 4.2-73.4 73.4 21 21 21 21 73.4-73.4 4.2 4.2c12.6 12.6 35.6 12.6 48.2 0 12.4-14.7 12.4-37.8-2.2-50.4z"/><path fill="#B5C7BE" d="M387.8 496l73.4-73.4 4.2 4.2c12.6 12.6 35.6 12.6 48.2 0s12.6-35.6 0-48.2c-12.6-12.6-35.6-12.6-48.2 0L369 475l18.8 21z"/><path fill="#fff" d="M366.8 475.1l96.4-96.4c12.6-12.6 12.6-35.6 0-48.2-12.6-12.6-35.6-12.6-48.2 0-12.6 12.6-12.6 35.6 0 48.2l4.2 4.2-73.4 73.4 21 18.8z"/><path fill="#C08149" d="M402.4 441.5c-65-65-215.9-16.8-278.8 46.1s-48.2 150.9 16.8 213.8l8.4-8.4 253.6-251.5z"/><path fill="#8D5441" d="M402.4 441.5l-48.2 48.2c-62.9-62.9-167.7-62.9-230.6 0s-62.9 167.7 0 230.6c62.9 65 167.7 65 230.6 0 65-65 111.1-215.9 48.2-278.8z"/><path fill="#E29298" d="M337.5 504.4c-54.5-54.5-142.5-54.5-197 0s-54.5 142.5 0 197 142.5 54.5 197 0c54.5-52.4 54.5-142.5 0-197z"/><path fill="#C64D44" d="M324.9 517l-174 174c48.2 48.2 125.8 48.2 174 0s48.2-125.8 0-174z"/><path fill="#D5584E" d="M150.9 691c-48.2-48.2-48.2-125.8 0-174s125.8-48.2 174 0l-174 174z"/><circle fill="#E29298" cx="239" cy="607.1" r="50.3"/><circle fill="#fff" cx="239" cy="607.1" r="31.4"/></svg>