<svg xmlns="http://www.w3.org/2000/svg" viewBox="0 0 28.4 28.4" enable-background="new 0 0 28.4 28.4"><path fill="#323A47" d="M28.4 25.7c0 1.5-1.2 2.7-2.7 2.7h-23c-1.5 0-2.7-1.2-2.7-2.7v-23C0 1.2 1.2 0 2.7 0h23c1.5 0 2.7 1.2 2.7 2.7v23"/><path fill="#292E38" d="M22.3 5.4L10.7 19.5l-3.7 3 6 6h12.7c1.5 0 2.7-1.2 2.7-2.7V11.5l-6.1-6.1"/><path fill="#A56746" d="M22.3 6.9H11.1v16.4l11.2.4z"/><path fill="#8B5640" d="M16.7 20.8h5.6v2.5h-5.6z"/><path fill="#D88245" d="M16.7 17.7h5.6v2.5h-5.6zM16.7 14.6h5.6v2.5h-5.6zM16.7 11.5h5.6V14h-5.6zM16.7 8.4h5.6v2.5h-5.6zM16.7 5.4h5.6v2.5h-5.6z"/><path fill="#A56746" d="M15.4 15l1.3 2.1v4.8l-5.6 2z"/><circle fill="#528B5B" cx="12.2" cy="17" r="1.3"/><path fill="#F2C244" d="M11.1 23.3h2.2l3.4-2.5h-5.6zM11.1 17.7h5.6v2.5h-5.6zM11.1 14.6h5.6v2.5h-5.6zM11.1 11.5h5.6V14h-5.6zM11.1 8.4h5.6v2.5h-5.6zM11.1 5.4h5.6v2.5h-5.6z"/><path fill="#8B5640" d="M22.3 20.2v-.6L16.7 14v6.2z"/><path fill="#563A2E" d="M16.7 20.2h5.6v.6h-5.6zM16.7 17.7h3.7l-.5-.6h-3.2zM11.9 23.9h10.4v-.6H11.9z"/><circle fill="#F2C244" cx="11.1" cy="17.6" r="6.3"/><circle fill="#D88245" cx="11.1" cy="17.6" r="4.3"/><path fill="#A56746" d="M15.4 17.6c0-.2 0-.4-.1-.6L13 14.6l-2.4 1.2-.6 2.4 2.3 2.3-1.7-.7-1.8.1 2 2h.4c2.3 0 4.2-1.9 4.2-4.3z"/><path fill="#F2C244" d="M9.5 18.9c.4.3.8.6 1.2.6.6 0 .9-.2.9-.8 0-.5-.3-.8-.8-.8-.3 0-.5.1-.8.3l-.7-.5.2-3.1H13V16h-2.2l-.1.9c.2-.1.4-.1.6-.1 1 0 1.9.6 1.9 1.9 0 1.4-1.1 2.1-2.3 2.1-1 0-1.7-.4-2.2-.9l.8-1z"/></svg>