<svg xmlns="http://www.w3.org/2000/svg" viewBox="0 247.7 595.3 593.2" enable-background="new 0 247.7 595.3 593.2"><path fill="#323A47" d="M593.2 784.4c0 31.3-25.1 56.4-56.4 56.4H56.4C25.1 840.8 0 815.7 0 784.4V304.1c0-31.3 25.1-56.4 56.4-56.4h480.4c31.3 0 56.4 25.1 56.4 56.4v480.3"/><path fill="#292E38" d="M467.8 418.9c62.7 81.4 54.3 200.5-18.8 273.6-41.8 41.8-96.1 62.7-148.3 62.7-48 0-96.1-16.7-135.7-50.1l135.7 135.7h238.2c31.3 0 56.4-25.1 56.4-56.4V546.3L467.8 418.9"/><path fill="#4C4C54" d="M447 395.9c-81.4-81.4-215.1-81.4-298.6 0C67 477.3 67 611 148.4 694.5c81.4 81.4 215.1 81.4 298.6 0 83.5-83.4 83.5-217.1 0-298.6"/><path fill="#909095" d="M495 544.2c0 108.6-87.7 196.3-196.3 196.3s-196.3-87.7-196.3-196.3 87.7-196.3 196.3-196.3c108.5 0 196.3 87.8 196.3 196.3"/><path fill="#808088" d="M298.6 333.2c-54.3 0-108.6 20.9-148.3 60.6C69 475.2 69 609 150.4 692.5c41.8 41.8 96.1 60.6 148.3 60.6V333.2"/><path fill="#BDBDC4" d="M298.6 347.9c-108.6 0-196.3 87.7-196.3 196.3S190 740.5 298.6 740.5V347.9"/><path fill="#E6E6E6" d="M302.8 387.6c-89.8 0-162.9 71-162.9 156.6 0 87.7 73.1 156.6 162.9 156.6V387.6"/><path fill="#B3B3B3" d="M298.6 702.9c87.7 0 156.6-71 156.6-156.6 0-87.7-71-156.6-156.6-156.6v313.2"/><path fill="#20242A" d="M449.1 692.6c-2.1 0-2.1 2.1 0 0-2.1 2.1-2.1 0 0 0"/><path fill="#3E3B40" d="M492.9 571.4c-12.6 87.7-81.4 156.6-169.2 167.1l12.6 12.6c41.8-8.4 79.4-27.1 110.7-58.5 31.3-31.3 50.1-69 58.5-108.6l-12.6-12.6"/><path fill="#757172" d="M455.3 535.9v10.5c0 85.6-69 154.5-152.5 156.6h-4.2v12.6l25.1 25.1c87.7-10.5 156.6-79.4 169.2-167.1l-37.6-37.7"/><path fill="#9A9496" d="M286.2 700.8l12.6 12.6v-12.6c-4.3 2.1-8.4 0-12.6 0"/><path fill="#BBB3AF" d="M302.8 702.9h-2.1 2.1m-4.2-156.6L192.1 609l94 94h12.6l-.1-156.7"/><path fill="#928C88" d="M405.2 483.7l-106.5 62.6v156.6h4.2c85.6-2.1 152.5-71 152.5-156.6v-10.5l-50.2-52.1"/><path fill="#F3C444" d="M405.2 606.9l-106.6 62.6-106.5-62.6V483.7l106.5-60.6 106.6 60.6z"/><path fill="#C45845" d="M334.2 483.7l37.6 62.6-37.6 62.7h-71l-37.6-62.7 37.6-62.6z"/><path fill="#DD8044" d="M263.2 609l-37.6-62.7 37.6-62.6h35.4V609zM275.7 569.3h46l-8.4-54.3H282z"/><path fill="#F3C444" d="M275.7 569.3h22.9V515H282z"/><path fill="#674C34" d="M282 515l-2.1 18.8-35.6-18.8z"/><path fill="#3A2A22" d="M313.3 515l4.2 18.8 35.4-18.8zM309.1 588.1h-20.8l-12.6-18.8h46z"/><circle fill="#4D4D4D" cx="298.6" cy="721.8" r="8.4"/><circle fill="#4D4D4D" cx="424" cy="669.5" r="8.4"/><circle fill="#4D4D4D" cx="474.1" cy="544.2" r="8.4"/><circle fill="#4D4D4D" cx="424" cy="418.9" r="8.4"/><circle fill="#4D4D4D" cx="361.3" cy="709.2" r="8.4"/><circle fill="#4D4D4D" cx="459.5" cy="617.3" r="8.4"/><circle fill="#4D4D4D" cx="463.6" cy="481.6" r="8.4"/><circle fill="#4D4D4D" cx="371.8" cy="383.4" r="8.4"/><circle fill="#fff" cx="204.7" cy="450.2" r="14.6"/><circle fill="#7F7F8D" cx="298.6" cy="368.8" r="8.4"/><circle fill="#7F7F8D" cx="173.4" cy="421" r="8.4"/><circle fill="#7F7F8D" cx="123.3" cy="544.2" r="8.4"/><circle fill="#7F7F8D" cx="173.4" cy="669.5" r="8.4"/><circle fill="#7F7F8D" cx="236.1" cy="379.3" r="8.4"/><circle fill="#7F7F8D" cx="137.8" cy="473.2" r="8.4"/><circle fill="#7F7F8D" cx="133.6" cy="606.9" r="8.4"/><path fill="#7F7F8D" d="M229.8 696.8c-4.2-2.1-10.5 0-12.6 4.2-2.1 4.2 0 10.5 4.2 12.6s10.5 0 12.6-4.2c2.1-4.4 0-10.6-4.2-12.6z"/></svg>