<svg xmlns="http://www.w3.org/2000/svg" viewBox="0 245.6 595.3 597.4" enable-background="new 0 245.6 595.3 597.4"><path fill="#181C20" d="M56.6 840.8C25.2 840.8 0 815.6 0 784.2v-482c0-31.4 25.2-56.6 56.6-56.6h482.1c31.4 0 56.6 25.2 56.6 56.6v482.1c0 31.4-25.2 56.6-56.6 56.6H56.6"/><path fill="#323A47" d="M595.3 784.2c0 31.4-25.2 56.6-56.6 56.6H56.6C25.2 840.8 0 815.6 0 784.2v-482c0-31.4 25.2-56.6 56.6-56.6h482.1c31.4 0 56.6 25.2 56.6 56.6v482"/><path fill="#292E38" d="M402.4 432.1L232.7 692l150.9 150.9h155.1c31.4 0 56.6-25.2 56.6-56.6V627L402.4 432.1"/><path fill="#ccc" d="M234.8 618.6V692c21 14.7 44 23.1 71.3 23.1V386c-71.3 0-127.9 56.6-127.9 127.9 0 43.9 23 81.6 56.6 104.7z"/><path fill="#989999" d="M377.3 618.6V692c-21 14.7-44 23.1-71.3 23.1V386c69.2 0 127.9 56.6 127.9 127.9 0 43.9-23.1 81.6-56.6 104.7z"/><circle fill="#4D4D4D" cx="251.5" cy="530.6" r="21"/><circle fill="#4D4D4D" cx="366.8" cy="530.6" r="21"/></svg>