<svg xmlns="http://www.w3.org/2000/svg" viewBox="0 246.1 595.3 596.5" enable-background="new 0 246.1 595.3 596.5"><path fill="#181C20" d="M56.6 841.2C25 841.2 0 816.2 0 784.6v-482C0 271 25 246 56.6 246h482c31.6 0 56.6 25 56.6 56.6v482c0 31.6-25 56.6-56.6 56.6h-482"/><path fill="#323A47" d="M595.3 784.6c0 31.6-25 56.6-56.6 56.6h-482C25 841.2 0 816.2 0 784.6v-482C0 271 25 246 56.6 246h482c31.6 0 56.6 25 56.6 56.6l.1 482"/><path fill="#292E38" d="M536 375.1L437.2 408 273.9 579.1 108 767.4l75.1 75.1h355.6c31.6 0 56.6-25 56.6-56.6V434.2L536 375.1"/><path fill="#884D3F" d="M408.3 413.2l44.7 43.4-345 310.8-14.5-14.5z"/><path fill="#C08149" d="M416.2 430.3l-26.4-36.8L79 737.1l14.5 15.8z"/><path fill="#7FC4D4" d="M503.1 343.5l-31.6-33-51.4 15.8 50.1 50.1z"/><path fill="#40AFE8" d="M470.2 376.4l-50.1-50.1-14.5 51.4 31.6 31.5z"/><path fill="#5975B7" d="M503.1 343.5l32.9 31.6-15.8 51.2-50-49.9z"/><path fill="#40AFE8" d="M470.2 376.4l50 49.9-51.4 14.5-31.6-31.6z"/><path fill="#5975B7" d="M446.5 419.7L426.7 400l25-43.4 36.9 38.2z"/><path fill="#40AFE8" d="M493.9 332.9l19.7 19.8-25 42.1-36.9-38.2z"/><circle fill="#fff" cx="451.7" cy="356.6" r="11.9"/><path fill="#884D3F" d="M237.1 626.5v-63.2l-29 21.1-30.3 38.2v6.5l-23.7 26.4v36.9l14.5-5.3 9.2-10.5zM388.5 393.5v88.1l50.1-28.9 1.3-7.9z"/><path fill="#8BBE5C" d="M404.3 463.2c0-5.3-2.6-9.2-6.6-13.2-7.9-7.9-21.1-7.9-30.3 0-5.3 5.3-6.6 13.2-5.3 19.8 9.2 44.8-2.6 67.2-29 93.5l-55.3 51.4s39.5 18.4 86.9-29c55.4-55.3 39.6-122.5 39.6-122.5zM188.3 660.8c-18.4-59.3 38.2-88.2 48.7-97.5 10.5-10.5 19.8-22.4 19.8-22.4s-50-1.3-80.3 25l-2.6 1.3-1.3 1.3c-30.3 30.3-17.1 80.3-4 104 14.5 23.7 2.6 38.2-4 42.1-10.5 6.6-1.3 19.8 13.2 11.9 17.1-7.8 22.4-27.6 10.5-65.7z"/><path fill="#678D57" d="M404.3 463.2v-2.6l-21.1 5.3v11.9s10.5 59.3-35.6 100.1c-19.8 17.1-36.9 19.8-50 18.4l-19.8 18.4s43.5 21.1 90.9-26.3c55.4-55.4 35.6-125.2 35.6-125.2zM193.6 660.8c-9.2-38.2-1.3-50 9.2-60.6 5.3-5.3 21.1-23.7 34.2-38.2-23.7 0-60.6 15.8-64.5 57.9-2.6 42.1 34.2 93.5-13.2 104 1.3 5.3 7.9 7.9 17.1 2.6 18.5-7.8 27.7-27.6 17.2-65.7z"/><path fill="#fff" d="M391.1 473.7c-4 4-11.9 4-15.8 0-4-4-4-11.9 0-15.8s11.9-4 15.8 0c3.9 4 4 11.9 0 15.8z"/><path fill="#93A899" d="M405.785 377.88l32.615 32.578-16.748 16.767-32.616-32.578z"/><path fill="#708A81" d="M436.058 408.15l32.588 32.608-16.763 16.753-32.588-32.605z"/></svg>