<svg xmlns="http://www.w3.org/2000/svg" viewBox="0 245.6 595.3 597.4" enable-background="new 0 245.6 595.3 597.4"><path fill="#181C20" d="M56.6 840.8C25.2 840.8 0 815.6 0 784.2v-482c0-31.4 25.2-56.6 56.6-56.6h482.1c31.4 0 56.6 25.2 56.6 56.6v482.1c0 31.4-25.2 56.6-56.6 56.6H56.6"/><path fill="#323A47" d="M595.3 784.2c0 31.4-25.2 56.6-56.6 56.6H56.6C25.2 840.8 0 815.6 0 784.2v-482c0-31.4 25.2-56.6 56.6-56.6h482.1c31.4 0 56.6 25.2 56.6 56.6v482"/><path fill="#292E38" d="M496.8 342L371 423.7 199.1 633.3 125.7 757l85.9 85.9h327c31.4 0 56.6-25.2 56.6-56.6V440.4L496.8 342"/><path fill="#93A899" d="M496.8 342L350 381.8 299.7 451c-2.1 8.4-6.3 16.8-14.7 18.9l-21 29.3 2.1 2.1-6.3 2.1-8.4 12.6v10.5l-6.3 2.1-39.8 56.6 27.2 27.2L417 450.9 496.8 342z"/><path fill="#708A81" d="M469.5 446.7l-4.2-6.3s4.2-2.1 6.3-2.1l2.1-6.3-6.3-12.6 12.6-12.6 4.2-12.6-6.3-6.3 8.4-6.3 10.5-41.9-92.3 94.5-174 174 27.2 27.2L459 488.6l10.5-41.9z"/><path fill="#93A899" d="M417.1 425.8L230.6 610.2l10.5 10.5 174-174c8.3-6.3 8.3-16.7 2-20.9z"/><path fill="#708A81" d="M417.1 425.8L230.6 610.2l-10.5-10.5 174-174c6.2-6.2 16.7-6.2 23 .1z"/><path fill="#fff" d="M301.8 450.9c-2.1 8.4-6.3 16.8-14.7 18.9l-21 29.3 2.1 2.1-6.3 2.1-8.4 12.6-2.1 10.5-6.3 2.1-39.8 56.6 10.5 10.5 142.5-192.8 117.4-37.7 23.1-23.1-146.7 39.8-50.3 69.1z"/><path fill="#56766B" d="M459 488.6l10.5-41.9-4.2-6.3s4.2-2.1 6.3-2.1l2.1-6.3-6.3-12.6 12.6-12.6 4.2-12.6-6.3-6.3 8.4-6.3 10.5-41.9-6.3 6.3-16.8 16.8-35.6 115.4-192.9 142.5 10.5 10.5h2.1L459 488.6z"/><path fill="#884D3F" d="M200.847 588.267l51.908 51.893L143.1 749.847l-51.91-51.894z"/><path fill="#C08149" d="M201.08 586.252l26.66 26.654-109.655 109.687-26.662-26.654z"/><path fill="#EBAF44" d="M291.4 656.3c-4.2-4.2-12.6-6.3-18.9-6.3l-81.7-81.7c0-6.3-2.1-12.6-6.3-18.9-8.4-8.4-25.2-8.4-33.5 0s-8.4 25.2 0 33.5c4.2 4.2 12.6 6.3 18.9 6.3l81.7 81.7c0 6.3 2.1 12.6 6.3 18.9 8.4 8.4 25.2 8.4 33.5 0 8.3-8.3 8.3-25.1 0-33.5z"/><circle fill="#C08149" cx="167.7" cy="566.2" r="12.6"/><circle fill="#C08149" cx="274.6" cy="673.1" r="12.6"/><path fill="#884D3F" d="M162.813 625.77l26.67 26.646-5.938 5.943-26.67-26.648zM136.767 650.8l26.643 26.673-5.943 5.936-26.643-26.673z"/><path fill="#623F34" d="M189.006 650.587l26.68 26.635-5.934 5.945-26.68-26.635zM162.88 678.464l26.65 26.67-5.942 5.937-26.65-26.668z"/><path fill="#93A899" d="M142.5 752.8l2.1 4.1 16.8-25.1-50.3-50.3L88 700.3l-4.2-4.1v16.7l42 44h18.8z"/><path fill="#F1F7EB" d="M134.1 706.6L109 679.4l-25.2 16.8 29.4 29.3z"/></svg>