<svg xmlns="http://www.w3.org/2000/svg" viewBox="0 0 28.4 28.5" enable-background="new 0 0 28.4 28.5"><path fill="#323A47" d="M28.4 25.7c0 1.5-1.2 2.7-2.7 2.7h-23c-1.5 0-2.7-1.2-2.7-2.7v-23C0 1.2 1.2 0 2.7 0h23c1.5 0 2.7 1.2 2.7 2.7v23"/><path fill="#292E38" d="M18.6 4.2l-5.5 2.7-2.7-.2-1.6.2-.3 3 2.9 6.7 1.7 6.5-3 1.2 4.2 4.2h11.4c1.5 0 2.7-1.2 2.7-2.7V14.1l-9.8-9.9"/><path fill="#D98545" d="M14.8 4.2h-4.6l1 1.5.1.7c-.3-.2-.7-.4-1.1-.4-.3 0-.5.1-.8.2-.7.3-1.3 1-1.3 1.9 0 .2 0 .4.1.5l.3 1.2.2 1.1c-.3.5-.4 1-.4 1.5v.2c0 3.9 1.2 7.5 3.3 10.5h-1.1l-.4.5v.5h4.8V4.2zm-4.2 5.2c-.4.1-.7.3-1.1.6l-.3-1.5v-.2c0-.7.5-1.3 1.1-1.3.6 0 1.1.5 1.2 1.1l.1 1.1c-.3 0-.6.1-1 .2z"/><path fill="#F3C444" d="M14.8 9.2h-3.2c-.3 0-.7.1-1 .1-.4.2-.7.4-1.1.7l-.1-.8h-1l.1.6.2 1.1c-.3.5-.4 1-.4 1.5v.2h6.5V9.2z"/><path fill="#844E3F" d="M11.4 6.4c-.4-.2-.8-.4-1.2-.4-.3 0-.5.1-.8.2-.7.3-1.3 1-1.3 1.9 0 .2 0 .4.1.5l.3 1.2.2 1.1.8-1-.3-1.4v-.2c0-.7.5-1.3 1.1-1.3.6 0 1.1.5 1.2 1.1l-.1-1.7z"/><circle fill="#fff" cx="10.6" cy="10.8" r=".7"/><path fill="#844E3F" d="M14.4 4.2h-4.1l1 1.5h3.5V4.2h-.3z"/><path fill="#B85A46" d="M11.6 19.2c-.9 0-1.7-.4-2.4-1 .6 1.8 1.4 3.5 2.4 5h-1.1l-.4.5v.5h4.8v-7.1c-.9 1.3-2 2.1-3.3 2.1z"/><path fill="#D98545" d="M11.6 23.1h-1.1l-.4.6v.5H14.8v-1.1z"/><path fill="#844E3F" d="M19.4 6.2c-.2-.1-.4-.2-.7-.2-.4 0-.9.1-1.2.4l.1-.7 1-1.5h-4v20H18.8v-.5l-.4-.5h-1.1c2.1-3 3.3-6.6 3.3-10.5v-.2c0-.6-.2-1.1-.4-1.5l.2-1.1.3-1.2c0-.2.1-.3.1-.5-.1-1-.6-1.7-1.4-2zm.3 2.3l-.3 1.5c-.3-.3-.7-.5-1.1-.6-.3-.1-.6-.1-1-.1l.1-1.1c0-.7.5-1.2 1.1-1.2.6 0 1.2.5 1.2 1.2v.3z"/><path fill="#B85A46" d="M14.6 12.6v4.7c.9-1.2 1.4-2.9 1.5-4.7h-1.5z"/><path fill="#D98545" d="M14.6 9.2v3.4H16v-.3c0-1.1-.2-2.2-.5-3.1h-.9z"/><path fill="#4C362A" d="M17.4 8.1c0-.6.5-1.1 1.1-1.1.6 0 1.2.5 1.2 1.2v.2l-.3 1.6.8 1 .2-1.1.3-1.2c0-.2.1-.3.1-.5 0-.8-.5-1.6-1.3-1.9-.3-.2-.5-.3-.8-.3-.4 0-.9.1-1.2.4l-.1 1.7zM19.2 19.4c-1.1 2.3-2.8 3.7-4.7 3.7h2.7c.9-1.1 1.5-2.3 2-3.7z"/></svg>