<svg xmlns="http://www.w3.org/2000/svg" width="100" height="100" viewBox="0 0 100 100"><path fill="#F15A29" d="M17.44 78.88l31.9 18.63 31.89-18.63V20.93l-31.89-3.28-31.9 3.28z"/><path fill="#151841" d="M50.12 100l-34-19.86V19.5l34-3.5 34 3.5v60.64l-34 19.86zM19.16 78.44l30.96 18.09 30.96-18.09V22.19L50.12 19l-30.96 3.19v56.25z"/><path fill="#A9A09F" stroke="#151841" stroke-miterlimit="10" d="M34.83 47.980000000000004"/><path fill="#A9A09F" d="M31.22 71.75a5.119 5.119 0 0 1-2.65-2.92c-.28.4-.51.84-.64 1.33l-3.3 12.55c-.58 2.21.74 4.47 2.95 5.05 2.21.58 4.47-.74 5.05-2.95l3.3-12.55c.06-.25.1-.49.12-.74-1.43.84-3.23.99-4.83.23zm3.24 20.49l-2.55-.15c-.69-1.16-.63-4.68-4.42-5.16-3.52-.45-4.31 3.52-5.13 4.59l-2.85-.17-1.39 4.7s1.23 2.01 8.53 2.23c7.81.24 8.94-1.18 8.94-1.18l-1.13-4.86zM11.01 34.89l5.35-1.58"/><path fill="#757273" d="M78.78 39.79l-46.35.57 2.48 3.41-.53.03s-3.73 2.56-3.32 4.81l1.43 7.18c1.9-3.6 4.43-8.4 5.14-9.75l11.25 1.94 13.98-1.16-.48.88H58.4l-1.9 16.36c-.17 1.3.29 3.29 1.15 4.79-.78.59-1.37 1.45-1.57 2.48l-2.51 12.73c-.24 1.22.06 2.73.74 3.92-1.17 1.25-1.68 3.21-2.2 3.88l-2.77.21.79 4.44s11.13-5.62 10.85-6.41c-.22-.63-.53-1.28-1.02-1.84.86-.59 1.51-1.5 1.72-2.61l2.51-12.73c.25-1.27-.13-2.51-.9-3.44.78-1.25 1.23-3.06 1.4-4.35l2.11-18.09c.03-.19.04-.39.03-.58l6.11-.51 5.84-6.16zM33.41 60.36s2.01 1.41 4.16 2.74c.2-.06.4-.14.61-.18 1.66-.3 3.28.24 4.43 1.31l-.57-2.87c-1.46-.16-5.67-.64-8.63-1z"/><path fill="#A9A09F" d="M60.97 61.79a5.153 5.153 0 0 0-5.79 4.44c-.37 2.83 1.61 5.42 4.44 5.79s5.42-1.61 5.79-4.44c.37-2.82-1.62-5.42-4.44-5.79zm2.3 5.51c-.22 1.65-1.73 2.8-3.37 2.58s-2.8-1.73-2.58-3.37c.22-1.65 1.73-2.8 3.37-2.58 1.64.21 2.8 1.72 2.58 3.37z"/><path fill="#151841" d="M60.75 63.43c-1.94-.26-3.68 1.13-3.93 3.01-.12.93.12 1.85.69 2.59a3.472 3.472 0 0 0 2.78 1.37c1.75 0 3.24-1.31 3.47-3.04.12-.93-.12-1.85-.69-2.59s-1.39-1.22-2.32-1.34zm2.02 3.8c-.18 1.35-1.43 2.34-2.81 2.15-.66-.09-1.25-.43-1.66-.96a2.46 2.46 0 0 1-.49-1.85 2.51 2.51 0 0 1 2.48-2.18l.33.02c.66.09 1.25.43 1.66.96.4.54.58 1.2.49 1.86zm2.01-3.77a5.63 5.63 0 0 0-3.75-2.17c-3.13-.42-5.95 1.82-6.35 4.87-.21 1.57.26 3.08 1.17 4.24-.11.27-.2.55-.26.84l-2.51 12.73c-.24 1.21-.01 2.69.62 3.95-.65.8-1.09 1.78-1.43 2.56-.16.35-.3.68-.44.91l-.3.45s.82.47.9.4c.72.35 3.42 1.21 5.18 1.4-.2.14-.81.8-.81.8l3.94-3.27c.85-.8.77-1.04.71-1.21-.18-.51-.42-1.08-.8-1.62.76-.65 1.32-1.53 1.53-2.57l2.51-12.73c.16-.83.07-1.64-.18-2.38.73-.82 1.25-1.85 1.4-3 .19-1.51-.21-3-1.13-4.2zM57.6 92.37c-2.13.01-3.81-.6-4.65-.99l.22-.49c.71-1.58 1.69-3.77 4-3.47 2.04.26 2.81 1.48 3.26 2.69-.28.37-1.34 1.2-2.83 2.26zm6.1-19.53l-2.51 12.73c-.16.82-.61 1.51-1.21 2.03-.62-.57-1.46-1.02-2.67-1.17-1.21-.15-2.12.18-2.84.74-.42-.99-.58-2.1-.4-2.99l2.51-12.73.06-.22a5.624 5.624 0 0 0 3.66 1.35c1.27 0 2.44-.44 3.4-1.17.09.45.1.94 0 1.43zm1.21-5.33c-.11.8-.43 1.51-.88 2.13 0 0-.33.48-.71.77-.97.83-2.26 1.29-3.64 1.11a4.72 4.72 0 0 1-2.63-1.29s-.52-.31-.65-.8a4.6 4.6 0 0 1-.73-3.14c.31-2.31 2.29-4.05 4.61-4.05a4.636 4.636 0 0 1 3.71 1.83c.76.99 1.08 2.21.92 3.44z"/><path fill="#757273" d="M51.89 92.24l-2.55-.15c-.55-.91-.63-3.29-2.5-4.5.52-.91.71-2.01.43-3.1l-3.24-12.56a4.084 4.084 0 0 0-2.19-2.66c.25-.54.35-1.17.23-1.8-.3-1.63-1.86-2.71-3.5-2.41s-2.71 1.86-2.41 3.5c.14.78.58 1.44 1.18 1.87-.33.39-.72.73-1.14 1-.32.79-.41 1.68-.18 2.57l3.24 12.56c.28 1.08.96 1.94 1.83 2.48-.36.6-.63 1.21-.88 1.71l9.91 5.79 2.42-1.42-.65-2.88z"/><path fill="#A9A09F" d="M44.59 43.44a5.444 5.444 0 0 0-7.25 2.61l-4.91 10.78 1.1.57-2.25 4.95-.19.17c-.99.5-1.83 1.29-2.34 2.37a5.167 5.167 0 0 0 2.47 6.87c2.58 1.21 5.65.11 6.87-2.47.44-.94.57-1.95.44-2.91l2.35-5.17 1.24.64 5.08-11.16a5.45 5.45 0 0 0-2.61-7.25z"/><circle cx="41.5" cy="49.77" r="2.92" fill="#A9A09F"/><path fill="#151841" d="M41.5 53.19c-1.88 0-3.42-1.53-3.42-3.42s1.53-3.42 3.42-3.42c1.88 0 3.42 1.53 3.42 3.42s-1.54 3.42-3.42 3.42zm0-5.84c-1.33 0-2.42 1.08-2.42 2.42s1.08 2.42 2.42 2.42 2.42-1.08 2.42-2.42-1.09-2.42-2.42-2.42zm-8.08 23.24c-.52 0-1.02-.11-1.49-.34a3.44 3.44 0 0 1-1.8-1.98c-.32-.88-.27-1.83.13-2.68a3.526 3.526 0 0 1 3.17-2.01c.52 0 1.02.11 1.49.34.85.4 1.49 1.1 1.8 1.98.32.88.27 1.83-.13 2.68a3.526 3.526 0 0 1-3.17 2.01zm0-6.01c-.97 0-1.86.56-2.27 1.44-.29.61-.32 1.29-.09 1.92.23.63.68 1.13 1.29 1.42 1.22.57 2.76.01 3.33-1.2.29-.61.32-1.29.09-1.92-.23-.63-.68-1.13-1.29-1.42-.33-.16-.69-.24-1.06-.24zM57.96 47.22L56 64l-.02.5c.24-.35.8-1.1.8-1.1l.53-.55 1.67-15.71-1.02.08zm8.36-.7c0 .16 0 .32-.02.48l-1.99 17.04.89.98 2.09-17.9c.03-.23.03-.46.02-.68l-.99.08z"/><path fill="#A9A09F" d="M78.06 67.18c.45-.76.72-1.64.72-2.59 0-1.51-.66-2.85-1.69-3.79l-.53-3.87.81-.09-1.82-10.91a4.914 4.914 0 0 0-5.6-4.11 4.914 4.914 0 0 0-4.11 5.6l1.76 10.54.85-.1.6 4.36v.03c-.36.71-.59 1.5-.59 2.34 0 1.68.82 3.16 2.06 4.1-.11.65-.09 1.33.14 1.99l3.86 11.59 6.57-3.84v-2.14l-2.59-8.23c-.11-.31-.27-.6-.44-.88z"/><path fill="#151841" d="M73.62 68.1c1.93 0 3.5-1.57 3.5-3.5s-1.57-3.5-3.5-3.5-3.5 1.57-3.5 3.5 1.57 3.5 3.5 3.5zm0-6.01a2.5 2.5 0 0 1 0 5 2.5 2.5 0 0 1 0-5zm-2.8-10.85a3.14 3.14 0 0 0 3.07-2.54c.16-.82-.01-1.66-.48-2.35a3.12 3.12 0 0 0-2.6-1.38c-.62 0-1.23.18-1.75.53-1.43.96-1.81 2.91-.85 4.35.6.88 1.57 1.39 2.61 1.39zm-1.19-4.9c.35-.24.76-.36 1.19-.36.71 0 1.37.35 1.77.94.32.47.43 1.04.33 1.6a2.13 2.13 0 0 1-.9 1.36c-.95.64-2.33.36-2.96-.58-.67-.97-.41-2.3.57-2.96zm12.74 30.98l-3.39-9.41c-.09-.26-.2-.5-.33-.73.4-.78.64-1.66.64-2.6 0-1.59-.66-3.03-1.72-4.06l-.44-3.17.83-.1-1.91-11.42c-.44-2.89-3.2-4.99-6.17-4.53-2.95.45-4.98 3.22-4.53 6.18l1.84 11.01.84-.1.51 3.71a5.644 5.644 0 0 0 1.44 6.79c-.07.63-.01 1.29.2 1.93l4.1 12.31c.18.53.63.84 1.25.84 1.71 0 4.74-2.29 6.1-4.19.71-.96.96-1.79.74-2.46zM66.33 47.34a4.421 4.421 0 0 1 3.69-5.03c.23-.03.45-.05.68-.05 2.16 0 4.03 1.61 4.36 3.75L76.8 56.4l-8.78 1.01-1.69-10.07zm2.68 10.96l7.12-.82.31 2.21a5.637 5.637 0 0 0-7.08 1.18l-.35-2.57zm-.05 6.29c0-2.57 2.09-4.66 4.66-4.66s4.66 2.09 4.66 4.66-2.09 4.66-4.66 4.66-4.66-2.09-4.66-4.66zm11.86 14.63c-1.3 1.8-4.07 3.77-5.29 3.77-.25 0-.28-.08-.3-.15l-4.1-12.31c-.1-.31-.15-.63-.17-.94.79.42 1.7.67 2.66.67 1.76 0 3.34-.81 4.38-2.08l.03.07 3.39 9.41c.11.31-.12.89-.6 1.56z"/><path fill="#A9A09F" d="M40.08 62.95L39.15 65c1.41.02 2.66 1.02 2.92 2.46.3 1.63-.78 3.2-2.41 3.5-.85.16-1.68-.07-2.32-.54-.49.57-1.09 1.02-1.75 1.33a5.15 5.15 0 0 0 4.46 1.34c2.8-.51 4.66-3.2 4.15-6.01a5.181 5.181 0 0 0-4.12-4.13z"/><path fill="#151841" d="M32.22 91.6c-.09-.21-.17-.49-.26-.8-.25-.82-.58-1.93-1.37-2.84a4.622 4.622 0 0 0 2.52-3.01l2.64-10.03 3.04 11.76c.26 1.02.88 1.87 1.67 2.48-.2.36-.37.72-.52 1.05-.12.25-.23.49-.34.69l3.26 2.25c.7.14 1.48.24 2.34.24 1.28 0 2.71-.22 4.22-.8l2.08.13.82 3.59.92-.47-.85-3.7a.511.511 0 0 0-.46-.39l-2.26-.14c-.09-.21-.17-.49-.26-.8-.3-.99-.73-2.41-1.93-3.38.44-.96.55-2.02.29-3.06L44.5 71.8c-.1-.39-.27-.74-.46-1.07.63-1.14.88-2.45.64-3.75a5.61 5.61 0 0 0-1.61-3.01l-.42-2.09 5-10.98c.68-1.44.75-3.05.22-4.55a5.901 5.901 0 0 0-3.06-3.37c-.8-.38-1.65-.57-2.53-.57-1.64 0-3.18.69-4.29 1.84l-.62.76c-.18.26-.34.53-.48.82l-4.08 8.96-1.25-6.27c-.28-1.53 2.01-3.52 3.02-4.25.22-.03.44-.04.65-.03l-.78-.95-.16.01c-.07.01-.14.04-.19.08-.41.28-3.99 2.82-3.53 5.32l1.52 7.64-.32.7.51.26.22 1.11-1.65 3.63c-1.1.56-2.02 1.47-2.56 2.62a5.627 5.627 0 0 0-.28 4.08c-.25.39-.45.82-.58 1.29l-3.3 12.55c-.41 1.54.04 3.1 1.02 4.21-1.41.73-2.14 2.28-2.67 3.4-.14.29-.27.57-.39.78l-2.96-.18-1.57 5.3.12.19c.14.23 1.58 2.24 8.94 2.47.62.02 1.19.03 1.73.03 6.19 0 7.43-1.16 7.61-1.39l.15-.19-1.25-5.46-2.64-.14zm16.21-.51l.22.7c-3.8 1.3-7.03.07-8.17-.48.11-.2.22-.43.33-.68.7-1.47 1.66-3.52 4.03-3.22 2.59.34 3.14 2.19 3.59 3.68zm-1.65-6.48c.2.77.13 1.55-.17 2.28-.46-.22-1-.38-1.63-.46-1.99-.25-3.2.73-4.01 1.89a3.505 3.505 0 0 1-1.22-1.88L36.5 73.87a3.5 3.5 0 0 1-.1-.9c.81.45 1.73.7 2.7.7.34 0 .69-.03 1.03-.09a5.6 5.6 0 0 0 3.27-1.91l.14.39 3.24 12.55zm-3.09-17.44c.22 1.22-.04 2.46-.75 3.49s-1.77 1.71-3 1.94a4.8 4.8 0 0 1-.85.08c-.96 0-1.85-.31-2.6-.82v-.02c.33-.22.63-.48.91-.76.5.28 1.08.45 1.69.45a3.513 3.513 0 0 0 3.45-4.14 3.502 3.502 0 0 0-2.68-2.77l.49-1.07a4.58 4.58 0 0 1 3.34 3.62zm-4.66-.71l.42-.93c1.06.15 1.92.95 2.12 2.02.25 1.36-.65 2.67-2.01 2.92-.53.1-1.04.02-1.48-.19.17-.25.33-.51.46-.78.46-.99.61-2.04.49-3.04zm1.75-3.84l.33-.73.58.3.18.89c-.34-.2-.71-.34-1.09-.46zm-2.99-16.37a4.96 4.96 0 0 1 4.48-2.84c.73 0 1.44.16 2.1.47 1.2.56 2.1 1.56 2.55 2.8.45 1.24.38 2.59-.18 3.79l-4.86 10.68-8.79-4.56 4.7-10.34zm-4.02 11.83l6.46 3.35-1.59 3.49a5.609 5.609 0 0 0-2.81-2.95c-.76-.36-1.57-.54-2.41-.54-.43 0-.84.06-1.25.15l1.6-3.5zM29.2 65.1a4.69 4.69 0 0 1 4.22-2.67c.69 0 1.36.15 1.98.45a4.675 4.675 0 0 1 2.23 6.2 4.69 4.69 0 0 1-4.22 2.67 4.675 4.675 0 0 1-4.21-6.65zm-4.09 17.74l3.3-12.55.12-.36c.56.96 1.4 1.76 2.47 2.27.76.36 1.57.54 2.41.54.68 0 1.34-.14 1.96-.37l-3.24 12.31a3.623 3.623 0 0 1-2.4 2.52c-.56-.38-1.27-.67-2.18-.78-.49-.06-.93-.04-1.33.03-.99-.88-1.47-2.25-1.11-3.61zm-1.72 7.8c.7-1.47 1.66-3.52 4.03-3.22 2.58.33 3.13 2.18 3.58 3.67l.22.7c-3.8 1.3-7.03.07-8.17-.48l.34-.67zm3.26 7.13c-5.66-.17-7.52-1.44-7.98-1.86l1.2-4.06 2.33.15c.48.28 2.6 1.39 5.55 1.39 1.28 0 2.71-.22 4.22-.8l2.08.13.96 4.17c-.57.3-2.59 1.06-8.36.88z"/><path fill="#A9A09F" d="M80.96 22.19l-.05-.39-15.18-9.42-.48-3-27.57 3 .41 29.65h8.53l4.98 5.66h10.79l3.89-7.19 3.57-.25 11.12-.57zm-60.26.38l.41 4.28.03.19-9.02 1.24-4.87 3.27-.08.61-2.72 2.55.04 2.59 1.99.03-.32 2.34 2.19 1.66 14.73-1.76.15.93L38 40.25l-.32-23.84z"/><path fill="#151841" d="M16.51 37.12c-2.1 0-3.8-1.71-3.8-3.8 0-2.1 1.71-3.8 3.8-3.8 2.1 0 3.8 1.71 3.8 3.8.01 2.09-1.7 3.8-3.8 3.8zm0-6.61c-1.55 0-2.8 1.26-2.8 2.8 0 1.55 1.26 2.8 2.8 2.8s2.8-1.26 2.8-2.8c.01-1.54-1.25-2.8-2.8-2.8zm-5.5 4.88c-.22 0-.42-.14-.48-.36-.08-.27.07-.54.34-.62l5.35-1.57c.26-.08.54.07.62.34.08.27-.07.54-.34.62l-5.35 1.57-.14.02zm58.92-17.97a.496.496 0 0 0-.57-.41.49.49 0 0 0-.41.57l.82 4.99c.04.24.25.42.49.42l.08-.01c.27-.04.46-.3.41-.57l-.82-4.99zm-19.34 3.06l-1.09-5.85-8.86.79.38 5.92 9.57-.86zm-1.9-4.77l.72 3.87-7.45.67-.26-3.92 6.99-.62zm-24.76 9.52l.6 4.51 5.36-.87-.51-5.22-5.45 1.58zm1.46 3.36l-.35-2.64 3.47-1 .3 3.09-3.42.55zm.05 3.47a.49.49 0 0 0-.41.57l.82 4.99c.04.24.25.42.49.42l.08-.01c.27-.04.46-.3.41-.57l-.82-4.99a.49.49 0 0 0-.57-.41zm2.32-.3a.49.49 0 0 0-.41.57l.82 4.99c.04.24.25.42.49.42l.08-.01c.27-.04.46-.3.41-.57l-.82-4.99a.49.49 0 0 0-.57-.41zm43.32-3.6a.49.49 0 0 0-.41.57l.82 4.99c.04.24.25.42.49.42l.08-.01c.27-.04.46-.3.41-.57l-.82-4.99a.498.498 0 0 0-.57-.41zm10.38-6.04l-.08-.62-15.19-9.42-.52-3.25-28.5 3.11.06 4.11-17.06 6.19.42 4.38-8.64 1.19-5.15 3.46-.1.65-2.75 2.58.05 3.29 1.9.03-.28 2.07 2.58 1.96 14.46-1.73.14.89 9.37-.16 3.84 5.28c.08.1.19.18.32.2l.81.14.19-.42c.08-.18.18-.35.28-.51l-.91-.16-3.31-4.55 4.17-.07.02 1.78h8.8l4.23 4.8-1.72.14-1.31-.23c.07.34.11.68.12 1.03l1.09.19.08.01h.04l3.42-.29h10.34l.49-.9 2.64-.22c-.03-.34-.02-.68.02-1l-2.09.17 2.85-5.26 3.28-.23 7.69-.4-3.05 3.25c.22.27.4.56.56.87l3.95-4.19 2.46-.13-.01-18.03zM4.99 36.8l-.03-1.88 1.54-1.44L6.15 36l-.11.82-1.05-.02zm3.5 4.01L6.7 39.45l.22-1.61.35-2.63.45-3.37 4.59-3.08 8.41-1.16 1.79 11.53-14.02 1.68zm15.17-.82L21.61 26.8l-.37-3.9 16.01-5.81.32 22.66-13.91.24zm28.56 7.2h-.39l-4.29-4.87 7.45-.53-2.77 5.4zm1.17-.09l2.76-5.38 2.06-.14-2.75 5.36-2.07.16zm3.25-.27l2.67-5.2.04-.14 1.85-.13-2.73 5.32-1.83.15zm5.91-.49l-2.91.24 2.55-4.96c.05-.11.06-.22.04-.33l3.18-.22-2.86 5.27zm3.42-6.32L44.5 41.53h-5.92l-.4-28.71 26.65-2.9 4.43 29.8.01.07-3.3.23zm4.31-.29l-.33-2.25-3.57-24.11 14.07 8.73.02 17.1-10.19.53z"/><path fill="#151841" d="M64.05 23.77l-22.93 1.85.51 12.91 25.05-1.45-2.63-13.31zm-21.89 2.77l21.08-1.7 2.24 11.31-22.89 1.32-.43-10.93zm20.39 6.54l-.82-4.99a.48.48 0 0 0-.54-.42l-9.31.78c-.13.01-.26.08-.34.18-.09.1-.13.24-.11.37l.49 4.45.03.11-.02.11c.01.27.23.48.5.48h.03l9.62-.48.03-.01h.03l.06-.02.1-.04.07-.05.07-.07.05-.08.04-.09.01-.1.01-.07-.01-.03.01-.03zm-9.65.04l-.41-3.71 8.33-.7.66 3.98-8.58.43z"/><path fill="#757273" d="M52.9 33.12l-.42-3.71 8.34-.7.65 3.98z"/></svg>