<svg xmlns="http://www.w3.org/2000/svg" width="100" height="100" viewBox="0 0 100 100"><path fill="#D4D0CF" d="M18.11 79.07L50 97.7l31.89-18.63V21.11L50 17.83l-31.89 3.28z"/><path fill="#A9A09F" d="M50 19v78.7l32.59-18.45V21.36l-32.73-4.3z"/><path fill="#151841" d="M50 100L16 80.14V19.5L50 16l34 3.5v60.64L50 100zM19.04 78.44L50 96.53l30.96-18.09V22.19L50 19l-30.96 3.19v56.25z"/><path fill="none" d="M21.4 62.59h.3"/><path fill="#F15A29" d="M31.55 29.6h15.27v18.01H31.55V29.6z"/><path fill="#151841" d="M47.45 48.24H31V29.06h16.54v19.18h-.09zm-15.27-1.27h14.09V30.23H32.18v16.74z"/><ellipse cx="39.27" cy="35.92" fill="#151841" rx="3.82" ry="3.8"/><path fill="#151841" d="M46.36 47.41H32.09v-3.53c0-1.99 1.64-3.53 3.55-3.53h7.18c2 0 3.55 1.63 3.55 3.53l-.01 3.53zm7.46-17H69v3.53H53.82v-3.53zm0 7.05H69v3.53H53.82v-3.53zm0 7.15H69v3.53H53.82v-3.53zM31 55.19h37.72v3.53H31v-3.53zm0 8.32h37.72v3.53H31v-3.53zm0 8.86h37.72v3.53H31v-3.53z"/></svg>