<svg xmlns="http://www.w3.org/2000/svg" width="100" height="100" viewBox="0 0 100 100"><path fill="#A9A09F" d="M18.11 78.69L50 97.32l31.89-18.63V20.74L50 17.45l-31.89 3.29z"/><path fill="#fff" d="M56.45 45.03v-3.15c1.58 0 2.85-1.24 2.85-2.77v-1.34c0-.95.79-1.72 1.77-1.72v-16.7l-11.12-1.81-11.12 1.81v16.7c.98 0 1.77.76 1.77 1.72v1.34c0 1.53 1.28 2.77 2.85 2.77v3.15l-8.46 20.61s8.46 6.3 10.93 18.99l2.17 1.15h.49v-18.9c-1.48-.48-2.56-1.91-2.36-3.63.2-1.53 1.48-2.77 3.05-2.96h1.18c1.58.19 2.85 1.43 3.05 2.96.2 1.62-.79 3.05-2.36 3.63v18.89h.49l2.17-1.15c2.66-12.69 11.12-19.56 11.12-19.56l-8.47-20.03z"/><path fill="#BDBEC0" d="M38.83 19.36v16.7c.98 0 1.77.76 1.77 1.72v1.34c0 1.53 1.28 2.77 2.85 2.77v3.15l-8.46 20.61s8.46 6.3 10.93 18.99l2.17 1.15h.49V66.88c-1.48-.48-2.56-1.91-2.36-3.63.2-1.53 1.48-2.77 3.05-2.96h.69V17.55l-11.13 1.81z"/><path fill="#4751A2" d="M39.32 19.28c0 4.58.1 10.67 0 15.25 0 .57.39 1.34.98 1.62.59.29.59.86.69 1.43.1 1.05.1 2 .59 2.96 1.08 2.19 4.23 1.53 6.2 1.43 1.08 0 3.15.76 3.15-.38h6.5c.89-.48 1.57-1.43 1.57-2.48v-1.34c0-.95.79-1.72 1.77-1.72v-16.7s-10.62-2.13-10.83-2.06c-5.38 1.78-10.67 1.22-10.62 1.99z"/><path fill="#151841" d="M43.75 46.07h12.7c.89 0 .89-1.24 0-1.24h-12.7c-.79 0-.79 1.24 0 1.24z"/><path fill="#151841" d="M52.02 86.34zm5.12-41.51v-2.39c1.57-.29 2.85-1.72 2.85-3.34v-1.34c0-.31.13-.57.33-.76h.56c1.06-.04.98-1.14.98-1.14V18.79l-11.81-1.91-11.81 1.91v17.84c.09.21.38.38.69.38h.86c.2.21.32.49.32.76v1.34c0 1.62 1.18 3.05 2.85 3.34v2.39L34.6 65.35l-.2.48.39.29c.1.1 8.27 6.3 10.63 18.61l.1.29 2.56 1.34h1.28V66.4l-.39-.19c-1.28-.48-2.07-1.62-1.87-2.96.2-1.24 1.18-2.29 2.46-2.39h.99c1.28.19 2.26 1.15 2.46 2.39.2 1.34-.59 2.58-1.87 2.96l-.39.19v19.94h1.28l2.46-1.33.1-.29c2.46-12.31 10.63-19.08 10.73-19.18l.39-.29-8.57-20.42zM39.71 19.84l10.43-1.72 10.43 1.72v15.55c-.27.08-.53.21-.75.38H40.37c-.2-.12-.41-.22-.65-.29V19.84zm1.78 19.27v-1.34c0-.26-.04-.52-.13-.76h17.56c-.07.21-.11.44-.11.67v1.34c0 1.24-1.08 2.19-2.26 2.19h-.69v.01h-12.2a.316.316 0 0 0-.22.05c-1.13-.16-1.95-1.11-1.95-2.16zM53.4 84.15l-1.38.76V67.26c1.67-.76 2.56-2.39 2.36-4.1a4.14 4.14 0 0 0-3.64-3.44h-1.38c-1.87.19-3.44 1.62-3.64 3.44-.2 1.72.79 3.34 2.36 4.1v17.65l-1.38-.76c-2.36-11.16-9.06-17.37-10.73-18.61l8.27-20.32v-2.76h11.61v2.66l8.27 19.75c-1.67 1.43-8.46 8.02-10.72 19.28z"/><path fill="#151841" d="M50 100L16 80.14V19.5L50 16l34 3.5v60.64L50 100zM19.04 78.44L50 96.53l30.96-18.09V22.19L50 19l-30.96 3.19v56.25z"/></svg>