<svg xmlns="http://www.w3.org/2000/svg" width="100" height="100" viewBox="0 0 100 100"><path fill="#A9A09F" d="M18.11 78.69L50 97.32l31.89-18.63V20.74L50 17.45l-31.89 3.29zm49.11-62.01h.3m5.42 5.89"/><path fill="#D4D0CF" d="M50 98.22V17.45l-31.89 3.29-1.08 58.57z"/><path fill="#151841" d="M50 100L16 80.14V19.5L50 16l34 3.5v60.64L50 100zM19.04 78.44L50 96.53l30.96-18.09V22.19L50 19l-30.96 3.19v56.25z"/><path fill="#fff" d="M76.48 81.65c-1.17-1.6-3.17-2.43-4.65-3.68-.17-.2-.35-.31-.53-.42-.85-2.04-2.72-3.23-5-3.99a239.02 239.02 0 0 1-4.48-4.6c-.69-.71-1.38-1.34-1.98-2.04-.59-.8-.57-2.11-.96-2.98l.13-.46c.01-.09.02-.19.11-.18-.1.08-.19.08-.39.15.3-1.28.86-2.26.68-3.49.25-1.75.25-4.93.03-6.73-.56-4.35 1.71-10.88 2.23-11.48.62-.69-1.06-2.9-3.32-1.79-3.72 1.73-3.03 5.62-4.7 8.65-.34.62-.76 1.15-1.19 1.76-.3.16-.51.42-.72.68-.21.26-.34.62-.65.97-1.13.09-2.05-.18-3.07-.36 0 0-5.27-3.41-7.1-3.94-1.09-.38-2.93-.49-3.89-.2-.82-.26-1.65.6-2.19 1.4-.55.89-.91 1.79-1.18 2.79l-.09-.01c-.3.16-.59.32-.79.49-1.1.74-1.85 1.8-1.88 3.2-.08.93.22 1.79.51 2.75-.2.17-.41.34-.51.52-.76 1.15-.77 2.36-.3 3.43-.49.24-.81.68-1.05 1.22-1.01 2.9 2.2 4.87 4.46 5.9 1.26.58 2.46.87 3.68.88-.02.19-.03.37.05.47 3.49 4.14 11.65 5.23 11.74 5.24l.19.02c3.66 4.34 5.8 10.99 9.06 15.57.03.24 15.13-9.18 16.97-9.86 1.35-.33 1.36 1.01.78.12z"/><path fill="#818285" d="M47.44 52.65c-.44-.47-2.21-1.13-3.05-1.1-.62.02-.43.7-.43.7-.35-.26-1.21-.67-1.5-1.18-.3-.52-1.52-1.43-1.98-1.56-.92-.24-1.6-.72-1.4-.33.2.39 1.04.36 1.84.94 1.01.73 2.06 2.08 2.78 2.49 1.25.76-1.07 1.49-.04 2.61l-.71 1.62c-.37 1-.54 1.91-.82 2.92-.43 1.64-.86 3.38-1.66 4.99-.69 1.43-1.9 2.36-2.76 3.59-.85 1.14-.02 2.33 1.08 2.71l.06.38c.22.67.66 1.09 1.11 1.22.26.3.6.61 1.14.94 1.26.67 2.07-.01 2.8-2 .37-1 1.96-4.13 2.64-4.44.3-.16.68-.31 1.07-.47.09.01.19-.08.19-.08l.29-.07c1.25-.36.96-1.64.49-2.8-.47-1.07-1.31-5.03.48-7.2 0 0-.09-2.16-.71-2.59.01 0-.56-.98-.91-1.29z" opacity=".4"/><path fill="#151841" d="M61.02 44.49c.85-1.14 1.98-3.37 1.07-4.75-1.24-1.88-3.4-.86-4.88-.05-1.57.8-2.39 2.59-2.9 4.14l-.19.58-.06.14c-.36 1.93-1.09 3.83-2.26 5.41-.54.79-1.37 1.66-2.48 1.46-.92-.27-1.79-1-2.6-1.44-1.6-.98-3.32-1.79-5.13-2.51-1.27-.49-2.71-1.17-4.07-.64-2.43-.09-3.55 2.15-3.92 4.39l-.13.02c-2.47 1.05-3.31 3.84-2.29 6.12-.7.6-1.18 1.32-1.27 2.35-.07.78.36 1.5.61 2.26l-.17.12c-3.27 2.98.89 5.87 3.5 7.22 1.26.65 2.54 1.14 3.83 1.12.39 1.76 2.82 3.04 4.29 3.7 2.72 1.33 6.25 2.73 9.38 1.84.1.03 4-1.32 4.65-3.41.24-.54-.67-.9-.92-.27-.59 1.65-3.68 2.65-3.71 2.66-2.8.88-5.51-.3-8.05-1.36-1.37-.56-4.21-1.68-4.61-3.31.39-.1.79-.23 1.19-.45 1.01-.55 2.86-1.43 2.6-2.68.43-.19.84-.42 1.18-.73.89-.82 1.29-2.21.54-3.13h.01c1.64-.51 2.7-2.94 1.89-4.41-.32-.59-1.21-.11-.88.39.39.88.04 1.69-.49 2.39-.52.61-1.1.74-1.77.87l-1.29.15c.51-.82.63-1.94.03-2.88-.33-.5-1.13.09-.81.68.42.6.17 1.32-.16 1.85-.45.8-1.27.54-1.89.11-.71-.44-1.41-1.06-2.11-1.59-1.58-1.07-3.47-1.89-4.44-3.63l-.11-.15c-.93-1.68-.33-3.89 1.37-4.81.06.1.15.17.26.21 1.54.6 2.84 1.84 3.95 3.06.87.82 1.7 2.02 2.79 2.49.31.13.6.2.89.23.07.13.19.24.38.26 1.21.11 2.59.41 3.76-.04 1.35-.44 2.02-1.6 2.5-2.77.49-1.27.22-2.5-.82-3.44-.96-.83-2.41-1.43-3.58-.88-.1.04-.21.16-.26.29l-.39-.34c-1.12-1.13-2.34-2.17-3.79-2.85-.63-.34-.99.57-.45.89 1.44.69 2.56 1.81 3.69 2.85.43.41.87.82 1.31 1.14.08.1.27.12.36.13.58-.14.8.54 1.05.84.33.5 1.13-.09.81-.68-.22-.35-.58-.85-.98-1.05a.508.508 0 0 0-.21-.36l-.11-.13c.87-.03 1.71.68 2.26 1.25.86.92-.03 2.52-.67 3.3-.66.96-1.84 1-2.96.9.39-.48.58-1.18.44-2.05-.13-.67-1.09-.47-.96.2.31 1.8-1.29 1.85-2.43 1-.8-.54-1.47-1.44-2.16-2.15-1.09-1.11-2.26-2.22-3.68-2.88.23-1.88.99-4.08 3.33-3.79.23.02.39-.1.47-.26.78-.09 1.61.28 2.33.5.91.36 1.91.73 2.81 1.18 1.36.59 2.6 1.35 3.84 2.21.62.43 1.33.86 2.08.93 2.15.31 3.63-1.87 4.56-4.14.07.19.15.37.26.55.33.5 1.21.11.88-.39-.37-.63-.49-1.42-.43-2.24.17-.6.3-1.15.39-1.59.02-.09.01-.17-.01-.24.42-1.29 1.13-2.51 1.81-3.25.83-.95 2.5-1.74 3.77-1.26 1.42.53.45 2.53-.19 3.63-.12.03-.21.11-.25.25-.6 1.54-.84 3.1-1.26 4.75-.42 1.55-.34 2.77-.1 4.38.61 3.7.63 7.81-1.08 11.21-.24.54.67.9.91.36 1.5-3.14 1.61-6.59 1.34-9.97-.12-1.88-.71-3.71-.16-5.62.4-1.43.64-2.96 1.15-4.39zM38.47 69.4l.1-.15s.34-.62.17-.83-.45-.23-.75-.07c-.2.17-.31.35-.43.62l-.41.43-.03.14c-1.13-.12-2.27-.76-3.16-1.26-1.86-.9-5.22-3.1-3.1-5.29l.07.04c1.98 2.3 5.29 4.33 8.34 4.6a7.5 7.5 0 0 0 2.15-.13c-.22.7-2.12 1.59-2.95 1.9zm-6.62-11.15c.69.99 1.57 1.69 2.6 2.32l4.16 2.89c.6.37 1.19.43 1.71.3.13.03.51-.01.8-.08.38-.06.76-.12 1.13-.09.33-.02.66-.06.99-.11-.02.13 0 .27.11.39.92 1.01-.47 2-1.46 2.43a.483.483 0 0 0-.44.16l-.11.03c-.5.11-1.02.13-1.54.12.26-.26.48-.55.67-.86.12-.27.14-.55-.13-.67-.18-.11-.55-.14-.67.13s-.32.44-.43.62-.31.35-.51.42c-.12.05-.2.13-.24.23-.34-.06-.67-.14-.98-.24-2.08-.72-4.42-2.22-5.88-3.92-.06-.6-.27-1.15-.48-1.69-.44-1.02-.04-1.78.6-2.43l.1.05zm17.82-2.13c.34-.62-.46-1.16-.79-.63-.56 1.07-1.31 2.13-1.43 3.42-.09 1.02.01 2.06.1 3.09.29 1.99 1.05 4.11 2.93 5.12.53.33 1.17-.46.54-.79-1.7-.9-2.3-2.72-2.51-4.52-.12-.76-.15-1.51-.08-2.34.03-1.31.68-2.28 1.24-3.35z"/><path fill="#151841" d="M49.12 76.25c1.82.63 2.42 2.36 3.03 4 .46 1.16 1.03 2.15 1.59 3.22 1.38 2.46 3.59 6.83 4.88 9.27.24.49 1.12.1.88-.39-1.36-2.64-3.66-7.11-5.12-9.67-.65-1.18-1.19-2.44-1.74-3.7-.61-1.64-1.52-3.03-3.25-3.65-.55-.13-.82.78-.27.92zm9.5-14.12c.36 2.27.08 4.49 1.8 6.23 1.21 1.23 2.71 2.29 4.02 3.44 4.1 3.54 8.3 7.08 12.3 10.7.43.41.97-.38.54-.79-3.82-3.51-7.75-6.85-11.68-10.18l-3.58-3.12c-1.41-1.06-1.97-2.13-2.2-3.84l-.23-2.73c-.15-.48-1.01-.27-.97.29z"/></svg>