<svg xmlns="http://www.w3.org/2000/svg" width="100" height="100" viewBox="0 0 100 100"><path fill="#A9A09F" d="M18.48 78.95l31.89 18.64 31.9-18.64V21l-31.9-3.28L18.48 21z"/><path fill="#fff" d="M56.5 92.5l17.78-10.39c-.1-.19-.22-.35-.41-.44-1.17-.88-8.01-5.66-10.35-7.23-1.66-1.08-3.49-2.21-4.98-3.32-2.39-1.48-1.89-10.09-3.81-12.5 0-.09-.7-4.27-9.87-3.13.39-1.66-.68-3.32-2.34-4-.2-.09.27-.58.16-.58.2-1.17-3.13-2.57-4.98-.17-1.54 1.52-1.06 3.45-.84 3.21-.65-.03-.88 0-1.27 0-.78 0-1.46.2-2.05.68-.29.29-1.67 2.83-1.76 3.91 0 .29 0 .68.2.98-1.66 1.76-1.66 4.98.2 6.55-.2.09-3.59 4.24.16 6.86.78.78 5.81 5.53 11.48 7.35 5.6.5 5.63 1.68 5.92 1.79 1.66 2.33 6.1 9.46 6.76 10.43z"/><path fill="#818285" d="M48.57 65.34c-.39 3.23 2.83 4.6 1.46 5.86-6.45 5.97-3.12 10.35-7.63 8.6-5.77-2.25-11.83-6.84-8.4-14.17 2.63-5.66 2.94-16.32 9.29-13.58 2.25.97 1.86 2.63 1.57 2.74-.88.49-1.66-.2-2.44.59-1.27 1.17-5.77 5.08-4.2 6.26.53.41.36 1.16.86 1.38 1.67.75 3.84.07 5.5-1.29.68-.59 0-1.46 1.27-2.44.88-.68 2.44.78 3.23.39 2.42-1.37-.31 3.61-.51 5.66z" opacity=".6"/><path fill="#151841" d="M50 100L16 80.14V19.5L50 16l34 3.5v60.64L50 100zM19.04 78.44L50 96.53l30.96-18.09V22.19L50 19l-30.96 3.19v56.25zm29.63-26.83c-.3 0-.7-.1-1-.3-.9-.5-1.2-1.69-.6-2.59l4.19-6.86c.4-.7 1.2-.99 1.9-.9l19.96 3.68 2.29-4.87-9.58-4.67c-.9-.4-1.3-1.59-.9-2.49.4-.9 1.6-1.29 2.49-.9l11.28 5.47c.9.4 1.3 1.49.9 2.49l-3.59 7.76c-.4.8-1.2 1.19-2 .99l-20.16-3.58-3.49 5.77c-.49.7-1.09 1-1.69 1z"/><path fill="#fff" d="M48.67 50.32c-.1 0-.2 0-.3-.1-.3-.2-.3-.5-.2-.7l4.19-6.86c.1-.2.3-.3.5-.2l20.95 3.68L77 39.18l-10.78-5.17c-.3-.1-.4-.4-.2-.7.1-.3.4-.4.7-.2L78 38.59c.3.1.4.4.2.7l-3.59 7.76c-.1.2-.3.3-.6.3l-21.05-3.68-3.99 6.56c0-.01-.2.09-.3.09z"/><path fill="#F15A29" d="M68.23 41.07l-40.41-18.1c-.9-.4-1.3-1.39-.9-2.29l3.79-8.45c.4-.9 1.4-1.29 2.29-.9l40.41 18.1c.9.4 1.3 1.39.9 2.29l-3.79 8.45c-.4.9-1.5 1.3-2.29.9z"/><path fill="#151841" d="M68.92 42.07c-.4 0-.7-.1-1-.2l-40.41-18.2c-1.3-.6-1.8-2.09-1.3-3.28L30 11.94c.4-.9 1.3-1.49 2.29-1.49.4 0 .7.1 1 .2l40.41 18.1c1.3.6 1.8 2.09 1.3 3.28l-3.79 8.45c-.39.99-1.29 1.59-2.29 1.59zM32.3 12.04c-.4 0-.7.2-.8.5l-3.79 8.45c-.2.5 0 .99.5 1.19l40.41 18.1c.1.1.2.1.4.1.4 0 .7-.2.8-.5l3.79-8.45c.1-.2.1-.5 0-.7-.1-.2-.3-.4-.5-.5L32.7 12.14l-.4-.1z"/><path fill="none" stroke="#29323B" stroke-width=".75" stroke-miterlimit="10" d="M51.46000000000001 45.74"/><path fill="none" d="M67.82 18.35h.2"/><path fill="#151741" d="M75.64 82.74c-4.29-3.32-8.89-6.35-13.38-9.48-.68-.49-1.37-1.08-2.05-1.46-1.66-1.08-2.54-2.05-2.94-4.11-.68-3.42-.29-7.03-2.25-10.17-1.76-2.74-5.47-2.63-8.4-2.74-.31 0-.67-.05-1.06-.09l-.02-.1c-.49-1.38-1.37-2.36-2.45-3.2v-.02c0-.2.09-.29.09-.39l.09-.2s0-.09.09-.09h.09c.59-.59.08-1.38-.51-.8-2.54-1.76-5.84-.68-6.72 2.26-.14.46-.15.88-.08 1.29-1.29-.46-2.58.02-3.54 1.36-.72 1-1.61 3.01-1.2 4.38-.24.19-.46.42-.66.71-1.27 1.81-.94 4.81.36 6.63l-.16.21c-.68.97-.88 2.25-.88 3.42 0 1.57.88 2.05 1.86 3.12l.12.11.5.48c.01.03.15.17.29.28.98.8 4.11 3.33 4.59 3.67 2.02 1.44 5.3 3.26 8.43 3.29 2.54-.09 3.81 1.27 5.08 3.23 1.76 2.83 3.52 5.66 5.28 8.6.29.49 1.17 0 .88-.49-1.76-2.83-3.61-5.66-5.28-8.6-.78-1.37-1.86-2.94-3.42-3.42-.97-.29-1.86-.29-2.94-.29-1.3.07-5.12-1.8-7.28-3.12-.5-.31-3.37-2.57-4.44-3.44v-.14l.02.01.15-.38c1.76 1.1 4.25 1.69 5.69.32.88-.78 1.17-1.86.98-3.03-.03-.2-.1-.38-.19-.56 1.53-.1 2.68-1.78 2.53-3.45l-.02-.16c.84.17 1.62-.09 2.26-.64-.17 1.56-.03 3.12.82 4.35l.92.97c.95.65 2.19.93 3.3.85.59 0 .59-.97 0-.97-.97.09-1.95-.09-2.74-.68-2.25-1.42-1.44-4.99-.77-7.09 1.39 0 2.74-1.03 3.69-1.9.49-.39-.2-1.08-.68-.68-.78.78-1.86 1.57-3.03 1.66-.36 0-.96-.16-1.06-.57.17-.29.37-.7.37-1.09 0-.49-.2-1.08-.09-1.46.09-.59-.78-.78-.97-.2-.09.39 0 .68 0 .97.08.52-.01.94-.2 1.3l-.06.09c-.29.45-.77.78-1.3 1.06-.89.53-2.04.82-3.05.72-1.66-.14-1.75-.7-1.88-1.69-.02-.41.08-.86.35-1.28.68-1.17 2.05-1.95 3.03-2.83.39-.29.68-.68.98-1.08.49-.49.97-.49 1.57-.39l5.28.29c1.95.09 3.61.68 4.69 2.44.97 1.46 1.27 3.52 1.46 5.18.29 2.63.09 5.77 2.15 7.82 1.27 1.17 2.94 2.15 4.29 3.12 4.29 3.03 8.69 5.97 12.9 9.18.52.38 1.01-.51.52-.89zM39.08 72.48c-1.46 1.76-4.98-.09-6.06-1.46-.39-.49-1.08.2-.68.68.15.19.32.37.52.56l-.16.43-.07-.1c-.67-.7-1.45-1.09-1.56-2.16-.09-.78.09-1.57.29-2.34.13-.38.31-.74.56-1.03a.54.54 0 0 0 .3-.31c.26-.22.56-.39.89-.51 1.08-.29 2.25.78 3.03 1.37 1.47 1.16 4.99 2.53 2.94 4.87zm4.22-9.19c.63-.28 1.27-.62 1.75-1.07.16.19.36.33.58.45-.17 1.68-1.66 3.27-3.33 2.14-.26-.36-.57-.7-.88-1.01.67-.09 1.33-.29 1.88-.51zm-3.27.54c.21.17.43.36.65.55.31.27.59.56.81.88.02.14.09.27.23.37.2.38.32.81.32 1.29 0 1.27-1.17 2.44-2.44 1.76l-.19-.08c-.58-.48-1.28-.85-1.87-1.2-1.37-.88-2.34-2.05-4-2.15-.64-.06-1.21.2-1.68.57-.93-1.36-1.1-3.57-.49-4.98.88-2.05 3.81-1.46 5.08-.29.39.34.75.74 1.13 1.14.07.27.17.53.35.82.47.82 1.24 1.21 2.1 1.32zm-2.42-3.49l-.46-.46c-1.14-1.14-3.19-1.75-4.81-1.18-.2-.92.55-2.31.89-2.91.78-1.46 2.15-2.05 3.52-.88l.1.07.29.42c.57.85 1.51 1.97 2.54 2.31-.9.74-1.77 1.62-2.07 2.63zm5.29-5.55c-.97.39-1.66 1.66-2.44 2.25l-.09.08a.5.5 0 0 0-.29-.28c-.85-.26-1.9-1.33-2.48-2.43l-.06-.12c-.26-.51-.42-1.03-.38-1.46 0-.97.68-1.86 1.46-2.44 1.16-.87 2.41-.5 3.48.27l-.05.13c-.38.08-.59.66-.21.96 1.08.81 2.08 1.62 2.61 2.82-.56-.02-1.09.01-1.55.22z"/><path fill="#4751A2" d="M45.48 67.23c0-.49.5-3.05.26-2.64-.25.33-2.29 1.62-3.18.98 0 0 .81 1.86-1.33 3.54-.25.16-1.03.27-1.11.35 1.22 2.24-.68 5.13-4.89 3.96-1.08-1.45-1.29-.84-1.37-.68-.33 0-1.04 1.03-1.04 1.36 0 .82-2.62 3.32-2.21 3.97.04 3.93 7.23 4.01 7.56 3.93.66 0 3.86-6.63 4.36-7.86.08-.16 4.02-5.43 2.95-6.91z"/><path fill="none" d="M45.08 64.2l-1.12-.21-1.41.97c1.03.54 1.96.07 2.53-.76zm-5.47 4.48c1.27.67 2.44-.5 2.44-1.76 0-.48-.13-.91-.32-1.29l-.06-.06-2.48 1.71-.4.88c.22.14.44.28.64.44l.18.08zm-7.17 3.13l.26.88.16-.43c-.15-.15-.29-.3-.42-.45zm.59-.79c1.08 1.37 4.6 3.23 6.06 1.46 1.24-1.42.43-2.49-.73-3.37l-.65 1.43-4.15-1.23-1.7.49.41 1.4c.11-.31.49-.51.76-.18z"/><path fill="#151741" d="M33.9 73.03c1.76 1.1 4.25 1.69 5.69.32.88-.78 1.17-1.86.98-3.03-.03-.2-.1-.38-.19-.56 1.53-.1 2.68-1.78 2.53-3.45l-.02-.16c.84.17 1.62-.09 2.26-.64-.17 1.56-.03 3.12.82 4.35l.92.97c.95.65 2.19.93 3.3.85.59 0 .59-.97 0-.97-.97.09-1.95-.09-2.74-.68-1.78-1.12-1.64-3.59-1.18-5.61l-1.19-.22c-.57.84-1.5 1.3-2.53.76l-.89.61.06.06c.2.38.32.81.32 1.29 0 1.27-1.17 2.44-2.44 1.76l-.19-.08c-.2-.16-.42-.3-.64-.44l-.43.95c1.16.88 1.97 1.94.73 3.37-1.46 1.76-4.98-.09-6.06-1.46-.26-.32-.64-.13-.76.18l.18.62c.13.15.26.3.42.45l-.16.43 1.21.33zm11.68-6.61c-1.17 2.69-6.81 13.84-6.83 13.93-.68-.8-2.06-1.56-3.45-2.03-1.02-.32-2.54-.76-3.61-.67l-.21.04.01-.02 2.21-4.89-.92-.32-2.37 5.62c-.03.09-.1.24-.13.43-.07.17-.11.58.09 1.06.5 1.02 1.82 1.98 3.53 2.57 1.53.52 2.71.75 3.53.68 1.15-.1 1.58-.8 1.71-1.22v-.02c.13-.11 6.14-12.02 6.62-13.13l-.18-2.03zm-8.17 15.25c-.74.06-1.75-.18-3.11-.63-1.61-.52-2.6-1.42-2.9-1.97l-.02-.24s.16-.1.48-.12c.66-.06 1.83.17 3.19.62 2.04.73 3.03 1.63 3.14 1.94-.06.09-.21.35-.78.4z"/><path fill="#4751A2" d="M46.19 48.97c-1.77-.78-3.67 2.43-3.67 2.51.78.2 2.98 3.2 2.98 3.28 1.37.6 3.51.43 4.79.43.43 0 .27-.6.44-.94.38-.6.68-2.1.57-2.73-.12-.63-3.57-2.29-5.11-2.55z"/><path fill="#151741" d="M50.77 55.51l-1.23.07.8-1.95c.34-.6.43-1.45.26-1.96-.09-.17-.17-.34-.26-.34l-3.85-1.87c-.68-.34-1.54 0-1.97.51-.68.77-1.37 2.13-1.37 2.13l-1.11-.51c0-.09.77-1.45 1.54-2.39.68-.77 2.05-1.36 3.34-.77l3.85 1.87c.43.17.68.51.86 1.02.26.85.09 1.96-.34 2.81l-.52 1.38z"/></svg>