<svg xmlns="http://www.w3.org/2000/svg" width="100" height="100" viewBox="0 0 100 100"><path fill="#F15A29" d="M31.91 56.66c-.31-.1-.21 31.03-.21 31.03s5.69 2.69 5.28 2.49c-.41-.2 7.55-13.67 7.55-13.67H55.4l7.97 13.77 4.97-3.39s-.62-30.53-.31-30.53-10.76-4.59-10.76-4.59l-13.97-.3-11.39 5.19z"/><path fill="#CE4027" d="M56.74 76.51H43.29l-6.73 13.47 13.66 7.48 12.93-6.98-6.41-13.97zm11.49-20.15l6-3.49-.21-3.99 9-5.49V78.9l-15.11 9.78.32-32.32zM17.84 43.69l8.28 5.19-.31 3.99 5.48 3.19.41 31.52s-12.46-7.17-14.24-8.57l.38-35.32z"/><path fill="#F15A29" d="M83.64 38.9l-.31-3.59-1.35-14.96c0-.6-6.72-.58-7.24.02-1.24 1.5-.62 2.28-.93 4.07-2.28 1.6-4.14 3.49-6.73 4.59-2.28.9-4.97 1.9-6.52 3.79-2.24 1.55-3.52 16.76-3.31 17.16-1.03 2.19 6.31.1 7.45 0 2.28-.1 4.55-.3 6.73-.9 1.97-.5 3.67-.16 5.59-2.49 1.35-.7 6.31-3.79 6.73-5.09.1-.7 0-1.7-.11-2.6zm-57.52 9.98l16.66 1.99-2.38-16.86-15.21-9.48-.93-5.49-7.14.8.1 23.64 8.9 5.4z"/><path fill="#CE4027" d="M56.95 51.07l2.28-16.96h-.52l-8.69 5.29-9.62-5.39 2.69 17.56.1 17.26 13.45.3.31-18.06z"/><path fill="#F15A29" d="M24.39 19.83l.9 4.61L50.22 39.6S73.6 24.24 73.81 24.44c.21.2 1.01-4.71 1.01-4.71L50 17.11l-25.61 2.72z"/><path fill="none" d="M68.23 87.88V56.36"/><path fill="#151841" d="M67.5 56.36l1.35-.42v31.95H67.5V56.36z"/><path fill="#fff" d="M74.23 52.87l-6.31 3.49-10.97-5.29 16.76-2.19.52 3.99z"/><path fill="none" d="M74.02 48.88l9.31-6.29"/><path fill="#151841" d="M74.23 49.86l-.14-1.5 8.41-5.27.52.88-8.79 5.89zM41.02 33.61l9.1 5.19 22.97-14.66.83-4.17 1.35.3-.93 4.67-.21.1L50.22 40.4l-9.93-5.69-15.73-9.78-.94-4.69 1.35-.3.84 4.09 15.21 9.58zm16.14 42.3l6.52 13.67-1.24.5-6.1-12.87H43.71l-6.1 12.87-1.24-.5 6.52-13.67h14.27z"/><path fill="none" d="M31.7 56.36v31.52"/><path fill="#151841" d="M30.98 55.62l1.35.73v31.52h-1.35V55.62zM58.81 33.22l-2.09 14.35-.5 3.19-.31 17.42h-12.1v-.1c0-.5-.1-5.97-.1-8.26-.1-4.48-.21-8.86-.21-8.96l-2.59-17.02-1.24.2 2.59 16.92.31 18.29v.48h14.8v-.6l.21-18.06 2.59-17.66-1.36-.19z"/><path fill="#fff" d="M26.01 52.75l6.31 3.48 10.97-5.28-16.76-2.19-.52 3.99z"/><path fill="#151841" d="M67.92 56.93l-11.69-4.88.31-1.89 18-2.09.31 5.08-6.93 3.78zm-9.83-5.58l9.83 4.08 5.69-3.09-.21-2.89-15.31 1.9zm-25.97 5.58l-7.04-3.78.31-5.08 17.9 2.09v2.12l-11.17 4.65zm-5.49-4.48l5.69 3.09 9.93-4.08-15.42-1.79-.2 2.78z"/><path fill="none" d="M25.91 48.77l-9.42-6.27"/><path fill="#151841" d="M25.61 49.67l-8.69-5.8-.38-1.83 9.38 6.27-.31 1.36z"/><path fill="#fff" stroke="#29323B" stroke-width="5" stroke-miterlimit="10" d="M25.91 52.75"/><path fill="#151841" d="M50 100L16 80.14V19.5L50 16l34 3.5v60.64L50 100zM19.04 78.44L50 96.53l30.96-18.09V22.19L50 19l-30.96 3.19v56.25z"/></svg>