<svg xmlns="http://www.w3.org/2000/svg" width="100" height="100" viewBox="0 0 100 100"><path fill="#F15A29" d="M18.11 78.69L50 97.32l31.89-18.63V20.74L50 17.45l-31.89 3.29z"/><path fill="#151841" d="M50 100L16 80.14V19.5L50 16l34 3.5v60.64L50 100zM19.04 78.44L50 96.53l30.96-18.09V22.19L50 19l-30.96 3.19v56.25zm30.96.49c-.38 0-.67-.28-.67-.65V22.55c0-.37.29-.65.67-.65s.67.28.67.65v55.74c-.09.36-.29.64-.67.64zm31.77-27.91H17.85c-.38 0-.67-.28-.67-.65s.29-.56.67-.56h63.91c.38 0 .67.28.67.65s-.38.56-.66.56zM17.18 77.6h64.01v1.78H17.18z"/><path fill="#fff" d="M73.82 71.72l-.29-.09-15.52-50.37.1-.09-.29-.66c-.1-.38-.2-.75-.2-1.22 0-2.17 1.66-3.86 3.71-4.14l-1.07-.56s-6.74-1.22-9.57 4.05c-.39.75-2.64 2.17-2.64 2.17L29.11 74.08c-.98 1.98-2.73 3.48-4.88 4.24h11.81a4.49 4.49 0 0 1-2.93-3.67l7.71-21.66h16.79l6.35 20.81v.57c0 1.79-1.17 3.39-2.93 3.95h18.25c-2.82-1.04-5.07-3.58-5.46-6.6zM42.2 49.5L50 27.75l6.64 21.75H42.2z"/><path fill="#151841" d="M50.59 27.66c-.1-.28-.29-.47-.59-.47-.29 0-.49.09-.59.38L41.6 49.32c-.1.19 0 .38.1.56.1.19.29.28.49.28h14.45c.29 0 .49-.09.59-.19.1-.19.2-.38.1-.56l-6.74-21.75zm-7.42 21.28L50 29.82l5.86 19.11H43.17zm39.97 11c-5.08 0-9.33 3.75-9.94 8.5L58.81 22.55c.91 1 2.22 1.63 3.69 1.63 2.83 0 5.08-2.17 4.98-4.9 0-2.64-2.25-4.8-4.98-4.8-.46 0-.9.08-1.32.19l-.73-.38c-.1-.09-.1-.09-.2-.09 0-.09-.78-.19-1.85-.19-2.25 0-6.25.66-8.4 4.52-.2.38-1.46 1.22-2.44 1.88-.2 0-.29.19-.29.28L30.74 67.45c-1.03-4.27-5.04-7.51-9.76-7.51-5.49 0-10.03 4.38-10.03 9.67s4.54 9.67 10.03 9.67c.97 0 1.9-.14 2.79-.39.13.11.29.17.46.17h11.91c.18 0 .33-.06.45-.16.43.12.88.21 1.36.21 2.69 0 4.9-2.13 4.9-4.73 0-2.69-2.21-4.82-4.9-4.82-.88 0-1.69.25-2.41.66l5.88-16.49h15.81l5.5 17.85a4.919 4.919 0 0 0-3.99-2.03c-2.69 0-4.9 2.23-4.9 4.82 0 2.6 2.21 4.73 4.9 4.73.67 0 1.31-.13 1.89-.37.14.15.31.23.5.23h18.25c.17 0 .33-.1.45-.26 1.04.36 2.15.56 3.3.56 5.49 0 10.03-4.38 10.03-9.67 0-5.27-4.53-9.65-10.02-9.65zM66.21 19.28c0 1.98-1.66 3.58-3.71 3.58s-3.71-1.6-3.71-3.58c0-1.42.86-2.64 2.11-3.22l.33-.08c.18 0 .35-.07.46-.19.26-.06.53-.09.81-.09 2.05 0 3.71 1.6 3.71 3.58zM12.33 69.61c0-4.58 3.9-8.35 8.65-8.35s8.65 3.77 8.65 8.35c0 .44-.05.87-.12 1.3l-.96 2.7c-1.48 2.58-4.33 4.35-7.58 4.35-4.74 0-8.64-3.77-8.64-8.35zm29.27 4.78c0 1.95-1.63 3.52-3.65 3.52s-3.65-1.58-3.65-3.52 1.63-3.52 3.65-3.52 3.65 1.57 3.65 3.52zm13.49 0c0-1.95 1.63-3.52 3.65-3.52s3.65 1.58 3.65 3.52-1.63 3.52-3.65 3.52-3.65-1.58-3.65-3.52zm8.19 3.27c.88-.85 1.37-2.07 1.27-3.2v-.19c.1-.19-.09-1.17-.19-1.36L58.3 52.89c0-.28-.29-.47-.59-.47H40.93c-.29 0-.49.09-.59.38l-7.71 21.66v.28c.1 1.13.59 2.26 1.37 3.01h-7.13c1.27-.85 2.25-2.07 2.93-3.39v-.09l.06-.16c.47-.86.8-1.79.98-2.77l17.8-50.08c.68-.38 2.34-1.51 2.73-2.26 1.66-3.2 4.88-3.86 7.22-3.86h.98c-1.56.94-2.54 2.45-2.54 4.24 0 .47.1.94.2 1.41.1.09.1.28.2.47v.19l15.42 50.28c0 .19 2.05 4.61 3.9 5.93H63.28zm19.86.3c-4.75 0-8.65-3.77-8.65-8.35s3.9-8.35 8.65-8.35 8.65 3.77 8.65 8.35-3.9 8.35-8.65 8.35z"/></svg>