<svg xmlns="http://www.w3.org/2000/svg" width="100" height="100" viewBox="0 0 100 100"><path fill="#F15A29" d="M18.11 78.69L50 97.32l31.89-18.63V20.74L50 17.45l-31.89 3.29z"/><path fill="none" d="M67.22 16.68h.3"/><path fill="#151841" d="M36.35 67h1.09v23.84h-1.09V67zM72 56.83h1.09v28.84H72V56.83zm-42.27-3.49h1.09v33.24h-1.09V53.34zm33.98-11.77h1.09v48.16h-1.09V41.57z"/><path fill="#4751A2" d="M30.72 49.65l48.39 6.08-7.01 5.19-50.27-6.08 8.89-5.19z"/><path fill="#151841" d="M72.2 61.52l-52.05-6.38 10.47-6.08h.2l49.58 6.28-8.2 6.18zm-48.79-7.08l48.49 5.88 5.73-4.29-46.81-5.98-7.41 4.39z"/><path fill="#4751A2" d="M31.02 68.3l32.29-30.32 7.11 2.09-31.9 30.32-7.5-2.09z"/><path fill="#151841" d="M38.62 70.99l-8.69-2.39 33.18-31.11 8.3 2.39-32.79 31.11zM32.1 68.1l6.22 1.8 31.01-29.42-5.93-1.8L32.1 68.1z"/><path fill="#fff" d="M58.16 53.1c.79.1 1.79-.16 2.48.14.1.2 5.43 1.3 5.43 1.2.1-.8-1.58-3.39-1.78-3.79-5.37-11.63-3.26-18.35-3.46-20.44.39-1.9.49-3.69.99-5.58.1-.5-.1-.8 0-1.5.59 0 .79-1 .49-1.6-.2-.4.49-2.09.3-2.29-.1-.4-.49.6-.59.3-.39-.7-1.48-.6-2.07-.6l-2.37.2c-1.19-.5-2.37-.9-3.65-1.3-1.28-.4-2.47-.2-3.75 0-.89.2-1.88.2-2.86.2h-.3l-1.68-.1c-.49 0-.99.5-.89 1-.2.1-.39.4-.49.7-.39 3.09-.49 6.18-.49 9.37 0 1.99.05 3.65.74 5.65-.81.45-3.05 5.17-3.35 5.76-.39.6-2.88 3.34-5.48 4.51-1.75 1.41-2.9 7.83-3.1 8.23-.39 1.3-.67 2.47-.07 3.66.2.4 1.63 1.1 1.93 1.6.49.9.56 1.5 1.25 1.99.59.4 2.67.8 2.96.5 1.68-1.3 3.26-2.59 4.74-4.09l.1-.1c1.28-1.4 2.47-2.19 3.46-3.79.59.2.89.2 1.19.9-.49 1.4-.2 2.79-.39 4.29-.3 2.39-.69 5.29 1.78 6.38 1.38.6 5.23 1.3 5.93.9l1.38-.7c.69-.1 2.21-1.01 2.81-1.11.2 1.2.15 2.11 1.44 2.31 2.57.4 3.65-.9 4.35-3.29.59-.4.88-2.08-.01-2.28-1.38-.2-3.15-.61-4.33-.01l-.39.3.35-.82c-.1-.7-4.2-.37-4.2-.37-.1-1.2-.49-2.39-.99-3.59.04-1.3 2.2-2.74 2.59-2.74zm6.24 10.81l.59-.8c-.2.3-.39.6-.59.8-.1.1-.1 0 0 0z"/><path fill="#151841" d="M62.03 20.03c-.49 6.08-1.98 12.17-2.07 18.25 0 1.5.39 2.69.79 4.09.39 1.4.79 2.89 1.48 4.19.69 1.2 1.19 2.29 1.38 3.59.3 1.3 1.28 2.49 1.68 3.89.2.7 1.28.4 1.09-.3-.39-1.3-1.28-2.49-1.68-3.69-.3-1-.39-1.9-.89-2.79-.69-1.5-1.38-2.79-1.88-4.39-.39-1.5-.89-2.99-.89-4.49.1-6.08 1.58-12.17 2.07-18.25.1-.8-1.08-.8-1.08-.1zM41.19 51.64c-1.19 1.9-2.37 3.69-3.46 5.58-.79 1.3-.69 2.79 0 4.09.3.6 1.28.1.99-.6-.99-1.8.1-3.19 1.09-4.69l2.47-3.89c.19-.49-.7-1.08-1.09-.49zm-4.84-1.79c-1.68 2.29-2.57 5.09-2.67 7.88 0 1-.1 2.29.89 2.89 1.19.7 2.37 1.3 3.75.9.69-.2.39-1.3-.3-1.1-1.28.4-3.06-.5-3.16-1.9-.1-1 0-1.9.1-2.89.3-1.99 1.19-3.79 2.37-5.38.4-.4-.59-1-.98-.4zm7.8-31.51c-1.26 5.2-1.19 10.7-.62 16.09a32.316 32.316 0 0 0-2.74 4.55c-.59 1.2-1.09 2.29-2.17 3.09-.69.6-1.38 1.4-2.27 1.7-.49.2-1.09.3-1.48.7-.69.7-1.38 1.8-1.48 2.69l-.1.2-1.09 3.59c-.2 1.2-.89 2.59-.89 3.79 0 2.09.79 3.09 2.67 4.09.59.3 1.19-.6.49-1-.59-.3-1.09-.6-1.58-1-.89-.8-.59-2.19-.3-3.09.43-1.43.85-2.93 1.28-4.39l.04-.14c.12.3.67-4.13 3.02-4.35.59-.2 1.19-.8 1.68-1.2.59-.5 1.19-.8 1.68-1.4.69-.7 1.09-1.8 1.48-2.69.77-1.53 1.7-3.07 2.65-4.43.15-.07.25-.24.21-.46l-.06-.75c-.49-5.29-.63-10.02.65-15.31.22-.68-.87-.98-1.07-.28zm21.14 41.98c-.49.8-.89 1.6-1.28 2.39-.49.9-.69 2.19-1.88 2.29-.79.1-1.88.1-2.17-.7-.07-.24-.07-.47-.02-.7.22-.3.42-.62.6-.97a.32.32 0 0 0 .12-.26c.32-.69.57-1.46.78-2.27.2-.7-.89-1-1.09-.3-.21.7-.37 1.41-.65 2.07l-.04.02c-.51.39-.79.88-.88 1.41-.78.76-1.84.93-2.97 1.18-.49.1-.99.3-1.48.5-.26.1-.56.15-.85.15l.06-.05 1.38-1.2c.39-.5.59-1.1.59-1.7.1-.7-1.09-.7-1.09 0-.1 1.1-.79 1.2-1.38 1.8-.79.8-2.86.3-3.85.1h-.15l-.15-.08c-.89-.8-.69-2.29-.79-3.29-.3-2.59.2-5.09-.39-7.58-.1-.9-1.19-.6-1.09.1.39 1.8.39 3.59.3 5.38-.1 1.1.1 2.19.2 3.19.1 1.6.59 2.79 2.17 3.59 1.09.5 2.37.7 3.65.8 1.38.1 2.67-.6 3.95-.8.81-.14 1.48-.42 2.02-.81.3.72.94 1.32 1.83 1.51 1.09.2 2.47.1 3.16-.8.49-.7.79-1.5 1.19-2.29l1.19-2.09c.39-.59-.59-1.19-.99-.59zm-5.73-8.58c-.3.6-1.19.7-1.78.9-.59.2-1.09.5-1.48.8-1.78 1.07-.52 5.48-.79 6.38-.3.7.79 1 1.09.3.39-1.1 0-1.9-.1-2.99-.01-.11-.15-1.7.2-2.39.39-.7 1.19-1 1.88-1.2.89-.3 1.68-.6 2.07-1.5.29-.69-.79-.89-1.09-.3zm-9.28-1.99c.2-.7.89-.9 1.58-1 .89-.1 1.68.3 2.07 1.1.3.6 1.28.1.99-.6-1.09-2.09-4.94-2.39-5.63.1-.3.8.79 1.1.99.4zm-3.46-1.4c.69-.9 2.07-.7 2.86-.1.59.4 1.09-.5.59-1-1.28-1-3.36-.9-4.35.5-.48.6.5 1.1.9.6zm-6.32-.59c1.48-.5 2.96-.9 3.85.7.39.6 1.28.1.99-.6-.49-.8-1.09-1.3-1.98-1.6-1.09-.4-2.17.1-3.16.4-.69.3-.39 1.39.3 1.1zm-4.64-.9c.3 0 .69-.1.99 0 .3.1.49.5.59.7.3.6 1.28.1.99-.6-.2-.4-.49-.8-.89-1.1-.49-.3-1.19-.2-1.68-.2-.69.1-.69 1.3 0 1.2zm20.93 4.49c0 .6.1 1.4-.2 1.99-.39.6.77.75 1.16.15.39-.8.22-1.25.22-2.04-.19-.8-1.28-.8-1.18-.1z"/><path fill="#fff" d="M50.77 37.78c1.19 0 1.19-1.9 0-1.9s-1.19 1.9 0 1.9zm-5.04-6.68c-.1.3-.2.5-.2.8 0 .2.1.4.1.7.2.5.59.8 1.19.6.49-.1.79-.7.69-1.1 0-.1-.1-.2-.1-.4v.4-.4l-.1.2c.1-.2.2-.5.1-.7-.1-.2-.2-.4-.39-.6-.2-.1-.49-.2-.69-.1-.3.3-.5.4-.6.6z"/><path fill="#151841" d="M59.86 52.74l8.99 1.2.47 1.03-10.26-1.32.8-.91zm-3.26 5.69l8.89 1.2-.1 1-8.89-1.1.1-1.1zM36.94 67.6c-.89 0-1.58-.5-1.58-1.2s.69-1.2 1.58-1.2 1.58.5 1.58 1.2c0 .6-.69 1.2-1.58 1.2zm-.39-1.3c.1 0 .2.1.39.1.2 0 .3 0 .39-.1-.1 0-.2-.1-.39-.1s-.29.1-.39.1zm34.17-7.87c-.89 0-1.58-.5-1.58-1.2s.69-1.2 1.58-1.2c.89 0 1.58.5 1.58 1.2.1.6-.59 1.2-1.58 1.2zm-.3-1.3c.1 0 .2.1.39.1.2 0 .3 0 .39-.1-.1 0-.2-.1-.39-.1-.19.1-.29.1-.39.1zm-5.63-14.96c-.89 0-1.58-.5-1.58-1.2s.69-1.2 1.58-1.2c.89 0 1.58.5 1.58 1.2s-.69 1.2-1.58 1.2zm-.29-1.2c.1 0 .2.1.39.1.2 0 .3 0 .39-.1-.1 0-.2-.1-.39-.1-.2 0-.29 0-.39.1zM30.03 53.94c-.89 0-1.58-.5-1.58-1.2s.69-1.2 1.58-1.2 1.58.5 1.58 1.2-.69 1.2-1.58 1.2zm-.39-1.3c.1 0 .2.1.39.1.2 0 .3 0 .39-.1-.1 0-.2-.1-.39-.1-.2.1-.3.1-.39.1zm23.4-17.65c-1.98-.7-3.95-1.2-6.02-1-.79.1-.79 1.4 0 1.3 1.98-.2 3.85.2 5.63.9.79.3 1.18-.9.39-1.2zM50 100L16 80.14V19.5L50 16l34 3.5v60.64L50 100zM19.04 78.44L50 96.53l30.96-18.09V22.19L50 19l-30.96 3.19v56.25z"/></svg>