<svg xmlns="http://www.w3.org/2000/svg" width="100" height="100" viewBox="0 0 100 100"><path fill="#EF9354" d="M81.7 27.68H18.11v-6.89l31.88-3.38 31.71 3.28z"/><path fill="#EC6C3D" d="M18.11 27.81H81.7v11.75H18.11z"/><path fill="#F15A29" d="M18.11 39.56H81.7v11.75H18.11z"/><path fill="#DE4626" d="M18.11 51.43H81.7v11.75H18.11z"/><path fill="#BE3926" d="M18.11 63.18H81.7v11.75H18.11z"/><path fill="#EF9354" d="M18.11 39.56H81.7"/><path fill="#F15A29" d="M84 28.08H16"/><path fill="#151841" d="M16 27.58h68v1H16z"/><path fill="#F15A29" d="M84 39.56H16"/><path fill="#151841" d="M16 39.06h68v1H16z"/><path fill="#F15A29" d="M84 51.31H16"/><path fill="#151841" d="M16 50.81h68v1H16z"/><path fill="#F15A29" d="M84 63.18H16"/><path fill="#151841" d="M16 62.68h68v1H16z"/><path fill="#B22D25" d="M69.67 86.68H30.5l-12.39-7.25v-4.5H81.7v4.3z"/><path fill="#A41F22" d="M50 98.1L30.85 86.81h39.06z"/><path fill="#EF9354" d="M18.11 98.56H81.7"/><path fill="#F15A29" d="M84 87.08H16"/><path fill="#151841" d="M31.74 86.58H69.9v1H31.74z"/><path fill="#F15A29" d="M84 74.93H16"/><path fill="#151841" d="M16 74.43h68v1H16zM50 100L16 80.14V19.5L50 16l34 3.5v60.64L50 100zM19.04 78.44L50 96.53l30.96-18.09V22.19L50 19l-30.96 3.19v56.25z"/></svg>