<svg xmlns="http://www.w3.org/2000/svg" width="100" height="100" viewBox="0 0 100 100"><path fill="#A9A09F" d="M18.11 78.69L50 97.32l31.89-18.63V20.74L50 17.45l-31.89 3.29z"/><path fill="#151841" d="M50 100L16 80.14V19.5L50 16l34 3.5v60.64L50 100zM19.04 78.44L50 96.53l30.96-18.09V22.19L50 19l-30.96 3.19v56.25z"/><path fill="none" d="M67.22 16.68h.3m-1.51 21.43l.49 1.19M63.42 16.06l.29-.01M67.22 16.68h.3m-4.1-.62l.29-.01"/><path fill="#E8E6E4" d="M48.824 35.203l7.036-2.577 2.765.756 1.499 1.231-.209 1.379-.447.799 1.656.332.946.986.762 1.188 1.417.935v2.372l1.5.897v1.422l.759 1.119v1.543l.71 1.103v.994l.149 2.945.55 1.66-.4 1.382v1.916l-1.008 1.677.71.366.299 1.666-1.008 1.666-.494.466v.747l.248.686-1.928 1.477v1.5l-1.458 1.628-.542 1.277-.999.615-.375 1.608-.833 1.395-.656.219-2.035 2.423-.615 1.296-1.194.291-.286 1.5-1.631.417-.734 1.023-1.344.328-.865.982-1.464.483-.926.808-1.069-.304-.765 1.22-1.776-.458-.721.458-2.613-.458-3.35-1.834-1.082-1.584c-.084-.125.173-1.067.454-1.239 3.426-2.105 10.028-7.325 11.847-9.346 2.988-3.316 7.906-11.795 7.074-19.666-.87-8.192-7.553-15.715-7.553-15.715z"/><path fill="#A7A9AC" d="M65.447 51.403c-2.327-.165-4.925 1.417-7.087.153l-.06-.022c-.404-.348-1.031-.556-1.227-1.442-.195-.471-.197-1.016-.1-1.693 2.105-.192 4.301.463 6.348-.314.804-.366.756-1.311.094-1.323-1.594-.047-3.154-.283-4.63-.507l-2.351-.638c-.684-.484-.389-1.193.142-1.582l2.682-.91c.094.012.201-.059.212-.153.566-.012 1.146-.106 1.7-.024.366.059.591-.189.638-.472.767-.071.673-1.311-.189-1.252-.861.059-1.677-.153-2.539-.012-.767.071-1.476.437-2.174.709-.094-.012-.106.083-.212.153-.622.119-1.25.322-1.757.63-.197-.308-1.648-.812-1.976-1.374-.543-.945.638-2.268.851-3.048l.002-.034c.419-.135.839-.271 1.261-.379.201-.059.319-.236.33-.33 1.063-.212 2.056-.531 3.142-.839l.189.024c.779-.165 1.429-.721 1.464-1.571 0-.177-.236-.496-.507-.531-.271-.047-.686.177-.745.543l-.012.094-.012.094-.012.094-.012.094c-.094-.012-.201.059-.201.059-1.947.661-3.939 1.263-5.945 1.204-1.417-.831-3.813-1.385-4.591-1.44-1.158.201-2.185.142-3.579.024l-.838.024c-.603.851-1.37 1.582-1.879 2.445-.519.957-.614 2.174.024 2.929l.484.543c.142.307.106.578.153.874 0 .662-.094 1.217.012 1.795.177.686.378 1.724 1.122 1.842.271.047.472.177.721.401.507.354.602.295.543.674-.307.804-.531 1.618-.366 2.398s.437 1.926 1.146 2.221c.709.295 1.725 0 2.091.614.401.437.295 1.169.307 1.736s.083 1.335.614 1.512c.614.627-.307 1.382-.886 2.126l.083 1.724c-.189.627-1.116.513-1.482 1.801-.047.271-.053 1.482-.053 1.482-.543.484-1.535 1.04-1.725 1.677-.047.271-.071.46-.201.721-.13.26-.015.512-.24.76-.851.627-1.625.297-2.111 2.369-.047.271.616.742.392.99-.118.165-1.03.144-1.243.297-.531.389-1.086 1.681-1.086 2.343-1.375-.235-2.267 1.109-2.172 3.094-.497.768-1.141-.625-1.765 1.047-.197.525.063 1.442.358 1.949.127.223.919.649.97 1.222.034.393-.444.478-.578.906-.126.4.088 1.148.199 1.45.796 1.181 1.938 1.171 2.657 1.11 3.3 1.08 3.142-1.417 3.567-1.724l.792.401c.165.118 1.842 2.15 2.705 2.657.507.354 1.358-.26.873-.815-.885-.981-1.382-2.091-1.748-3.378l.059-.366c.177-.543 1.169-1.512 1.193-1.7.201.507.507 1.016.802 1.535.684 1.051 1.582 2.032 2.598 2.752.401.378 1.264-.342.768-.792l-.083-.106c-.885-.981-2.091-1.724-2.457-3.107-.383-1.171-.294-2.443-.736-3.628.037-.053.039-1.002 1.291-3.305.472-.867 1.473-1.326 2.392-1.808a3.663 3.663 0 0 0 1.27 1.548c.083.106.248.224.413.342 1.181.933 3.201 1.24 4.641 1.075.65.024.848-1.311-.885-1.63-1.523-.507-2.693-1.535-3.319-2.952-.073-.302-.122-.566-.217-.826-.054-.576-.299-1.071.489-1.442.399-.354.701-.28.923-.24.454.514 1.81 2.201 2.609 2.815.922.804 2.103 1.075 3.319 1.063.094.012.094.012.165.118.65.189 1.169-.768.674-1.217-.413-.342-2.115-.603-3.544-2.138-.913-1.025-1.356-2.394-1.869-3.647-.035-.19-.057-.372.051-.569.124-.225.256-.098.393.051.669 1.067 2.603 1.404 3.528 1.473.933.047 1.961.106 2.93-.024.578-.106 1.323.012 1.594-.602.248-.354.035-.851-.425-.922-2.124-.146-5.128.312-6.377-1.122-.258-.761-1.37-.739-1.29-2.61.13-.886.614-2.386 1.559-2.834l.034-.026c.678-.096 1.374-.376 1.903-.623l2.598-1.016c.578-.106 1.158-.201 1.724-.212.271.047.401-.13.519-.295.855-.071.914-1.099.182-1.217z"/><circle cx="541.08" cy="322.87" r="5.81" fill="#151841" transform="matrix(.118 0 0 .118 -20.488 .926)"/><circle cx="558.8" cy="364.01" r="5.81" fill="#151841" transform="matrix(.118 0 0 .118 -20.488 .926)"/><circle cx="566.31" cy="410.55" r="5.81" fill="#151841" transform="matrix(.118 0 0 .118 -20.488 .926)"/><circle cx="598.04" cy="478.42" r="5.81" fill="#151841" transform="matrix(.118 0 0 .118 -20.488 .926)"/><circle cx="597.23" cy="446.39" r="5.81" fill="#151841" transform="matrix(.118 0 0 .118 -20.488 .926)"/><circle cx="586.93" cy="510.15" r="5.81" fill="#151841" transform="matrix(.118 0 0 .118 -20.488 .926)"/><circle cx="565.71" cy="541.78" r="5.81" fill="#151841" transform="matrix(.118 0 0 .118 -20.488 .926)"/><circle cx="526.97" cy="591.63" r="5.21" fill="#151841" transform="matrix(.118 0 0 .118 -20.488 .926)"/><circle cx="544.59" cy="567.01" r="5.81" fill="#151841" transform="matrix(.118 0 0 .118 -20.488 .926)"/><ellipse cx="505.58" cy="614.58" fill="#151841" transform="matrix(.019 -.116 .116 .019 -41.962 120.731)" rx="4.1" ry="4.7"/><path fill="#F15A29" d="M56.706 29.434c.674 3.272-1.712 3.768-6.307 5.291-4.453 1.476-8.622 1.867-9.685-1.287-1.063-3.166.898-7.37 7.524-8.54 4.619-.814 7.795 1.264 8.469 4.536z"/><path fill="#CF4B27" stroke="#29323C" stroke-width=".826" stroke-miterlimit="10" d="M36.663000000000004 37.123"/><path fill="#CF4B27" d="M50.989 28.832c-.519-.189-1.228.366-1.689.662 0 0-1.831.957-3.095.674-.531-.118-1.417-.283-1.807.106-.118.118-.484.756.236 1.346.531.437 1.193.674 1.795.792 1.016.201 2.799-.201 3.662-.839.484-.354.945-.827 1.24-1.429.414-.817-.189-1.253-.342-1.312z"/><path fill="#151841" d="M47.029 32.967c-.256 0-.49-.021-.697-.061-.796-.156-1.494-.466-2.018-.897-.484-.396-.603-.827-.617-1.119a1.346 1.346 0 0 1 .345-.975c.261-.261.648-.392 1.15-.392.396 0 .808.08 1.122.15.12.027.256.04.402.04.983 0 2.169-.578 2.33-.66l.166-.11c.438-.293.983-.656 1.546-.656.14 0 .276.024.401.068.195.074.556.316.728.763.104.269.169.704-.107 1.25-.297.608-.767 1.15-1.392 1.608-.772.572-2.185.989-3.359.989zm-2.266-2.345c-.054.076-.17.31.191.607.499.411 1.13.599 1.573.687.143.028.312.042.501.042.949 0 2.163-.348 2.762-.792.494-.361.859-.78 1.088-1.246.204-.402.006-.57-.078-.619l-.04-.004c-.257 0-.695.293-.985.486l-.203.133-.039.022c-.061.032-1.514.784-2.815.784a2.85 2.85 0 0 1-.623-.065c-.263-.058-.604-.126-.903-.126-.289.001-.396.063-.43.091zm5.707-2.971c.425-.13 1.016-.26 1.712-.059l.059-.212a.931.931 0 0 0-.792-1.075.931.931 0 0 0-1.075.792c-.022.188.013.388.096.555zm-7.867 2.527c.319-.319.756-.697 1.453-.839l-.012-.118a.935.935 0 0 0-1.11-.709.935.935 0 0 0-.709 1.11c.06.236.202.438.379.556z"/><circle cx="630.37" cy="239.09" r="8.71" fill="#CF4B27" transform="matrix(.118 0 0 .118 -20.488 .926)"/><circle cx="533.17" cy="266.21" r="8.71" fill="#CF4B27" transform="matrix(.118 0 0 .118 -20.488 .926)"/><path fill="#151841" d="M57.39 37.85zm11 16.16c-.13-.4-.5-.45-.64-.76-.05-.3-.01-.57.13-.83l.11-.08c.12-.17.15-.35.07-.46.13-.83-.13-1.62-.51-2.24.38-.6.22-1.48-.35-2.03a.739.739 0 0 0-.34-.24c.41-.87.12-2.06-.73-2.66.01-.09.12-.17.15-.35.26-1.09-.67-1.8-1.56-2.11l.01-.09c.79-1.48-.3-3.06-1.84-3.39.08-.56-.28-1.26-.69-1.7-.5-.45-1.02-.72-1.67-.82.12-.17.15-.35.18-.54.23-1.95-1.93-3.09-3.96-3.41.54-.72.72-1.65.45-2.96-.65-3.16-3.34-5.12-7.02-5.12-.65 0-1.33.06-2.03.18-4.43.78-6.44 2.77-7.35 4.3-.91 1.53-1.11 3.27-.56 4.9.41 1.21 1.24 2.01 2.46 2.42-.8.8-1.25 1.73-1.52 2.91-.15 1.02-.44 2.29.59 2.92.17.12.26.13.45.17l-.01.09c-.3 1.94-.22 4.02 1.94 4.63l.83.13c-.7.84-1.23 1.89-1.18 2.83.01 1.13 1.09 2.14 2.04 2.67.52.27 1.07.35 1.54.43-.35 1.07-.07 2.34 1.05 2.99.08.11.17.12.26.13-.44.4-.8.92-.97 1.45-.18.54-.35 1.07-.15 1.68l.14.31c-.9.33-1.57 1.07-1.65 2.2-.05.27.08.67.14.96-1.25.19-2.14 1.41-2.06 2.74-.09-.01-.19.22-.37.2-1.49.53-2.1 2.04-1.72 3.32-.57.01-1.19.39-1.52.71-.46.59-.57 1.23-.57 1.89-1.12-.07-2.1.82-2.27 1.91-.01.09.08.67.06.85l-.06.37c-.11.08-.57.01-.66 0-.38.04-.58.11-.8.35-.81 1-.34 2.87.48 3.65.15.21.41.34.59.46-.24.34-.38.6-.52.96-.31.14-.27.52-.09.65-.02 1.41 1.18 2.81 2.47 3.58 1.04.63 4.75 2.22 5.88.98.6.38 1.46.32 2.01-.17.11-.08.39-.7.4-.79.11-.08.52.27.61.28.46.07.77-.07 1.1-.4.34-.41.09-.65.97-.79.3-.05.65.09.93.05.51-.2.54-.48.8-.92.35-.51.99-.32 1.51-.61.41-.22.65-.57.81-1 1.22.09 2.09-.72 1.97-1.87 1.06-.21 2.1-.82 2-1.96.91-.43 1.87-1.13 1.72-2.09 1.06-.21 1.5-1.18 1.56-2.21.11-.73.11-.73.73-1.11.2-.06.41-.22.52-.3.43-.31.5-.77.47-1.25.11-.08.12-.17.12-.17 1.12-.58 1.7-1.91 1.42-3.18 1.12-.58 2.22-1.64 1.55-2.78 1.52-1.37 1.83-3.4.93-4.95.59-.76.69-1.41.65-2.44-.05-.94.14-.92.44-1.63.13-.27.18-.55.13-.84zm-27.2-20.73c-.45-1.34-.28-2.79.48-4.06 1.13-1.9 3.5-3.26 6.66-3.82.64-.11 1.26-.17 1.85-.17 3.17 0 5.49 1.65 6.03 4.31.23 1.1.09 1.82-.5 2.4-.09.09-1.22 1.03-5.47 2.31-2.19.66-3.99 1.08-5.43 1.08-1.97 0-3.15-.67-3.62-2.05zm-3.42 48.43c-.14-.31-.28-.6-.25-.89.59-.02 1.1.34 1.5.78.08.11.48.54.46.64l-.19-.02c-.47.02-.98-.34-1.43-.5l-.09-.01zm2.12 1.71c-.28-.04-.54-.17-.79-.4.19.02.37.06.57-.01l.3-.05c.47-.02.84.04 1.29.19.54.18 1.32.58 1.42 1.25-1.2-.27-2.52-.85-2.79-.98zm27.47-28.41c-.01.09-.01.09-.12.17-.7.27-1.37.35-2.03.35s-1.29-.19-2.04-.21c-.57.01-.41.87.06.86l2.42.18c.47-.02.87-.15 1.36-.26l.05.3c.15.87.14 1.52-.52 2.19l-.01.09c-1.03-.06-2.01-.4-2.88-.91-.52-.27-.84.53-.31.8 1.04.63 2.21.99 3.52 1 .66 1.23.34 2.69-.82 3.56-.08-.11-.17-.12-.26-.13-1.72-.45-1.09-.43-2.88-.41-.57.01-.41.87.06.86 1.7-.02.96.04 2.61.38l.19.02c.63.85-.22 1.48-.92 1.75l-.19-.02c-1.13.01-2.2-.43-3-1.3-.4-.44-1.05.12-.74.54.79.97 1.94 1.51 3.15 1.61.5 1.11-.06 2.26-1.23 2.54-.77-.02-1.51.48-2.68-1.1-.31-.43-1.06-.06-.77.46.65.85 1.58 1.65 3.04 1.52-.15.35-.5.77-.71.93-.11.08-.21.15-.31.14-.31.14-.52.3-.65.57-.13.26-.17.45-.09.65.06.86-.09 1.87-1.22 1.8-.27-.05-.44.4-.38.6.41 1-.79 1.48-1.38 1.68-.11.08-.21.15-.22.25l-.09-.01c-1.22-.65-.92-.35-1.8-1.43-.31-.43-1.05.12-.74.54.96 1.18.74.9 2.14 1.67.17.12-.14 1.23-1.35.83-.09-.01-.2.06-.21.15-.96-.52-.83-.18-1.55-1.04-.31-.43-1.04.04-.74.54.71.96.74.73 1.8 1.26.44.53.21 1.18-.98.89l-.09-.01c-.08-.11-.08-.11-.17-.12-.97-.43-1.71-1.11-2.34-1.96-.31-.43-1.04.04-.74.54.71.96 1.62 1.75 2.67 2.29-.43.97-1.74.31-2.27 1.26-.02.19-.06.37-.18.54a.563.563 0 0 0-.2-.51c-1.39-.78-1.77-1.39-2.5-2.73-.3-.52-1.11-.17-.8.35.8 1.54 1.28 2.17 2.74 3.05l-.09-.01c-.38.04-.66 0-.96.14-.21.15-.34.41-.46.59-.56.58-.58.11-1.24.09-.93-.05-1.25 2.07-2.22.98-.24-.32-.72-.2-.78.17-.05.27-.52.3-1.09.31l.05-.27c-.08-1.33-1.58-2.03-2.95-2.23.01-.09.01-.09-.06-.2-.19-.59-.93-1.28-1.45-1.63a2.64 2.64 0 0 0-1.32-.58c.01-.09.13-.26.24-.34 1.75.73.81.21 2.08.59.54.18.85-.63.31-.8-1.26-.38-.73 0-1.98-.58-.51-.35-1.02-.72-1.32-1.24-.3-.52-.47-1.87.05-2.16.31-.14.66 0 1.05-.12.8 1.54.52 1.12 1.9 2 .52.27.84-.53.31-.8-1.3-.76-1.45-.6-1.75-2.35.04-.84.05-2.16 1.51-1.94l.09.01c.14.31.19.59.44.82.31.43 1.04-.04.74-.54-.46-.73-.6-1.59-.12-2.37.15-.35.35-.51.65-.57.2-.06.67-.08.76.02.15.21.33.33.58.56.41.34.99-.32.57-.66-1.36-.96-1.18-2.81.43-3.43.09.01.11-.08.11-.08.27.7.77 1.16 1.45 1.63.09.01.17.12.17.12.6.38 1.22.65 1.85.85.54.18.85-.63.31-.8-.72-.2-1.32-.58-2.02-.97-.25-.22-.6-.38-.74-.67-.61-.94-.11-3.04 1.29-2.92l.8.31c1.49.69 1.04.67 2.91.77.56.08.7-.84.13-.83-1.76-.18-1.04-.02-2.63-.73-.33-.33-.69-.48-.79-.97-.22-.98.56-1.8 1.43-1.95.09.01.2-.06.31-.14.08.11.08.11.17.12.93.46 1.91.74 2.92.85 1.33.13 1.16-.73-.08-.86-1.07-.11-2.08-.43-2.79-.92-.71-.3-.41-1-.24-1.55.28-.61.84-1.16 1.51-1.25.09.01 2.86-.83 2.94-.81.79-.26.06-1.03-.65-.66l-2.27.7c-1.45.25-2.26-1.29-1.69-2.52.58-.11 1.17-.3 1.77-.48.51-.2.15-1.02-.35-.8-1.11.5-2.4.47-3.56.01-1.06-.45-1.64-1.17-1.37-2.35.24-.91.74-1.77 1.45-2.14 1.15-.11.97-.06 1.87-.4.51-.2.25-1-.35-.8-2.28.76-3.35.26-3.87-.09-1.19-.84-.98-2.22-.8-3.41l.01-.09c.57-.01 2.17-.11 3.2-.71.51-.2.17-1.11-.35-.8-1.32.65-1 .47-2.44.64-.67.08-1.42.07-1.64-1-.05-.3.09-.65.14-.92.18-1.19.61-2.17 1.58-2.96l.1-.12c.34.05.69.08 1.08.08 1.54 0 3.47-.38 5.74-1.13.34-.11.68-.22.99-.33 1.85-.6 3.35-1.1 4.36-1.8.83.06 1.71.32 2.38.66.52.27 1.37.86 1.46 1.54.22.98-1.68 1.62-2.73 1.74-.57.01-.41.87.06.86l.3-.02c-.05-.01-.06-.03.41-.14.4-.13.98-.22 1.57-.43.58-.11 1.15-.11 1.68.15.26.13 1.11.73.96 1.18-.15.45-2.27.48-3.4 1.16-.52.3.05.94.54.74 1.03-.6 2.57-.63 3.18-.91.08.11.17.12.26.13.73.11 1.5.7 1.56 1.56.01 1.13-1.09.97-1.84.94-1.23 0-2.3.31-3.33.82-.51.2-.15 1.02.35.8 1.21-.47 2.27-.7 3.59-.69.38-.04.66 0 .94-.05.37.06.73.11 1.07.35.26.13.66.57.41 1-.22.25-.79.26-1.09.31-.47.02-.95.05-1.39-.12-.56-.08-.67.74-.13.83.65.09 1.94.3 2.75-.15 0 0 .09.01.08.11.26.13.39.53.53.84.13.4.17.78-.17 1.11-.58.11-1.8.57-1.89.66-.37.21-.28.61.4.64.3.01.7-.27 1.1-.4l.31-.14c.87-.15 1.09.26.86 1.17-.12.17-.15.35.01.57.63.85.54 1.41.41 2.23-.97.79-1.98.64-3.2.65-1.04.04-1 1.07-.32.9l2.07.04c.47-.02.98-.22 1.38-.45.06.2.14.31.28.6.33.56.34.46-.04 1.07z"/></svg>