<svg xmlns="http://www.w3.org/2000/svg" width="100" height="100" viewBox="0 0 100 100"><path fill="#F15A29" d="M18.11 78.69L50 97.32l31.89-18.63V20.74L50 17.45l-31.89 3.29z"/><path fill="#151841" d="M50 100L16 80.14V19.5L50 16l34 3.5v60.64L50 100zM19.04 78.44L50 96.53l30.96-18.09V22.19L50 19l-30.96 3.19v56.25z"/><path fill="none" d="M67.22 16.68h.3m-1.51 21.43l.49 1.19"/><path fill="#4751A2" d="M29.87 29.84c10.09 0 20.18 0 30.26-.09.75 0 1.59 0 2.24.26.65.26 1.12.79 1.59 1.31 1.68 2.18 2.24 5.07 2.24 7.78-.09 2.71-.75 5.42-1.21 8.13-.37 2.1-.65 4.2-1.12 6.21s-1.03 3.93-1.31 5.94c-.37 3.32.09 6.64-.47 9.88-.09.79-.37 1.57-.84 2.18-.56.79-1.49 1.31-2.52 1.66-3.46 1.4-7.38 1.31-11.12 1.22-6.07-.09-12.14-.17-18.21-.35.19-4.98.09-9.88.19-14.77.09-4.37-.19-8.74 0-13.11.18-4.97.28-16.25.28-16.25z"/><path fill="#F15A29" d="M43.73 55.64l-8.69-3.54v-2.18l8.78-3.54v2.64l-5.32 2 5.32 2v2.64l-.09-.02zm5.41-10.35h1.59l-2.8 11.36h-1.68l2.89-11.36zm4.02 7.63l5.32-2-5.32-2v-2.64l8.78 3.54V52l-8.78 3.54v-2.62z"/><path fill="#F15A29" d="M54.25 52.04h8.03v7.34h-8.03v-7.34z"/><path fill="#151841" d="M62.75 59.91h-9.06v-8.3h9.06v8.3zm-8.04-.96h7.01v-6.38h-7.01v6.38zM30.05 73.98h24.66v.79h-25.5v-45.1h32.6v.79H30.05v43.52z"/><path fill="#fff" d="M61.91 29.23c.93-1.49 2.8-2.27 4.58-2.01 1.77.26 3.27 1.66 3.55 3.32.19 1.05 0 2.1-.28 3.15-2.52 11.8-5.04 23.6-7.66 35.4-.56-2.45-2.9-4.37-5.51-4.72l-2.01.02c-2.24-.52-5.74 2.95-6.08 2.63 1.56-3.63 6.78-19.87 7.53-21.97l1.94-5.52c1.02-2.97 3.94-10.3 3.94-10.3z"/><path fill="#F15A29" d="M54.25 61.22c.19-.09 1.12-.79 1.68-1.22.56-.35.65-1.05.28-1.49s-1.03-.52-1.59-.17c-.37-.44-1.03-.52-1.49-.17-.47.35-.56.96-.19 1.49.47.51 1.21 1.38 1.31 1.56zm6.53 1.57c.19-.09 1.12-.7 1.77-1.05.56-.35.75-.96.37-1.4-.28-.52-.93-.61-1.4-.35-.28-.52-.93-.61-1.4-.35-.47.26-.65.96-.37 1.49.38.52.94 1.49 1.03 1.66zm-1.96-5.42c.19-.09 1.03-.7 1.59-1.14.47-.35.65-.96.37-1.49-.28-.44-.84-.61-1.31-.26-.28-.44-.84-.61-1.31-.26-.47.35-.65.96-.37 1.49.47.61.94 1.49 1.03 1.66zm-1.87-4.72c.19-.09 1.21-.7 1.87-1.05.56-.35.75-.96.37-1.49-.28-.52-1.03-.61-1.49-.35-.28-.52-1.03-.61-1.49-.35-.56.26-.65.96-.37 1.49.37.7 1.02 1.58 1.11 1.75zm6.64 1.66c.19-.09 1.12-.7 1.77-1.05.56-.35.75-.96.37-1.4-.28-.52-.93-.61-1.4-.35-.28-.52-.93-.61-1.4-.35-.47.26-.65.96-.37 1.49.37.53.93 1.49 1.03 1.66zm-2.15-5.59c.19-.09 1.03-.7 1.59-1.14.47-.35.65-.96.37-1.49-.28-.44-.84-.61-1.31-.26-.28-.44-.84-.61-1.31-.26-.47.35-.65.96-.37 1.49.37.52.93 1.48 1.03 1.66zm-1.68-4.98c.19-.09 1.21-.61 1.87-.96.56-.35.75-.96.47-1.4-.28-.52-.93-.7-1.49-.35-.28-.52-.93-.7-1.49-.44-.56.26-.75.87-.37 1.49.35.52.91 1.48 1.01 1.66zm6.54 1.66c.19-.09 1.12-.7 1.77-1.05.56-.35.75-.96.37-1.4-.28-.52-.93-.61-1.4-.35-.28-.52-.93-.61-1.4-.35-.47.26-.65.96-.37 1.49s.93 1.48 1.03 1.66zm-1.97-5.42c.19-.09 1.03-.7 1.59-1.14.47-.35.65-.96.37-1.49-.28-.44-.84-.61-1.31-.26-.28-.44-.84-.61-1.31-.26s-.65.96-.37 1.49c.38.61.94 1.48 1.03 1.66zm-2.24-4.54c.19-.09 1.21-.61 1.96-.87.56-.26.84-.87.56-1.4-.28-.52-.93-.7-1.49-.44-.28-.52-.93-.7-1.49-.44-.56.26-.75.87-.47 1.4.37.52.84 1.57.93 1.75zm6.35 1.66c.19-.09 1.12-.7 1.77-1.05.56-.35.75-.96.37-1.4-.28-.52-.93-.61-1.4-.35-.28-.52-.93-.61-1.4-.35s-.65.96-.37 1.49c.38.52.94 1.48 1.03 1.66zm-1.86-5.16c.19-.09 1.03-.61 1.59-.96.47-.26.65-.87.37-1.22-.28-.44-.84-.52-1.31-.26-.28-.44-.84-.52-1.31-.26-.47.26-.56.79-.28 1.31.37.43.84 1.21.94 1.39z"/><path fill="#151841" d="M61.81 28.79c-5.04 12.59-9.71 25.35-13.82 38.28-.09.35.19.52.56.52.84-.17 1.59-.96 2.24-1.49 1.03-.7 2.24-1.05 3.55-1.22 3.08-.35 6.35.61 7.1 3.76.84 3.76-3.55 4.98-6.73 5.33-.56.09-.56.87 0 .79 3.74-.35 8.78-1.84 7.57-6.29-.56-2.8-3.18-4.28-6.07-4.46-1.59-.09-3.55.17-4.95.87-.93.44-1.87 1.75-2.99 1.92l.56.52c4.11-12.93 8.78-25.7 13.82-38.28.19-.51-.65-.68-.84-.25zm.84.35c.84-1.84 3.74-1.75 5.32-.87 1.49.79 2.05 2.45 1.77 4.02l-1.49 7.08c-1.77 8.3-3.55 16.61-5.42 25l-1.4 6.47c-.09.52.75.7.84.17l4.11-19.14 2.8-13.2c.47-2.1 1.03-4.28 1.4-6.38.37-2.27-.84-4.37-3.18-5.07-1.87-.61-4.67-.35-5.6 1.57-.18.44.57.88.85.35z"/><g transform="matrix(.998 0 0 .993 .126 .891)"><ellipse cx="35.29" cy="34.91" fill="#BDBEC0" rx="2.41" ry="2.39"/><path fill="#151841" d="M35.29 37.93c-1.64 0-3.01-1.38-3.01-3.01s1.38-3.01 3.01-3.01c1.64 0 3.01 1.38 3.01 3.01s-1.29 3.01-3.01 3.01zm0-4.91c-1.03 0-1.89.86-1.89 1.89s.86 1.89 1.89 1.89 1.89-.86 1.89-1.89-.86-1.89-1.89-1.89z"/></g><path fill="#151841" d="M33.11 36.42c1.55-.26 3.09-.34 4.55-.6.69-.17.43-1.2-.26-1.11-1.55.26-3.09.34-4.55.6-.77.17-.51 1.28.26 1.11z"/><g transform="matrix(.998 0 0 .993 .126 .891)"><ellipse cx="35.29" cy="68.73" fill="#BDBEC0" rx="2.41" ry="2.39"/><path fill="#151841" d="M35.29 71.74c-1.64 0-3.01-1.38-3.01-3.01s1.38-3.01 3.01-3.01c1.64 0 3.01 1.38 3.01 3.01s-1.29 3.01-3.01 3.01zm0-4.91c-1.03 0-1.89.86-1.89 1.89s.86 1.89 1.89 1.89 1.89-.86 1.89-1.89-.86-1.89-1.89-1.89z"/></g><path fill="#151841" d="M33.11 69.99c1.55-.26 3.09-.34 4.55-.6.69-.17.43-1.2-.26-1.11-1.55.26-3.09.34-4.55.6-.77.17-.51 1.28.26 1.11z"/></svg>