<svg xmlns="http://www.w3.org/2000/svg" width="100" height="100" viewBox="0 0 100 100"><path fill="#F15A29" d="M18.18 78.73l31.9 18.63 31.89-18.63.77-50.56s-.33-5.25-.5-6.75c-.31-2.83-30.15-3.8-31.75-3.83-7.17-.17-32.86 3.84-33 5.75-.34 4.82.69 55.39.69 55.39z"/><path fill="#BE3926" d="M47.64 67.24c-.25.59.72.85.96.27 2.68-6.43-3.69-13.46 1.49-18.94.44-.47-.26-1.18-.71-.71-5.72 6.06 1.13 12.5-1.74 19.38zm6.52-16.04c-1.16-3.81-.74-7.57.96-11.2.27-.58-.65-.96-.93-.38-1.83 3.89-2.2 7.89-.96 11.96.2.62 1.12.23.93-.38zm-7.28-13.96c-3.19 2.87-5.08 6.43-5.51 10.66-.06.64.94.64 1 0 .4-3.97 2.24-7.27 5.22-9.96.47-.42-.24-1.13-.71-.7zm3.85 39.74c.82-1.07 2.28-2.18 2.75-3.47.22-.61-.75-.87-.96-.27-.25.69-1.09 1.33-1.56 1.89-.79.93-1.55 1.89-2.2 2.93-1.55 2.48-2.35 5.17-2.05 8.11.06.63 1.07.64 1 0-.36-3.47.95-6.49 3.02-9.19zm-7.86-58.35c-.66 3.22-1.8 5.24-4.32 7.4-.49.42.22 1.12.71.71 2.64-2.26 3.88-4.47 4.58-7.84.12-.63-.84-.9-.97-.27zM30.65 31.31c2.64-2.29 4.33-6.03 5.02-9.42.13-.63-.85-.83-.98-.2-.65 3.22-2.28 6.78-4.78 8.95-.49.42.26 1.08.74.67zm42.58 4.25c-1.92-3.4-2.35-7.89-.81-11.55.25-.59-.72-.85-.96-.27-1.63 3.9-1.12 8.7.92 12.32.3.57 1.16.06.85-.5zm-14.3 38.3c.35-.55-.52-1.05-.86-.5-.83 1.31-.87 2.65-.36 4.11.42 1.2 1.23 2.22 1.75 3.37 1.02 2.23 1.1 4.54.51 6.87-.16.62.81.89.96.27.49-1.92.6-3.85.09-5.78-.72-2.67-3.86-5.54-2.09-8.34zm8.54 5.89c.06-.57-.72-.62-.94-.18a.5.5 0 0 0-.28.29l-1.02 2.55c-.05-1.69-.28-3.38.25-5.01.2-.61-.77-.88-.96-.27-.8 2.49.14 5.05-.43 7.57-.11.5.47.76.78.54.18-.02.35-.12.44-.33.35-.88.7-1.76 1.06-2.64.03.67.13 1.33.36 1.98.21.6 1.18.34.96-.27-.49-1.38-.37-2.8-.22-4.23zm-28.94-1.89c-.66 3.2-1.87 6.21-4.54 8.05.24-.56.52-1.11.77-1.67.26-.58-.6-1.09-.86-.5-.47 1.05-1.03 2.02-1.3 3.15-.11.44.34.75.73.56 3.73-1.8 5.37-5.46 6.17-9.33.12-.62-.84-.89-.97-.26zM76.73 51c1.37 1.2 3.2 2.45 4 4.13.25.53 1.02.19.93-.35-.46-2.55-2.13-5.17-3.41-7.37-1.27-2.19-3.69-4.82-3.25-7.44.1-.63-.85-.92-.96-.29-.36 2.17.69 3.82 1.71 5.7 1.2 2.2 2.95 4.54 4.05 6.95-.76-.72-1.61-1.38-2.35-2.02-.48-.42-1.21.27-.72.69zm-54.67-4.98c.55-2.36 1.71-4.86 3.14-6.8 1.26-1.7 3.04-2.49 3.96-4.46.27-.58-.68-.9-.95-.32-1.01 2.15-3.56 3.6-4.79 5.78l-.32.6c.58-2.07 1.36-4.11 2.32-5.89 1.68-3.11 2.96-5.23 2.33-8.9-.11-.63-1.09-.43-.98.21.76 4.44-2.13 7.36-3.54 11.25-.98 2.68-1.82 5.51-2.14 8.35-.07.54.84.73.97.18zm57.49-4.1c-2.16-3.45-5.43-8.12-4.6-12.47.12-.63-.87-.77-.99-.14-.9 4.67 2.47 9.49 4.79 13.22.35.55 1.14-.06.8-.61zm-50.42 5.09c.6-3.55 2.23-7.51 4.72-10.15.44-.47-.26-1.18-.71-.71-2.59 2.76-4.35 6.88-4.98 10.59-.1.63.87.9.97.27zm-4.63.86a18.807 18.807 0 0 0-3 7.54c-.1.63.86.9.96.27.43-2.65 1.39-5.07 2.9-7.3.36-.54-.5-1.04-.86-.51zm27.39 31.88c.3-.57-.56-1.07-.86-.5-1.99 3.74-2.31 9.45-.01 13.16.34.55 1.2.04.86-.5-2.1-3.4-1.81-8.74.01-12.16zm15.3-54.28c-1.68-1.72-2.92-3.96-2.97-6.37-.02-.64-1.01-.59-1 .06.06 2.71 1.43 5.14 3.31 7.07.46.46 1.11-.3.66-.76zm-10.1 65.6c-3.95-2.09-3.38-10.2-1.65-13.48.3-.57-.56-1.08-.86-.5-1.97 3.75-2.49 12.47 2.01 14.85.56.29 1.07-.57.5-.87zM20.57 68.4a.485.485 0 0 0 .7 0c4.98-5 10.76-6.29 10.82-6.3.27-.06.44-.32.38-.59a.493.493 0 0 0-.59-.38c-.25.05-6.12 1.35-11.32 6.57a.51.51 0 0 0 .01.7zm8.42-1.28l.22-.05c2.8-1.4 4.58-1.27 4.6-1.26.29.02.52-.18.54-.45a.503.503 0 0 0-.45-.55c-.08-.01-2.05-.18-5.14 1.36-.25.12-.35.42-.22.67.09.18.27.28.45.28zm-2.69-5.33c.19-.2.19-.51-.01-.71a.504.504 0 0 0-.71.01c-.03.03-3.06 3.07-6.9 2.4l.02 1.02c.39.06.77.1 1.13.1 3.68-.01 6.34-2.68 6.47-2.82zm-.34 16.27c2.2-6.03 10.24-6.18 10.32-6.18.28 0 .5-.23.49-.51a.5.5 0 0 0-.5-.49h-.01c-.32 0-7.37.17-10.49 5.33.25-1.33 1.14-3.52 3.97-6.53.11-.12.66-1.49-.54-1.08-3.25 1.1-8.49 5.91-8.1 11.69l1.06.62c-.68-4.33 2.4-7.89 5.2-9.98-3.48 4.52-2.58 7.02-2.53 7.13.07.2.84.8 1.13 0zm-.28-9.13a.5.5 0 0 0-.57-.42c-.17.03-3.42.57-6.26 3.84l.03 1.58c2.75-3.81 6.34-4.42 6.38-4.43a.5.5 0 0 0 .42-.57zm3.9 7.21c-.07-.02-.67-.2-1.41.29-1.27.84-2.14 3.07-2.59 6.62l.94.55c.51-4.48 1.56-5.87 2.15-6.3.35-.25.6-.21.63-.21.26.07.53-.07.61-.33.08-.25-.07-.53-.33-.62zm40.81-24.11l.01-.09c-.28-.1-.62-.19-.97-.25l-.01.07c-.12.64.85.91.97.27zm-3.2-20c2.18 5.02 3.19 11.41 2.63 17.05.32.15.64.33.95.55.67-5.97-.39-12.75-2.72-18.1-.25-.59-1.12-.09-.86.5zm12.26 36.52c.13 0 .25-.05.35-.15.2-.19.2-.51 0-.71-5.2-5.22-11.07-6.52-11.32-6.57a.49.49 0 0 0-.59.38c-.06.27.11.54.38.59.06.01 5.84 1.3 10.82 6.3.11.11.23.16.36.16zm-12.98-3.74a.502.502 0 1 0 .09 1c.02 0 1.79-.13 4.6 1.26a.505.505 0 0 0 .45-.9c-3.09-1.54-5.06-1.37-5.14-1.36zm4.71 3.78a.5.5 0 0 0-.67.22c-.07.15-.19.51.13.86 2.81 3.03 3.72 5.2 3.97 6.53-3.12-5.15-10.17-5.32-10.49-5.33h-.01a.5.5 0 0 0-.5.49c0 .28.22.5.49.51.08 0 8.02.19 10.32 6.18.08.2.68 1.03 1.14 0 .05-.11.95-2.61-2.53-7.13 2.8 2.09 5.88 5.64 5.2 9.98v.05l1.06-.67c.37-5.78-5.05-10.14-8.11-11.69zm10.52-5.22v.12c-3.84.68-6.87-2.36-6.9-2.4-.2-.2-.51-.2-.71-.01-.2.19-.2.51-.01.71.13.13 2.79 2.81 6.47 2.81.37 0 .75-.04 1.13-.1l.03-1.12-.01-.01zm-9.49 13.06c-.74-.49-1.35-.31-1.41-.29-.26.08-.41.37-.32.63.08.26.35.4.61.33.01 0 .57 0 1.27.98.61.86 1.26 2.49 1.51 5.53l.94-.55c-.46-3.56-1.33-5.79-2.6-6.63zm3.06-7.91a.505.505 0 0 0-.57.42c-.04.27.14.53.42.57.04.01 3.63.62 6.38 4.43l.03-1.58c-2.84-3.28-6.1-3.82-6.26-3.84zm-22.92-5.77c0-.64-1-.64-1 0-.01 3.85-1 7.16-3.21 10.3-1.29 1.84-2.84 3.62-3.72 5.72-.44 1.04-.7 2.17-.81 3.3-.11 1.21.06 2.39.05 3.6 0 2.79-1.28 5.49-1.61-.85-.03-.64-.93-.63-1 0-.19 1.77.13 4.98 2.18 5.69.17.06.36-.01.49-.13.89-.85.86-2.98.92-4.1.19-3.7 0-6.17 2-9.42 3.06-4.95 5.69-7.99 5.71-14.11zm6.53-32.81c-.06.64.94.64 1 0 .25-2.92-.43-5.61-2.18-7.93-.38-.51-1.25-.01-.86.5 1.64 2.2 2.27 4.69 2.04 7.43zm-12.22-1.22c.34-.08.68-.15 1.02-.21.11-1.23.08-2.46-.14-3.62-.12-.63-1.08-.36-.96.27.2 1.11.21 2.34.08 3.56z"/><path fill="#4751A2" d="M39.12 73.02c2.34 4.59 2.24 3.63 2.4 3.86l4.71-3.29c-.02-.03-1.52-2.82-2.53-6.76-.2-.8-.64 2.17-1.74 3.55-1.21 1.53-3.28 1.78-2.84 2.64zm22.63.29c-2.37 4.67-2.23 3.29-2.38 3.52l-4.71-3.22c.02-.03 1.07-.23 2.07-4.16.26-1.02 5.13 3.65 5.02 3.86zm2.73-36.71c-2.62-4.62-7.93-7.88-13.4-8.29-.24-.02-1.77-.01-2.08.02-5.4.5-10.61 3.71-13.2 8.28-4.28 7.55-3.14 16.02-3.09 16.38l5.94-.84c-.01-.06-.88-6.85 2.37-12.58 1.86-3.28 5.93-5.41 9.12-5.3 3.19-.12 7.26 2.02 9.12 5.3 3.25 5.73 2.38 12.52 2.37 12.58l5.94.84c.05-.36 1.19-8.84-3.09-16.39z"/><path fill="#757273" stroke="#151841" stroke-miterlimit="10" d="M56.44 44.97" stroke-linecap="round" stroke-linejoin="round"/><path fill="none" d="M29.82 52c.8-.34 1.77-.4 2.3-.44l.19-2.81-.14.02-.42.19-.08 2.61c-.52.03-1.05.09-1.85.43z"/><path fill="#757273" d="M44.44 64.91c-.76.5-.93-.09-.12-.36 3.15-1.48 1.08-4.31.1-4.01-1.24.38-.55-.82-.53-.83 2.08-.91 1.73-1.97 1.78-2.12.28-.88-.05-1.98-.54-2.27-.7-.41-1.75.19-1.97-.09-.5-.64 1.25-1.63 1.28-1.72.31-.97-1.2-3.33-2-3.54-1.82-.47-9.78 2.53-10.55 2.58-.17.23-.53.84-.64 1.08-.82 1.78 1.28 3.95 1.25 3.97.16.22.96 1.57.97 1.85 0 .05-.31 1.36.59 2.09 1.53 1.25 1.64 2.76 1.7 2.76.28 0-.02 1.97.99 2.55.2.11 1.08 2.97 2.67 4.26.1.08.29.84.45.91.98-.56 1.87-1.44 2.84-2.59.38-.45 2.78-1.68 3.17-2.37.14-.28-.01-2.92-1.44-2.15z"/><path fill="#151841" d="M32.71 59.54c0 .07.02 1.77 1.54 2.64.08.04.16.07.25.07.17 0 .34-.09.43-.25.04-.07.06-.14.06-.22a.517.517 0 0 0-.25-.47c-1.01-.58-1.04-1.72-1.04-1.77 0-.27-.22-.5-.5-.5l-.09.02c-.22.05-.4.24-.4.48zm-2.08-5.85c-.56 1.51-.12 2.91 1.24 3.94.09.07.2.1.3.1.12 0 .24-.06.33-.14l.07-.06c.17-.22.12-.53-.09-.7-1.02-.78-1.31-1.69-.9-2.8a.51.51 0 0 0-.25-.62l-.04-.03a.538.538 0 0 0-.66.31zm6.78 15.32c0 .06.02 1.53 1.33 2.28.08.04.36.03.42.02.47-.1.32-.75.08-.89-.81-.46-.83-1.38-.83-1.42 0-.28-.22-.5-.5-.5-.03.01-.52.06-.5.51zm-2.15-4.21c.01.07-.02 1.85 1.54 2.64.37.19.71-.27.73-.32a.49.49 0 0 0-.23-.55c-1.01-.58-1.04-1.73-1.04-1.77 0-.28-.22-.5-.5-.5-.06 0-.59.01-.5.5z"/><path fill="none" d="M70.56 52c-.8-.34-1.77-.4-2.3-.44l-.19-2.81.14.02.42.19.08 2.61c.52.03 1.05.09 1.85.43z"/><path fill="#151841" d="M73.84 83.63l.03-.02-.03.02zM59.93 49.8"/><path fill="#fff" d="M58.83 33.89c-1.81-1.43-3.58-2.46-5.47-2.8a.499.499 0 0 1 .18-.98c2.07.37 4.07 1.39 5.95 3.03.21.18.23.5.05.71-.11.11-.49.21-.71.04zm-7.93-3.35c-.48-.1-1.04-.01-1.04-.01-.27.04-.53-.15-.57-.42s.15-.53.42-.57c0 0 .7-.18 1.7.09.27.07.41.31.39.59-.04.56-.9.32-.9.32z"/><path fill="#757273" d="M54.55 62.83c-1.15-1.44.86-2.3 1.19-2.3 1.18 0-.06-.57-1.08-2.31-.53-.91-.03-2.75.73-2.9.3-.06 3.78.19 2.43-.52-3.06-1.11-1.92-2.73-1.81-2.98.66-1.63 1.59-2.21 3.33-1.95 2.91.44 9.42 2.42 9.42 2.42.69.08.44 1.55.53 1.8.41 1.11-.14 2.43-1.16 3.2-.09.07-.34 1.45-1.28 3.34-.49.98-1.94 1.14-1.97 2.19-.09 3.78-1.58 3.88-1.56 3.97-.07.09-.61 1.91-1.16 3.06-.56 1.18-1.57 2.04-1.66 2.08-.98-.56-1.95-1.33-2.92-2.48-.38-.45-2.75-1.7-3.14-2.39-.13-.27.01-1.84.2-2.08.08-.08.8-1.04-.09-2.15z"/><path fill="#151841" d="M49.91 16l-34 3.5v60.64l34 19.86 34-19.86V19.5l-34-3.5zm0 3l30.96 3.19V59.2c-.4.17-3.91-.05-5.23-.75-.14-.15-.3-1.12-.32-2.01-1.28-7.58-7.18-8.77-7.18-8.77-.23-3.2-1.01-7.39-3.24-11.32-2.7-4.76-8.11-8.12-13.79-8.55-.25-.02-10.42-.58-15.76 8.55-2.31 3.96-3.04 8.17-3.26 11.37 0 0-6.26 2.16-7.05 8.72-.01.89-.18 1.85-.32 2.01-3.1 1.71-5.36.73-5.78.45V22.19L49.91 19zm9.78 20.31c-1.25-2.2-3.56-4.02-6.03-4.93-1.09-.4-4.95-1.02-7.4.13-2.28 1.07-4.5 2.7-5.68 4.8-2.14 3.76-2.53 7.99-2.54 10.54-.23.05-3.92 1.18-4.97 1.52-.03-.57-.04-1.29-.03-2.11 0 0 .25-8.4 3.19-12.42 3.26-4.46 7.51-7.53 12.82-8.03.29-.03 1.76-.03 2-.02 5.36.41 10.17 3.74 13 8.04 2.63 3.99 3.4 11.71 3.16 14.49-1.05-.34-4.71-1.45-4.97-1.5-.02-2.54-.42-6.75-2.55-10.51zm1.54 10.33l-1.05-.17c.25-.41.67-.67 1.02-.82.02.35.03.68.03.99zm-22.16-1.03c.36.15.85.41 1.13.86-.37.05-.76.11-1.16.18 0-.32.01-.67.03-1.04zM18.95 60.04c.54.26 3.33 1.21 6.24-.71.67-.44.84-1.96.85-2.82.92-6.01 5.9-7.64 6-7.69-.04 1.09-.01 2.03.03 2.74-.54.04-1.47.1-2.25.44-.25.11-.37.4-.26.66.08.19.59.29.66.26.71-.31 1.12-.34 1.67-.37 9.61-2.73 10.5-2.26 10.51-2.26.63-.21 2.01 2.15 1.75 2.86-.06.16-.33.38-.74.64-.46-2.08-2.15-2.58-2.23-2.6-.27-.07-.54.08-.61.35s.08.54.35.62c.06.02 1.36.41 1.58 2.15-1.35.71-3.29 1.54-4.98 2.16-.26.1-.37.37-.27.63.09.26.67.29.67.29.37-.13 4.88-1.7 6.62-1.7.4 0 .58.06.64.09.22.22.33 1.68.07 2.3-.06.15-.2.31-.39.48 0-.19.01-.89-.47-1.74-.14-.24-1.01-.49-.86.51 0 .01.63 1.1.15 1.98-.01.02-2.47 1.27-3.53 1.66-.26.09-.39.38-.3.63s.37.4.63.31c.02-.01 2.91-1.11 4.09-1.11.33 0 .46.05.5.07.29.15.83 2.1-.55 3.01-1.14.75-2.71 1.35-2.73 1.36-.2.15-.33.64-.21.86.12.22.36.16.6.07.03-.01 1.55-.53 2.31-1.03.44-.12.72-.01.8.06.19.24.32 1.4.19 1.67-.39.69-.96.99-1.57 1.31-.47.25-.96.51-1.34.96-.97 1.15-1.99 1.89-2.96 2.45-.56.32-3.99 2.26-6.79 2.41h-.01c-.14 0-.28.06-.38.17-.22.25-4.92 5.66-3.24 10.27l-10.24-5.98V60.04zm26.68 13.43l-4.12 2.84c-.39-.62-1.12-1.88-1.87-3.6 1.18-.63 3.95-3.15 4.08-3.25.71 1.9 1.5 3.34 1.91 4.01zM30.79 85.36c-2.86-3.63 1.43-9.36 2.26-10.37 2.57.06 5.58-1.77 5.7-1.83 1.09 2.47 2.49 4.55 2.49 4.55L47 73.74s-1.44-2.17-2.41-4.79c.62-.33 1.29-.74 1.77-1.59.33-.59.17-2.39-.37-2.89-.11-.1-.23-.19-.37-.25.47-.5.77-1.02.87-1.56.16-.81-.14-2.25-.96-2.68-.19-.1-.43-.16-.72-.18.68-.44 1.23-.94 1.38-1.44.15-.49.48-2.96-.57-3.48-.39-.19-.97-.24-1.71-.17.58-.4 1.01-.82 1.16-1.22.41-1.13-1.13-3.59-2.29-4.11-.13-.06-.29-.09-.51-.09-.25 0-.61.02-1.04.06v-.03c-.42-1.09-1.53-1.57-2.1-1.75.22-2.3.82-5.15 2.3-7.76 1.63-2.88 5.26-5.05 8.44-5.05h.5c3.18 0 6.81 2.17 8.44 5.05 1.49 2.62 2.08 5.49 2.3 7.8-.59.2-1.6.68-1.99 1.72v.03c-.43-.04-.8-.11-1.04-.06-2.09.43-3.2 3.07-2.79 4.2.15.41.58.82 1.16 1.22-.73-.07-1.32-.02-1.71.17-1.04.51-.71 2.98-.57 3.48.15.5.7 1 1.38 1.44-.29.02-.53.08-.72.18-.82.43-1.11 1.87-.96 2.68.1.54.4 1.07.87 1.56-.13.06-.26.15-.37.25-.54.5-.7 2.3-.37 2.89.54.95 1.6 1.53 2.28 1.89.06.17-2.04 4.06-2.05 4.08l-.28.41 5.76 3.97s1.34-1.98 2.39-4.31c1.26.94 4.72 1.71 5.22 1.59.81.99 4.74 6.12 2.53 9.89L49.91 96.53 30.79 85.36zM57.1 69.85c1.38 1.6 2.84 2.46 4.12 3.11-.71 1.59-1.4 2.77-1.77 3.35l-4.12-2.84c.38-.63 1.1-1.92 1.77-3.62zm14.2 14.18c1.29-4.52-3.15-9.63-3.36-9.87a.5.5 0 0 0-.38-.17h-.01c-.41 0-3.29-.43-6.79-2.41-.98-.56-1.99-1.3-2.96-2.45-.21-.25-1.16-.86-1.34-.96-.61-.32-1.18-.62-1.57-1.31-.13-.27 0-1.43.19-1.67.08-.07.36-.18.8-.06.76.5 2.28 1.02 2.31 1.03.23.09.47.15.59-.07s0-.39-.19-.55c-.03-.02-1.47-1.06-2.28-1.33-.6-.41-1.31-1.03-1.45-1.75-.1-.53.15-1.45.44-1.6.04-.02.18-.07.5-.07 1.18 0 4.08 1.11 4.09 1.11.26.08.54-.05.63-.31s-.04-.54-.3-.63c-1.06-.39-2.45-.99-3.51-1.6l-.02-.06c-.48-.88.14-1.97.15-1.98.14-.24.07-.54-.17-.69a.506.506 0 0 0-.69.17c-.02.04-.47 1.56-.47 1.74-.98-.56-.54-2.56-.32-2.78.05-.02.24-.09.64-.09 1.74 0 6.25 1.57 6.62 1.7 0 0 .57-.03.67-.29.09-.26-.01-.54-.27-.63-1.69-.62-3.63-1.45-4.98-2.16.22-1.74 1.53-2.14 1.58-2.15.26-.08.42-.35.35-.62s-.34-.42-.61-.35c-.08.02-1.77.53-2.23 2.6-.42-.26-.69-.48-.74-.64-.22-.61.77-2.03 1.43-2.63.18-.16.68-.27.91-.27 1.23.02 11.72 2.71 11.78 2.71a.5.5 0 0 0 .2-.96c-.8-.34-1.77-.4-2.3-.44l-.04-.53c.02-.64.03-1.4 0-2.26l.41.18c3.83 1.72 5.42 5.06 5.71 7.56.01.86.14 2.45.85 2.82 1.46.78 5.25 1.07 5.7.92v18.18l-9.57 5.62zm-3.64-24.49c0 .07-.02 1.84-1.54 2.71-.08.04-1.38-.12-.5-.94.85-.79 1.04-1.72 1.04-1.77 0-.27.22-.5.5-.5.04 0 .5.26.5.5zm2.08-5.85c.37 1.57.21 3.04-1.24 3.94-.75.47-1.03-.51-.61-.79 1.06-.72 1.31-1.69.9-2.8a.51.51 0 0 1 .25-.62c.03-.01.58-.23.7.27zm-6.77 15.32c0 .06-.02 1.53-1.33 2.28-.08.04-.16.07-.25.07l-.17-.04c-.11-.04-.2-.1-.27-.21a.494.494 0 0 1 .19-.68c.81-.46.83-1.38.83-1.42 0-.28.22-.5.5-.5l.08.02c.24.04.42.23.42.48zm2.15-4.21c0 .07-.71 3.7-2.27 2.33-.16-.14.03-.44.23-.55 1.01-.58 1.04-1.73 1.04-1.77 0-.28.22-.5.5-.5.06-.01.5.27.5.49z"/></svg>