<svg xmlns="http://www.w3.org/2000/svg" width="100" height="100" viewBox="0 0 100 100"><path fill="#4751A2" d="M50 16.92v82.16l31.67-19.5.58-55.75v-3.16z"/><path fill="#F15A29" d="M50 17.73l-.64-.07-31.9 3.29V78.9l31.9 18.63.64-.37zm-.27 20.38l-.04-.01c-.58 0-1.16.74-1.93.74-1.16.19-2.62-.65-3.39-1.3-.68 1.12-1.84 2.32-1.84 2.32-3.39-1.3-6.1-5.86-8.81-8.28-5.65-5.92-8.81-5.21-8.81-5.21-2.81 3.54-1.07 10.33-.2 14.52.49 2.79 1.16 5.67 1.75 8.47.29 1.2.87 2.32 1.64 3.63 1.06 2.05 1.25 4.28 2.13 6.33l.68 2.61c.29 1.39 4.26 9.12 6.77 10.05 2.14.74 5.62 1.03 7.07 2.42 0 0 2.37 1.97 4.97 2.49V38.11z"/><path fill="#EFA75B" d="M50 48.79c-.63-2.3-1.64-5.16-2.46-4.18-.29.84-.09 1.21-.2 2.05 0 .46-.09 3.63-.48 3.08-.2-.93-1.25-2.8-1.84-2.51-1.07.93-.2 2.23-.48 3.54-.2 1.3-.68 1.58-1.36.38-.39-.56-1.07-2.8-1.84-2.89-1.36-.19-.97 1.86-.97 2.51-.68 0-1.45-.19-2.23-.09-.97.19-1.64.74-2.04 1.68-.09.19 0 7.17 6.4 7.27 1.07 0 1.84-.09 2.71-.46.59-.19 1.07-.65 1.55-.28l3.24.21V48.79z"/><path fill="#fff" d="M38.25 53.91s4.07-.38 5.13.19c2.13 1.03 2.42 3.35 2.42 3.07 0 0-1.25.46-1.64.46-.68.09-1.55.19-2.04.19-3.28-.38-3.87-3.91-3.87-3.91z"/><path fill="#151841" d="M43.5 53.71c-.48-.19-1.25-.28-2.61-.28s-2.62.09-2.71.09h-.39v.38s.77 3.82 4.26 4.19c.09 0 1.64 0 2.23-.1.29-.09 1.84-.46 1.84-.46s-.01-2.89-2.62-3.82zm.57 3.45c-.48.19-1.45.19-1.84.19-1.27-.09-2.23-.74-2.91-1.86-.3-.46-.5-.93-.59-1.3.49 0 1.27-.1 2.23-.19.24 0 .45.01.64.02-.09.74-.26 2.65.52 2.51.72-.13.9-1.57.95-2.29l.12.05c1.36.65 1.93 1.95 2.13 2.51-.48.17-1.05.36-1.25.36z"/><path fill="#EFA75B" d="M33.24 59.77c.59 1.49 1.64 2.61 3.09 3.35.97.56 1.84-.93.87-1.49-.97-.56-1.84-1.3-2.23-2.32-.37-1.03-2.12-.56-1.73.46z"/><path fill="#fff" d="M29.76 52.42c1.64-1.49 2.61-4.74 3-7.35-.09.38 2.81.46 4.45-1.3 1.16-1.21.48-2.15-.2-3.63-1.84-3.82-4.93-6.8-7.94-9.59-.77-.74-1.55-2.61-2.91-2.15-1.07.38-.97 3.44-.77 4.38 1.17 8.01 4.37 19.64 4.37 19.64z"/><path fill="#F1662A" d="M31.3 36.96c-.59-.38-1.07.46-.59.93 1.54 1.08 3.42 3.28 3.65 5.33-1-1.99-3.28-3.2-5.49-3.75-.68-.19-.97.84-.29 1.03 2.23.56 4.65 1.86 5.13 4.19.11.4.56.45.84.28.28.17.68.12.8-.28.79-2.89-1.72-6.14-4.05-7.73z"/><path fill="#151841" d="M36.63 38.55c-1.64-2.8-3.97-5.12-6.29-7.35l-2.52-2.8c-.48-.46-1.45-.65-2.04-.09-1.25 1.12-.97 3.54-.77 5.03.39 2.89.97 5.68 1.64 8.47.77 3.63 1.64 7.17 2.61 10.71 0 .19.2.28.29.28.09.09.29 0 .48-.09 1.84-1.77 2.61-4.47 3-6.98 1.16.19 3.09-.65 3.58-.93 2.83-1.6 1.28-4.2.02-6.25zm-.67 5.77c-.48.28-1.07.46-1.64.56-.2 0-1.07 0-1.07.09-.09-.38-.77-.46-.87 0-.39 2.23-.97 4.74-2.42 6.51-1.64-6.05-3.09-12.29-4.07-18.44-.2-1.03-.29-5.58 1.64-3.63l1.84 2.15c.87.84 1.75 1.77 2.61 2.61 1.84 1.86 3.39 4 4.55 6.33.29.56.59 1.03.68 1.58.48.94-.48 1.77-1.25 2.24z"/><path fill="#EFA75B" d="M50 65.07c-1.44-.38-6.25-1.63-7.81-1.47-.87.09-2.13.56-2.42 1.21-.48.93.09 2.15.59 3.16.59 1.12 1.93 2.8 3.29 3.63.59.38 1.16.56 1.75.56 2.72.05 4-.83 4.6-1.6v-5.49z"/><path fill="#151841" d="M50 70.04c-.5.58-1.45 1.22-3.28 1.37-.3 0-.39.19-.39.38s.2.38.39.38c1.53-.12 2.56-.58 3.28-1.11v-1.02z"/><path fill="#F47741" d="M50 64.88v-8.79c-1.34.65-2.15 3.31-2.15 3.31-.3 1.49-1.36 2.83-1.07 4.32v.33s1.22.72 3.22.83zm0 0v-8.79c1.34.65 2.15 3.31 2.15 3.31.3 1.49 1.36 2.83 1.07 4.32v.33s-1.22.72-3.22.83z"/><path fill="#CF4A27" d="M50 64.2c-1.1-.16-2.91-.35-3.05.04 0 0 .38.84.56 1.13.39.18 1.46-.19 1.75.09.5.36.68 2.23.59 2.32-.03.03.04.11.15.21V64.2z"/><path fill="#151841" d="M50 67.76l-.05-.04v-.38c0-.1-.09-1.68-.68-2.15-.29-.28-.68-.19-1.16-.19h-.59c-.09 0-.39-.36-.48-.74-.09-.19-.29-.28-.48-.19-.2.09-.29.28-.2.46.09.28.38.93.77 1.12.2.18.57.09.97.09h.68c.2.28.39 1.58.39 1.96-.07.07.38.62.83.98v-.92z"/><path fill="#EFA75B" d="M49.73 90.54c-.72-1.41-.64-2.89-.79-4.51 0-.38-.59-.74-.87-.38-1.08 1.36-2.74 2.1-4.29 2.88-.1-1.54-.39-2.97-.07-4.56.09-.46-.39-.74-.77-.56-1.67.64-3.42.8-5.11 1.37.31-3.97 2.98-7.48 6.17-9.84.77-.56.29-1.49-.29-1.03-3.77 2.7-6.68 6.8-6.77 11.46 0 .46.48.65.77.46 1.55-.71 3.33-.82 5-1.35-.15 1.61.13 3.14.13 4.79 0 .38.48.65.77.46 1.52-.77 3.17-1.48 4.47-2.6.14 1.59.22 2.98 1.09 4.4.09.19.22.4.43.62h.01l.1.06.03.02v-1.69z"/><path fill="#151841" d="M27.13 27.13c.97.28 1.84.93 2.61 1.58 1.36 1.03 2.52 2.23 3.77 3.35 2.91 2.51 5.91 8.01 9.2 8.57.77-.65 1.36-1.39 1.93-2.23.87.56 1.75 1.03 2.81 1.12.59.09 1.07-.09 1.55-.38.3-.16.52-.25.71-.29v-.96c-.51 0-.94.29-1.28.46-1.16.74-2.71-.28-3.58-.93-.29-.19-.68-.19-.87.09-.48.74-.87 1.3-1.45 1.96-2.61-1.3-4.45-3.73-6.2-5.86-1.64-1.86-3.49-3.54-5.33-5.12-.87-.74-1.84-1.49-3-1.96-1.07-.46-1.84-.38-2.91-.38-.87 0-1.25 1.3-1.55 1.96-.48 1.21-.68 2.7-.68 4 0 2.8.59 5.58 1.16 8.38.39 1.68.59 3.44.97 5.12.39 1.86.59 3.82 1.36 5.58.77 1.77 1.75 3.35 2.32 5.21.39 1.3.87 2.61 1.16 3.91.39 1.39.77 2.7 1.36 3.91 1.25 2.51 2.71 5.12 4.65 7.17l.33.28c-1.67 4.95-5.27 9.01-5.94 14.26-.09.65.64 2 1.07 0 .12-.93.34-1.82.63-2.69l1.25-2.99c1.31-2.66 2.95-5.19 3.93-7.94 1.81.93 4.14.89 5.99 1.78 2.02 1.43 4.2 2.86 6.62 3.39v-1.27c-1.35-.29-2.66-1.05-3.71-1.73-.39-.19-1.55-1.12-1.75-1.21-.77-.56-1.45-1.03-2.23-1.58-.39-.28-.77.09-.77.56-.77-.19-1.45-.28-2.13-.46-2.04-.46-3.09-1.96-4.26-3.63-1.84-2.7-3.09-5.5-3.97-8.66-.29-1.03-.68-2.05-.97-3.16-.39-1.58-.87-2.89-1.75-4.28-.97-1.58-1.25-3.26-1.64-5.03-.39-1.68-.77-3.44-1.07-5.21-.48-2.61-1.07-5.12-1.36-7.82-.2-2.32-.2-4.93 1.16-6.98.61.02 1.18-.07 1.86.11zM50 16l-34 3.5v60.64L50 100l34-19.86V19.5L50 16zm30.96 62.44L69.1 85.37c-.81-5.03-4.25-9-5.87-13.81.11-.09.23-.17.33-.28 1.93-2.05 3.39-4.66 4.65-7.17.59-1.22.97-2.52 1.36-3.91.29-1.3.77-2.61 1.16-3.91.57-1.86 1.55-3.44 2.32-5.21.77-1.77.97-3.73 1.36-5.58.38-1.68.57-3.44.97-5.12.57-2.8 1.16-5.58 1.16-8.38 0-1.31-.2-2.8-.68-4-.3-.65-.68-1.96-1.55-1.96-1.07 0-1.84-.09-2.91.38-1.16.46-2.13 1.22-3 1.96-1.84 1.58-3.68 3.26-5.33 5.12-1.75 2.13-3.59 4.56-6.2 5.86-.58-.65-.97-1.22-1.45-1.96-.2-.28-.59-.28-.87-.09-.86.65-2.42 1.67-3.58.93-.34-.17-.77-.46-1.28-.46V76.1s.13 17.04.25 20.38l-30.9-18.04V22.19L50 19l30.96 3.19v56.25z"/><path fill="#A9A09F" d="M74.26 30.5l-.18-1.15c-.25-.78-1.54-1.13-3.23.24L59.92 40c-.48.45-.49 1.21.04 1.6l.16.08-1.77 1.77c-.98-1.39-2.38-2.9-4.03-3.32-.71-.18-3.93-.77-3.93-.49l-.06 23.87c0 .27.24.49.55.49.1 0 .8-.36.8-.36.47-.28.84.1.84.1.18.07.3.22.33.39l.11.75c.04.28-.03.57-.21.8l-1.01 1.34c-.07.09-.16.15-.28.19l-.83.25c-.25.08-.32.61-.28.84l.13 1.13c.04.24.83.2.89.19 1.23-.27 1.71-.52 1.9-1.16l.11-.64c.12-.14.3-.21.5-.19l-.01.54c0 .13.09.24.23.28.59.17 1.23.19 1.68.17.35-.01.64-.26.68-.58.07-.53.13-1.28.16-1.35l.28-.72c.07-.17.18-.33.33-.46l1.5-1.27c-.76-.16-1.58-.5-2.44-1.14a.399.399 0 0 1-.08-.56c.13-.18.38-.21.56-.08 1.29.96 2.6 1.28 3.89.96.35-.23.88-.6 1.44-1.09 1.74-1.53 2.96-3.48 3.51-5.61 0 0 .61-2.09-.39-3.5l2.54-3.03c.82.53 1.74.77 2.47.03 1.38-1.38 3.24-11.26 4.01-15.64.21-1.35.23-2.72.02-4.08zM60.07 47.61l-.17-1.28 2.88-2.8c.02.1.02.2-.01.26-.11.22-.22.76-.27 1.39l-2.43 2.43zm1.52-5.42l.05.02c.4.21.68.48.87.75l-.36.35-.73-.95.17-.17zm-.6.6l.73.94-.38.37-.72-.93.37-.38zm-.81.81l.72.93-.37.36-.71-.92.36-.37zm-.79.79l.71.91-.41.4c-.13-.26-.32-.62-.57-1.04l.27-.27zm4.77 7.87c-.14-.09-.28-.16-.46-.18l-1.57-.15c-2.09-.64-2.02-1.43-2.02-1.43.04-.39.44-.65.86-.57.36.07.71.13.73.1l.14-.25c.12-.22.04-.49-.19-.63l-.71-.43 1.67-1.67c.14.52.38.91.79.99 1.29.24 2.18.08 2.18.08s.43.58 1.05 1.19l-2.47 2.95zm7.62-11.07l-.16.03c-.21 0-.4-.13-.47-.34-1.45-4.3-4.34-4.76-4.37-4.77-.27-.04-.46-.29-.42-.57s.29-.46.57-.42c.14.02 3.53.56 5.18 5.44.07.26-.07.54-.33.63zm.61-3.32l-.17.03c-.2 0-.4-.13-.47-.33-.95-2.61-3.26-3.24-3.35-3.27a.498.498 0 0 1-.36-.61c.07-.27.34-.43.61-.36.12.03 2.9.77 4.04 3.89.09.26-.04.55-.3.65zm.82-2.73a.495.495 0 0 1-.68-.18c-1.18-2.02-2.53-2.17-2.59-2.18a.5.5 0 0 1 .08-1c.08.01 1.91.16 3.37 2.67.15.25.06.55-.18.69z"/><path fill="#151841" d="M52.69 55.48c-.19 0-.36-.13-.39-.33-.41-2.18.4-2.91 1.34-3.75l.12-.11c1.03-.92 2.2-1.34 3.21-1.15l1.88.38c.22.04.36.25.31.47-.04.22-.25.36-.47.31l-1.88-.37c-.77-.14-1.68.2-2.52.96l-.13.11c-.91.82-1.42 1.27-1.09 3a.4.4 0 0 1-.32.47l-.06.01zm4.07-2.68h.61c.67.25 3.07.86 3.07.86 3.17-.02 3.13 1.84 2.86 2.66-.29.87-.67 1.83-.88 2.25-.25.48-.55.88-1.13 1.1l-.07.03c-.52.24-2.14.76-3.55-.24-.53-.38-1.33.58-1.47.16l-1.26-4.32c-.11-.75 1.08-2.5 1.82-2.5zm-2.01 10.38c-.16 0-.31-.1-.37-.25-.2-.5-.78-1.11-.99-1.31a.407.407 0 0 1-.02-.57c.15-.16.4-.17.56-.02.04.03.88.83 1.19 1.6.08.21-.02.44-.23.52l-.14.03z"/><path fill="#fff" d="M54.35 69.01s-.49 2.36-.11 2.56c.38.21.88-.48.88-.48l.56-1.92-1.33-.16zm-1.32.62s.16.82-.15 1.14l-.51.23-.02-.95.68-.42zm-1.05.48s.1.9-.29 1.12c-.39.22-.51.02-.51.02l-.02-.94.82-.2zm-1.25.21s.18.78.08 1.05c-.08.21-.7.1-.7.1v-1.15h.62zm2.36 2.11s.03-.36-.07-.76c-.2-.79-.65.1-.65.1l.02.78.7-.12zm-1.03.23s.16-.8-.23-1.02c-.39-.22-.6.38-.6.38l-.03.78.86-.14zm-1.23.28s.08-.68-.02-.95c-.08-.21-.7-.1-.7-.1v1.15l.72-.1z"/><path fill="#151841" d="M49.68 16.92h.64v82.17h-.64zm9.99 47.43c-1.02 0-2.17-.33-3.4-1.25a.399.399 0 0 1-.08-.56c.13-.18.38-.21.56-.08 1.37 1.02 2.76 1.33 4.12.91 1.83-.56 3.05-2.24 3.2-2.61a.402.402 0 0 1 .79-.04c.11.5-1.12 1.95-2.31 2.72-.76.49-1.74.91-2.88.91z"/><circle cx="58.79" cy="56.5" r="1.7" fill="#F15A29"/><path fill="#A9A09F" d="M62 80.4c-.01-.21-.93-2.06-1.87-2.56l-.11-.03-.81-.92c-.11-.29-.28-.58-.5-.84-.41-.48-1.28-.66-1.62-.13-.21.32.18.47.15 1.38-.01.21-.1.49-.26.75-.36.59-1.24 1.11-2.01 1.41l-.44-4.25.49-.08.28-.07c2.19-.78 3.34-1.5 3.92-3.69.04-.17.06-.35.05-.52l.66-6.35-1.5 1.13c-.53.24-.88.76-.9 1.35l-.05 1.46c-.11 2.01-1.52 3.84-3.41 4.54-.12.04-.24.07-.37.09l-2.67.44c-.94.12-.75.72-.75 1.67v.21c.04.56 1.57.38 2.25.19l.44 4.15c-.51.1-1.02.37-1.12.77l-.6 4.73c-.08.26.01 7.34.93 8.35.71.78 2.6-.67 3.42-1.08 6.08-3.08 6.48-3.7 7.53-5.67 1.06-2.01.25-4.31-1.13-6.43zm-3.46-13.67c.25-.01.46.17.48.42l.01.5c-.3-.09-.63-.1-.9-.09l-.01-.35c-.01-.25.17-.46.42-.48zm-.42 1.33c.32-.01.67.02.9.13-.01.2-.03.42-.06.66-.29-.14-.62-.19-.89-.2.03-.21.04-.41.05-.59zM58 69.15c.29.01.64.07.87.24-.03.18-.07.37-.12.56-.29-.16-.61-.22-.87-.25.05-.18.09-.37.12-.55zm-.26 1.05c.27.02.61.1.86.27-.06.19-.13.38-.22.56a3.23 3.23 0 0 0-.85-.3c.08-.17.15-.35.21-.53zm-.61 1.28l.17-.27c.22.04.59.12.87.28-.09.17-.19.34-.31.51-.09.13-.23.19-.37.19-.09 0-.18-.03-.26-.08a.45.45 0 0 1-.1-.63zm1.26 9.21c.33-.16.73-.01.88.32.15.33.01.73-.32.88l-4.49 2.08a.671.671 0 0 1-.88-.32.666.666 0 0 1 .32-.88l4.49-2.08zm-4.45-5.38l.45 4.34c-.25.06-.47.08-.6.05l-.21-.03-.44-4.22.8-.14zm5.57 12.04l-5.04 2.42c-.09.04-.19.07-.29.07-.25 0-.48-.14-.6-.38a.654.654 0 0 1 .31-.88l5.04-2.42c.33-.16.73-.02.88.31.17.33.03.72-.3.88zm.68-3.17l-5.9 2.66a.66.66 0 0 1-.27.06c-.25 0-.49-.15-.6-.39a.67.67 0 0 1 .33-.88l5.9-2.66c.34-.15.73 0 .88.33a.68.68 0 0 1-.34.88z"/></svg>