<svg xmlns="http://www.w3.org/2000/svg" width="100" height="100" viewBox="0 0 100 100"><path fill="#F15B2B" d="M49.99 17.7l-.63-.07-31.63 3.26v57.46l31.63 18.47.63-.37z"/><path fill="#4852A3" d="M49.81 96.45l.63.37 31.63-18.47V20.89l-31.63-3.26-.63.07z"/><path fill="#F15B2B" d="M49.73 37.91l-.04-.01c-.58 0-1.15.73-1.91.73-1.15.19-2.6-.64-3.36-1.29-.67 1.11-1.82 2.3-1.82 2.3-3.36-1.29-6.05-5.81-8.73-8.21-5.6-5.87-8.73-5.17-8.73-5.17-2.79 3.51-1.06 10.24-.2 14.4.49 2.77 1.15 5.62 1.74 8.4.29 1.19.86 2.3 1.63 3.6 1.05 2.03 1.24 4.24 2.11 6.28l.67 2.59c.29 1.38 4.22 9.04 6.71 9.96 2.12.73 5.57 1.02 7.01 2.4 0 0 2.35 1.95 4.93 2.47l-.01-38.45z"/><path fill="#EFA75B" d="M49.99 48.5c-.62-2.28-1.63-5.12-2.44-4.14-.29.83-.09 1.2-.2 2.03 0 .46-.09 3.6-.48 3.05-.2-.92-1.24-2.78-1.82-2.49-1.06.92-.2 2.21-.48 3.51-.2 1.29-.67 1.57-1.35.38-.39-.56-1.06-2.78-1.82-2.87-1.35-.19-.96 1.84-.96 2.49-.67 0-1.44-.19-2.21-.09-.96.19-1.63.73-2.02 1.67-.09.19 0 7.11 6.35 7.21 1.06 0 1.82-.09 2.69-.46.58-.19 1.06-.64 1.54-.28l3.21.21V48.5z"/><path fill="#fff" d="M38.34 53.57s4.04-.38 5.09.19c2.11 1.02 2.4 3.32 2.4 3.04 0 0-1.24.46-1.63.46-.67.09-1.54.19-2.02.19-3.25-.38-3.84-3.88-3.84-3.88z"/><path fill="#131941" d="M43.55 53.37c-.48-.19-1.24-.28-2.59-.28-1.35 0-2.6.09-2.69.09h-.39v.38s.76 3.79 4.22 4.15c.09 0 1.63 0 2.21-.1.29-.09 1.82-.46 1.82-.46s.01-2.85-2.58-3.78zm.56 3.43c-.48.19-1.44.19-1.82.19-1.26-.09-2.21-.73-2.89-1.84-.3-.46-.5-.92-.58-1.29.49 0 1.26-.1 2.21-.19.24 0 .45.01.63.02-.09.73-.26 2.63.52 2.49.71-.13.89-1.56.94-2.27l.12.05c1.35.64 1.91 1.93 2.11 2.49-.47.16-1.04.35-1.24.35z"/><path fill="#EFA75B" d="M33.38 59.38c.58 1.48 1.63 2.59 3.06 3.32.96.56 1.82-.92.86-1.48-.96-.56-1.82-1.29-2.21-2.3-.36-1.01-2.1-.55-1.71.46z"/><path fill="#fff" d="M29.93 52.1c1.63-1.48 2.59-4.7 2.97-7.29-.09.38 2.79.46 4.41-1.29 1.15-1.2.48-2.13-.2-3.6-1.82-3.79-4.89-6.74-7.87-9.51-.76-.73-1.54-2.59-2.89-2.13-1.06.38-.96 3.41-.76 4.34 1.16 7.95 4.34 19.48 4.34 19.48z"/><path fill="#F1682B" d="M31.45 36.77c-.58-.38-1.06.46-.58.92 1.53 1.07 3.39 3.25 3.62 5.28-.99-1.97-3.25-3.17-5.44-3.72-.67-.19-.96.83-.29 1.02 2.21.56 4.61 1.84 5.09 4.15.11.4.56.45.83.28.28.17.67.12.79-.28.78-2.85-1.71-6.08-4.02-7.65z"/><path fill="#131941" d="M36.74 38.34c-1.63-2.78-3.94-5.08-6.24-7.29L28 28.28c-.48-.46-1.44-.64-2.02-.09-1.24 1.11-.96 3.51-.76 4.99.39 2.87.96 5.63 1.63 8.4.76 3.6 1.63 7.11 2.59 10.62 0 .19.2.28.29.28.09.09.29 0 .48-.09 1.82-1.75 2.59-4.43 2.97-6.92 1.15.19 3.06-.64 3.55-.92 2.79-1.6 1.26-4.17.01-6.21zm-.67 5.72c-.48.28-1.06.46-1.63.56-.2 0-1.06 0-1.06.09-.09-.38-.76-.46-.86 0-.39 2.21-.96 4.7-2.4 6.45-1.63-6-3.06-12.18-4.04-18.28-.2-1.02-.29-5.53 1.63-3.6l1.82 2.13c.86.83 1.74 1.75 2.59 2.59 1.82 1.84 3.36 3.97 4.51 6.28.29.56.58 1.02.67 1.57.49.93-.46 1.75-1.23 2.21z"/><path fill="#EFA75B" d="M49.99 64.64c-1.43-.38-6.2-1.62-7.74-1.46-.86.09-2.11.56-2.4 1.2-.48.92.09 2.13.58 3.13.58 1.11 1.91 2.78 3.26 3.6.58.38 1.15.56 1.74.56 2.7.05 3.97-.82 4.56-1.59v-5.44z"/><path fill="#131941" d="M49.99 69.56c-.5.58-1.44 1.21-3.25 1.36-.3 0-.39.19-.39.38s.2.38.39.38c1.52-.12 2.54-.58 3.25-1.1v-1.02z"/><path fill="#F47841" d="M49.99 64.45v-8.71c-1.33.64-2.13 3.28-2.13 3.28-.3 1.48-1.35 2.81-1.06 4.28v.33s1.21.71 3.19.82z"/><path fill="#CF4B27" d="M49.99 63.77c-1.09-.16-2.89-.35-3.02.04 0 0 .38.83.56 1.12.39.18 1.45-.19 1.74.09.5.36.67 2.21.58 2.3-.03.03.04.11.15.21l-.01-3.76z"/><path fill="#131941" d="M49.99 67.3l-.05-.04v-.38c0-.1-.09-1.67-.67-2.13-.29-.28-.67-.19-1.15-.19h-.58c-.09 0-.39-.36-.48-.73-.09-.19-.29-.28-.48-.19-.2.09-.29.28-.2.46.09.28.38.92.76 1.11.2.18.57.09.96.09h.67c.2.28.39 1.57.39 1.94-.07.07.38.61.82.97l.01-.91z"/><path fill="#EFA75B" d="M49.73 89.89c-.71-1.4-.63-2.87-.78-4.47 0-.38-.58-.73-.86-.38-1.07 1.35-2.72 2.08-4.25 2.86-.1-1.53-.39-2.94-.07-4.52.09-.46-.39-.73-.76-.56-1.66.63-3.39.79-5.07 1.36.31-3.94 2.95-7.42 6.12-9.76.76-.56.29-1.48-.29-1.02-3.74 2.68-6.62 6.74-6.71 11.36 0 .46.48.64.76.46 1.54-.7 3.3-.81 4.96-1.34-.15 1.6.13 3.11.13 4.75 0 .38.48.64.76.46 1.51-.76 3.14-1.47 4.43-2.58.14 1.58.22 2.95 1.08 4.36.09.19.22.4.43.61h.01l.1.06.03.02-.02-1.67z"/><path fill="#131941" d="M27.32 27.02c.96.28 1.82.92 2.59 1.57 1.35 1.02 2.5 2.21 3.74 3.32 2.89 2.49 5.86 7.94 9.12 8.5.76-.64 1.35-1.38 1.91-2.21.86.56 1.74 1.02 2.79 1.11.58.09 1.06-.09 1.54-.38.3-.16.52-.25.7-.29v-.95c-.51 0-.93.29-1.27.46-1.15.73-2.69-.28-3.55-.92-.29-.19-.67-.19-.86.09-.48.73-.86 1.29-1.44 1.94-2.59-1.29-4.41-3.7-6.15-5.81-1.63-1.84-3.46-3.51-5.28-5.08-.86-.73-1.82-1.48-2.97-1.94-1.06-.46-1.82-.38-2.89-.38-.86 0-1.24 1.29-1.54 1.94-.48 1.2-.67 2.68-.67 3.97 0 2.78.58 5.53 1.15 8.31.39 1.67.58 3.41.96 5.08.39 1.84.58 3.79 1.35 5.53.76 1.75 1.74 3.32 2.3 5.17.39 1.29.86 2.59 1.15 3.88.39 1.38.76 2.68 1.35 3.88 1.24 2.49 2.69 5.08 4.61 7.11l.33.28c-1.66 4.91-5.22 8.93-5.89 14.14-.09.64.63 1.98 1.06 0 .12-.92.34-1.8.62-2.67l1.24-2.96c1.3-2.64 2.92-5.15 3.9-7.87 1.79.92 4.1.88 5.94 1.76 2 1.42 4.16 2.84 6.56 3.36V75.7c-1.34-.29-2.64-1.04-3.68-1.72-.39-.19-1.54-1.11-1.74-1.2-.76-.56-1.44-1.02-2.21-1.57-.39-.28-.76.09-.76.56-.76-.19-1.44-.28-2.11-.46-2.02-.46-3.06-1.94-4.22-3.6-1.82-2.68-3.06-5.45-3.94-8.59-.29-1.02-.67-2.03-.96-3.13-.39-1.57-.86-2.87-1.74-4.24-.96-1.57-1.24-3.23-1.63-4.99-.39-1.67-.76-3.41-1.06-5.17-.48-2.59-1.06-5.08-1.35-7.75-.2-2.3-.2-4.89 1.15-6.92.61.01 1.17-.08 1.85.1z"/><path fill="#CE4227" d="M75.88 26.05c-.31-1.27-1.71-2.22-2.88-1.64-5.38 2.62-11.24 9.73-14.34 12.58l-.03.04c1.05.25 1.76.46 1.76.46l3.41 4.26 1.75 7.33 3.15 4.17-.85 4.6-3.06 3.32-1.02-.02-3.22-.07c-2.38 1.47-3.47 2.41-4.31 5.08v3.17l-2.67 1.63-3.24-.68V49.63l-.26.4-.09 26.28.09.09.13 21.29 19.54-11.25.96-2.16-3.56-10.56-2.14-.8-2.75-2.7 2.47-3.56 3.06-2.03L71.8 50.2l2.56-6.06c.4-1.56 2.31-9.29 2.32-10.9 0-3.09-.4-5.59-.8-7.19z"/><path fill="#A89F9F" d="M65.55 49.07l-1.75-7.33-3.41-4.26s-5.14-1.52-7.95-1.18l-2.13.04-.19 33.78-.02 3.36 4.3.18 2.99-2.04-1.19-2.3.02-.01v-3.17c.84-2.67 1.93-3.62 4.31-5.08l3.22.07 1.02.02 3.06-3.32.85-4.6-3.13-4.16z"/><path fill="#fff" d="M63.14 51.7l-6.5.98c-.65.12-1.18.49-1.44 1.01l-.46 1.97s1.52.3 2.3.3c3.74 0 5.36-1.05 6.13-1.87.33-.96-.03-2.39-.03-2.39z"/><path fill="#CE4227" d="M50.04 36.55l2.94-.25 4.91.51-.08 1.45-2.14 6.14-1.23.44-4.4.16"/><path fill="#fff" d="M49.84 88.87c.19.02.38.04.57.04a4.58 4.58 0 1 0 0-9.16c-.19 0-.38.02-.57.04"/><path fill="#131941" d="M76.31 25.94c-.2-.83-.81-1.56-1.57-1.92-.65-.3-1.33-.31-1.94-.01-4.05 1.97-8.37 6.46-11.53 9.73l-.2.2-.04.01c-.14.05-.22.17-.26.3-.87.9-1.63 1.68-2.28 2.29-1.78-.41-4.33-.88-6.05-.67l-2.13.04c-.19 0-.35.13-.41.31a.373.373 0 0 0 .19.71l1.94-.17.47-.01c.24-.03.5-.04.77-.04l3.32.35.91.18-.06.96-1.97 5.69c-.13.16-.3.29-.48.38l-.28.1-.27.05-4.04.07c-.13 0-.25.07-.33.16h-.03c-.21.01-.37.18-.36.39.01.2.17.36.37.36h.01l1.06-.04 3.33-.05c.56-.01 1.08-.23 1.47-.6l.02-.02c.24-.24.44-.53.55-.86l2.19-6.3c.68.17 1.21.31 1.44.38l3.1 3.88c-.53.82-1.52 3.3-.54 9.57l-2.52.38-.14-.01c-.81.12-1.58.21-2.31.3-2.38.28-4.27.5-5.57 1.59-.19.16-.21.44-.05.63.09.1.21.16.34.16.1 0 .2-.03.28-.1.57-.48 1.32-.76 2.21-.96l-.13.2-.03.09-.46 1.97c-.03.12-.01.24.06.34.07.1.17.17.29.2.06.01 1.57.31 2.38.31 3.04 0 5.21-.68 6.45-2.01l.09-.16c.38-1.07.02-2.56-.01-2.64l.03-.22c-.76-4.74-.36-7.2.04-8.38l1.47 6.17.08.16 3.03 4.01-.79 4.28-2.84 3.08s-3.53-.18-3.63-.18c-6.71-.23-7.43 6.72-7.44 6.79-.02.24.15.47.39.5h.05c.21 0 .4-.16.44-.38l.01-.08c.04-.38.62-4.65 4.41-5.71-1.45 1.06-2.33 2.16-3.02 4.35l-.02.13v2.77l-2.32 1.55-3.24-.77a.44.44 0 0 0-.53.33c-.05.22.08.44.29.51.06.07.14.13.24.15l3.22.68h.02l.09.01.03-.01.17-.05.03-.01 2.24-1.37.79 1.53-2.54 1.74-4.15-.17a.444.444 0 1 0-.04.89l4.3.18h.02c.09 0 .18-.03.25-.08 0 0 3.09-2.02 3.24-2.21l1.3-5.07 5.93-5.29.1-.13 2.95-3.2a.46.46 0 0 0 .11-.22l.85-4.6a.483.483 0 0 0-.08-.35l-3.09-4.1-1.72-7.24-.01-.02-.05-.1-.02-.05-3.41-4.26a.482.482 0 0 0-.22-.15c-.05-.02-.43-.13-1.01-.28.6-.58 1.29-1.29 2.04-2.06 1.24-.27 3.07 1.08 3.7 1.66l.04.03.02.02.18.1c.22.14.7.46 1.22 1.04 1.11 1.21 1.72 2.83 1.74 4.58l.03 3.22.01.14c.48 3.39 2.12 5.01 2.63 5.45l-3.72 13.4-2.93 1.94-.12.12-2.46 3.56-.74.69.01.01-5.99 5.19-4.95-.03a.446.446 0 0 0 0 .89l5.12.03c.11 0 .21-.04.29-.11l6.7-5.8 2.1 2.06-2.84 1.42a.52.52 0 0 0-.19.17l-2.41 4.16-6.36 1.12c-.67-.33-1.42-.52-2.22-.52-.21 0-.42.02-.63.04l.12.99a4.084 4.084 0 0 1 4.59 4.05 4.084 4.084 0 0 1-4.59 4.05l-.12.99c.21.03.42.04.63.04.42 0 .82-.06 1.21-.15.18.76.41 1.5.73 2.22 0 0 .34.89.41.93L53.8 95c.07.17.95-.29.85-.51l-1.02-2.27-.3-.69-.17-.4c-.31-.7-.53-1.42-.69-2.15.14-.06.28-.13.42-.21.7.08 1.68.16 2.7.16 1.06 0 2.16-.09 2.98-.37.13-.05.42-.15 4.37-4.56l.64 5.67c.03.23.22.39.44.39h.05c.24-.03.42-.25.39-.49l-.78-6.89c-.01-.1-.06-.2-.13-.27l-3.64-3.54.21-.36 3.95 3.33c.08.07.18.1.29.1l.12-.02 4.53-1.26 1.27 3.76c.08.23.33.36.56.28.23-.08.36-.33.28-.56l-3.56-10.56a.459.459 0 0 0-.24-.27l-1.78-.78c-.07-.03-.15-.04-.23-.03l-2.43-2.38 2.17-3.13 2.99-1.98c.09-.06.15-.15.18-.25l4-14.38 2.58-6.12c.02-.09 2.33-9.14 2.33-11.01 0-3.47-.51-6.07-.82-7.31zM62.77 53.87c-1.08 1.1-3.01 1.66-5.74 1.66-.47 0-1.26-.12-1.76-.21l.34-1.46c.2-.37.61-.64 1.08-.73l6.09-.92c.09.46.14 1.15-.01 1.66zM58.5 66.18c-.07.06-.11.14-.13.22l-1.06 4.11-.65-1.25v-3.05c.8-2.49 1.84-3.38 3.99-4.7l3.01.07-5.16 4.6zm2.31 14.81l.71.76v-.07l1.14 1.1c-1.92 2.15-4.08 4.5-4.49 4.84-1.09.35-2.79.33-4.12.24.88-.91 1.43-2.16 1.43-3.53 0-1.54-.69-2.92-1.78-3.85l5.57-.98 1.54 1.49zm4.54-7.57l1.41.62 1.95 5.78L64.44 81l-3.89-3.28 1.55-2.67 3.25-1.63zm8.6-29.45l-2.54 6.02c-.59-.62-1.67-2.06-2.04-4.63l-.03-3.22c-.02-1.97-.72-3.81-1.97-5.17-.4-.44-.78-.75-1.07-.96 1.28-1.47 1.87-2.77 2.39-3.94.38-.85.71-1.59 1.26-2.27 1.7-2.11 4.03-3.3 4.05-3.31.22-.11.31-.38.2-.6a.449.449 0 0 0-.6-.2c-.1.05-2.52 1.28-4.35 3.55-.62.77-.99 1.59-1.38 2.46-.5 1.12-1.07 2.38-2.31 3.78-.56-.46-1.87-1.42-3.18-1.64 3.06-3.17 7.09-7.24 10.8-9.04.46-.22.89-.11 1.17.02.53.25.95.76 1.09 1.33.3 1.2.79 3.72.78 7.09.01 1.51-1.81 8.9-2.27 10.73zM50.58 86.19l-.26-.05-.19-.03-.13.92.13.03c.16.03.36.06.43.06 1.45 0 2.62-1.26 2.62-2.8 0-1.54-1.18-2.8-2.62-2.8-.1 0-.55.04-.65.05l.12.93.52-.04c.93 0 1.69.84 1.69 1.87s-.75 1.86-1.66 1.86z"/><path fill="#131941" d="M49.68 16.9h.63v81.47h-.63z"/><path fill="#151841" d="M50 16l-34 3.5v60.64L50 100l34-19.86V19.5L50 16zm30.96 62.44l-10.41 6.08-.05.31-20.57 11.66-30.89-18.05V22.19L50 19l30.96 3.19v56.25z"/></svg>