<svg xmlns="http://www.w3.org/2000/svg" viewBox="0 0 64.9 21.8" enable-background="new 0 0 64.9 21.8"><path fill="gold" d="M64.9 1.8C57.1 0 49.1-.3 41.5 1.1c-2.6.5-5.2 1.5-7.7 1.7-4.1.3-6.8-1-10.1-1.7C16.1-.4 7.3-.4 0 1.5c0 1.4.1 2.8.4 3.9.1.5.7.6.9.8 1.4 1.2 1.5 4.7 2.1 6.8.8 3.2 2.1 5.9 4.5 7.4 4.5 2.7 16 1.3 19.2-5.3.3-.9 2.3-6.6 3.7-8.1.5-.6 2.7-.5 3.3 0 1.8 2.9 2.1 6.2 4 8.7 3.7 4.8 8.5 6.2 12.4 6.2 2.5 0 5.6-.4 7.3-1.5 3.9-2.5 3.1-8.8 5.1-13.3.2-.6 1.3-.3 1.5-.9.3-1.4.6-3.4.5-4.4zM3.3 4.1c-.8 0-1.5-.3-1.5-.6s.7-.6 1.5-.6 1.5.3 1.5.6c0 .4-.6.6-1.5.6zm21.5 10.8c-1.1 1.8-5.2 4.7-8.3 5-3.4.3-8.3-.2-9.8-2.1-1.4-1.7-2.1-6.9-2.1-9.6.1-5.5 3.2-5.9 8.8-6.6 4.3-.5 12 .9 13.2 3 1.7 3-1.8 10.3-1.8 10.3zm32.2 4c-1.8 1.2-5.6 1.4-8.5 1.1-2.9-.2-4.5-1.5-6.2-2.6L40 14.8c-.8-1.3-1.3-2.6-1.7-4.3-.5-2-1.2-5 .4-6.4C39.9 3 44.2 2 47 1.8c5.6-.4 12.2.2 13 4.6.7 4-.7 11-3 12.5zm4.8-14c-.8 0-1.5-.3-1.5-.6s.7-.6 1.5-.6 1.5.3 1.5.6c.1.3-.6.6-1.5.6z"/></svg>