<svg xmlns="http://www.w3.org/2000/svg" viewBox="0 0 74.1 70.5" enable-background="new 0 0 74.1 70.5"><path fill="#0D0F0F" d="M72.6 56.6c-2.8-2.6-6.1-.2-6.1-.2 2.6-1.3 5.9.8 5.1 3.9-.7 2.4-3.9 2.3-3.9 2.3-7.3-.2-12.9-7.2-18-11.2-2.8-2.2-6.8-1.6-9.5.5-2.7-2.2-6.7-2.7-9.5-.5-5.1 4.1-10.8 11.1-18 11.2 0 0-3.2.1-3.9-2.3-.9-3 2.5-5.2 5.1-3.9 0 0-3.3-2.3-6.1.2-2.8 2.6-2.6 13.8 9.7 14 4.7.1 17.2-1.5 22.8-7.4 5.6 5.9 18.1 7.4 22.8 7.4 12.1-.2 12.3-11.5 9.5-14zM24.8 31.4c8.6 0 15.7-7 15.7-15.7S33.5 0 24.8 0C16.7 0 10 6.2 9.2 14.1H0v3.2h9.2c.8 7.9 7.5 14.1 15.6 14.1zm0-27.8c6.7 0 12.1 5.4 12.1 12.1 0 6.7-5.4 12.1-12.1 12.1-6.7 0-12.1-5.4-12.1-12.1.1-6.7 5.5-12.1 12.1-12.1zM17.822 19.473l-.778-.778 11.03-11.03.78.777zM19.19 22.194l11.03-11.03.78.777-11.032 11.032z"/></svg>