<svg version="1" xmlns="http://www.w3.org/2000/svg" width="216.221" height="56.105" viewBox="0 0 216.221 56.105"><g fill="#32425c"><path fill-rule="evenodd" clip-rule="evenodd" d="M51.256 28.22c-.463-1.508-1.716-2.975-1.867-4.367-.095-.872.338-1.998.338-2.855 0-7.024-1.938-15.867-4.073-20.998h-1.527c-4.172 2.302-7.713 4.977-11.37 8.4-.94.877-2.292 2.946-3.226 3.19-.83.218-2.483-.33-3.394-.335l-.086.002-.086-.002c-.91.005-2.564.554-3.394.336-.934-.244-2.287-2.313-3.225-3.19C15.69 4.976 12.147 2.3 7.977 0H6.45C4.313 5.13 2.375 13.973 2.375 20.998c0 .857.434 1.984.34 2.855-.15 1.393-1.405 2.86-1.868 4.367C.3 30.002.336 31.6 0 33.427v.84c.924 13.924 9.888 19.89 22.91 21.838h6.282c13.024-1.95 21.99-7.914 22.913-21.838v-.84c-.337-1.828-.302-3.425-.85-5.207zm-25.204 22.9c-1.047.392-3.71 2.708-5.178.617 1.576-.938 3.515.29 4.413-1.344.43-.78.713-4.462.17-5.71-.29-.668-2.252-1.47-2.716-2.018-.75-.885-1.736-2.33-1.357-3.36.348-.943 3.036-1.157 4.413-1.175h.512c1.376.018 4.064.23 4.413 1.176.38 1.03-.605 2.475-1.357 3.36-.464.546-2.425 1.35-2.716 2.016-.543 1.25-.26 4.93.17 5.71.897 1.635 2.836.406 4.413 1.345-1.468 2.09-4.13-.226-5.178-.616zm21.515-21.837h-1.402c-.21 2.11-1.19 4.14-2.776 5.618-1.643 1.537-3.785 2.373-6.023 2.373-4.88 0-8.846-3.957-8.846-8.836v-.01c0-.95-1.104-2.075-2.468-2.075s-2.468 1.125-2.468 2.075v.01c0 4.88-3.967 8.836-8.846 8.836-2.248 0-4.38-.845-6.022-2.372-1.585-1.478-2.565-3.495-2.776-5.61H4.537v-1.727H5.94c.21-2.113 1.19-4.13 2.775-5.62 1.642-1.526 3.784-2.362 6.022-2.362 3.986 0 7.424 2.632 8.5 6.436.672-.672 1.777-1.124 2.814-1.124s2.143.45 2.815 1.124c1.076-3.804 4.514-6.435 8.5-6.435 2.248 0 4.38.846 6.022 2.374 1.585 1.48 2.564 3.496 2.776 5.61v-.01h1.402v1.73z"/><path d="M85.444 48.976c0-.415.002-.896.006-1.44l.012-1.766c.004-.63.01-1.296.02-1.997l.023-2.148c.008-.733.018-1.475.03-2.224.013-.748.023-1.48.03-2.197.033-2.54.074-5.22.123-8.036-.122-.53-.212-1.042-.27-1.54-.056-.496-.084-.984-.084-1.465 0-.488.132-.938.397-1.35.265-.41.654-.77 1.167-1.075.513-.305 1.146-.543 1.9-.714.752-.17 1.617-.256 2.594-.256.4 0 .762.042 1.088.128s.604.222.836.41c.232.187.41.43.538.726.126.298.19.66.19 1.082 0 .415-.013.924-.038 1.527-.025.602-.057 1.332-.098 2.19-.04.86-.093 1.86-.16 3-.064 1.14-.133 2.454-.207 3.944.203 0 .408.013.616.036.208.025.385.062.53.11.417-1.14.778-2.178 1.088-3.114s.576-1.814.8-2.632c.224-.818.407-1.594.55-2.327s.25-1.46.323-2.186c.065-.528.23-.986.495-1.373s.62-.708 1.062-.965.97-.448 1.576-.574c.606-.126 1.276-.19 2.01-.19.675 0 1.247.1 1.715.294s.85.458 1.142.788.507.717.64 1.16c.135.444.207.914.215 1.41-.195.58-.423 1.196-.684 1.852-.26.655-.545 1.33-.855 2.02s-.635 1.392-.977 2.096c-.342.704-.692 1.393-1.05 2.064-.358.67-.72 1.316-1.08 1.936-.363.62-.716 1.184-1.058 1.697l2.443 3.505c.237.334.467.604.69.812.225.208.47.37.74.488s.576.204.922.257c.346.053.764.1 1.252.14.13.253.23.53.3.83.068.302.103.59.103.868 0 .766-.14 1.488-.416 2.168s-.665 1.273-1.165 1.783-1.105.912-1.814 1.21-1.493.444-2.356.444c-.513 0-.97-.047-1.374-.14s-.767-.24-1.096-.44-.635-.462-.916-.787c-.28-.326-.552-.72-.812-1.186l-3.75-6.803-.256 5.753c-.024.546-.155 1.03-.39 1.453-.237.424-.565.78-.984 1.07-.42.288-.922.505-1.508.65-.586.147-1.242.222-1.966.222-.708 0-1.303-.092-1.783-.275s-.82-.49-1.016-.92zM124.062 49.526c-.334.073-.714.136-1.142.188-.428.054-.914.096-1.46.13s-1.16.054-1.845.065c-.684.012-1.453.02-2.308.02-.7 0-1.303-.014-1.808-.038s-.986-.06-1.442-.11c-.545-.064-1.095-.205-1.648-.42s-1.055-.483-1.502-.8c-.448-.318-.81-.677-1.087-1.076-.276-.398-.415-.818-.415-1.258 0-.627.006-1.338.02-2.13.01-.795.025-1.63.04-2.505s.036-1.767.056-2.675c.02-.907.043-1.79.068-2.644.05-2.004.106-4.07.17-6.205-.146-.35-.266-.68-.36-.983-.093-.306-.166-.606-.22-.904-.052-.297-.086-.6-.103-.91-.017-.31-.024-.643-.024-1 0-.555.088-1.04.264-1.454.175-.417.488-.76.94-1.033.452-.272 1.066-.478 1.844-.617.778-.138 1.765-.208 2.962-.208.456 0 1.023.002 1.703.006l2.187.012c.777.004 1.573.01 2.388.02.814.007 1.586.017 2.314.03s1.38.026 1.954.042c.574.017 1.012.033 1.313.05.145.12.273.296.384.524.11.228.197.476.262.745.065.27.114.543.146.82.033.276.05.528.05.756 0 .708-.078 1.313-.233 1.813-.155.5-.384.91-.685 1.232-.3.322-.678.566-1.13.733-.45.167-.97.274-1.557.323-.276.025-.657.05-1.142.074-.484.023-1.02.045-1.612.06-.59.018-1.208.032-1.85.044s-1.26.018-1.845.018l-.147 4.654c.357-.033.773-.06 1.246-.08.47-.02.96-.04 1.47-.055.51-.016 1.018-.028 1.527-.037.508-.008.977-.014 1.404-.018s.8-.006 1.112-.006h.64c.18.228.317.504.41.83.094.326.14.664.14 1.014 0 .627-.062 1.18-.187 1.66-.127.48-.307.89-.538 1.23s-.51.597-.837.78c-.325.184-.688.295-1.086.336-.172.024-.43.047-.776.066-.347.02-.755.037-1.228.05-.473.012-.997.024-1.575.036s-1.185.027-1.82.043l-.06 2.81 8.707.048c.203.277.346.56.428.844.08.283.12.6.12.95 0 .628-.06 1.18-.187 1.656-.126.476-.304.883-.53 1.22s-.502.61-.82.813-.67.343-1.06.416zM129.875 48.976c0-.415.002-.896.006-1.44.005-.546.01-1.134.013-1.766.005-.63.01-1.296.02-1.997l.023-2.148c.008-.733.02-1.475.03-2.224.013-.748.022-1.48.03-2.197.033-2.54.074-5.22.123-8.036-.123-.53-.213-1.042-.27-1.54-.058-.496-.085-.984-.085-1.465 0-.488.132-.938.396-1.35.265-.41.654-.77 1.167-1.075.514-.305 1.146-.543 1.9-.714s1.617-.256 2.594-.256c.4 0 .763.042 1.09.128.324.085.603.222.835.41.232.187.41.43.537.726.127.298.19.66.19 1.082 0 .415-.013.924-.037 1.527s-.058 1.332-.1 2.19c-.04.86-.092 1.86-.157 3-.064 1.14-.135 2.454-.207 3.944.204 0 .41.013.617.036.208.025.385.062.53.11.416-1.14.778-2.178 1.088-3.114s.576-1.814.8-2.632c.224-.818.407-1.594.55-2.327s.25-1.46.324-2.186c.063-.528.228-.986.493-1.373s.62-.708 1.062-.965.97-.448 1.576-.574c.606-.126 1.276-.19 2.01-.19.675 0 1.247.1 1.716.294.468.195.85.458 1.142.788s.507.717.642 1.16c.134.444.205.914.213 1.41-.195.58-.423 1.196-.684 1.852-.262.655-.546 1.33-.856 2.02-.31.693-.635 1.392-.977 2.096s-.69 1.393-1.05 2.064c-.358.67-.72 1.316-1.08 1.936-.363.62-.716 1.184-1.058 1.697l2.442 3.505c.235.334.465.604.69.812.223.208.47.37.737.488.27.118.575.204.92.257.348.053.765.1 1.253.14.13.253.23.53.3.83s.104.59.104.868c0 .766-.14 1.488-.416 2.168s-.665 1.273-1.165 1.783-1.105.912-1.814 1.21c-.707.296-1.493.444-2.355.444-.513 0-.972-.047-1.374-.14s-.77-.24-1.1-.44c-.328-.2-.634-.462-.915-.787-.28-.326-.55-.72-.812-1.186l-3.75-6.803-.256 5.753c-.024.546-.155 1.03-.392 1.453-.236.424-.563.78-.982 1.07-.42.288-.922.505-1.508.65-.587.147-1.242.222-1.967.222-.71 0-1.303-.092-1.783-.275s-.814-.49-1.01-.92zM162.692 22.51c1.326 0 2.48.16 3.456.482.978.322 1.787.74 2.43 1.258.644.517 1.124 1.105 1.44 1.765s.478 1.327.478 2.003c0 .798-.108 1.482-.323 2.05-.217.57-.512 1.038-.886 1.4-.374.362-.81.628-1.308.8-.497.17-1.026.256-1.588.256-.35 0-.66-.024-.93-.073-.267-.048-.54-.11-.817-.182-.113-.465-.254-.87-.42-1.215-.168-.347-.388-.658-.66-.936-.273-.276-.617-.526-1.032-.75-.415-.225-.93-.442-1.54-.654-.105.252-.182.533-.23.843-.05.31-.074.614-.074.915 0 .22.016.418.048.594.033.175.112.354.238.537.127.185.314.386.562.605s.588.484 1.02.794.973.68 1.625 1.11l2.356 1.563c.79.513 1.454.993 1.996 1.44.54.448.98.912 1.318 1.393s.58 1.002.727 1.563.222 1.213.222 1.953c0 1.05-.202 2.068-.605 3.053-.402.986-1.006 1.86-1.807 2.627-.803.765-1.81 1.377-3.018 1.838-1.21.46-2.62.69-4.23.69-1.312 0-2.51-.105-3.592-.317-1.082-.212-2.01-.55-2.784-1.014s-1.372-1.065-1.796-1.803c-.423-.736-.635-1.63-.635-2.68 0-.636.094-1.212.28-1.73.19-.517.448-.958.782-1.325.334-.365.727-.648 1.18-.848s.937-.3 1.46-.3c.178 0 .365.013.56.036.196.025.392.066.588.123.488.903.936 1.643 1.343 2.217s.792 1.025 1.154 1.355.714.558 1.056.684c.342.126.692.188 1.05.188.253 0 .468-.033.642-.098.176-.064.32-.15.434-.256.115-.106.197-.23.25-.367.054-.14.08-.28.08-.428 0-.106-.026-.22-.08-.343-.053-.122-.154-.267-.305-.434-.15-.166-.362-.366-.636-.598-.273-.232-.63-.514-1.074-.844-.444-.328-.982-.717-1.613-1.165-.63-.447-1.377-.973-2.24-1.575-.7-.49-1.29-.98-1.77-1.472s-.868-1.006-1.16-1.54-.505-1.094-.636-1.685c-.13-.59-.194-1.223-.194-1.898 0-.586.06-1.186.184-1.796.12-.61.305-1.2.55-1.766s.55-1.093.92-1.582c.372-.49.806-.908 1.302-1.258.35-.578.71-1.07 1.08-1.478.37-.407.797-.74 1.277-.995.48-.256 1.033-.443 1.66-.56.623-.11 1.37-.17 2.232-.17zM193.358 41.38c0 .78-.072 1.544-.22 2.29s-.382 1.444-.708 2.1-.75 1.257-1.276 1.802c-.524.545-1.17 1.016-1.93 1.41-.76.396-1.646.703-2.656.922-1.01.22-2.166.33-3.468.33-.8 0-1.57-.026-2.314-.08-.746-.053-1.438-.12-2.076-.207-.64-.086-1.216-.18-1.73-.287-.513-.105-.94-.215-1.282-.33-.545-.203-.98-.435-1.3-.695-.32-.26-.563-.606-.728-1.038-.162-.432-.266-.976-.31-1.63-.046-.656-.068-1.484-.068-2.486 0-.626.006-1.298.02-2.015.01-.716.024-1.446.042-2.19.016-.746.034-1.49.055-2.235.02-.746.042-1.46.065-2.145.05-1.596.106-3.203.172-4.824-.155-.528-.253-1.04-.293-1.537-.04-.497-.062-.985-.062-1.466 0-.488.085-.924.257-1.307.17-.383.476-.714.915-.996.44-.28 1.04-.513 1.807-.696.766-.184 1.742-.315 2.932-.397.504-.203.993-.38 1.465-.53.472-.15.95-.277 1.435-.38.484-.1.99-.176 1.515-.225.524-.05 1.085-.073 1.68-.073 1.367 0 2.527.184 3.48.55.952.366 1.728.86 2.326 1.478.6.62 1.032 1.335 1.3 2.15.27.814.404 1.673.404 2.577 0 .66-.074 1.29-.22 1.894-.147.603-.35 1.193-.605 1.772-.257.578-.56 1.15-.91 1.716s-.725 1.143-1.123 1.73c.65.35 1.19.7 1.617 1.056.427.354.77.73 1.025 1.13.257.398.44.832.556 1.3.114.465.184.988.208 1.565zM180.9 44.126c.23.09.48.175.753.257.27.08.55.154.83.22s.562.118.842.16c.28.04.54.06.776.06.262 0 .514-.016.758-.05s.458-.12.642-.262c.183-.142.33-.362.44-.66s.164-.706.164-1.227c0-.325-.047-.63-.14-.916s-.313-.55-.654-.795-.845-.466-1.51-.666c-.662-.2-1.563-.377-2.704-.532l-.195 4.41zm.404-9.256c.17 0 .417.003.74.007.32.004.662.012 1.024.023.362.013.715.023 1.057.03s.62.022.83.038c.09-.36.163-.676.22-.953.058-.277.103-.53.135-.764.032-.23.057-.452.073-.664.016-.212.024-.436.024-.672 0-.423-.06-.804-.177-1.142-.12-.338-.32-.63-.605-.88-.285-.248-.665-.454-1.14-.616-.478-.163-1.07-.28-1.778-.354l-.403 5.95zM211.813 22.62c.69 0 1.296.078 1.812.233.518.155.955.37 1.313.647s.644.61.854.996c.212.387.354.812.428 1.276l-6.754 14.204-.05 6.253c0 .496-.097.982-.292 1.458-.195.477-.533.898-1.014 1.265s-1.12.66-1.924.886c-.802.223-1.81.335-3.022.335-.586 0-1.07-.05-1.453-.146-.382-.1-.686-.282-.91-.55s-.377-.643-.463-1.12-.13-1.087-.13-1.837c0-.31.003-.633.008-.97.004-.34.01-.683.02-1.032l.022-1.038c.01-.342.018-.668.025-.977.023-.732.05-1.457.072-2.174l-4.3-11.21c-.26-.188-.487-.404-.683-.648-.194-.244-.354-.5-.48-.77-.127-.268-.223-.535-.288-.8-.064-.263-.098-.51-.098-.738 0-.382.094-.737.28-1.062s.44-.623.752-.892.68-.505 1.1-.708c.42-.203.86-.374 1.325-.513.465-.14.937-.245 1.417-.318s.94-.11 1.38-.11c.48 0 .904.05 1.27.152.368.102.695.263.984.482.29.22.545.51.764.867.22.358.416.794.587 1.307l2.2 6.4 2.148-6.45c.163-.503.33-.927.507-1.27.175-.34.38-.618.617-.83.235-.21.513-.364.83-.458.32-.095.703-.14 1.15-.14zM118.055 7.227h-3.234v8.993h-1.36V7.227h-3.23V6.155h7.825v1.072zM127.145 16.22h-1.36v-4.446h-4.888v4.445h-1.362V6.154h1.362v4.548h4.887V6.155h1.36V16.22zM135.606 11.553h-4.61v3.595h5.315v1.07h-6.677V6.156h6.602v1.072h-5.24v3.255h4.61v1.07zM148.718 14.885c-.24.37-.655.708-1.247 1.016-.592.31-1.358.464-2.298.464-1.203 0-2.197-.385-2.982-1.154-.786-.77-1.18-1.765-1.18-2.986V10.15c0-1.22.367-2.217 1.1-2.986s1.678-1.154 2.834-1.154c1.152 0 2.06.283 2.717.85.66.567.997 1.297 1.01 2.19l-.013.043h-1.3c-.042-.585-.265-1.067-.667-1.445-.404-.378-.985-.567-1.746-.567-.77 0-1.39.29-1.86.864-.47.576-.704 1.306-.704 2.19v2.085c0 .892.264 1.628.79 2.206.523.578 1.192.867 2.003.867.57 0 1.04-.076 1.403-.228s.624-.324.78-.517v-2.283h-2.205v-1.072h3.568v3.692zM152.437 11.857v4.362h-1.362V6.16h3.644c1.1 0 1.94.245 2.52.733.582.488.872 1.198.872 2.13 0 .515-.135.964-.404 1.347-.27.382-.662.687-1.178.912.553.18.95.47 1.19.875s.364.9.364 1.496v.947c0 .313.035.595.104.843.07.25.19.452.36.608v.166h-1.404c-.18-.157-.295-.387-.345-.69-.052-.305-.077-.618-.077-.94v-.92c0-.543-.16-.98-.478-1.313-.317-.332-.744-.498-1.278-.498h-2.53zm0-1.07h2.143c.77 0 1.323-.147 1.663-.44.338-.29.508-.736.508-1.334 0-.566-.164-1.004-.493-1.314-.33-.31-.842-.466-1.538-.466h-2.282v3.552zM166.428 11.553h-4.61v3.595h5.315v1.07h-6.678V6.156h6.602v1.072h-5.24v3.255h4.61v1.07zM174.184 13.627h-4.217l-.954 2.592h-1.39l3.892-10.065h1.17l3.827 10.064h-1.39l-.938-2.593zm-3.795-1.14h3.386l-1.66-4.583h-.04l-1.687 4.583zM184.71 7.227h-3.235v8.993h-1.36V7.227h-3.23V6.155h7.825v1.072z"/></g></svg>