<?xml version="1.0" encoding="UTF-8"?>
<!-- Generator: Adobe Illustrator 16.0.0, SVG Export Plug-In . SVG Version: 6.00 Build 0)  -->
<!DOCTYPE svg PUBLIC "-//W3C//DTD SVG 1.1//EN" "http://www.w3.org/Graphics/SVG/1.1/DTD/svg11.dtd">
<svg version="1.1" id="Layer_1" xmlns="http://www.w3.org/2000/svg" xmlns:xlink="http://www.w3.org/1999/xlink" x="0px" y="0px" width="310px" height="310px" viewBox="0 0 612 612" enable-background="new 0 0 612 612" xml:space="preserve">
<g>
	<path fill="#161616" d="M50,34.035c-27.5,0-50,22.5-50,50v447c0,27.5,22.5,50,50,50h512c27.5,0,50-22.5,50-50v-447   c0-27.5-22.5-50-50-50H50z M471.686,507.909c-13.75,23.816-47.5,43.302-75,43.302H215.313c-27.5,0-61.25-19.485-75-43.302   L49.628,350.836c-13.75-23.815-13.75-62.787,0-86.603l90.686-157.073c13.75-23.815,47.5-43.301,75-43.301h181.372   c27.5,0,61.25,19.486,75,43.301l90.686,157.073c13.75,23.815,13.75,62.787,0,86.603L471.686,507.909z"/>
	<path fill="none" stroke="#000000" stroke-miterlimit="10" d="M50,34.035c-27.5,0-50,22.5-50,50v447c0,27.5,22.5,50,50,50h512   c27.5,0,50-22.5,50-50v-447c0-27.5-22.5-50-50-50H50z M471.686,507.909c-13.75,23.816-47.5,43.302-75,43.302H215.313   c-27.5,0-61.25-19.485-75-43.302L49.628,350.836c-13.75-23.815-13.75-62.787,0-86.603l90.686-157.073   c13.75-23.815,47.5-43.301,75-43.301h181.372c27.5,0,61.25,19.486,75,43.301l90.686,157.073c13.75,23.815,13.75,62.787,0,86.603   L471.686,507.909z"/>
</g>
<g>
	<rect y="34.035" fill="#161616" width="47" height="61.965"/>
	<rect y="515" fill="#161616" width="47" height="66.035"/>
	<rect x="567" y="497" fill="#161616" width="45" height="84.035"/>
	<rect x="572" y="34.035" fill="#161616" width="40" height="78.965"/>
</g>
<rect x="-11" y="-23" fill="#161616" width="652" height="76"/>
<rect x="-12" y="556" fill="#161616" width="644" height="69"/>
</svg>